<svg xmlns="http://www.w3.org/2000/svg" width="400" height="400"><path fill="#E03A3E" d="M201 362.995c-89.326 0-161.998-72.67-161.998-161.992 0-89.326 72.672-161.999 161.998-161.999s161.998 72.672 161.998 161.999c0 89.322-72.672 161.992-161.998 161.992z"/><path fill="#FFF" d="M201 355.52c-85.204 0-154.523-69.316-154.523-154.517C46.477 115.799 115.796 46.48 201 46.48c85.203 0 154.522 69.319 154.522 154.523 0 85.2-69.319 154.517-154.522 154.517z"/><path fill="#E03A3E" d="M201 348.044c-81.082 0-147.047-65.963-147.047-147.041 0-81.083 65.965-147.047 147.047-147.047s147.046 65.964 147.046 147.047c0 81.078-65.964 147.041-147.046 147.041z"/><g fill="#FFF"><path d="M148.51 76.736l2.803 6.32-7.953-4.036-4.407 1.954 9.205 20.758 4.408-1.956-5.846-13.181 8.111 4.394 2.884 6.504 4.41-1.955-9.206-20.758zM244.74 73.263l-3.388 10.654-5.367-1.707 3.386-10.654-4.597-1.46-3.388 10.654-1.581-.503.728 3.189-2.638 8.298 4.597 1.462 2.186-6.874 5.368 1.706-2.187 6.875 4.595 1.46 6.881-21.64zM320.102 136.515a4602.24 4602.24 0 0 0-2.598-4.064c-2.697 1.504-6.904 3.386-10.496 4.339l-1.957-3.062 9.418-6.023-2.598-4.063-9.419 6.022-.896-1.399-1.479 2.92-7.335 4.69 2.596 4.062 6.079-3.885 2.267 3.544c-1.737 2.046-4.286 4.253-5.311 5.087l2.6 4.063c1.459-1.189 6.039-5.176 6.906-7.499 3.877-.71 9.077-2.978 12.223-4.732zM326.103 149.909c-3.909-.006-6.439 1.074-9.714 2.352L315.06 164.1c-.942.285-1.907.53-2.892.723l-1.943-4.979 1.668-.65-1.757-4.493-5.682 2.219 5.078 13.011c4.115-.074 6.802-1.216 10.275-2.573h.001l1.123-11.761a26.41 26.41 0 0 1 2.516-.623l1.959 5.022-1.663.649 1.752 4.493 5.685-2.22c0 .001-4.755-12.18-5.077-13.009zM81.892 136.93l3.689 2.236 2.731-4.506 15.735 9.535 2.5-4.123-15.737-9.535 2.73-4.507-3.688-2.236zM165.237 70.581l.961 4.205 5.135-1.173 4.098 17.94 4.701-1.074-4.098-17.94 5.136-1.172-.96-4.206zM100.9 110.347l-3.242 3.568 16.803 15.272 7.853-8.642-3.193-2.901-4.611 5.071zM98.266 154.689l-10.37-3.742c-3.635-1.275-7.708-1.754-11.925-1.379l-3.313 9.153c2.88 2.87 6.166 5.04 9.62 6.401l-.575 1.587 3.232-.604 8.13 2.952 1.643-4.536-6.742-2.439 1.917-5.298 6.742 2.44 1.641-4.535zm-20.467 2.499l1.141-3.151c2.4.146 4.717.575 6.885 1.288l-1.912 5.281c-2.121-.839-4.176-1.993-6.114-3.418zM263.87 107.676l5.535-9.533c1.903-3.35 3.104-7.271 3.487-11.488-.102-.059-8.04-4.676-8.414-4.895-3.339 2.323-6.061 5.168-8.016 8.323l-1.461-.849.019 3.287-4.355 7.472 4.169 2.426 3.604-6.196 4.868 2.832-3.604 6.197 4.168 2.424zm1.198-20.583l2.896 1.684c-.569 2.338-1.407 4.54-2.496 6.545l-4.854-2.824c1.202-1.936 2.705-3.752 4.454-5.405zM139.709 106.389l-6.698-8.756c-2.37-3.039-5.536-5.645-9.287-7.608l-7.737 5.909c.873 3.972 2.465 7.573 4.633 10.585l-1.341 1.025 3.044 1.239 5.245 6.878 3.833-2.928-4.351-5.697 4.476-3.418 4.352 5.696 3.831-2.925zm-18.566-8.965l2.662-2.034c1.942 1.42 3.659 3.035 5.097 4.806l-4.462 3.408c-1.333-1.852-2.439-3.933-3.297-6.18zM196.126 88.7l-.082-7.168 5.634-.065.08 7.169 4.821-.055-.105-8.648 1.636-2.852-1.687.019c-.148-3.709-1.112-7.526-2.873-11.193l-9.733.11c-1.745 3.859-2.633 7.862-2.628 11.716l.115 11.022 4.822-.055zm5.494-11.546l-5.615.064c.041-2.28.398-4.609 1.052-6.925l3.352-.037c.707 2.3 1.118 4.619 1.211 6.898zM300.228 109.413s-7.326 7.508-7.327 7.507c-1.778 1.879-3.912 3.51-6.314 4.853l-1.441-1.408c1.177-2.456 2.636-4.664 4.335-6.546l7.465-7.651-3.458-3.371-7.374 7.56c-1.86 1.783-4.065 3.323-6.531 4.583l-1.442-1.408c1.283-2.434 2.859-4.606 4.693-6.432-.001-.001 7.321-7.512 7.321-7.512l-3.45-3.367-7.644 7.837c-2.69 2.78-4.814 6.316-6.21 10.339.083.083 5.563 5.429 5.874 5.732a35.152 35.152 0 0 0 1.939-.735 33.45 33.45 0 0 0-.686 1.958l5.874 5.729c3.988-1.496 7.471-3.707 10.186-6.464l7.643-7.837-3.453-3.367zM106.174 261.812c-3.766 1.046-5.911 2.768-8.721 4.879l1.907 11.761a30.477 30.477 0 0 1-2.59 1.475l-3.212-4.271 1.43-1.076-2.898-3.854-4.877 3.667s8.046 10.699 8.393 11.163c3.944-1.179 6.224-3.001 9.205-5.243l.001-.001-2.085-11.63a26.618 26.618 0 0 1 2.255-1.273l3.24 4.307-1.429 1.075 2.899 3.855 4.877-3.668-8.395-11.166zM157.887 305.041l-1.406 4.079 4.981 1.716-5.997 17.398 4.56 1.573 5.996-17.4 4.98 1.717 1.407-4.079zM92.692 231.524c-.209-.983-3.12-14.772-3.12-14.772l-8.997 1.9-.359-1.697-2.524 2.307-10.336 2.183 3.105 14.706c3.634-.723 7.264-2.033 10.725-3.857 3.921.629 6.896.204 11.506-.77zm-6.343-9.162l1.103 5.22c-1.693.238-3.282.333-4.94.239l-.939-4.449 4.776-1.01zm-13.776 2.909l4.777-1.009.901 4.267a40.434 40.434 0 0 1-4.607 1.813l-1.071-5.071zM149.699 305.975l2.146-3.742-13.095-7.51-4.575 7.976-1.56-.894.041 3.544-5.203 9.071 13.096 7.511 2.147-3.743-8.913-5.111 2.428-4.234 5.509 3.159 2.147-3.743-5.51-3.161 2.43-4.234zM291.253 293.108l1.204 1.321-4.017 3.656-9.476-10.412 3.648-3.319c.468.419.949.861 1.437 1.32l3.565-3.244c-1.825-1.719-3.574-3.227-4.833-4.064-.45.411-10.285 9.361-10.285 9.361l15.28 16.793 11.148-10.145-4.105-4.513-3.566 3.246zM231.954 308.893l-4.654 1.267 5.967 21.91 11.265-3.068-1.134-4.164-6.613 1.802zM81.078 263.218l10.011-4.614c3.486-1.644 6.722-4.161 9.461-7.388l-4.066-8.846c-4.066-.021-7.929.74-11.344 2.196l-.707-1.534-1.877 2.698-7.862 3.604 2.015 4.383 6.514-2.995 2.353 5.117-6.514 2.997 2.016 4.382zm12.821-16.148l1.4 3.046c-1.813 1.583-3.765 2.902-5.808 3.915l-2.346-5.101c2.101-.893 4.373-1.513 6.754-1.86zM193.917 313.221l-14.963-2.006-1.222 9.113-1.721-.23 1.329 3.15-1.403 10.471s13.921 1.868 14.896 1.996c.535-3.664.515-7.523-.045-11.396 1.909-3.484 2.504-6.427 3.129-11.098zm-10.757 2.91l5.288.709c-.342 1.673-.785 3.203-1.429 4.733l-4.508-.604.649-4.838zm-1.87 13.954l.649-4.839 4.322.579c.157 1.662.213 3.317.166 4.948l-5.137-.688zM312.528 216.811l-3.259 14.742 8.979 1.983-.374 1.694 3.251-1.06 10.315 2.28 3.245-14.677c-3.608-.842-7.456-1.147-11.361-.915-3.31-2.192-6.195-3.032-10.796-4.047zm1.995 10.962l1.149-5.211c1.64.484 3.126 1.053 4.6 1.822l-.982 4.442-4.767-1.053zm13.747 3.04l-4.768-1.055.942-4.259a40.853 40.853 0 0 1 4.944.252l-1.118 5.062zM219.967 334.726l-1.082-10.97c-.414-3.832-1.733-7.715-3.886-11.358l-9.689.944c-1.35 3.836-1.895 7.735-1.638 11.439l-1.681.165 1.936 2.657.835 8.608 4.799-.469-.698-7.136 5.608-.548.696 7.136 4.8-.468zm-11.06-17.401l3.334-.326c.903 2.23 1.511 4.506 1.8 6.769l-5.589.547c-.156-2.277.001-4.627.455-6.99zM291.515 267.682l-2.886 3.865 18.194 13.585 6.987-9.355-3.458-2.583-4.103 5.494zM250.629 301.652l-4.334 2.116 9.964 20.403 10.492-5.121-1.893-3.878-6.16 3.007zM304.221 245.613l9.557 4.32c2.375 1.03 4.636 2.477 6.718 4.274l-1.462 3.233c-2.725-.374-5.306-1.114-7.646-2.213l-9.562-4.316-1.983 4.394 9.975 4.507c3.534 1.579 7.581 2.366 11.841 2.305l4.08-9.033c-2.771-3.235-6.038-5.753-9.557-7.36l-9.978-4.505-1.983 4.394zM132.062 289.928l-3.585-3.226c-2.2 2.169-5.757 5.101-8.964 6.973l-2.702-2.43 7.479-8.31-3.584-3.228-7.479 8.311-1.234-1.109-.652 3.205-5.825 6.473 3.584 3.226 4.825-5.361 3.128 2.814c-1.128 2.436-3 5.241-3.765 6.315l3.584 3.226c1.092-1.535 4.447-6.596 4.663-9.065 3.55-1.716 7.962-5.286 10.527-7.814z"/></g><path fill="#FFF" d="M301.439 201.003c0 55.476-44.965 100.449-100.439 100.449-55.485 0-100.45-44.974-100.45-100.449 0-55.478 44.965-100.45 100.45-100.45 55.475 0 100.439 44.972 100.439 100.45z"/><g fill="#E03A3E"><path d="M201.05 107.864c-30.756 0-58.037 14.81-75.121 37.696 2.498.718 7.216 2.065 13.018 3.74l-.026.018c9.181 2.703 39.638 11.635 45.331 13.452 16.627 5.335 20.997 7.426 25.683 12.438 4.678 5.007 11.781 10.817 18.729 15.67 6.951 4.844 10.339 10.167 10.339 18.575 0 8.396-6.468 15.493-10.499 17.924 0 0 1.454-4.038-.486-5.81-1.938-1.789-8.067-5.171-23.746-4.042-15.657 1.133-36.663 8.726-50.871 16.315 0 0 6.78-10.662 16.958-15.506 0 0-8.4 0-55.283 20.442 14.398 33.203 47.463 56.43 85.976 56.43 51.729 0 93.667-41.939 93.667-93.671-.002-51.732-41.941-93.671-93.669-93.671zm0 166.668c-20.438 0-38.921-8.399-52.172-21.937 37.824-19.512 61.374-14.479 61.374-10.675 0 3.865-5.814 12.911-5.814 12.911 30.841-4.36 53.302-22.932 53.302-47.958 0-25.052-23.427-37.157-29.403-40.867-6.39-3.98-3.393-9.374-24.386-17.288-12.773-4.81-30.701-9.561-37.72-11.357 10.356-5.634 22.207-8.828 34.819-8.828 40.31 0 72.997 32.69 72.997 73.001 0 40.323-32.688 72.998-72.997 72.998z"/><path d="M200.24 177.155s-5.335.479-10.827-2.267c-5.49-2.746-13.885-8.882-21.155-2.104 0 0 6.137-.794 5.653.811-.487 1.611-1.129 10.981 7.267 14.536 8.391 3.557 18.088.966 19.062-10.976z"/></g></svg>