<svg version="1.1" id="Layer_1" xmlns="http://www.w3.org/2000/svg" x="0" y="0" width="400" height="400" xml:space="preserve"><style>.st0{fill:#fff}.st2{fill:#008248}.st3{fill:none;stroke:#008248;stroke-width:.4839}.st4{fill:#a63732}.st5{fill:none;stroke:#a63732;stroke-width:.4839}.st6{fill:#ba9653}.st7{fill:none;stroke:#ba9653;stroke-width:.4839}.st8{fill:#f9b282}.st9{stroke-linecap:round}.st10,.st11,.st9{fill:none;stroke:#f9b282;stroke-width:.4839}.st11{stroke:#00a55c}.st12{fill:#008348}</style><path class="st0" d="M137 362.3c3.1 3.5 9 8.8 13.3 10.7 4.3 1.9 7.2 2.5 11.1 2.1 3.1-.3 2.5 1 0 1.4s-8.2.4-11.9-1.6-9.7-5.7-13.4-11.1c-.9-1.3 0-2.6.9-1.5"/><path class="st0" d="M359.5 189.2c0-42.9-16.7-83.3-47.1-113.7-26.2-26.2-59.9-42.3-96.3-46.1-.8-.8-1.8-1.6-2.9-2.3-12.9-8.3-23.6-2.1-31.1 1.5-.5.3-1.2.6-1.9.9-14 1.6-27.5 5-40.2 10-1.5-2.2-3.2-4.4-5.2-6.3-7.8-7.8-18.1-12-29.1-12-22.7 0-41.1 18.4-41.1 41.1 0 9.5 3.2 18.5 9.1 25.8C51.5 115.7 38 150.9 38 189.2c0 42.9 16.7 83.3 47.1 113.7 14.8 14.8 32.1 26.4 50.8 34.4-1 8.5.3 14.3 1.9 16.6-2.4 2-3.4 3.2-3.7 5.5-3.7 5.1 5.3 11.6 9.1 14.4 7.7 5.9 11.7 4.9 17.6 4.6 7.4-.3 14.3-8.9 18.3-14.5 8-1.1 9.4.1 9.7 1.1 2.5-.4 6-1 10.7-3 10.7-4.5 7.7-10.1 6.6-11.1-.3-.3-.5-.6-.8-1.1 25.5-1 49.9-7.9 71.7-20.1.8.9 1.6 1.8 2.3 3 2.4 3.5 3.6 14.8 4.1 20.6.5 5.8 1.5 9.8 4.3 19 2.9 9.2 4 2.5 4.1 0s.6-11.4.2-17.9-.5-15.8.7-19.8-1-5-1.6-5.7 0-1-1.6-6.1c-.1-.3-.2-.6-.2-.9 8.2-5.6 15.9-12 23.1-19.2 30.4-30.2 47.1-70.6 47.1-113.5"/><path d="M359.5 189.2c0-42.9-16.7-83.3-47.1-113.7-26.2-26.2-59.9-42.3-96.3-46.1-.8-.8-1.8-1.6-2.9-2.3-12.9-8.3-23.6-2.1-31.1 1.5-.5.3-1.2.6-1.9.9-14 1.6-27.5 5-40.2 10-1.5-2.2-3.2-4.4-5.2-6.3-7.8-7.8-18.1-12-29.1-12-22.7 0-41.1 18.4-41.1 41.1 0 9.5 3.2 18.5 9.1 25.8C51.5 115.7 38 150.9 38 189.2c0 42.9 16.7 83.3 47.1 113.7 14.8 14.8 32.1 26.4 50.8 34.4-1 8.5.3 14.3 1.9 16.6-2.4 2-3.4 3.2-3.7 5.5-3.7 5.1 5.3 11.6 9.1 14.4 7.7 5.9 11.7 4.9 17.6 4.6 7.4-.3 14.3-8.9 18.3-14.5 8-1.1 9.4.1 9.7 1.1 2.5-.4 6-1 10.7-3 10.7-4.5 7.7-10.1 6.6-11.1-.3-.3-.5-.6-.8-1.1 25.5-1 49.9-7.9 71.7-20.1.8.9 1.6 1.8 2.3 3 2.4 3.5 3.6 14.8 4.1 20.6.5 5.8 1.5 9.8 4.3 19 2.9 9.2 4 2.5 4.1 0s.6-11.4.2-17.9-.5-15.8.7-19.8-1-5-1.6-5.7 0-1-1.6-6.1c-.1-.3-.2-.6-.2-.9 8.2-5.6 15.9-12 23.1-19.2 30.4-30.2 47.1-70.6 47.1-113.5z" fill="none" stroke="#fff" stroke-width="1.938"/><path d="M359.5 189.2c0-42.9-16.7-83.3-47.1-113.7-26.2-26.2-59.9-42.3-96.3-46.1-.8-.8-1.8-1.6-2.9-2.3-12.9-8.3-23.6-2.1-31.1 1.5-.5.3-1.2.6-1.9.9-14 1.6-27.5 5-40.2 10-1.5-2.2-3.2-4.4-5.2-6.3-7.8-7.8-18.1-12-29.1-12-22.7 0-41.1 18.4-41.1 41.1 0 9.5 3.2 18.5 9.1 25.8C51.5 115.7 38 150.9 38 189.2c0 42.9 16.7 83.3 47.1 113.7 14.8 14.8 32.1 26.4 50.8 34.4-1 8.5.3 14.3 1.9 16.6-2.4 2-3.4 3.2-3.7 5.5-3.7 5.1 5.3 11.6 9.1 14.4 7.7 5.9 11.7 4.9 17.6 4.6 7.4-.3 14.3-8.9 18.3-14.5 8-1.1 9.4.1 9.7 1.1 2.5-.4 6-1 10.7-3 10.7-4.5 7.7-10.1 6.6-11.1-.3-.3-.5-.6-.8-1.1 25.5-1 49.9-7.9 71.7-20.1.8.9 1.6 1.8 2.3 3 2.4 3.5 3.6 14.8 4.1 20.6.5 5.8 1.5 9.8 4.3 19 2.9 9.2 4 2.5 4.1 0s.6-11.4.2-17.9-.5-15.8.7-19.8-1-5-1.6-5.7 0-1-1.6-6.1c-.1-.3-.2-.6-.2-.9 8.2-5.6 15.9-12 23.1-19.2 30.4-30.2 47.1-70.6 47.1-113.5"/><path class="st2" d="M160.7 339.2c6-.3 14.3-2.1 18.1-3.7.5.1 1.3.6 2.6 1.1.5-4-2.1-12.2-3.5-16-.9-2.5-1.9-4.2-3-6.8-3.4-.6-7.5-2.4-10.5-3.7 0 2.4.4 8.5.9 12.6-1.2.1-3 .2-5.1.2.3 4.5.8 12.5.5 16.3"/><path class="st3" d="M160.7 339.2c6-.3 14.3-2.1 18.1-3.7.5.1 1.3.6 2.6 1.1.5-4-2.1-12.2-3.5-16-.9-2.5-1.9-4.2-3-6.8-3.4-.6-7.5-2.4-10.5-3.7 0 2.4.4 8.5.9 12.6-1.2.1-3 .2-5.1.2.3 4.5.8 12.5.5 16.3z"/><path class="st2" d="M273.2 326c-1.1-1.1 1.4-4.6 2.5-11.1s1.2-17.3-3.5-23.4c-2.3-3-3.4-4.8-3.8-6.2-14.7 10.7-31.6 17.8-49.5 20.9-.2.4-.4.7-.6 1-2.6 3.4-7.7 8.2-11.4 10.2s-8.1 3.5-10.4 4.2c-.5 4-1.1 12.8-.1 15.9.4 1.1 5 3.9 6.6 6.8.2.3.3.6.5.9 25.4-.7 49.2-7.5 70.2-19-.3 0-.4-.1-.5-.2"/><path class="st3" d="M273.2 326c-1.1-1.1 1.4-4.6 2.5-11.1s1.2-17.3-3.5-23.4c-2.3-3-3.4-4.8-3.8-6.2-14.7 10.7-31.6 17.8-49.5 20.9-.2.4-.4.7-.6 1-2.6 3.4-7.7 8.2-11.4 10.2s-8.1 3.5-10.4 4.2c-.5 4-1.1 12.8-.1 15.9.4 1.1 5 3.9 6.6 6.8.2.3.3.6.5.9 25.4-.7 49.2-7.5 70.2-19-.3 0-.4-.1-.5-.2z"/><path class="st2" d="M309.2 78.7c-24.5-24.5-55.7-39.8-89.5-44.3 2.7 5.4 3.1 11.5 3.4 15.4 4.8-2.1 8.6-3.2 10.6-6.5 2-3.2 4.7-2.6 6.5-.2 1.7 2.4 1.7 5.3-2.9 8.2-4.6 2.9-8 4.2-9 4.7s-.1 1.4 1 3.2c1.1 1.9 4 6.5 4.5 16.2v.3c18.3 5.6 35 15.6 48.9 29.5 22.4 22.4 34.8 52.3 34.8 84 0 18.2-4.1 35.8-11.8 51.7 1 .5 2.4 4.1 2.9 8.9.2 2.5.1 5.2-.6 7-.7 1.7-6.6 10.5-9.6 13.2-1.1 1-3.7.9-4.8-.7-1.1-1.6-1.2-.7-2.1.1-.9.9-3.8 5.2-4.6 6.3-.8 1.1-3.2 2.2-1.6 6.7s3.5 7.8 2.9 10.3-.9 3.2 2.5 6.1 3.2 6.3 1.7 8.6c-.9 1.4-2.4 5.1-3 9 39.7-28.3 65.6-74.8 65.6-127.2-.1-41.7-16.3-81-45.8-110.5"/><path class="st3" d="M309.2 78.7c-24.5-24.5-55.7-39.8-89.5-44.3 2.7 5.4 3.1 11.5 3.4 15.4 4.8-2.1 8.6-3.2 10.6-6.5 2-3.2 4.7-2.6 6.5-.2 1.7 2.4 1.7 5.3-2.9 8.2-4.6 2.9-8 4.2-9 4.7s-.1 1.4 1 3.2c1.1 1.9 4 6.5 4.5 16.2v.3c18.3 5.6 35 15.6 48.9 29.5 22.4 22.4 34.8 52.3 34.8 84 0 18.2-4.1 35.8-11.8 51.7 1 .5 2.4 4.1 2.9 8.9.2 2.5.1 5.2-.6 7-.7 1.7-6.6 10.5-9.6 13.2-1.1 1-3.7.9-4.8-.7-1.1-1.6-1.2-.7-2.1.1-.9.9-3.8 5.2-4.6 6.3-.8 1.1-3.2 2.2-1.6 6.7s3.5 7.8 2.9 10.3-.9 3.2 2.5 6.1 3.2 6.3 1.7 8.6c-.9 1.4-2.4 5.1-3 9 39.7-28.3 65.6-74.8 65.6-127.2-.1-41.7-16.3-81-45.8-110.5z"/><path class="st2" d="M129.8 304.5c-.4-4.2-1.1-11.8 1.9-17.2-6-4.1-11.7-8.8-16.9-14.1-22.4-22.4-34.8-52.3-34.8-84 0-34 14.3-64.6 37.3-86.3.2-.5.5-.9.8-1.3-3.9 1.2-8 1.8-12.1 1.8-10.9 0-21.2-4.2-29-12-22.3 27.6-34.4 61.8-34.4 97.8 0 41.7 16.2 80.9 45.7 110.4 14.1 14.1 30.5 25.2 48.3 32.9.7-3.3 1.7-7 3.2-10.9 1.4-3.6-.7-11.9-4.2-16.3-1.8-.4-4.2-.7-5.8-.8"/><path class="st3" d="M129.8 304.5c-.4-4.2-1.1-11.8 1.9-17.2-6-4.1-11.7-8.8-16.9-14.1-22.4-22.4-34.8-52.3-34.8-84 0-34 14.3-64.6 37.3-86.3.2-.5.5-.9.8-1.3-3.9 1.2-8 1.8-12.1 1.8-10.9 0-21.2-4.2-29-12-22.3 27.6-34.4 61.8-34.4 97.8 0 41.7 16.2 80.9 45.7 110.4 14.1 14.1 30.5 25.2 48.3 32.9.7-3.3 1.7-7 3.2-10.9 1.4-3.6-.7-11.9-4.2-16.3-1.8-.4-4.2-.7-5.8-.8z"/><path class="st2" d="M171.2 35.4c-9.9 1.7-19.5 4.4-28.7 8 3 5.8 4.6 12.2 4.6 18.9 0 8.9-2.8 17.3-7.9 24.3 8.6-5 17.9-9 27.6-11.7.6-.6 1.3-1.2 1.9-1.8-3.6-6-8.5-15.5-4.2-28.5 1.2-3.7 3.8-6.7 6.7-9.2"/><path class="st3" d="M171.2 35.4c-9.9 1.7-19.5 4.4-28.7 8 3 5.8 4.6 12.2 4.6 18.9 0 8.9-2.8 17.3-7.9 24.3 8.6-5 17.9-9 27.6-11.7.6-.6 1.3-1.2 1.9-1.8-3.6-6-8.5-15.5-4.2-28.5 1.2-3.7 3.8-6.7 6.7-9.2z"/><path class="st0" d="M233.7 82.5c3.5 1.7 7.4 5.5 5.8 12.5-.6 2.9-3 5.6-3.2 6.7-.4 1.9-4.3 5-5.5 7.5s-1.4 4.6-1.1 5.6c2 1.9 6.5 4.4 8.9 5.2 1.9.7 1.8 1.2 1 2.5 1.4.1 2.1 1 3.4 2.5 1.4 1.6 5 .6 7.2-.5s5.1-1.5 7.3 1.2 5.6 7.8 7.2 12.5 3.4 8.6 3.8 9.3c.5.7-1.7 14.4-2.4 19.9-.6 5.5-1.1 7.8-1.2 8.7s3.5-3.1 3.6 1.6c.1 3.8 1.9 15.8 3.9 24.8.5 2.3 1 4.3 1.6 6 1.5.2 2.7 3.2 3.6 7.8s2.7 7.5 2.9 9.7c.1 2.2.7 2.6 1.5 3 .7.4.5 1.5-1.7 4.1.5.4 1.2 1.1 1.7 1.6.6-.6 2.4-2.6 2.4-2.6s6.8 2.7 8.3 3.2 3.3-3.2 7.7-1.2c1.2.5 2.6 2.2 3.5 3.9 7-14.9 10.9-31.5 10.9-49 0-31-12.1-60.1-34-82-13.4-13.4-29.4-23.1-47-28.6 0 1.9-.1 3.5-.1 4.1M269.6 277.9c-1.7-.9-2.9.4-3.7-6.5-.2-2-1.9-4.6-3.1-5.8-1.2-1.2-1.4-3.6-.7-5.6 1-3.1 1.2-6 1.1-8.4-.1-2.5.4-5.6 3.8-7.1-1.2-1.4-1.9-3.1-2.2-4.5-5.1-1.7-6.1-1.8-7.1-4.3-1.7-4.1-2.8-10.2-3.3-13.5-.3-1.6-.4-3.1-.5-4.5-1.6-3.1-5.3-9.9-8.1-15.1-1-1.9-2-3.6-2.6-4.8-2.5-4.3 0-10.1 1.2-13.4 1.2-3.4 2.2-6.3 1.1-9.7-1.1-3.4-1.1-4.1-1.4-5.5-.2-1.4-1.4-3.1-2.9 1.6s-4.3 11.7-6 18.9c-.9 4.1-1.6 8.5-1.3 12.9.2 3.3.8 6.5 2.2 9.4 3.2 6.7 7.1 12.9 6.6 16.6-.5 3.7-1.3 3.9-1.4 4.5-.6 7.2-3.7 21-5.3 25-1.6 4-7.9 18.4-9.3 24.5-1.1 4.7-3.9 14.6-6.4 20.6 18.6-3.5 35.6-11.5 50-22.7.4-1.1.3-2.1-.7-2.6M131.5 114.9c1.4 1.8 3.2 3.4 5.5 4.6 6.1 3.1 7.3 5.3 7.3 10.7 0 5.3 1 16.3 2.7 18.1 1.1-1.1 2.4-2.7 2.6-3.2 1.7 3.2 5.2 9.2 10.8 12.9.4.2.2 1.6 1.1 1.9 1.9.5 13.9 2.4 14.3 4.8 2.5-2.5 6.5-8.7 7.2-10.8s5.1-8.8 8.3-12.5c0-1.5 0-2.4.1-2.7-.9.7-2.2 2.6-4.2 3.5s-8.9 3.9-13.9 6.3c-1.7.9-4.8 1.9-6.1-7.2-1.2-9.1 0-13.8.9-15.9s2.5-4 5.6-3.1 8.1 2.7 9.4 2.7c.2-1 1.1-2.9-2.2-3.2-2.4-.3-8.6-2-12.1-6.9-1.4-1.9-2.4-4.4-2.5-7.4-7.1 1.1-23.4 3.2-27 4.1s-6.7 1.6-7.8-6.6c-.5-3.5-1.4-8.3 1.1-6.6 2-1.5 4.7-3.2 9.6-2.5.9.1 2 .9 2.3 1.6.3 1.2-.2 3.2-.8 5-1.1 3.3-3.2 5.7 3.6 4.2 7.1-1.6 16.1-3 18.4-3.5.3-2.4 2.3-6.2 4.7-8.9 2.4-2.7 2.7-5 2.9-5.8.1-.9-.7-1.1-1.9 0-1.4 1.2-5.5 3.7-9.3 2.7-1.5-.4-3.4-3.2-4.3-4.8.8-1.7 2.9-4.7 5.4-7.6-13.2 4.2-25.6 10.9-36.6 19.6-.1 1.4.1 4.6 1 8.1.6 2.3 1.7 5.5 3.9 8.4M140.1 284.6c5.1-2 9.1-1.9 13 3.4 1.1 1.5 2 5.8 11.6 2-5.1-6.1-8.1-13.3-10.9-23-4.4-15.3-14.4-32.7-10.7-40.6-2.1-2-4.6-9.7-7.2-8.8-1.8.6-4.2.6-2.2-5.2.9-2.6 2.4-5.8 5.2-9.6 3.4-4.7 8.8-10.3 17.5-17 .7-.6.9-1.1.4-1.6-.9-.9-1.7-1.9-2.6-2.4-.9-.5-1.7-.3-2.5.5-.7.7-2 1.6-2.7 2.1s-6.7-5.3-9.8-9.6c-3.1-4.2-6.3-5.6-7.3-6.1 1.2-1.4 4-4.3 3-4-1.9.6-5.1 1-8.5-2.5-4.1-4.3-2.5-6.6-3.4-7.2-.9-.6-5.3.4-8.7-4.8-3.4-5.2-4.7-7.5-2-11.2 1.4-1.9 1.9-2.7 1.5-5.1-.4-2.4 0-3.9 3.1-6.8 3.1-3 5-5.7 6.3-5.5 1.1.2-2.1-3.8-4-6.7-.5-.8-.9-1.5-1.1-2.1-.5-1.2-1.3-3.3-1.5-5.5-21.8 21.9-33.9 51-33.9 81.9 0 31 12.1 60.1 34 82 5.1 5.1 10.7 9.7 16.5 13.8 2.6-2.8 5.6-1.7 6.9-.4"/><path class="st4" d="M74.1 39.6C84.3 42.2 91.9 50.4 95.3 55c.9 1.2 1.7 1 2.1.1.8-1.8 2.2-7.8 2.2-12.4 0-10.4 1.4-14.6 4-19.4-12.1.7-22.8 6.9-29.5 16.3"/><path class="st5" d="M74.1 39.6C84.3 42.2 91.9 50.4 95.3 55c.9 1.2 1.7 1 2.1.1.8-1.8 2.2-7.8 2.2-12.4 0-10.4 1.4-14.6 4-19.4-12.1.7-22.8 6.9-29.5 16.3z"/><path class="st4" d="M67.9 71.6c19.2 1.7 25.1-9 26.4-10.6 1.2-1.6-.2-2.6-.9-3.5-3.3-4.6-10.7-12.8-20.9-15.4-3.6 5.9-5.7 12.8-5.7 20.2 0 3.2.4 6.3 1.1 9.3"/><path class="st5" d="M67.9 71.6c19.2 1.7 25.1-9 26.4-10.6 1.2-1.6-.2-2.6-.9-3.5-3.3-4.6-10.7-12.8-20.9-15.4-3.6 5.9-5.7 12.8-5.7 20.2 0 3.2.4 6.3 1.1 9.3z"/><path class="st4" d="M143.9 70.8c-8.1-3.4-17.7-.3-24.5 5.7s-10.3 10.5-12.7 24.7h-.9c-10.1 0-19.3-3.9-26.2-10.2 11.7-3 21.5-8.3 32.6-18.8 11.1-10.4 16.5-22.6 18-28.3s-.6-2.4-1.7.2c-1.7 4-7.5 14.9-18.8 25.5s-20 15.8-31.8 19.8c-3.9-4-7-9-8.9-14.4 4 .2 16.5-1.2 22.8-6.3 8.2-6.8 9.2-14.8 10.3-26.2 1.1-11.4 2.8-14.8 5.5-19.2 20.7.9 37.2 18 37.2 38.9 0 3-.3 5.8-.9 8.6"/><path class="st5" d="M143.9 70.8c-8.1-3.4-17.7-.3-24.5 5.7s-10.3 10.5-12.7 24.7h-.9c-10.1 0-19.3-3.9-26.2-10.2 11.7-3 21.5-8.3 32.6-18.8 11.1-10.4 16.5-22.6 18-28.3s-.6-2.4-1.7.2c-1.7 4-7.5 14.9-18.8 25.5s-20 15.8-31.8 19.8c-3.9-4-7-9-8.9-14.4 4 .2 16.5-1.2 22.8-6.3 8.2-6.8 9.2-14.8 10.3-26.2 1.1-11.4 2.8-14.8 5.5-19.2 20.7.9 37.2 18 37.2 38.9 0 3-.3 5.8-.9 8.6z"/><path class="st4" d="M142.8 74.7c-1.9-2.6-8.5-3.9-19.1 2.7-1 .6-1.7 1.1-.5 2.2 2.2 2.2 5.6 6.5 8 12.2 5.2-4.5 9.3-10.4 11.6-17.1"/><path class="st5" d="M142.8 74.7c-1.9-2.6-8.5-3.9-19.1 2.7-1 .6-1.7 1.1-.5 2.2 2.2 2.2 5.6 6.5 8 12.2 5.2-4.5 9.3-10.4 11.6-17.1z"/><path class="st4" d="M128.1 94.3c-2.2-5.5-4.1-9.4-6.2-12.2-1.1-1.5-1.4-2.1-3.5-.3-5.9 5.2-8.1 13-9.4 19.3 7-.6 13.6-3 19.1-6.8"/><path class="st5" d="M128.1 94.3c-2.2-5.5-4.1-9.4-6.2-12.2-1.1-1.5-1.4-2.1-3.5-.3-5.9 5.2-8.1 13-9.4 19.3 7-.6 13.6-3 19.1-6.8z"/><path class="st6" d="M176 338.7c.8-.4 1.9-.9 2.4-.5s3.5 2.5 5.3 4.1c1.9 1.6 2.5 2.1 1 3s-2.9 1.7-2.6 1c.2-.7.6-1.9-.4-2.9s-3.4-2.9-4.5-3.7c-.6-.6-1.2-1-1.2-1"/><path class="st7" d="M176 338.7c.8-.4 1.9-.9 2.4-.5s3.5 2.5 5.3 4.1c1.9 1.6 2.5 2.1 1 3s-2.9 1.7-2.6 1c.2-.7.6-1.9-.4-2.9s-3.4-2.9-4.5-3.7c-.6-.6-1.2-1-1.2-1z"/><path class="st6" d="M168.9 340.7c-.6.6-.7 1.5 0 2.2s4.9 4.2 5.6 4.9c.7.7 1.7.9 2.8.7 1.1-.2-1.3 1.4-2.2 1.6s-2 .2-3-.7c-1-.9-6.6-6.2-7.7-7.3-1.1-1.1.3-1.1 1.3-1.2s1.9-.1 3.2-.2"/><path class="st7" d="M168.9 340.7c-.6.6-.7 1.5 0 2.2s4.9 4.2 5.6 4.9c.7.7 1.7.9 2.8.7 1.1-.2-1.3 1.4-2.2 1.6s-2 .2-3-.7c-1-.9-6.6-6.2-7.7-7.3-1.1-1.1.3-1.1 1.3-1.2s1.9-.1 3.2-.2z"/><path class="st6" d="M162 308.9c.4 1.1.5 2.2-1.2 1.9-1.7-.2-9.1-.9-11.2-.9-.5 0-.3-1.2-1.1-.7-.7.5-.4 1.6-.4 2.9 0 1.2-.1 2-.1 2.9.1 1.3.9 3.1 4.2 3.3 3.4.2 6.5-.2 7.5-.9s-.1-1.8-1-1.8-6.5.4-7.7 0-1.9-1.8-1.1-2.4c1-.7 2.9.2 4.8.2s4-.5 4.5-.2 1.2.2 1.2 2.5c0 .5 1.2.7 1.7.7.6 0 .8.9.7 2.2-.1 1.2.1 1.5-2.2 1.5-2.2 0-11.9-.1-13.3-.1-.6 0-.6-.4-.7-1.6-.1-1.1-.4-8.9-.6-9.5-.1-.6 1.5-.7 2.8-.4 1.3.2 2.9.5 5 .6s5.3.4 5.3.4 1.6.2 1.8-.3c.5-.5 1-.7 1.1-.3"/><path class="st7" d="M162 308.9c.4 1.1.5 2.2-1.2 1.9-1.7-.2-9.1-.9-11.2-.9-.5 0-.3-1.2-1.1-.7-.7.5-.4 1.6-.4 2.9 0 1.2-.1 2-.1 2.9.1 1.3.9 3.1 4.2 3.3 3.4.2 6.5-.2 7.5-.9s-.1-1.8-1-1.8-6.5.4-7.7 0-1.9-1.8-1.1-2.4c1-.7 2.9.2 4.8.2s4-.5 4.5-.2 1.2.2 1.2 2.5c0 .5 1.2.7 1.7.7.6 0 .8.9.7 2.2-.1 1.2.1 1.5-2.2 1.5-2.2 0-11.9-.1-13.3-.1-.6 0-.6-.4-.7-1.6-.1-1.1-.4-8.9-.6-9.5-.1-.6 1.5-.7 2.8-.4 1.3.2 2.9.5 5 .6s5.3.4 5.3.4 1.6.2 1.8-.3c.5-.5 1-.7 1.1-.3z"/><path class="st8" d="M117.4 137.9c-1.6-.5-2.9 1.4-3.6 2.9s-1.6 3.1.7 6.5c2.4 3.4 3.8 5.4 7.9 5.1 2-.1 3.7-1.6 4.4-2.5.6-.9.7.6-.2 2.1-1 1.5-1.7 5 .1 7.3 1.9 2.4 5.7 4.3 10.8 1.4 5.1-3 7.2-6.6 8.1-8.2.9-1.6.9-2.4 0-3.4s-3.7-5.7-4.3-15c-.4-5.6.6-9.2-2.9-11.2S127 116.2 126 107c-.4-3.5-.1-8.8-3.6-6-3.5 2.9-3.5 4.8-3.8 7-.4 2.1 1.4 5 2.9 7s3.2 6.3 4.6 7.5c1.4 1.1 2.2 2 3.4 2.1 1.1.1 5.6.1 6.7.5 1.1.4 1.7 1.7-1 1.7s-7 .7-8.8 1c-1.9.2-3.6.4-4.5 4.1-.9 3.7-2.1 8.1-2.2 9.4-.1 1.4-.9 2.1-.9 2.9 0 .7 1.5 4.3 4.8.7 3.4-3.6 4.7-7.2 5.3-8.9.6-1.7 1.4-1.5.7 1.2-.6 2.7-.8 9.6.5 11.9 1.4 2.5 4.2 5.1 7.8 3.4.7-.4 2-1 3-.9s-.2 1.9-1.1 2.6c-.9.7-3.7 3.9-8.8-.6-1.2-1.1-3-3.6-3.4-6.7-.1-1-1.5-1.4-2.1-.5s-4 4-6.3 1.7c-2.4-2.2-3.3-3.5-2-8.2.3-.9.8-1.8.2-2"/><path class="st9" d="M117.4 137.9c-1.6-.5-2.9 1.4-3.6 2.9s-1.6 3.1.7 6.5c2.4 3.4 3.8 5.4 7.9 5.1 2-.1 3.7-1.6 4.4-2.5.6-.9.7.6-.2 2.1-1 1.5-1.7 5 .1 7.3 1.9 2.4 5.7 4.3 10.8 1.4 5.1-3 7.2-6.6 8.1-8.2.9-1.6.9-2.4 0-3.4s-3.7-5.7-4.3-15c-.4-5.6.6-9.2-2.9-11.2S127 116.2 126 107c-.4-3.5-.1-8.8-3.6-6-3.5 2.9-3.5 4.8-3.8 7-.4 2.1 1.4 5 2.9 7s3.2 6.3 4.6 7.5c1.4 1.1 2.2 2 3.4 2.1 1.1.1 5.6.1 6.7.5 1.1.4 1.7 1.7-1 1.7s-7 .7-8.8 1c-1.9.2-3.6.4-4.5 4.1-.9 3.7-2.1 8.1-2.2 9.4-.1 1.4-.9 2.1-.9 2.9 0 .7 1.5 4.3 4.8.7 3.4-3.6 4.7-7.2 5.3-8.9.6-1.7 1.4-1.5.7 1.2-.6 2.7-.8 9.6.5 11.9 1.4 2.5 4.2 5.1 7.8 3.4.7-.4 2-1 3-.9s-.2 1.9-1.1 2.6c-.9.7-3.7 3.9-8.8-.6-1.2-1.1-3-3.6-3.4-6.7-.1-1-1.5-1.4-2.1-.5s-4 4-6.3 1.7c-2.4-2.2-3.3-3.5-2-8.2.3-.9.8-1.8.2-2z"/><path class="st8" d="M119.9 130.9c-.5 1.6-1 3.7-1.2 4.5-.2.7-1.4 2.4-2.4.2-1-2.1-.9-3.8.6-5.3.5-.5 1.2-1.5 1.7-1s1.4 1.3 1.3 1.6"/><path class="st9" d="M119.9 130.9c-.5 1.6-1 3.7-1.2 4.5-.2.7-1.4 2.4-2.4.2-1-2.1-.9-3.8.6-5.3.5-.5 1.2-1.5 1.7-1s1.4 1.3 1.3 1.6z"/><path class="st8" d="M125.5 125.2c-1 .5-3.2.5-4 2.2-.5 1.1-2.5-.1-1.5-1.5s1.7-1.2 2.4-1.6c.6-.4.9-1.5 2.1-.9 1.2.7 1.4 1.6 1 1.8"/><path class="st9" d="M125.5 125.2c-1 .5-3.2.5-4 2.2-.5 1.1-2.5-.1-1.5-1.5s1.7-1.2 2.4-1.6c.6-.4.9-1.5 2.1-.9 1.2.7 1.4 1.6 1 1.8z"/><path class="st8" d="M207.3 63.7c-3.5.4-6.7 2.5-9.9 4.7s-14.9 12.1-17.6 14c2.9 1.5 3.6 4.5 2.6 9.4-.2 1.1 0 1.5.7.7.7-.7 4.2-4.5 4.1-7.5-.1-3-1.5-4.7-1.7-5.1s1-1.9 2.4 1.2 1 7.5-3.1 12.3-7.3 4.7-9.1 5.6c-1.7.9-3.5 2.2-1.9 4.8 1.6 2.6 4.7 1.6 6 .7 1.2-.9 3-1.9 7-1.5s5.3-2.2 2.6-4.8c-.9-.9-3.1-2.9-.4-2.9 1.6 0 3.6 3.6 4.7 4.6 1.1 1 3.6 1.4 7 1.6s8.6 1.5 8.6 4.7c0 2-1.1 2.6-2.5 1-.6-.6-1.4.4-2 1-2.1 2.1-7.5 7.8-11.4 8.8s-5.3-.1-10.4-2.9c-5.1-2.7-9.8-5.5-11.2-6.3-1.4-.9-4.2-2.9-2.9 1.1 1.4 4 4.7 8.1 11.4 10.3 6.7 2.2 7.7 3 9.2 3.7s.6 1.5-1.4 1.2c-1.7-.2-3.6-1.7-2.1 1.6s3.7 7 10.6 6.1c6.8-.9 7-2.3 11.3-9.4.7-1.2 1.5-.4 1 2.9 3.4-1.6 5.2-2.1 7.2-2.6s7.2-2.2 10.6-8.6c1.7-3.2 2.7-4.3 2.4-7.7-.1-1.2 1.7-3.7 3.6-5.5 1.9-1.7 7-8.3 4.3-13-2.6-4.7-7-2.4-9.1 1.1s-4.5 7.3-4.6 13.3c-1.5-.5-3 0-3.7 1.2-.4.6-5.8-.1-7.7.4s-2.5-.6-.5-3.2 9-12.1 8.6-19.1c-.1-2.1.2-2.5.5-4.1.4-2.1.6-2.1-1.9-3.5-1.7-.9-1.8-3.5-2-5.5-.3-2.1-.7-2.1-3.1-1.6-1.9.8-4.8-.9-6.2-3.2"/><path class="st10" d="M207.3 63.7c-3.5.4-6.7 2.5-9.9 4.7s-14.9 12.1-17.6 14c2.9 1.5 3.6 4.5 2.6 9.4-.2 1.1 0 1.5.7.7.7-.7 4.2-4.5 4.1-7.5-.1-3-1.5-4.7-1.7-5.1s1-1.9 2.4 1.2 1 7.5-3.1 12.3-7.3 4.7-9.1 5.6c-1.7.9-3.5 2.2-1.9 4.8 1.6 2.6 4.7 1.6 6 .7 1.2-.9 3-1.9 7-1.5s5.3-2.2 2.6-4.8c-.9-.9-3.1-2.9-.4-2.9 1.6 0 3.6 3.6 4.7 4.6 1.1 1 3.6 1.4 7 1.6s8.6 1.5 8.6 4.7c0 2-1.1 2.6-2.5 1-.6-.6-1.4.4-2 1-2.1 2.1-7.5 7.8-11.4 8.8s-5.3-.1-10.4-2.9c-5.1-2.7-9.8-5.5-11.2-6.3-1.4-.9-4.2-2.9-2.9 1.1 1.4 4 4.7 8.1 11.4 10.3 6.7 2.2 7.7 3 9.2 3.7s.6 1.5-1.4 1.2c-1.7-.2-3.6-1.7-2.1 1.6s3.7 7 10.6 6.1c6.8-.9 7-2.3 11.3-9.4.7-1.2 1.5-.4 1 2.9 3.4-1.6 5.2-2.1 7.2-2.6s7.2-2.2 10.6-8.6c1.7-3.2 2.7-4.3 2.4-7.7-.1-1.2 1.7-3.7 3.6-5.5 1.9-1.7 7-8.3 4.3-13-2.6-4.7-7-2.4-9.1 1.1s-4.5 7.3-4.6 13.3c-1.5-.5-3 0-3.7 1.2-.4.6-5.8-.1-7.7.4s-2.5-.6-.5-3.2 9-12.1 8.6-19.1c-.1-2.1.2-2.5.5-4.1.4-2.1.6-2.1-1.9-3.5-1.7-.9-1.8-3.5-2-5.5-.3-2.1-.7-2.1-3.1-1.6-1.9.8-4.8-.9-6.2-3.2z"/><path class="st8" d="M192.8 102.6c-.7 1.6-2.6 3-6.9 2.5-2.2-.2-4.3-.3-4.7 1.4-.2 1.2-1.2 1.1-2.6 1.1-1.4-.1-3-.4-3 .1-.1.5 6.1 4.2 8.1 5.1s5 3.2 7.5 2.9c3.2-.3 6-1.9 10.8-7 2-2.1 3.5-3.2 1.7-4-1.3-.6-2.6-.7-4.2-.7-1.7 0-5.3-.3-6.7-1.4"/><path class="st10" d="M192.8 102.6c-.7 1.6-2.6 3-6.9 2.5-2.2-.2-4.3-.3-4.7 1.4-.2 1.2-1.2 1.1-2.6 1.1-1.4-.1-3-.4-3 .1-.1.5 6.1 4.2 8.1 5.1s5 3.2 7.5 2.9c3.2-.3 6-1.9 10.8-7 2-2.1 3.5-3.2 1.7-4-1.3-.6-2.6-.7-4.2-.7-1.7 0-5.3-.3-6.7-1.4z"/><path class="st8" d="M169.6 102.7c-1.7-.1-1.9-1.3-.7-3.2 1.1-1.9 2.2-3.6 3.7-4.7.2.8.7 1.8 1.5 2.2-1 1.1-2.3 2.4-2.1 5l-2.4.7z"/><path class="st10" d="M169.6 102.7c-1.7-.1-1.9-1.3-.7-3.2 1.1-1.9 2.2-3.6 3.7-4.7.2.8.7 1.8 1.5 2.2-1 1.1-2.3 2.4-2.1 5l-2.4.7z"/><path d="M197.5 84.3c.3-1.7.1-3.2-2.5-1.1-2.4-1.7-4.5-3.8-5.2-4.3s-1.1-1.2-.2-2.1c.9-.9 2.4.7 2.1-1.9-.1-.9 1.9-.3 2.4-.6.5-.2-.2-1.5 2.1-.9.7.2.4-1.2 1.9-1s2.2.8 2.5-.4c.3-1.2.7-1.9 2.5-.7 1.3.8 1.8.3 1.9-.3.1-.6 1.3-.2 2.4.4 1.1.6 3.7 1.9 6.8 5.5.7.9 1.1 1.8.6 1.9s-1.1 0-1.2 1c-.1 1-.6 1.9-1.2.7-.6-1.1-.7.2-1.1-1-.4-1.2-1 .4-1.3-.4-.4-1-.8.2-1.2-.7-.2-.4-1.4.6-1.7-.1-.4-.7-1.2.7-1.8-.1-.6-.8-.6.9-1.6.5s-.6.9-1.6.5-.7 1.2-1.6 1c-.9-.2-.9.2-1.1 1.2-.2 1.1-.6 5.2-.6 6.1s2.1.7 5.2.3c3.1-.4 8.6-2.2 11.4-4.5 1.1-.9 2.1-.9 2.3-.6s-.3 1.3-1.1 2-2.9 2.9-7.7 3.8-8.8 1.7-9.6 1.5.3 1.2 1.7.9c.8-.2 2.4 2.8 5 2.8 2.1 0 5.3-2.4 6.1-3 .9-.7 4-2.1 1.9 0s-4.3 4.4-6.6 4.5c-2.2.1-5.7-.7-8-2.3-2.4-1.6-3.2-2.5-2.8-5 .7-2.4.8-2.9.9-3.6"/><path class="st10" d="M197.5 84.3c.3-1.7.1-3.2-2.5-1.1-2.4-1.7-4.5-3.8-5.2-4.3s-1.1-1.2-.2-2.1c.9-.9 2.4.7 2.1-1.9-.1-.9 1.9-.3 2.4-.6.5-.2-.2-1.5 2.1-.9.7.2.4-1.2 1.9-1s2.2.8 2.5-.4c.3-1.2.7-1.9 2.5-.7 1.3.8 1.8.3 1.9-.3.1-.6 1.3-.2 2.4.4 1.1.6 3.7 1.9 6.8 5.5.7.9 1.1 1.8.6 1.9s-1.1 0-1.2 1c-.1 1-.6 1.9-1.2.7-.6-1.1-.7.2-1.1-1-.4-1.2-1 .4-1.3-.4-.4-1-.8.2-1.2-.7-.2-.4-1.4.6-1.7-.1-.4-.7-1.2.7-1.8-.1-.6-.8-.6.9-1.6.5s-.6.9-1.6.5-.7 1.2-1.6 1c-.9-.2-.9.2-1.1 1.2-.2 1.1-.6 5.2-.6 6.1s2.1.7 5.2.3c3.1-.4 8.6-2.2 11.4-4.5 1.1-.9 2.1-.9 2.3-.6s-.3 1.3-1.1 2-2.9 2.9-7.7 3.8-8.8 1.7-9.6 1.5.3 1.2 1.7.9c.8-.2 2.4 2.8 5 2.8 2.1 0 5.3-2.4 6.1-3 .9-.7 4-2.1 1.9 0s-4.3 4.4-6.6 4.5c-2.2.1-5.7-.7-8-2.3-2.4-1.6-3.2-2.5-2.8-5 .7-2.4.8-2.9.9-3.6z"/><path d="M233.7 92.2c-1.4 1-2.2 1.4-2.4 3.1-.1 1.7-.5 4.7-1.1 5-.8.3-.7-1.6-1-1-.4.9-1.4.5-1.7-.3-.1-.3-3.2-.3-.8-3.9 2.3-3.3 4-5 5.6-5.7 1.6-.8 4.3.7 1.4 2.8"/><path class="st10" d="M233.7 92.2c-1.4 1-2.2 1.4-2.4 3.1-.1 1.7-.5 4.7-1.1 5-.8.3-.7-1.6-1-1-.4.9-1.4.5-1.7-.3-.1-.3-3.2-.3-.8-3.9 2.3-3.3 4-5 5.6-5.7 1.6-.8 4.3.7 1.4 2.8z"/><path class="st8" d="M294.5 239.8c-.6-1.5.4-3.9 3.5-2.2s5.5 3.2 3.2 10.1c-2.2 6.8-3.9 10.8-4.7 13.7-.9 2.9-4.2 6.5-3.1 1.6 1.1-4.8 1.7-10.7 1.2-13.7-.9-5.5.9-5.1.3-7.6-.1-.8-.2-1.3-.4-1.9"/><path class="st9" d="M294.5 239.8c-.6-1.5.4-3.9 3.5-2.2s5.5 3.2 3.2 10.1c-2.2 6.8-3.9 10.8-4.7 13.7-.9 2.9-4.2 6.5-3.1 1.6 1.1-4.8 1.7-10.7 1.2-13.7-.9-5.5.9-5.1.3-7.6-.1-.8-.2-1.3-.4-1.9z"/><path class="st8" d="M306.2 245.7c.9 2.7 1.9 8.8.4 11.3s-6.1 9.3-7.8 11.1c-1.7 1.7-3.1 1-2-.9s2.6-4.4 2.6-5.2c0-.9-.1-1.9 1.4-4.7 1.5-2.9 4.1-12.4 4.3-13.2.2-.7.9.9 1.1 1.6"/><path class="st9" d="M306.2 245.7c.9 2.7 1.9 8.8.4 11.3s-6.1 9.3-7.8 11.1c-1.7 1.7-3.1 1-2-.9s2.6-4.4 2.6-5.2c0-.9-.1-1.9 1.4-4.7 1.5-2.9 4.1-12.4 4.3-13.2.2-.7.9.9 1.1 1.6z"/><path class="st8" d="M274.2 268.7c-.7-2.2-1.1-5.5-2.4-7.3 1-2.7 4.3-10.1 9.8-12.3.6-.2 1-.9.7-1.4-.2-.5.7-.9 1.2.9.5 1.7 1.4 6.7 1.4 6.7.2 1.1-.2 2-.5 3.5s-.9 4.8-.5 6.6c.4 1.7 1 3 4.5 2.2 1.7-.4 1.6-.9 2.1-2.4s1.9-5.7 2.4-8.1.1-8.1-.4-9.6.2-6.5-.2-7.5-.6-2.5-3.7-3.5-4-1.2-6.1.9c-2.1 2.1-2.9 3-3.8 4-1 1-3.5.1-1.4-1.9s4.1-4 4.7-4.6l-.6-1.6h-1.1c-3.4 3.4-7.8 5.3-10.8 6-1.1.2-3.2.4-1.7 2.4.4.5.5 1.9 1.4 1.4s2.2-2.7 3.5-1.7c1.2 1-.2 3.4-1.7 4.5s-3.1 2.2-4.2 2.9c-1.1.6-1.7 1.2-1.6 3.2s.2 5.6-.9 8.3c-1.1 2.7-.5 3.5.5 5.3 1 1.9 2.6 3.5 3.1 6.5s.7 3.7 2.7 3.5 2.7-1.1 3.5-2.4l.1-4.5z"/><path class="st9" d="M274.2 268.7c-.7-2.2-1.1-5.5-2.4-7.3 1-2.7 4.3-10.1 9.8-12.3.6-.2 1-.9.7-1.4-.2-.5.7-.9 1.2.9.5 1.7 1.4 6.7 1.4 6.7.2 1.1-.2 2-.5 3.5s-.9 4.8-.5 6.6c.4 1.7 1 3 4.5 2.2 1.7-.4 1.6-.9 2.1-2.4s1.9-5.7 2.4-8.1.1-8.1-.4-9.6.2-6.5-.2-7.5-.6-2.5-3.7-3.5-4-1.2-6.1.9c-2.1 2.1-2.9 3-3.8 4-1 1-3.5.1-1.4-1.9s4.1-4 4.7-4.6l-.6-1.6h-1.1c-3.4 3.4-7.8 5.3-10.8 6-1.1.2-3.2.4-1.7 2.4.4.5.5 1.9 1.4 1.4s2.2-2.7 3.5-1.7c1.2 1-.2 3.4-1.7 4.5s-3.1 2.2-4.2 2.9c-1.1.6-1.7 1.2-1.6 3.2s.2 5.6-.9 8.3c-1.1 2.7-.5 3.5.5 5.3 1 1.9 2.6 3.5 3.1 6.5s.7 3.7 2.7 3.5 2.7-1.1 3.5-2.4l.1-4.5z"/><path class="st4" d="M274.9 274.4c-.9 1.5-2.4 3.9-2.4 6s-2.1 4.3-1.9 5.3 3 3.6 4.6 6.3c1.6 2.7 3.7 6.8 3.7 13.7 0 6.8-2.2 16.2-2.5 17.4-.2 1.2-.9 2.2 1 4 1.9 1.7 4.8 5 6 12.3 1.1 7.3 1.9 11.2 2.4 11.6s.4 1 .4 2.4 1.2 9.2 2.1 10.7.7-8.4.6-11.3.1-16.5.6-18.5 1-4.2-.7-6.7-4.7-6.8-2.5-14 5.8-7.1 4.7-9.9-3.1-4.8-4.6-6.5c-1.5-1.6-.3-5.5-.4-7.1-.1-3-2.5-3.5-2.7-6.8-.3-3.4-.5-6.1 2-9.4 2.5-3.4-.9-3.2-2-5.3-1.1-2.1-1.7-4.9-.7-9.3.5-2.2.2-2.9-.4-3.1s-3.2-.7-3.2-.7l-3.8 7.7c.6 1.5.9 3.7.9 5.2l-1.2 6z"/><path class="st5" d="M274.9 274.4c-.9 1.5-2.4 3.9-2.4 6s-2.1 4.3-1.9 5.3 3 3.6 4.6 6.3c1.6 2.7 3.7 6.8 3.7 13.7 0 6.8-2.2 16.2-2.5 17.4-.2 1.2-.9 2.2 1 4 1.9 1.7 4.8 5 6 12.3 1.1 7.3 1.9 11.2 2.4 11.6s.4 1 .4 2.4 1.2 9.2 2.1 10.7.7-8.4.6-11.3.1-16.5.6-18.5 1-4.2-.7-6.7-4.7-6.8-2.5-14 5.8-7.1 4.7-9.9-3.1-4.8-4.6-6.5c-1.5-1.6-.3-5.5-.4-7.1-.1-3-2.5-3.5-2.7-6.8-.3-3.4-.5-6.1 2-9.4 2.5-3.4-.9-3.2-2-5.3-1.1-2.1-1.7-4.9-.7-9.3.5-2.2.2-2.9-.4-3.1s-3.2-.7-3.2-.7l-3.8 7.7c.6 1.5.9 3.7.9 5.2l-1.2 6z"/><path class="st0" d="M239 123.2c-3.1 4.1-7.8 14.4-10.1 20.9-2.2 6.5-7.3 21.9-3.7 32.1s10.7 3.7 12.3-.1c1.6-3.9 4.1-10.4 4.9-12.2.7-1.7 1.1-2.7 2.5 1.4s3.4 13.9 3.4 14.8c0 .9-1.4 3.4-2.9 7.2-1.5 3.9-2.4 6.6-.9 8.9 1.5 2.4 7.3 12.4 9.2 16.8 1.1 2.6 2.1 3.1 5.1 2.4 3-.7 10.2-3.2 12.3-4.2 2.1-1 1.1-2.7.5-4.8-.9-3.2-4.7-21.1-4.7-23.5s.6-5.5-2.5-2c-1.1 1.2-2.6 0-2.2-1.7s4.1-26 4.3-28.9c-2.1-4.6-8.3-19.1-10.1-21.7-1.7-2.6-2.4-2.7-5-1.4-2.6 1.4-8.4 3.5-10.6-1.5-.4-.9-1-2.9.5-3.1l-1.1-.4c0-.2-.8.5-1.2 1M271.6 212.6c-2.3 1.3-10.2 4.7-13.4 5.2-3.3.5-2.5 1.4-1.9 3.9s2.5 9.9 3.5 12.6c1 2.6 2.4 2.6 5 2.5 4-.1 10.7-1.9 15.5-6.3-1.4-1.6-3.8-9.4-4.5-12.7-.8-3.6-.8-7.2-4.2-5.2M200.4 140.9c-.2.5-1.1 2-3.1 2s-3.6-.6-4.9 1.1c-1.2 1.7-8.1 10.1-9.6 15.2 1.5 3.1 3.5 8.7 5 12.7 4.8-4.1 20.3-19.2 23.2-22.1 1.1-1.1 1.2-2.1-.4-3.2s-7.6-4.9-8.6-5.5c-.9-.7-1.4-.7-1.6-.2M161.2 162.7c-1 3.8-2.9 10.6-6 15.8 1.2 2 2.2 3.7 3.7 4.4 3.5-2.5 10.1-8.6 11.9-10.8 1.9-2.2 4.2-5.6 4.2-6.3s-.9-1-2-.7c-1.1.2-5.7-1.6-10.2-2.5-1.1-.4-1.4-.4-1.6.1M158.5 159c-1.4-.3-6.1-5.3-7.7-8.1-1.6-2.7-1.9-2.5-2.5-.5s-3 6.3-4.6 8.4c-1.6 2.1-5.8 7.6-7 8.8-1.1 1.2 0 1.7 1 2.7s6.1 7.2 7.2 8.6c1.1 1.4 2.4 3.9 5.3 1.1 3-2.7 6.6-7.7 8.2-12.8 1.6-5.1 1.7-7.8 3.1-7.5l.1-1.1-.4-.6-.7-.6c.2.4.2.8-.1 1.3-.3.7-1.3.4-1.9.3M234.5 44.7c-3.4 4-10.1 7.5-21.4 10.3S191 65.8 186.5 69.7c-4.6 3.9-16.2 13.3-21.7 15.7-1.5.6-4.7 2.7-.6 3.2 3 .4 5.1-1.4 11.6-6.1s11.5-8.1 16.4-12.9c4.6-4.5 12.9-8.7 21.9-11.2s20.7-6.4 24.1-10.1c1.6-1.7 1.7-2.6.2-4.1-1.6-1.5-2.5-1.1-3.9.5M177.5 83.8c-1 .5-1.4 1.1-2.5 4.7s-1 5.7-.1 6.6c.7.6 1.7.7 2.2.7.4 0 .7.1.7-.9-.1-1.1-.1-5.6 3.2-7.6.6-.4-.1-3-2.3-2.6-.7.1.1-1.6-1.2-.9M139.1 98c1.7 0 2.9 0 2.7 2-.1 2-1 4.7-1.1 6.6s-.1 2.6 1 2.6-1.6 1.1-3.1 1.4c-1.5.2-3.8 1.1-5-5.2-.4-2-.2-5.1-.5-5.8 1.7-.9 3.9-1.6 6-1.6M172.1 103.3c.5 2.5 1.1 2.5.6 2.8-.5.4-1-.9-3-.6-1.9.3-17.6 2.7-18.7 2.9-3.5.4-3.7-.2-.4-.9 3.2-.7 15-2.8 18.6-3.5l2.9-.7zM153.3 293.3c1.6 1 5.5 2.1 12.1-.6s13.9-.9 15 3.8c1.1 4.7 1.2 10.8-.9 13.4-1.7 2.2-3.4 2-5.3 1.4-3.6-1.1-11.9-5-14.3-6.1-2.4-1.1-6.3-2.4-9.2-2.4-1.1-2.4-1-6.5-.2-8 .7-1.5.7-3 1.4-2.6.5.5 1.4 1.1 1.4 1.1M179.4 315.3c1.6 0 4.5.7 5.5 3.6.7 2.4 5.6 3 7.7 2.9 2.1-.1 1.7 1 1.6 2.2-.1 1.2-.5 5-.5 6.5s.4 6.7.6 7.7c.3 1-.6 1.5-1.7 2s-5.2 1.7-7.8-.1c-1.4-1-3-2.4-1.4-2.5s-2-14.2-3-16.6c-1-2.6-3.9-5.7-1-5.7M136.6 286c.7.2 1 .9 1.5 1.7.5.9.7 1.6-.1 2.5-1.4 1.5-3 8.3-2.7 13.2-.9-.2-2.7-.6-3.7-.4-.4-2.7-.1-11.3 1.1-14 1.2-2.8 2.4-3.5 3.9-3M136.9 361.8c3.1 3.5 8.9 8.8 13.3 10.7 4.3 1.9 7.2 2.5 11.1 2.1 3.1-.3 2.5 1 0 1.4s-8.2.4-11.9-1.6-9.6-5.7-13.4-11.1c-1-1.3-.1-2.6.9-1.5M201.6 353.1c-2.5 1.2-7.2 3.5-11.7 4.6.5 2.2.6 3.2.6 3.8 2.7 0 8-1.9 12.3-4.6 1-.6 1.4-1.4 1-2.2-.3-.9-.8-2.3-2.2-1.6M172.2 342.9c-.6-.6 2.9-1.4 3.7-1.4.9.6 2.5 2 3.1 2.5.4.4.2.6-.2.9-.4.2-2.5.8-3.5.9-1.3-1-2.8-2.6-3.1-2.9M178.8 291.2c-1-.7-.9-1.1-.4-1.9.5-.7 1-1.2 1.5-1.5.5-.2 1.2-.4 2.1.9.9 1.2 5.6 9.1 6.6 11.2s2.2.7 1.7-.5-1.5-3.4-1.9-4c1.4-4.2 2.7-10.7 2.7-14.9 0-4.2-1-8.4-1.7-9.9 3.4.1 10.7 0 13.5-.9 2.9-.9.5-1.1-.6-1s-9.2.1-15-.6c-10.2-1.2-20.2-7-23.4-10.9-.5-.6-3.5-.4-1 1.6s8.8 7.9 18.1 9.6c2.1.4 5.5 1 6 8.7s-.2 12.7-.2 13.4c0 .7-.5 1-1.1.1s-2.7-3.7-3.9-4.3c-1.1-.6-1.9-.5-2.9.2s-2.5 2.2-3.1 3l3 1.7zM158.7 315.5c-.9 0-6.5.4-7.7 0s-1.9-1.8-1.1-2.4c1-.7 2.9.2 4.8.2s4-.5 4.5-.2 1.2.2 1.2 2.5l-1.7-.1zM145.2 349.6c-1.6-1-3.5-5.6-3.9-14.8-.1-3.1 1.1-8.3 2.1-10.8s-.6-1.5-1-.6-1.6 4.3-2 7c-.4 2.6-1 6.5 0 12.1s1.5 7.3 1.7 8.3l3.1-1.2z"/><path class="st6" d="M196.1 44.5c.2-.6.4-1.3.7-1.8-.9.5-1.8.9-2.6 1.4.5.7 1.3 2 1.9.4"/><path class="st7" d="M196.1 44.5c.2-.6.4-1.3.7-1.8-.9.5-1.8.9-2.6 1.4.5.7 1.3 2 1.9.4z"/><path class="st6" d="M218.5 45.7c-.4-1.3-1.6.7-3.1 2.6-1.6 1.9-3.8.7-4-.2s-.7-2-2.1-3.8c-1.4-1.8 1.3-4.3 2.4-4.6 1.1-.3 2.5-.6 2.9-.9.3-.3-.2-2.1-.5-3.5-4.5 1.3-9.9 3.6-14.7 6 1.5.6 1 3.4.9 3.8-.2.4-.7 2.9.4 1.4s1.6-2 2.7-2.4c1.2-.4 2.5-.3 2.5 1.4.1 1.7-.7 1.6-1 2.7-.2 1.1 0 1.1.6 1.3s.9 1 .5 2.2-2.3 1.3-4 1.1-1.9.1-1.3.6c.5.5 1.1 1.4 1.3 2.5 4.1-2 8.9-3.6 16.5-5.1.2-1.4.3-4 0-5.1"/><path class="st7" d="M218.5 45.7c-.4-1.3-1.6.7-3.1 2.6-1.6 1.9-3.8.7-4-.2s-.7-2-2.1-3.8c-1.4-1.8 1.3-4.3 2.4-4.6 1.1-.3 2.5-.6 2.9-.9.3-.3-.2-2.1-.5-3.5-4.5 1.3-9.9 3.6-14.7 6 1.5.6 1 3.4.9 3.8-.2.4-.7 2.9.4 1.4s1.6-2 2.7-2.4c1.2-.4 2.5-.3 2.5 1.4.1 1.7-.7 1.6-1 2.7-.2 1.1 0 1.1.6 1.3s.9 1 .5 2.2-2.3 1.3-4 1.1-1.9.1-1.3.6c.5.5 1.1 1.4 1.3 2.5 4.1-2 8.9-3.6 16.5-5.1.2-1.4.3-4 0-5.1z"/><path class="st6" d="M179.2 70.2c-.6-1.1-1.4-1.3-1.7-.4s-.9 3.8-2.9 4.6c-.6.3-1.1.4-1.5.5.7.7 1.4 1.4 2.3 2 1.5-1.6 2.9-3.1 4.3-4.4.1-.7-.1-1.5-.5-2.3"/><path class="st7" d="M179.2 70.2c-.6-1.1-1.4-1.3-1.7-.4s-.9 3.8-2.9 4.6c-.6.3-1.1.4-1.5.5.7.7 1.4 1.4 2.3 2 1.5-1.6 2.9-3.1 4.3-4.4.1-.7-.1-1.5-.5-2.3z"/><path class="st6" d="M197.8 55.4c-.7-.2-1.2.8-1.7 1.5-.4.7-1.4 2-3 1.8s-2-.7-2.4-2.1c-.4-1.4-1.4-1.8-2.6-1.8-1.2 0-2-1.4-.7-2.9 1.2-1.5 2.5-.8 3.5-.8s1.5-1.1.7-1.6c-.6-.4-1.8-1.7-2-2.7-3.5 2.3-8.6 5.9-13.1 9.9.8.1 1.7.3 2.2.5.6.2 1.6 1 1.4 2.1-.1 1.1.2 1.4.9.6.7-.7-.1-3 2.2-3.9s2.6.9 2.5 2c-.1 1.2 0 2.3 1.2 2.8s2.5 2.4-.1 3.5-4 1.4-5.1 1.7-.8 1.4.1 2c.5.4.9.8 1.2 1.1 3.3-3 6.4-5.5 9.9-7.9 1.9-1.3 3.7-2.5 5.5-3.5.3-.9.4-1.9-.6-2.3"/><path class="st7" d="M197.8 55.4c-.7-.2-1.2.8-1.7 1.5-.4.7-1.4 2-3 1.8s-2-.7-2.4-2.1c-.4-1.4-1.4-1.8-2.6-1.8-1.2 0-2-1.4-.7-2.9 1.2-1.5 2.5-.8 3.5-.8s1.5-1.1.7-1.6c-.6-.4-1.8-1.7-2-2.7-3.5 2.3-8.6 5.9-13.1 9.9.8.1 1.7.3 2.2.5.6.2 1.6 1 1.4 2.1-.1 1.1.2 1.4.9.6.7-.7-.1-3 2.2-3.9s2.6.9 2.5 2c-.1 1.2 0 2.3 1.2 2.8s2.5 2.4-.1 3.5-4 1.4-5.1 1.7-.8 1.4.1 2c.5.4.9.8 1.2 1.1 3.3-3 6.4-5.5 9.9-7.9 1.9-1.3 3.7-2.5 5.5-3.5.3-.9.4-1.9-.6-2.3z"/><path class="st6" d="M173.5 67c.1-1.2-.9-1.7-1.5-1.9-.5-.1-1.3-1-1.7-1.8-.6.8-1.2 1.6-1.6 2.5.3.8.5 1.6.8 2.3 1.5 0 3.9-.1 4-1.1"/><path class="st7" d="M173.5 67c.1-1.2-.9-1.7-1.5-1.9-.5-.1-1.3-1-1.7-1.8-.6.8-1.2 1.6-1.6 2.5.3.8.5 1.6.8 2.3 1.5 0 3.9-.1 4-1.1z"/><path class="st6" d="M226 125c-4.1-.3-8.9.6-13.5 2.3.8.5 1.7 1.6 3.3 1 2.4-.8 3.2 1.7 2.1 2.4s-1.5 2.4.6 1.1c2.1-1.3 4 .6 3.1 1.9-.9 1.4-2 .3-1.7 2.2.2 1.9-.2 3.7-1.9 4s-2.1-2.3-2.9-2.1c-.8.2.2 4.6-.2 4.7-1.2.2-2.4 1.3-3 1.9.1 0 .1.1.1.1 6.8 4.9 8.6 2.2 9.6-.1 1-2.4 3.2-9.4 3.9-13 .2-2.2.7-4.4.5-6.4"/><path class="st7" d="M226 125c-4.1-.3-8.9.6-13.5 2.3.8.5 1.7 1.6 3.3 1 2.4-.8 3.2 1.7 2.1 2.4s-1.5 2.4.6 1.1c2.1-1.3 4 .6 3.1 1.9-.9 1.4-2 .3-1.7 2.2.2 1.9-.2 3.7-1.9 4s-2.1-2.3-2.9-2.1c-.8.2.2 4.6-.2 4.7-1.2.2-2.4 1.3-3 1.9.1 0 .1.1.1.1 6.8 4.9 8.6 2.2 9.6-.1 1-2.4 3.2-9.4 3.9-13 .2-2.2.7-4.4.5-6.4z"/><path class="st6" d="M211.1 138.5c.4-.9-.6-1.7-1.7-1.1-1.1.7-2.6 1.7-3.7-.1s1.2-2 1.3-2.9-.7-1-.3-2.4 2-1 3.1-.3c1.3.9.9-1.2.7-2-.1-.6-.2-1.2-.1-1.7-1.3.6-2.7 1.3-3.9 2.1-6.4 3.9-6.6 7.2-5.1 8.5 1.3 1.1 4.1 1.6 8.7 4.7.1-1.6.7-4.1 1-4.8"/><path class="st7" d="M211.1 138.5c.4-.9-.6-1.7-1.7-1.1-1.1.7-2.6 1.7-3.7-.1s1.2-2 1.3-2.9-.7-1-.3-2.4 2-1 3.1-.3c1.3.9.9-1.2.7-2-.1-.6-.2-1.2-.1-1.7-1.3.6-2.7 1.3-3.9 2.1-6.4 3.9-6.6 7.2-5.1 8.5 1.3 1.1 4.1 1.6 8.7 4.7.1-1.6.7-4.1 1-4.8z"/><path class="st6" d="M190.8 134.8c-2.6-1.3-5.2-4.2-7-7.6 0 0 .1-.5-.6-.5s-3.5-.2-8.1-1.9c-4.6-1.6-5.2-.6-5.8 1.4-.6 2-1.1 5.6-1.2 11.6-.1 6 2.5 9.7 4.1 9.1.8-.3 2.8-1.3 5-2.4 0-1.2.1-3.2.2-4.2.2-1.4-1.3-.9-1.9-.1-.6.7-1.8 2-2.9 1.8-1.1-.2-1.9-2.2-1.7-4 .2-1.9-2-2.6-.6-5.1s2.5.6 3.7.4c1.2-.2.6-.9 0-2.8s1.8-2.5 3.2-1.1c.9.9 1.4-1.1 2.7-.8 1.4.3 2.2 1.2 1.4 2.6-.6 1.1-1.1 3.5.1 2.2 1.2-1.3 2.4-2.1 3.5-1.2 1.1.9.4 2.7.1 3.6-.3.9 2 2.1.4 3.2s-3.4-.8-4.3-.6c-.9.2-1.1 1.4.1 2.2.8.6 1.7 1 2.3 1.3 2.6-.9 5.6-2.6 6.6-3.2l1.6.1c0-2.3-.2-3.6-.9-4"/><path class="st7" d="M190.8 134.8c-2.6-1.3-5.2-4.2-7-7.6 0 0 .1-.5-.6-.5s-3.5-.2-8.1-1.9c-4.6-1.6-5.2-.6-5.8 1.4-.6 2-1.1 5.6-1.2 11.6-.1 6 2.5 9.7 4.1 9.1.8-.3 2.8-1.3 5-2.4 0-1.2.1-3.2.2-4.2.2-1.4-1.3-.9-1.9-.1-.6.7-1.8 2-2.9 1.8-1.1-.2-1.9-2.2-1.7-4 .2-1.9-2-2.6-.6-5.1s2.5.6 3.7.4c1.2-.2.6-.9 0-2.8s1.8-2.5 3.2-1.1c.9.9 1.4-1.1 2.7-.8 1.4.3 2.2 1.2 1.4 2.6-.6 1.1-1.1 3.5.1 2.2 1.2-1.3 2.4-2.1 3.5-1.2 1.1.9.4 2.7.1 3.6-.3.9 2 2.1.4 3.2s-3.4-.8-4.3-.6c-.9.2-1.1 1.4.1 2.2.8.6 1.7 1 2.3 1.3 2.6-.9 5.6-2.6 6.6-3.2l1.6.1c0-2.3-.2-3.6-.9-4z"/><path class="st6" d="M181.6 162.1c-1-2.2-1.3-.5-4.1 3.8-1.4 2.2-4.9 6.3-9.3 10.9 3.1.6 9.6 2.2 5.7 5.5-4.2 3.5-2.4 3.2-.5 3s5 .9 2.6 5.1c-2.4 4.2-4 7.2-6.2 8.6-2.2 1.4-5.5 1.2-6.2-2s-2.9 0-3 2.1-.4 5.7-.1 7l-4.7-.2c-.1-2-.1-6 .2-7.8.4-1.9.3-4.1-2.6-3.2-1.9.6-3.1.1-3.8-.3-5.6 4.9-8.4 8.4-10.2 11.4 1.4 1.3 3.7 2.2 6.1 1.2 2.7-1.1 7.2.2 4.5 4.5-2.7 4.2-2.6 6.3.1 3.7 2.7-2.6 7.1-7.1 8.5-2.4.9 3.1-2 4.1-1.9 6.6s2.6 5-.9 8-5-2.1-7.3-1.4c-1.4.4-1.7 1.8-1.6 2.9 3.1 4.4 7.6 10.6 9.2 13.2 2.5 4.1 2.5 9.1 3.5 8.3 1-.7 3.4-3 4.1-3.6.7-.6 1.5-1.4 1.1-2.7-.4-1.4-1.8-8.7-1.4-13.8.5-5.8 3.2-12.2 5.2-15.9 1.9-3.5 7.7-14.8 9.1-17.8 1.4-3 3.9-6.5 4.5-9.2s3-9.1 4-12.1c-.4-2.5-2-7.5-4.6-13.4"/><path class="st7" d="M181.6 162.1c-1-2.2-1.3-.5-4.1 3.8-1.4 2.2-4.9 6.3-9.3 10.9 3.1.6 9.6 2.2 5.7 5.5-4.2 3.5-2.4 3.2-.5 3s5 .9 2.6 5.1c-2.4 4.2-4 7.2-6.2 8.6-2.2 1.4-5.5 1.2-6.2-2s-2.9 0-3 2.1-.4 5.7-.1 7l-4.7-.2c-.1-2-.1-6 .2-7.8.4-1.9.3-4.1-2.6-3.2-1.9.6-3.1.1-3.8-.3-5.6 4.9-8.4 8.4-10.2 11.4 1.4 1.3 3.7 2.2 6.1 1.2 2.7-1.1 7.2.2 4.5 4.5-2.7 4.2-2.6 6.3.1 3.7 2.7-2.6 7.1-7.1 8.5-2.4.9 3.1-2 4.1-1.9 6.6s2.6 5-.9 8-5-2.1-7.3-1.4c-1.4.4-1.7 1.8-1.6 2.9 3.1 4.4 7.6 10.6 9.2 13.2 2.5 4.1 2.5 9.1 3.5 8.3 1-.7 3.4-3 4.1-3.6.7-.6 1.5-1.4 1.1-2.7-.4-1.4-1.8-8.7-1.4-13.8.5-5.8 3.2-12.2 5.2-15.9 1.9-3.5 7.7-14.8 9.1-17.8 1.4-3 3.9-6.5 4.5-9.2s3-9.1 4-12.1c-.4-2.5-2-7.5-4.6-13.4z"/><path class="st6" d="M235.8 217.3c-3.2-5.3-3.9-7.5-4.3-12.9-.3-3.4 0-7.9.5-12.2-1-.1-2.2.1-2.3 1.6-.1 2.4-1.2 5.7-2 7.5-.7 1.7-3.2 1.6-4.7 1.7-1.5.1-1.5-.9-.5-3.1s1.4-3.2 1.1-5.2c-.3-2-1.2-.2-2.1 1.5-.9 1.7-3.4 5.2-6.2 4.8-2.9-.4-2.1-4.7-1.9-6.2.2-1.5-.6-1.7-1.7-2-1.1-.2-3.4-.7-2.1-4.4 1.2-3.6 2.6-3.2 4.3-2.6 1.7.6 2-.5.4-1.1s-3.4-2-3.2-3.7c.3-4.6 3.2-4.2 5.5-3.7 1.9.4 4.4-.7 6.1-2.5 0-.1-.1-.2-.1-.3-3.3-12.6 3-28.2 4.7-32.5 1.7-4.4 8.4-16.6 10.8-20.3-1.2-.6-4.5-2.3-6.3-3.2-1.8-.9-2.8-1.4-3.3-.7s-1.1 1.1-2 2.3c-1.7 2.5-.2 2.1.2 2.1.5 0 2.6 2.7 3 3.4.4.6 0 1.1-.9 3.1-1.1 2.6-1.9 8.6-2.9 12.2-3 10.9-7.7 9.8-9.8 8.4-2.1-1.4-2.7.7-4.9 3.7-.5.7-1.8 2.1-3.4 3.7 2 .9 4.8 3.5 1.5 6.1-3.9 3-4.6 4.6-2.7 4.2 1.9-.4 3.7-3.2 5.8-1.2s-.7 4.2-1.9 4.9c-1.1.6-3.4 1.7-2.7 4.1.6 2.4 1 5.6-2.1 6.3s-4.3-.6-5.2-2.2c-.9-1.6-1.7-.5-2.1 1.5-.4 2-.6 3.5-.6 4.2s-2.2-.4-3.2-1.4-2.2 1.7-3.4.4c-1.1-1.4 1.4-5.6 2.2-7.1.8-1.4.5-3.4-4.5-1.1-1.6 2.7-2.9 6.6-4.9 12.6-2.7 8.3-8.9 19.7-11.5 23.8-6.7 10.8-7.9 20.9-6.9 27.3 1 6.3 1.9 5.8 3.2 5.8 1.4 0 4.7 4.2 7 6.8 2.2 2.6 3.1 1.5 4.2.6 3.6-2.8 10.8-7.5 21-12.3 4.3-2.1 10.1-4.3 15.8-6.1.1-2.3.7-5.2.9-6.2.2-1.2-1-1.6-2.2 0s-4.6 5.6-6.8 4.6-4.1-3.5-2.9-5.6c1.2-2.1-.5-2.7-1.4-3.8s-.9-5.5 1.9-5.8c2.7-.4 3.6 2 5.5 2.6s3.4.5 1-2.1-5.2-1.6-3.7-5.2 3.6-3.4 6.1-2.6c2.5.7 3.7-.6 5.3-1.7 1.6-1.1 4.8-2.6 7.1 0 2.2 2.6-1.6 5-2.5 5.8-1.7 1.7-2 4.8-.1 3s5-8.6 7.2-3c1.2 3.2-1.1 4.5-.7 6.5.4 2 3.7 4.7 1 7.2s-6.6.4-8.2-1.1c-1.6-1.5-3.4-2.2-2.6.5.6 2 .8 4.1.8 5.4 5.4-1.5 10.2-2.4 12.6-2.2 3.5.3 6.2 1.4 6.1-1.9-.5-3.4-2.2-5.7-5.4-11"/><path class="st7" d="M235.8 217.3c-3.2-5.3-3.9-7.5-4.3-12.9-.3-3.4 0-7.9.5-12.2-1-.1-2.2.1-2.3 1.6-.1 2.4-1.2 5.7-2 7.5-.7 1.7-3.2 1.6-4.7 1.7-1.5.1-1.5-.9-.5-3.1s1.4-3.2 1.1-5.2c-.3-2-1.2-.2-2.1 1.5-.9 1.7-3.4 5.2-6.2 4.8-2.9-.4-2.1-4.7-1.9-6.2.2-1.5-.6-1.7-1.7-2-1.1-.2-3.4-.7-2.1-4.4 1.2-3.6 2.6-3.2 4.3-2.6 1.7.6 2-.5.4-1.1s-3.4-2-3.2-3.7c.3-4.6 3.2-4.2 5.5-3.7 1.9.4 4.4-.7 6.1-2.5 0-.1-.1-.2-.1-.3-3.3-12.6 3-28.2 4.7-32.5 1.7-4.4 8.4-16.6 10.8-20.3-1.2-.6-4.5-2.3-6.3-3.2-1.8-.9-2.8-1.4-3.3-.7s-1.1 1.1-2 2.3c-1.7 2.5-.2 2.1.2 2.1.5 0 2.6 2.7 3 3.4.4.6 0 1.1-.9 3.1-1.1 2.6-1.9 8.6-2.9 12.2-3 10.9-7.7 9.8-9.8 8.4-2.1-1.4-2.7.7-4.9 3.7-.5.7-1.8 2.1-3.4 3.7 2 .9 4.8 3.5 1.5 6.1-3.9 3-4.6 4.6-2.7 4.2 1.9-.4 3.7-3.2 5.8-1.2s-.7 4.2-1.9 4.9c-1.1.6-3.4 1.7-2.7 4.1.6 2.4 1 5.6-2.1 6.3s-4.3-.6-5.2-2.2c-.9-1.6-1.7-.5-2.1 1.5-.4 2-.6 3.5-.6 4.2s-2.2-.4-3.2-1.4-2.2 1.7-3.4.4c-1.1-1.4 1.4-5.6 2.2-7.1.8-1.4.5-3.4-4.5-1.1-1.6 2.7-2.9 6.6-4.9 12.6-2.7 8.3-8.9 19.7-11.5 23.8-6.7 10.8-7.9 20.9-6.9 27.3 1 6.3 1.9 5.8 3.2 5.8 1.4 0 4.7 4.2 7 6.8 2.2 2.6 3.1 1.5 4.2.6 3.6-2.8 10.8-7.5 21-12.3 4.3-2.1 10.1-4.3 15.8-6.1.1-2.3.7-5.2.9-6.2.2-1.2-1-1.6-2.2 0s-4.6 5.6-6.8 4.6-4.1-3.5-2.9-5.6c1.2-2.1-.5-2.7-1.4-3.8s-.9-5.5 1.9-5.8c2.7-.4 3.6 2 5.5 2.6s3.4.5 1-2.1-5.2-1.6-3.7-5.2 3.6-3.4 6.1-2.6c2.5.7 3.7-.6 5.3-1.7 1.6-1.1 4.8-2.6 7.1 0 2.2 2.6-1.6 5-2.5 5.8-1.7 1.7-2 4.8-.1 3s5-8.6 7.2-3c1.2 3.2-1.1 4.5-.7 6.5.4 2 3.7 4.7 1 7.2s-6.6.4-8.2-1.1c-1.6-1.5-3.4-2.2-2.6.5.6 2 .8 4.1.8 5.4 5.4-1.5 10.2-2.4 12.6-2.2 3.5.3 6.2 1.4 6.1-1.9-.5-3.4-2.2-5.7-5.4-11z"/><path class="st6" d="M191.7 239.5c-3 .9-3.5-.5-5.5-1.2s-2.1 1-.7 3.1c1.4 2.1 2.9 4.1 1.2 4.1-1.6 0-2.9.2-3.1 1.5s-2.9-.2-3.5-2.9c-.6-2.6-1.2-7.6-2.6-5.1-1.4 2.5-2.6 6.6-6.1 4.7-3.5-1.9-1.1-4.3-2.9-6.1-1.7-1.7-3.4-4-1.6-7.1 1.7-3.1 3.2-.5 4.9-.5 1.6 0 1.9-1.5.4-2.6s-3.4-6.5 3.5-6.1c2.6.1 5.5-.7 7.7-2.4 2.2-1.6 8.1-.7 5.7 3.4s-1.6 5-.2 3.5c1.4-1.5 3.1-4.2 5.7-3.5 2.6.7 1.5 2.7-.1 5-1.6 2.2-.6 3.7.6 4.6 1.2.9 3.5 5.6-3.4 7.6"/><path class="st7" d="M191.7 239.5c-3 .9-3.5-.5-5.5-1.2s-2.1 1-.7 3.1c1.4 2.1 2.9 4.1 1.2 4.1-1.6 0-2.9.2-3.1 1.5s-2.9-.2-3.5-2.9c-.6-2.6-1.2-7.6-2.6-5.1-1.4 2.5-2.6 6.6-6.1 4.7-3.5-1.9-1.1-4.3-2.9-6.1-1.7-1.7-3.4-4-1.6-7.1 1.7-3.1 3.2-.5 4.9-.5 1.6 0 1.9-1.5.4-2.6s-3.4-6.5 3.5-6.1c2.6.1 5.5-.7 7.7-2.4 2.2-1.6 8.1-.7 5.7 3.4s-1.6 5-.2 3.5c1.4-1.5 3.1-4.2 5.7-3.5 2.6.7 1.5 2.7-.1 5-1.6 2.2-.6 3.7.6 4.6 1.2.9 3.5 5.6-3.4 7.6z"/><path class="st6" d="M204.3 210.2c-2.2.1-5-.5-5-.5-.2 2.4-2.5 5.7-4.8 9.2-.2.4-1.6.4-2.2-.1-.6-.5-2.4-1.4-1-2.9s3.6-4.6 3.2-6c-.4-1.4-1.4-2.6-2.9-.7-1.5 1.9-3.9 5.7-6.5 5.8s-5.2-2.2-4-4.6c1.2-2.4 1.6-3.6-.1-5.7-1.7-2.1-1.1-4.8 2.6-6.5 1.1-.5 3.1 0 4.5 1.1s2.1 0 .2-1.1c-1.9-1.1-3.4-2.5-3.6-5-.2-2.4 1.2-4.8 4.5-3.5 3.2 1.4 5.2.2 6.6-.9 1.4-1.1 7.2-2.5 6.3 2.6-.6 3.7-2.4 3.8-2.9 5.8s1 .7 1.9-.7c.9-1.5 2.9-7.6 7-3 1 1.1.6 3-.6 5.1-1.2 2.1-.2 3.4.5 4.5.8 1.3 2.5 6.8-3.7 7.1"/><path class="st7" d="M204.3 210.2c-2.2.1-5-.5-5-.5-.2 2.4-2.5 5.7-4.8 9.2-.2.4-1.6.4-2.2-.1-.6-.5-2.4-1.4-1-2.9s3.6-4.6 3.2-6c-.4-1.4-1.4-2.6-2.9-.7-1.5 1.9-3.9 5.7-6.5 5.8s-5.2-2.2-4-4.6c1.2-2.4 1.6-3.6-.1-5.7-1.7-2.1-1.1-4.8 2.6-6.5 1.1-.5 3.1 0 4.5 1.1s2.1 0 .2-1.1c-1.9-1.1-3.4-2.5-3.6-5-.2-2.4 1.2-4.8 4.5-3.5 3.2 1.4 5.2.2 6.6-.9 1.4-1.1 7.2-2.5 6.3 2.6-.6 3.7-2.4 3.8-2.9 5.8s1 .7 1.9-.7c.9-1.5 2.9-7.6 7-3 1 1.1.6 3-.6 5.1-1.2 2.1-.2 3.4.5 4.5.8 1.3 2.5 6.8-3.7 7.1z"/><path class="st2" d="M202 52.9c1.7.2 3.5.1 4-1.1.4-1.2.1-1.9-.5-2.2-.6-.2-.8-.2-.6-1.3s1.1-1 1-2.7-1.4-1.8-2.5-1.4c-1.2.4-1.6.9-2.7 2.4s-.6-1-.4-1.4c.2-.4.6-3.3-.9-3.8-.9.4-1.7.9-2.5 1.3-.3.5-.5 1.2-.7 1.8-.6 1.6-1.4.4-1.9-.4-1.7.9-3.1 1.8-4.2 2.5-.1.1-.3.2-.4.2.1 1 1.3 2.2 2 2.7.8.6.3 1.6-.7 1.6s-2.2-.7-3.5.8c-1.2 1.5-.4 2.9.7 2.9 1.2 0 2.2.4 2.6 1.8.4 1.4.8 1.9 2.4 2.1 1.6.2 2.5-1.1 3-1.8.4-.7 1-1.8 1.7-1.6 1 .4.9 1.4.6 2.6 1.2-.7 2.4-1.3 3.6-2-.2-1-.8-2-1.3-2.5-.6-.4-.4-.7 1.2-.5"/><path class="st11" d="M202 52.9c1.7.2 3.5.1 4-1.1.4-1.2.1-1.9-.5-2.2-.6-.2-.8-.2-.6-1.3s1.1-1 1-2.7-1.4-1.8-2.5-1.4c-1.2.4-1.6.9-2.7 2.4s-.6-1-.4-1.4c.2-.4.6-3.3-.9-3.8-.9.4-1.7.9-2.5 1.3-.3.5-.5 1.2-.7 1.8-.6 1.6-1.4.4-1.9-.4-1.7.9-3.1 1.8-4.2 2.5-.1.1-.3.2-.4.2.1 1 1.3 2.2 2 2.7.8.6.3 1.6-.7 1.6s-2.2-.7-3.5.8c-1.2 1.5-.4 2.9.7 2.9 1.2 0 2.2.4 2.6 1.8.4 1.4.8 1.9 2.4 2.1 1.6.2 2.5-1.1 3-1.8.4-.7 1-1.8 1.7-1.6 1 .4.9 1.4.6 2.6 1.2-.7 2.4-1.3 3.6-2-.2-1-.8-2-1.3-2.5-.6-.4-.4-.7 1.2-.5z"/><path class="st2" d="M215.9 34.9c-.6.1-1.2.3-1.8.5.3 1.4.9 3.2.6 3.5-.4.3-1.8.6-2.9.9-1.1.3-3.8 2.8-2.4 4.6 1.4 1.8 1.8 2.9 2.1 3.8.2.9 2.5 2.1 4 .2 1.6-1.9 2.7-3.9 3.1-2.6.3 1.1.2 3.7 0 5.2.3-.1.6-.1 1-.2.5-7.1-1.2-12.1-3.7-15.9"/><path class="st11" d="M215.9 34.9c-.6.1-1.2.3-1.8.5.3 1.4.9 3.2.6 3.5-.4.3-1.8.6-2.9.9-1.1.3-3.8 2.8-2.4 4.6 1.4 1.8 1.8 2.9 2.1 3.8.2.9 2.5 2.1 4 .2 1.6-1.9 2.7-3.9 3.1-2.6.3 1.1.2 3.7 0 5.2.3-.1.6-.1 1-.2.5-7.1-1.2-12.1-3.7-15.9z"/><path class="st2" d="M181.8 68.3c-.9-.7-1.1-1.7-.1-2.1 1.1-.3 2.5-.6 5.1-1.7s1.2-3 .1-3.5c-1.2-.5-1.3-1.6-1.2-2.8s-.2-2.9-2.5-2-1.5 3.1-2.2 3.9c-.7.7-1.1.5-.9-.6.1-1.1-.9-1.9-1.4-2.1-.4-.2-1.4-.4-2.2-.5-2.4 2.1-4.6 4.4-6.2 6.6.4.8 1.2 1.6 1.7 1.8.6.2 1.6.6 1.5 1.9 0 1.1-2.4 1.1-4 1.2 1.1 3 2.2 5.1 3.8 6.8.4-.1.8-.3 1.4-.5 1.9-.8 2.5-3.7 2.9-4.6.3-.9 1.1-.7 1.7.4.4.8.5 1.5.6 2.2 1.1-1.1 2.2-2.1 3.2-3.1-.4-.5-.8-.9-1.3-1.3"/><path class="st11" d="M181.8 68.3c-.9-.7-1.1-1.7-.1-2.1 1.1-.3 2.5-.6 5.1-1.7s1.2-3 .1-3.5c-1.2-.5-1.3-1.6-1.2-2.8s-.2-2.9-2.5-2-1.5 3.1-2.2 3.9c-.7.7-1.1.5-.9-.6.1-1.1-.9-1.9-1.4-2.1-.4-.2-1.4-.4-2.2-.5-2.4 2.1-4.6 4.4-6.2 6.6.4.8 1.2 1.6 1.7 1.8.6.2 1.6.6 1.5 1.9 0 1.1-2.4 1.1-4 1.2 1.1 3 2.2 5.1 3.8 6.8.4-.1.8-.3 1.4-.5 1.9-.8 2.5-3.7 2.9-4.6.3-.9 1.1-.7 1.7.4.4.8.5 1.5.6 2.2 1.1-1.1 2.2-2.1 3.2-3.1-.4-.5-.8-.9-1.3-1.3z"/><path class="st2" d="M214.8 142.5c.4-.1-.6-4.5.2-4.7s1.2 2.4 2.9 2.1c1.7-.3 2.2-2 1.9-4-.2-1.9.9-.9 1.7-2.2.9-1.4-1-3.2-3.1-1.9s-1.7-.4-.6-1.1c1.1-.7.3-3.2-2.1-2.4-1.7.6-2.6-.5-3.4-1-.6.2-1.3.5-1.9.8-.1.5 0 1.1.1 1.7.2.8.6 2.9-.7 2-1.1-.8-2.7-1.2-3.1.3-.4 1.4.4 1.6.3 2.4-.1.9-2.4 1.1-1.3 2.9 1.1 1.8 2.6.8 3.7.1 1.1-.7 2 .1 1.7 1.1-.3.7-.9 3.2-.9 4.8.5.3 1 .7 1.6 1.1.6-.8 1.7-1.8 3-2"/><path class="st11" d="M214.8 142.5c.4-.1-.6-4.5.2-4.7s1.2 2.4 2.9 2.1c1.7-.3 2.2-2 1.9-4-.2-1.9.9-.9 1.7-2.2.9-1.4-1-3.2-3.1-1.9s-1.7-.4-.6-1.1c1.1-.7.3-3.2-2.1-2.4-1.7.6-2.6-.5-3.4-1-.6.2-1.3.5-1.9.8-.1.5 0 1.1.1 1.7.2.8.6 2.9-.7 2-1.1-.8-2.7-1.2-3.1.3-.4 1.4.4 1.6.3 2.4-.1.9-2.4 1.1-1.3 2.9 1.1 1.8 2.6.8 3.7.1 1.1-.7 2 .1 1.7 1.1-.3.7-.9 3.2-.9 4.8.5.3 1 .7 1.6 1.1.6-.8 1.7-1.8 3-2z"/><path class="st2" d="M180.9 138.2c.9-.2 2.7 1.7 4.3.6 1.6-1.1-.7-2.2-.4-3.2.3-.9 1.1-2.7-.1-3.6-1.1-.9-2.3-.1-3.5 1.2s-.8-1.2-.1-2.2c.8-1.4 0-2.3-1.4-2.5s-1.8 1.7-2.7.8c-1.5-1.4-3.8-.8-3.2 1.1.6 1.9 1.2 2.5 0 2.8-1.2.2-2.3-2.9-3.7-.4s.8 3.2.6 5.1c-.2 1.9.6 3.9 1.7 4 1.1.2 2.3-1.1 2.9-1.8.6-.7 2.1-1.3 1.9.1-.1 1-.2 3-.2 4.2 2.3-1.1 4.7-2.3 6.1-2.7.1 0 .1 0 .2-.1-.6-.2-1.5-.7-2.3-1.2-1.2-.8-1-2-.1-2.2"/><path class="st11" d="M180.9 138.2c.9-.2 2.7 1.7 4.3.6 1.6-1.1-.7-2.2-.4-3.2.3-.9 1.1-2.7-.1-3.6-1.1-.9-2.3-.1-3.5 1.2s-.8-1.2-.1-2.2c.8-1.4 0-2.3-1.4-2.5s-1.8 1.7-2.7.8c-1.5-1.4-3.8-.8-3.2 1.1.6 1.9 1.2 2.5 0 2.8-1.2.2-2.3-2.9-3.7-.4s.8 3.2.6 5.1c-.2 1.9.6 3.9 1.7 4 1.1.2 2.3-1.1 2.9-1.8.6-.7 2.1-1.3 1.9.1-.1 1-.2 3-.2 4.2 2.3-1.1 4.7-2.3 6.1-2.7.1 0 .1 0 .2-.1-.6-.2-1.5-.7-2.3-1.2-1.2-.8-1-2-.1-2.2z"/><path class="st2" d="M153.4 194.8c2.9-.9 3 1.4 2.6 3.2-.4 1.9-.4 5.8-.2 7.8l4.7.2c-.2-1.2 0-4.8.1-7 .1-2.1 2.2-5.3 3-2.1.7 3.2 4 3.4 6.2 2s3.9-4.3 6.2-8.6c2.4-4.2-.7-5.3-2.6-5.1-1.9.2-3.7.5.5-3 3.9-3.2-2.7-4.9-5.7-5.5-5 5.3-11.2 11.2-16.6 15.9-.7.6-1.4 1.2-2 1.7.6.6 1.9 1.1 3.8.5"/><path class="st11" d="M153.4 194.8c2.9-.9 3 1.4 2.6 3.2-.4 1.9-.4 5.8-.2 7.8l4.7.2c-.2-1.2 0-4.8.1-7 .1-2.1 2.2-5.3 3-2.1.7 3.2 4 3.4 6.2 2s3.9-4.3 6.2-8.6c2.4-4.2-.7-5.3-2.6-5.1-1.9.2-3.7.5.5-3 3.9-3.2-2.7-4.9-5.7-5.5-5 5.3-11.2 11.2-16.6 15.9-.7.6-1.4 1.2-2 1.7.6.6 1.9 1.1 3.8.5z"/><path class="st2" d="M148.4 226.1c2.4-.7 3.9 4.4 7.3 1.4 3.5-3 1-5.5.9-8s2.7-3.5 1.9-6.6c-1.3-4.7-5.7-.2-8.4 2.4s-2.9.5-.1-3.7c2.7-4.2-1.7-5.6-4.5-4.5-2.4 1-4.7 0-6.1-1.2-1 1.7-1.8 3.2-2.6 4.8-2.4 4.9-.7 5 1 5s5.5 7.3 6 8.7c.2.5 1.5 2.3 3.1 4.7-.1-1.2.1-2.5 1.5-3"/><path class="st11" d="M148.4 226.1c2.4-.7 3.9 4.4 7.3 1.4 3.5-3 1-5.5.9-8s2.7-3.5 1.9-6.6c-1.3-4.7-5.7-.2-8.4 2.4s-2.9.5-.1-3.7c2.7-4.2-1.7-5.6-4.5-4.5-2.4 1-4.7 0-6.1-1.2-1 1.7-1.8 3.2-2.6 4.8-2.4 4.9-.7 5 1 5s5.5 7.3 6 8.7c.2.5 1.5 2.3 3.1 4.7-.1-1.2.1-2.5 1.5-3z"/><path class="st2" d="M184.8 193.3c-.2-2.4 1.2-4.8 4.5-3.5 3.2 1.4 5.2.2 6.6-.9 1.4-1.1 7.2-2.5 6.3 2.6-.6 3.7-2.4 3.9-2.9 5.8-.5 2 1 .7 1.9-.7.9-1.5 2.9-7.6 7-3 1 1.1.6 3-.6 5.1-1.2 2.1-.2 3.4.5 4.5s2.5 6.6-3.7 7c-2.2.1-5-.5-5-.5-.2 2.4-2.5 5.7-4.8 9.2-.2.4-1.6.4-2.2-.1-.6-.5-2.4-1.4-1-2.9s3.6-4.6 3.2-6c-.4-1.4-1.4-2.6-2.9-.7-1.5 1.9-3.9 5.7-6.5 5.8s-5.2-2.2-4-4.6c1.2-2.4 1.6-3.6-.1-5.7-1.7-2.1-1.1-4.8 2.6-6.5 1.1-.5 3.1 0 4.5 1.1s2.1 0 .2-1.1c-1.8-1-3.3-2.4-3.6-4.9"/><path class="st11" d="M184.8 193.3c-.2-2.4 1.2-4.8 4.5-3.5 3.2 1.4 5.2.2 6.6-.9 1.4-1.1 7.2-2.5 6.3 2.6-.6 3.7-2.4 3.9-2.9 5.8-.5 2 1 .7 1.9-.7.9-1.5 2.9-7.6 7-3 1 1.1.6 3-.6 5.1-1.2 2.1-.2 3.4.5 4.5s2.5 6.6-3.7 7c-2.2.1-5-.5-5-.5-.2 2.4-2.5 5.7-4.8 9.2-.2.4-1.6.4-2.2-.1-.6-.5-2.4-1.4-1-2.9s3.6-4.6 3.2-6c-.4-1.4-1.4-2.6-2.9-.7-1.5 1.9-3.9 5.7-6.5 5.8s-5.2-2.2-4-4.6c1.2-2.4 1.6-3.6-.1-5.7-1.7-2.1-1.1-4.8 2.6-6.5 1.1-.5 3.1 0 4.5 1.1s2.1 0 .2-1.1c-1.8-1-3.3-2.4-3.6-4.9z"/><path class="st2" d="M216.4 177.1c-2.2-.5-5.1-.9-5.5 3.7-.1 1.7 1.6 3.1 3.2 3.7 1.6.6 1.4 1.7-.4 1.1-1.7-.6-3.1-1-4.3 2.6s1 4.1 2.1 4.3 2 .5 1.7 2c-.2 1.5-1 5.8 1.9 6.2s5.3-3.1 6.2-4.8 1.9-3.5 2.1-1.5c.3 2-.1 3-1.1 5.2s-1 3.2.5 3.1c1.5-.1 4 0 4.7-1.7s1.9-5.1 2-7.5c.1-1.5 1.4-1.6 2.3-1.6.3-2.5.7-5 1-7.1-4.9.7-9-5.2-10.5-10.4-1.5 2-4 3.2-5.9 2.7"/><path class="st11" d="M216.4 177.1c-2.2-.5-5.1-.9-5.5 3.7-.1 1.7 1.6 3.1 3.2 3.7 1.6.6 1.4 1.7-.4 1.1-1.7-.6-3.1-1-4.3 2.6s1 4.1 2.1 4.3 2 .5 1.7 2c-.2 1.5-1 5.8 1.9 6.2s5.3-3.1 6.2-4.8 1.9-3.5 2.1-1.5c.3 2-.1 3-1.1 5.2s-1 3.2.5 3.1c1.5-.1 4 0 4.7-1.7s1.9-5.1 2-7.5c.1-1.5 1.4-1.6 2.3-1.6.3-2.5.7-5 1-7.1-4.9.7-9-5.2-10.5-10.4-1.5 2-4 3.2-5.9 2.7z"/><path class="st2" d="M193.2 176.3c-.9 1.5-3.4 5.7-2.2 7.1 1.1 1.4 2.4-1.4 3.4-.4s3.2 2.1 3.2 1.4.2-2.2.6-4.2c.4-2 1.2-3.1 2.1-1.5.9 1.6 2.1 3 5.2 2.2 3.1-.7 2.7-4 2.1-6.3-.6-2.4 1.6-3.5 2.7-4.1 1.1-.6 4-2.9 1.9-4.8-2.1-2-4 .9-5.8 1.2-1.9.4-1.1-1.2 2.7-4.2 3.3-2.6.5-5.1-1.5-6-5.3 5.4-14.8 14.1-16.9 16.1-.7.7-1.4 1.6-2 2.6 5-2.5 5.3-.5 4.5.9"/><path class="st11" d="M193.2 176.3c-.9 1.5-3.4 5.7-2.2 7.1 1.1 1.4 2.4-1.4 3.4-.4s3.2 2.1 3.2 1.4.2-2.2.6-4.2c.4-2 1.2-3.1 2.1-1.5.9 1.6 2.1 3 5.2 2.2 3.1-.7 2.7-4 2.1-6.3-.6-2.4 1.6-3.5 2.7-4.1 1.1-.6 4-2.9 1.9-4.8-2.1-2-4 .9-5.8 1.2-1.9.4-1.1-1.2 2.7-4.2 3.3-2.6.5-5.1-1.5-6-5.3 5.4-14.8 14.1-16.9 16.1-.7.7-1.4 1.6-2 2.6 5-2.5 5.3-.5 4.5.9z"/><path class="st2" d="M224 226.2c1.6 1.5 5.5 3.6 8.2 1.1s-.6-5.2-1-7.2 2-3.2.7-6.5c-2.2-5.6-5.3 1.1-7.2 3s-1.6-1.3.1-3c.9-.9 4.7-3.2 2.5-5.8s-5.5-1.1-7.1 0-2.9 2.5-5.3 1.7c-2.5-.7-4.6-1-6.1 2.6s1.4 2.6 3.7 5.2c2.4 2.6.9 2.7-1 2.1-1.9-.6-2.7-3-5.5-2.6-2.7.4-2.7 4.7-1.9 5.8.9 1.1 2.6 1.7 1.4 3.9-1.2 2.1.6 4.6 2.9 5.6 2.2 1 5.6-3 6.8-4.6s2.5-1.2 2.2 0c-.2 1.1-.8 3.9-.9 6.2 1.9-.6 3.8-1.2 5.6-1.7 0-1.3-.3-3.4-.8-5.4-.7-2.6 1.1-1.9 2.7-.4"/><path class="st11" d="M224 226.2c1.6 1.5 5.5 3.6 8.2 1.1s-.6-5.2-1-7.2 2-3.2.7-6.5c-2.2-5.6-5.3 1.1-7.2 3s-1.6-1.3.1-3c.9-.9 4.7-3.2 2.5-5.8s-5.5-1.1-7.1 0-2.9 2.5-5.3 1.7c-2.5-.7-4.6-1-6.1 2.6s1.4 2.6 3.7 5.2c2.4 2.6.9 2.7-1 2.1-1.9-.6-2.7-3-5.5-2.6-2.7.4-2.7 4.7-1.9 5.8.9 1.1 2.6 1.7 1.4 3.9-1.2 2.1.6 4.6 2.9 5.6 2.2 1 5.6-3 6.8-4.6s2.5-1.2 2.2 0c-.2 1.1-.8 3.9-.9 6.2 1.9-.6 3.8-1.2 5.6-1.7 0-1.3-.3-3.4-.8-5.4-.7-2.6 1.1-1.9 2.7-.4z"/><path class="st2" d="M175.6 221.4c2.6.1 5.5-.7 7.7-2.4 2.2-1.6 8.1-.7 5.7 3.4-2.4 4.1-1.6 5-.2 3.5 1.4-1.5 3.1-4.2 5.7-3.5 2.6.7 1.5 2.7-.1 5-1.6 2.2-.6 3.7.6 4.6 1.2.9 3.5 5.6-3.4 7.6-3 .9-3.5-.5-5.5-1.2s-2.1 1-.7 3.1c1.4 2.1 2.9 4.1 1.2 4.1-1.6 0-2.9.3-3.1 1.5-.2 1.2-2.9-.2-3.5-2.9-.6-2.6-1.2-7.6-2.6-5.1-1.4 2.5-2.6 6.6-6.1 4.7-3.5-1.9-1.1-4.3-2.9-6.1-1.7-1.7-3.4-4-1.6-7.1 1.7-3.1 3.2-.5 4.8-.5s1.9-1.5.4-2.6c-1.3-1.2-3.2-6.5 3.6-6.1"/><path class="st11" d="M175.6 221.4c2.6.1 5.5-.7 7.7-2.4 2.2-1.6 8.1-.7 5.7 3.4-2.4 4.1-1.6 5-.2 3.5 1.4-1.5 3.1-4.2 5.7-3.5 2.6.7 1.5 2.7-.1 5-1.6 2.2-.6 3.7.6 4.6 1.2.9 3.5 5.6-3.4 7.6-3 .9-3.5-.5-5.5-1.2s-2.1 1-.7 3.1c1.4 2.1 2.9 4.1 1.2 4.1-1.6 0-2.9.3-3.1 1.5-.2 1.2-2.9-.2-3.5-2.9-.6-2.6-1.2-7.6-2.6-5.1-1.4 2.5-2.6 6.6-6.1 4.7-3.5-1.9-1.1-4.3-2.9-6.1-1.7-1.7-3.4-4-1.6-7.1 1.7-3.1 3.2-.5 4.8-.5s1.9-1.5.4-2.6c-1.3-1.2-3.2-6.5 3.6-6.1z"/><path class="st6" d="M200.2 134.4c-.7 2-1.7 4.5-2.2 5.7s-2.8.8-2.6-.1c.4-1.9-2.3-.6-2-2.1.2-1.2-.2-3.2 1.1-3.2 1.4 0 4-.3 5.7-.3"/><path class="st7" d="M200.2 134.4c-.7 2-1.7 4.5-2.2 5.7s-2.8.8-2.6-.1c.4-1.9-2.3-.6-2-2.1.2-1.2-.2-3.2 1.1-3.2 1.4 0 4-.3 5.7-.3z"/><path class="st6" d="M196.1 44.5c.2-.6.4-1.3.7-1.8-.9.5-1.8.9-2.6 1.4.5.7 1.3 2 1.9.4M218.5 45.7c-.4-1.3-1.6.7-3.1 2.6-1.6 1.9-3.8.7-4-.2s-.7-2-2.1-3.8c-1.4-1.8 1.3-4.3 2.4-4.6 1.1-.3 2.5-.6 2.9-.9.3-.3-.2-2.1-.5-3.5-4.5 1.3-9.9 3.6-14.7 6 1.5.6 1 3.4.9 3.8-.2.4-.7 2.9.4 1.4s1.6-2 2.7-2.4c1.2-.4 2.5-.3 2.5 1.4.1 1.7-.7 1.6-1 2.7-.2 1.1 0 1.1.6 1.3s.9 1 .5 2.2-2.3 1.3-4 1.1-1.9.1-1.3.6c.5.5 1.1 1.4 1.3 2.5 4.1-2 8.9-3.6 16.5-5.1.2-1.4.3-4 0-5.1M179.2 70.2c-.6-1.1-1.4-1.3-1.7-.4s-.9 3.8-2.9 4.6c-.6.3-1.1.4-1.5.5.7.7 1.4 1.4 2.3 2 1.5-1.6 2.9-3.1 4.3-4.4.1-.7-.1-1.5-.5-2.3M197.8 55.4c-.7-.2-1.2.8-1.7 1.5-.4.7-1.4 2-3 1.8s-2-.7-2.4-2.1c-.4-1.4-1.4-1.8-2.6-1.8-1.2 0-2-1.4-.7-2.9 1.2-1.5 2.5-.8 3.5-.8s1.5-1.1.7-1.6c-.6-.4-1.8-1.7-2-2.7-3.5 2.3-8.6 5.9-13.1 9.9.8.1 1.7.3 2.2.5.6.2 1.6 1 1.4 2.1-.1 1.1.2 1.4.9.6.7-.7-.1-3 2.2-3.9s2.6.9 2.5 2c-.1 1.2 0 2.3 1.2 2.8s2.5 2.4-.1 3.5-4 1.4-5.1 1.7-.8 1.4.1 2c.5.4.9.8 1.2 1.1 3.3-3 6.4-5.5 9.9-7.9 1.9-1.3 3.7-2.5 5.5-3.5.3-.9.4-1.9-.6-2.3M173.5 67c.1-1.2-.9-1.7-1.5-1.9-.5-.1-1.3-1-1.7-1.8-.6.8-1.2 1.6-1.6 2.5.3.8.5 1.6.8 2.3 1.5 0 3.9-.1 4-1.1M226 125c-4.1-.3-8.9.6-13.5 2.3.8.5 1.7 1.6 3.3 1 2.4-.8 3.2 1.7 2.1 2.4s-1.5 2.4.6 1.1c2.1-1.3 4 .6 3.1 1.9-.9 1.4-2 .3-1.7 2.2.2 1.9-.2 3.7-1.9 4s-2.1-2.3-2.9-2.1c-.8.2.2 4.6-.2 4.7-1.2.2-2.4 1.3-3 1.9.1 0 .1.1.1.1 6.8 4.9 8.6 2.2 9.6-.1 1-2.4 3.2-9.4 3.9-13 .2-2.2.7-4.4.5-6.4M211.1 138.5c.4-.9-.6-1.7-1.7-1.1-1.1.7-2.6 1.7-3.7-.1s1.2-2 1.3-2.9-.7-1-.3-2.4 2-1 3.1-.3c1.3.9.9-1.2.7-2-.1-.6-.2-1.2-.1-1.7-1.3.6-2.7 1.3-3.9 2.1-6.4 3.9-6.6 7.2-5.1 8.5 1.3 1.1 4.1 1.6 8.7 4.7.1-1.6.7-4.1 1-4.8M190.8 134.8c-2.6-1.3-5.2-4.2-7-7.6 0 0 .1-.5-.6-.5s-3.5-.2-8.1-1.9c-4.6-1.6-5.2-.6-5.8 1.4-.6 2-1.1 5.6-1.2 11.6-.1 6 2.5 9.7 4.1 9.1.8-.3 2.8-1.3 5-2.4 0-1.2.1-3.2.2-4.2.2-1.4-1.3-.9-1.9-.1-.6.7-1.8 2-2.9 1.8-1.1-.2-1.9-2.2-1.7-4 .2-1.9-2-2.6-.6-5.1s2.5.6 3.7.4c1.2-.2.6-.9 0-2.8s1.8-2.5 3.2-1.1c.9.9 1.4-1.1 2.7-.8 1.4.3 2.2 1.2 1.4 2.6-.6 1.1-1.1 3.5.1 2.2 1.2-1.3 2.4-2.1 3.5-1.2 1.1.9.4 2.7.1 3.6-.3.9 2 2.1.4 3.2s-3.4-.8-4.3-.6c-.9.2-1.1 1.4.1 2.2.8.6 1.7 1 2.3 1.3 2.6-.9 5.6-2.6 6.6-3.2l1.6.1c0-2.3-.2-3.6-.9-4M181.6 162.1c-1-2.2-1.3-.5-4.1 3.8-1.4 2.2-4.9 6.3-9.3 10.9 3.1.6 9.6 2.2 5.7 5.5-4.2 3.5-2.4 3.2-.5 3s5 .9 2.6 5.1c-2.4 4.2-4 7.2-6.2 8.6-2.2 1.4-5.5 1.2-6.2-2s-2.9 0-3 2.1-.4 5.7-.1 7l-4.7-.2c-.1-2-.1-6 .2-7.8.4-1.9.3-4.1-2.6-3.2-1.9.6-3.1.1-3.8-.3-5.6 4.9-8.4 8.4-10.2 11.4 1.4 1.3 3.7 2.2 6.1 1.2 2.7-1.1 7.2.2 4.5 4.5-2.7 4.2-2.6 6.3.1 3.7 2.7-2.6 7.1-7.1 8.5-2.4.9 3.1-2 4.1-1.9 6.6s2.6 5-.9 8-5-2.1-7.3-1.4c-1.4.4-1.7 1.8-1.6 2.9 3.1 4.4 7.6 10.6 9.2 13.2 2.5 4.1 2.5 9.1 3.5 8.3 1-.7 3.4-3 4.1-3.6.7-.6 1.5-1.4 1.1-2.7-.4-1.4-1.8-8.7-1.4-13.8.5-5.8 3.2-12.2 5.2-15.9 1.9-3.5 7.7-14.8 9.1-17.8 1.4-3 3.9-6.5 4.5-9.2s3-9.1 4-12.1c-.4-2.5-2-7.5-4.6-13.4"/><path class="st6" d="M235.8 217.3c-3.2-5.3-3.9-7.5-4.3-12.9-.3-3.4 0-7.9.5-12.2-1-.1-2.2.1-2.3 1.6-.1 2.4-1.2 5.7-2 7.5-.7 1.7-3.2 1.6-4.7 1.7-1.5.1-1.5-.9-.5-3.1s1.4-3.2 1.1-5.2c-.3-2-1.2-.2-2.1 1.5-.9 1.7-3.4 5.2-6.2 4.8-2.9-.4-2.1-4.7-1.9-6.2.2-1.5-.6-1.7-1.7-2-1.1-.2-3.4-.7-2.1-4.4 1.2-3.6 2.6-3.2 4.3-2.6 1.7.6 2-.5.4-1.1s-3.4-2-3.2-3.7c.3-4.6 3.2-4.2 5.5-3.7 1.9.4 4.4-.7 6.1-2.5 0-.1-.1-.2-.1-.3-3.3-12.6 3-28.2 4.7-32.5 1.7-4.4 8.4-16.6 10.8-20.3-1.2-.6-4.5-2.3-6.3-3.2-1.8-.9-2.8-1.4-3.3-.7s-1.1 1.1-2 2.3c-1.7 2.5-.2 2.1.2 2.1.5 0 2.6 2.7 3 3.4.4.6 0 1.1-.9 3.1-1.1 2.6-1.9 8.6-2.9 12.2-3 10.9-7.7 9.8-9.8 8.4-2.1-1.4-2.7.7-4.9 3.7-.5.7-1.8 2.1-3.4 3.7 2 .9 4.8 3.5 1.5 6.1-3.9 3-4.6 4.6-2.7 4.2 1.9-.4 3.7-3.2 5.8-1.2s-.7 4.2-1.9 4.9c-1.1.6-3.4 1.7-2.7 4.1.6 2.4 1 5.6-2.1 6.3s-4.3-.6-5.2-2.2c-.9-1.6-1.7-.5-2.1 1.5-.4 2-.6 3.5-.6 4.2s-2.2-.4-3.2-1.4-2.2 1.7-3.4.4c-1.1-1.4 1.4-5.6 2.2-7.1.8-1.4.5-3.4-4.5-1.1-1.6 2.7-2.9 6.6-4.9 12.6-2.7 8.3-8.9 19.7-11.5 23.8-6.7 10.8-7.9 20.9-6.9 27.3 1 6.3 1.9 5.8 3.2 5.8 1.4 0 4.7 4.2 7 6.8 2.2 2.6 3.1 1.5 4.2.6 3.6-2.8 10.8-7.5 21-12.3 4.3-2.1 10.1-4.3 15.8-6.1.1-2.3.7-5.2.9-6.2.2-1.2-1-1.6-2.2 0s-4.6 5.6-6.8 4.6-4.1-3.5-2.9-5.6c1.2-2.1-.5-2.7-1.4-3.8s-.9-5.5 1.9-5.8c2.7-.4 3.6 2 5.5 2.6s3.4.5 1-2.1-5.2-1.6-3.7-5.2 3.6-3.4 6.1-2.6c2.5.7 3.7-.6 5.3-1.7 1.6-1.1 4.8-2.6 7.1 0 2.2 2.6-1.6 5-2.5 5.8-1.7 1.7-2 4.8-.1 3s5-8.6 7.2-3c1.2 3.2-1.1 4.5-.7 6.5.4 2 3.7 4.7 1 7.2s-6.6.4-8.2-1.1c-1.6-1.5-3.4-2.2-2.6.5.6 2 .8 4.1.8 5.4 5.4-1.5 10.2-2.4 12.6-2.2 3.5.3 6.2 1.4 6.1-1.9-.5-3.4-2.2-5.7-5.4-11"/><path class="st12" d="M191.7 239.5c-3 .9-3.5-.5-5.5-1.2s-2.1 1-.7 3.1c1.4 2.1 2.9 4.1 1.2 4.1-1.6 0-2.9.2-3.1 1.5s-2.9-.2-3.5-2.9c-.6-2.6-1.2-7.6-2.6-5.1-1.4 2.5-2.6 6.6-6.1 4.7-3.5-1.9-1.1-4.3-2.9-6.1-1.7-1.7-3.4-4-1.6-7.1 1.7-3.1 3.2-.5 4.9-.5 1.6 0 1.9-1.5.4-2.6s-3.4-6.5 3.5-6.1c2.6.1 5.5-.7 7.7-2.4 2.2-1.6 8.1-.7 5.7 3.4s-1.6 5-.2 3.5c1.4-1.5 3.1-4.2 5.7-3.5 2.6.7 1.5 2.7-.1 5-1.6 2.2-.6 3.7.6 4.6 1.2.9 3.5 5.6-3.4 7.6M204.3 210.2c-2.2.1-5-.5-5-.5-.2 2.4-2.5 5.7-4.8 9.2-.2.4-1.6.4-2.2-.1-.6-.5-2.4-1.4-1-2.9s3.6-4.6 3.2-6c-.4-1.4-1.4-2.6-2.9-.7-1.5 1.9-3.9 5.7-6.5 5.8s-5.2-2.2-4-4.6c1.2-2.4 1.6-3.6-.1-5.7-1.7-2.1-1.1-4.8 2.6-6.5 1.1-.5 3.1 0 4.5 1.1s2.1 0 .2-1.1c-1.9-1.1-3.4-2.5-3.6-5-.2-2.4 1.2-4.8 4.5-3.5 3.2 1.4 5.2.2 6.6-.9 1.4-1.1 7.2-2.5 6.3 2.6-.6 3.7-2.4 3.8-2.9 5.8s1 .7 1.9-.7c.9-1.5 2.9-7.6 7-3 1 1.1.6 3-.6 5.1-1.2 2.1-.2 3.4.5 4.5.8 1.3 2.5 6.8-3.7 7.1"/><path class="st0" d="M306.8 111.4l3.8-2.7 8.2 12.2 4.9-3.4-8.5-12 3.7-2.6 9 12.6 4.9-3.4-13.4-18.7-22 15.6 12.1 17.2 4.9-3.4zM322.7 153.8l7.2-3.3-4.9-10.8 16.8-7-3-6.8-23.8 10.4zM327 165.2l.8 6.6 16-1.8.6 6.9 7.1-.5-1.9-23.3-7.2.5.6 9.7zM327.8 187.9l.1 7.9 23.5-.1-.1-7.9zM338.9 207c-3.9-.8-8.6-.1-11.9 2.4-2.9 2.2-4.3 4.5-5.1 8.5-.5 2.6-.1 5.9.8 8.9l6.2-2.1c-.6-1.4-.9-3.6-.2-5.8 1.3-4.2 4.7-6.2 8.9-5.5 4.5.7 7 4.8 6.2 9.6-.3 1.9-1.3 3.6-3.5 5l3.8 4.6c3.1-1.9 5.5-5.7 6-8.3.9-4.5-.2-7.6-2.3-11.2-1.9-3.6-5.3-5.4-8.9-6.1M334.6 239.8c-3.3-.8-7.8 2.8-9.9 4.8-1.2 1.2-5.6 5.6-7.6 4.9-1.8-.6-1.2-3.3-.6-5.1.9-2.6 2.2-4.8 4.3-6.2l-3.9-1.7c-1.9 1.6-4 4.1-4.9 6.7-1 3-1.4 6.4-1 8.6.5 2.8 1.5 4.7 4.7 4.4 2.5-.2 8.7-4.3 12.3-7.6 1.8-1.7 3.4-1.9 4.2-1.5 1.3.7 1.2 3 .8 4.4-.6 1.9-1.5 4.7-3 5.8l5.3 3.6c2.2-2.2 3.3-5.5 3.9-8.5 1.5-7.6-2.5-12.1-4.6-12.6M305.1 83.8c-.5-3.6-2.5-7.8-4.5-9.6-3.2-2.7-6.9-3.5-10.9-3s-7.8 3.1-9.9 6.1c-2.3 3.3-3.6 7.8-2.7 11.8.8 3.6 2.3 5.7 5.7 8.1 2.1 1.5 5.4 2.5 8.4 3l.7-6.5c-1.6 0-3.6-.7-5.4-2.2-3.4-2.9-3.5-7.5-1.4-10.4 2.7-3.7 7.3-4.4 11.4-1.7 1.6 1.1 2.3 2.8 2.6 5.4l6-1zM64.7 219.2c.2-1.8.1-5 2-5.4s3.1 1.4 3.5 3.3c.6 2.7 1.3 4.8.2 7.1l5-.5c.8-2.3.6-5.4 0-8.1-.7-3.1-1.6-5.2-3.9-7.2-2.2-1.9-3.8-2.4-7-1.8-1.9.4-5.4 3.9-5.5 10.8 0 1.3-.3 3.8-1.5 3.9-1.5.1-2.6-1.7-2.9-3.2-.4-1.9.1-6.2.9-7.8h-5.2c-.8 3-1.1 7.2-.4 10.2 1.4 6.8 5.5 9 8.8 8.6 3.6-.5 5.5-4.2 6-9.9M54.2 190.7l18.6-.2-.1-5.8-18.6.2V177l-6 .1.3 22.1 5.9-.1zM87.7 132.5l-14.3-8.3h.1l18.9-.3 4.5-7-23.3-13.5-3.6 5.5 16 10-21.8.6-3 5.9 23 13.3zM64.5 167.9c7.9 0 14.4-6.4 14.4-14.4 0-7.9-6.4-14.4-14.4-14.4-7.9 0-14.4 6.4-14.4 14.4.1 8 6.5 14.4 14.4 14.4m0-21.8c4.1 0 7.5 3.3 7.5 7.5 0 4.1-3.4 7.5-7.5 7.5s-7.5-3.3-7.5-7.5c.1-4.2 3.4-7.5 7.5-7.5M88.2 248c0-7.9-6.4-14.4-14.4-14.4-7.9 0-14.4 6.4-14.4 14.4s6.4 14.4 14.4 14.4c7.9 0 14.4-6.5 14.4-14.4m-14.4 7.5c-4.1 0-7.5-3.4-7.5-7.5s3.4-7.5 7.5-7.5 7.5 3.3 7.5 7.5c0 4.1-3.4 7.5-7.5 7.5M91.1 264.4c-2.2 2-3.3 6.6-1.2 9.7-2.3-1.1-6.8-1.5-8.9.3-5.2 4.5 1.1 11 6.2 16.1l7.2 7.1 19.1-15.8-7.7-9c-2.8-3.3-10.3-12.3-14.7-8.4m.8 25.1c-1.9-2.3-7.6-6.7-5.1-9 2.3-2.2 8 4.7 8.7 5.6l-3.6 3.4zm8.9-8l-.5-.6c-1.6-1.9-6.9-7.6-4.7-9.6 2-1.9 7.1 4.6 8.5 6.3l.6.7-3.9 3.2z"/></svg>