<svg version="1.1" id="Layer_1" xmlns="http://www.w3.org/2000/svg" x="0" y="0" width="400" height="400" xml:space="preserve"><style>.st1{fill:#00788c}.st2{fill:#fff}</style><path d="M104.2 190.3H77.7V219l-15.9 7.7 15.9 8.4v25.4l17.6 10.8c6.4-.9 14.6-2 24.3-2.9l67.7 39 12.4 56.7c0-.2 12.6-56.7 12.6-56.7l67.7-39c9.5 1.1 17.9 2 24.3 2.9l17.4-10.8v-25.4l15.9-8.2-15.9-7.9v-28.7h-26.5s4.2-4 9.3-12.8c2.2-3.7 4.2-8.4 6.6-13.7 19.2-5.7 33.3-18.1 39.5-30 16.5-30 28.9-67 28.9-67s-7.1 3.5-15.7 7.7c6.8-21.2 11.2-39.3 11.2-39.3s-75.9 50.3-135.2 97.5l-5.1-3.1c0-.4.2-4.6.2-5.1 0 0 .7-4.9-8.2-7.9-.7-.2-1.1-.4-1.5-.4 4.2-3.3 11-8.2 15.7-11.5 7.7-5.3 6.8-11.2 6.8-11.2l-28.2 21c-21.6-7.1-39.7 0-39.7 0l-28.2-21s-.9 5.7 6.8 11.2c4.9 3.3 11.7 8.2 15.9 11.5-.4.2-1.1.4-1.5.4-8.8 3.1-8.2 7.9-8.2 7.9 0 .4.2 4.6.2 5.1l-5.1 2.6C100.4 85.1 24.6 34.9 24.6 34.9S28.8 53 35.8 74.2c-9.3-4.4-15.7-7.7-15.7-7.7s12.3 37.1 28.7 67c6 12.1 20.3 24.3 39.5 30 0 0 3.3 7.5 6 12.8 3.5 6.8 9.9 14 9.9 14z" fill="#1d1160"/><path class="st1" d="M231.4 147.3c-.2.9-.7 1.8-.9 2.4 26.7-17.4 73-47.6 125-81.4 0 0 0 1.1 4.6-12.4-54.6 33.4-103.3 70.9-128.7 91.4zM167.9 147.3c-25.1-20.5-73.9-58-129-91.3 4.4 13.2 4.6 12.4 4.6 12.4 52 33.5 98.6 64 125.3 81.4-.5-.7-.7-1.6-.9-2.5zM199.7 174.2c-4.4-1.8-15.9-7.5-22.7-22.3 5.5 4.9 12.8 6.4 18.7.9-7.1-3.1-7.9-15.7-9.3-19-2.9-6.6-7.1-10.1-10.6-11.5 1.8-.7 3.3-1.1 4.6-1.5 3.3 1.8 8.8 5.7 10.6 14.1 0 0 .7-9.3-4-15.9 9-2.2 18.1-2 25.4 0-4.6 6.6-4 15.9-4 15.9 1.8-8.2 7.3-12.4 10.6-14.1 1.5.4 3.1 1.1 4.6 1.5-3.5 1.5-7.7 4.6-10.6 11.5-1.3 3.3-2.2 15.9-9.3 19 1.9 9.3-.1 18.4-4 21.4zm-80.1 17.7s-13-9.3-20.5-26.5l5.1 1.5c17 4.4 49.6 9 49.6 9-15.7.4-29.1 1.5-36.6 2.4-1.5-2-3.5-4.4-4.2-6.2 0 0 .7 6 2 9.7 2 5.5 4.6 10.1 4.6 10.1zM284.1 181.7c1.3-3.8 2-9.7 2-9.7-.7 2-2.6 4.2-4.2 6.2-7.5-.9-21-2.2-36.6-2.4 0 0 32.4-4.4 49.6-9l5.1-1.5c-7.3 17-20.5 26.5-20.5 26.5.4.1 2.9-4.5 4.6-10.1zM159.1 272.6L126 253.4c-2.4.2-4.6.4-6.8.7l46.1 26.7c-2.5-2.7-4.5-5.3-6.2-8.2zM240.2 272.6l33.1-19.2c2.4.2 4.6.4 6.8.7L234 280.8c2.7-2.7 4.7-5.3 6.2-8.2zM184.9 277.2c-14.6-3.3-20.7-10.4-20.7-10.4 3.1 6 7.5 11.5 13 15 .2.1 6.4-1.9 7.7-4.6zM176.1 261.4l-3.3-3.3c-4.6 1.8-7.3 3.5-8.8 4.6 3.3 3.1 9.5 7.1 20.5 9.5-1.2-3.3-4.7-6.9-8.4-10.8z"/><path class="st1" d="M199.4 296c-4.9 0-8.4 2-9.5 2.4-1.3-2.4-2.6-4.4-4-6.6 4.2.4 7.7-.2 7.7-.2-1.8-.7-6.2-2.2-12.4-6 .4-.2 1.1-.4 1.5-.7 1.5-.9 3.3-1.8 4.2-3.1 1.5-1.5 2.6-3.5 2.6-5.7 0-7.3-4.9-9.7-10.4-15-1.1-1.1-2.4-2.2-3.5-3.5 4.9-1.3 11.9-2.4 21.2-2.6l2.2 30.7h.2l2.4-30.7c9.3.2 16.1 1.3 21.2 2.6-1.3 1.1-2.4 2.4-3.5 3.5-5.5 5.3-10.4 7.9-10.4 15 0 2.4 1.1 4.2 2.6 5.7 1.3 1.3 2.9 2.4 4.2 3.1.4.2 1.1.4 1.5.7-6 4-10.6 5.3-12.4 6 0 0 3.7.9 7.7.2-1.3 2.2-2.9 4.2-4 6.6-.7-.4-4-2.4-9.1-2.4z"/><path class="st1" d="M222.2 281.9c5.5-4 10.1-9 13-15 0 0-6 7.3-20.7 10.4 1.3 2.6 7.7 4.6 7.7 4.6zM214.7 272.4c11.2-2.4 17.2-6.4 20.5-9.5-1.3-1.3-4.2-3.1-8.8-4.6l-3.3 3.3c-3.6 3.7-7.1 7.3-8.4 10.8z"/><g><path class="st2" d="M189.7 153.5s-5.3-3.5-6.2-11.2c.1 0-7 11.9 6.2 11.2zM210 153.5s5.3-3.5 6.2-11.2c0 0 6.8 11.9-6.2 11.2zM206.1 307.2c-.9-1.1-2.4-2.2-6.6-2.2s-5.3 1.1-6.6 2l6.8 27.3 6.4-27.1zM251.7 187.5v9.9h-3.5v-9.9h-2.9v-3.1h8.8v2.9l-2.4.2zM236.1 187.5v9.9h-3.5v-9.9h-2.9v-3.1h9v2.9l-2.6.2zM188.9 193h1.3v-6.8l-1.5-1.5H180v12.8h3.3V193h2.4l2 4.4h3.3l-2.1-4.4zm-1.8-3.1h-3.8v-2.6h3.8v2.6zM271.1 187.5v-3.1h-9.5v13h9.5v-2.9h-6.4v-2h6.4v-3h-6.4v-2zM201.4 194.5v-10.1h-3.3v13h8v-2.9zM221.1 184.4h-8.6v11.5l1.5 1.5h8.6v-11.5l-1.5-1.5zm-1.8 10.1h-3.7v-7.1h3.7v7.1zM172.5 197.4v-11.5l-1.5-1.5h-8.6v12.8h3.3V193h3.8v4.2h3.1l-.1.2zm-6.8-7.1v-3.1h3.8v3.1h-3.8zM152.2 184.4v5.9h-3.7v-5.9h-3.1v13h3.1v-4.2h3.7v4.2h3.1v-13zM345 93.3c6.2-14.6 11-25.1 11-25.1-52 33.7-98.4 64-125 81.4-1.1 2.9-2.2 5.3-3.5 7.7l105-57.1-81.8 59.1 4-.7 43.2-4.2s29.3-2.9 45.7-24.7c7.7-11.9 20.7-46.1 20.7-46.1L345 93.3zM94.5 230.3l10.1-4.2v22.7c2.9-.4 5.7-.9 8.8-1.1v-50.3h-8.8v18.1l-10.1 4.2v-22.3h-8.8v26s-7.3 3.5-7.3 3.7l7.3 3.8v21.2c2.9-.4 5.7-1.1 8.8-1.5v-20.3zM163.5 230c2.2 0 4.2-.2 6.6-.2 1.8 4.2 3.3 9 4.9 13.2 3.1 0 5.7-.2 8.8-.2-1.8-4.2-3.3-9-4.9-13.2h3.5v-20.7l-4-4h-27.1l3.5 4.2v34.8c3.1-.2 5.7-.2 8.8-.4V230h-.1zm0-16.7h10.1v7.9c-3.5 0-6.6 0-10.1.2v-8.1zM198.1 213.3h10.1v29.6c3.1 0 6.2 0 9.3.2v-33.7l-4.2-4.2h-27.6l3.5 4.2v33.7h9c-.1-.3-.1-29.8-.1-29.8zM250.8 235.8c-5.7-.2-11.5-.7-17.2-.9v-6.2c5.7.2 11.5.4 17.2.7v-8.8c-5.7-.2-11.5-.2-17.2-.4v-6.6h17.2v-8.2H221l3.3 4.2v34c9 .2 18.1.7 26.7 1.3v-9h-.2zM273.3 213.3h7.7v-8.2h-25.1v8.2h7.7v32c3.3.2 6.4.4 9.7.9v-32.9zM148.1 209.3l-4.2-4.2h-27.1l3.3 4v33.1l3.5 4.2c7.7-.9 16.1-1.5 24.5-2v-35.1zm-9.1 26.9c-3.5.2-6.6.4-10.1.7v-23.6H139v22.9zM313 230.5c2.9-1.3 5.5-2.6 8.2-4-8.8-4.2-17.6-7.7-26.7-11.2v-10.1h9.5v3.7h9v-11.7h-30.4l3.5 4v21l18.3 7.9v11.7s-4.2-.4-9.5-1.3v-3.7l-8.8-1.1v11.9c9.7 1.1 18.7 2.4 27.1 4-.2-6.6-.2-16.3-.2-21.1z"/><g><path class="st2" d="M135 193.2v1.3h-3v-7h3v.9h3.1v-4h-9.5v11.5l1.6 1.5h7.9v-4.2z"/></g><path class="st2" d="M54.5 93.3c-6.4-14.6-11-24.9-11-24.9 52 33.7 98.4 64 125 81.4 1.1 2.9 2.2 5.3 3.5 7.7L67.3 100.4l81.8 59.1-4-.7-43.2-4.2s-29.3-2.9-45.7-24.7C48.6 118 35.6 83.8 35.6 83.8l18.9 9.5z"/></g><path d="M377.4 83.2c-8.4 22.1-19.4 45.2-24.9 54.7-9.3 15.9-27.8 25.4-38.6 29.1 0 0-5.3 12.8-10.8 19.8h22.1v30l21.2 10.1-21.2 10.6v25.4l-20.5 12.6s-16.3-2-24.3-2.9l-64.8 37.5c-12.8 58.7-16.1 75.6-16.1 75.6s-3.1-16.1-16.1-75.6l-64.8-37.5c-7.9.9-24.3 2.9-24.3 2.9l-20.5-12.6v-25.4L52.6 227l21.2-10.1v-30.2h22.1c-5.4-6.7-10.9-20-10.9-20-6.4-2.2-12.8-5.1-18.3-8.6-8.8-5.5-15.9-12.8-20.5-20.3-8.2-15.7-18.7-39-24.3-54.7-3.8-9.5-8.4-24-8.4-24s12.1 5.7 15.7 7.5c-5.7-17.4-10.8-40.4-10.8-40.4s82.9 54.7 141.1 101.2l.9-.7v-3.1c0-.7 0-1.8.4-3.3.7-2 2.2-4.2 5.5-6.4-4.2-3.3-12.1-8.4-12.8-9.3-5.5-4.9-6.6-10.4-6.2-13l.9-6.2 31.5 23.4c17.2-4.9 29.3-2.6 38.4 0l31.5-23.4.9 6.2c.4 2.9-.4 8.2-6.2 13-.7.7-8.4 6-12.8 9.3 3.5 2.2 4.9 4.4 5.5 6.4.4 1.5.4 2.6.4 3.3v3.1l.9.7C298 79.8 379.6 26.3 379.6 26.3s-4.2 19-10.8 40.4c3.3-1.5 15.7-7.5 15.7-7.5-2.2 11.6-7.1 24-7.1 24zM104.2 190.3H77.7V219l-15.9 7.7 15.9 8.4v25.4l17.6 10.8c6.4-.9 14.6-2 24.3-2.9l67.7 39 12.4 56.7c0-.2 12.6-56.7 12.6-56.7l67.7-39c9.5 1.1 17.9 2 24.3 2.9l17.4-10.8v-25.4l15.9-8.2-15.9-7.9v-28.7h-26.5s4.2-4 9.3-12.8c2.2-3.7 4.2-8.4 6.6-13.7 19.2-5.7 33.3-18.1 39.5-30 16.5-30 28.9-67 28.9-67s-7.1 3.5-15.7 7.7c6.8-21.2 11.2-39.3 11.2-39.3s-75.9 50.3-135.2 97.5l-5.1-3.1c0-.4.2-4.6.2-5.1 0 0 .7-4.9-8.2-7.9-.7-.2-1.1-.4-1.5-.4 4.2-3.3 11-8.2 15.7-11.5 7.7-5.3 6.8-11.2 6.8-11.2l-28.2 21c-21.6-7.1-39.7 0-39.7 0l-28.2-21s-.9 5.7 6.8 11.2c4.9 3.3 11.7 8.2 15.9 11.5-.4.2-1.1.4-1.5.4-8.8 3.1-8.2 7.9-8.2 7.9 0 .4.2 4.6.2 5.1l-5.1 2.6C100.4 85.1 24.6 34.9 24.6 34.9S28.8 53 35.8 74.2c-9.3-4.4-15.7-7.7-15.7-7.7s12.3 37.1 28.7 67c6 12.1 20.3 24.3 39.5 30 0 0 3.3 7.5 6 12.8 3.5 6.8 9.9 14 9.9 14z" fill="#a1a1a4"/></svg>