<svg version="1.1" id="Layer_2" xmlns="http://www.w3.org/2000/svg" x="0" y="0" width="400" height="400" xml:space="preserve"><style>.st0{fill:#fff}.st1{fill:#c4ced4}.st2{fill:#007dc5}</style><path class="st0" d="M353.3 203.2c1.9-4.6 9.1-22.4 9.1-22.4L332 197.7c-.1.1-9 5-21.9 10.5 6.5-16.1 12.2-32.4 17.8-53.9 10.7-40.8 16.5-85.8 16.7-87.6l2.3-18.1s-57.2 15.8-62.7 17.3c-20.3-24.5-51.6-39-84.5-39-33 0-64.4 14.6-84.7 39.3-5.6-1.7-63-17.7-63-17.7l2.4 18.2c.1.5 6.1 46.6 17.4 88.1 5.5 20.2 11.6 36.5 17.9 52.1-13.7-5.8-25.2-11.2-25.4-11.3l-28.2-13.4s6.7 16.9 8.6 21.6c-.4-.1-10.2-3.9-10.2-3.9l9.4 25.3v-.1c.6 1.8 4.6 12.6 35.1 94.3l4.2 11.2s6.8-2.2 8.8-2.8c1.7 4.5 6.1 16.3 6.1 16.3l12.3-6.3c9.4-4.8 29.5-12.9 45.7-15.5 19.3 26.4 34.4 40.1 35.1 40.7l8.4 7.5 8.2-7.6c.7-.6 15.9-14.9 34.8-40.5 18.1 2.4 33.6 9.7 41.5 14l12 6.6 5.2-12.6s.6-1.5 1.3-3.2c1 .3 6.8 2.3 6.8 2.3l4.4-11.2c.9-2.2 20.3-47.5 39-91.3l12.5-29.2c.2.1-12 5.4-12 5.4"/><path d="M334.5 202.1c-.2.1-14.6 8-33.6 15.2 8.6-20.3 15.4-38.4 22.2-64.3 10.7-40.8 16.5-86.5 16.6-87l1.3-10.7-10.4 2.9S202.5 93.5 198.8 94.6C195.1 93.6 58 55.4 58 55.4l1.4 10.7c.1.5 6 46.1 17.2 87.4 6.8 25 14.6 44.3 22.3 62.6-18.3-7.2-36.6-15.8-36.8-16l-16.6-7.9 6.8 17c16.3 40.8 24.6 63.2 35.1 91.6l13.5 36.4 7.2-3.7c10.8-5.5 33.1-14.3 50.3-16.5 19.8 27.5 35.5 41.7 36.2 42.3l4.9 4.4 4.8-4.5c.7-.6 16.6-15.6 36-42.2 20.1 2.1 37.4 10.2 46.2 15l7.1 3.9 3.1-7.4c8-19.3 47.6-116.6 48-117.6l7.7-18.9-17.9 10.1z"/><path class="st0" d="M348.9 206.8c-.3.1-32 13.6-57.9 20 10.1-23.2 18.9-44.1 27.1-75.1 10.7-40.5 16.4-85.9 16.5-86.4l.4-3.1-3.1.8S199.8 99.4 198.7 99.7c-1.1-.3-134.8-37.5-134.8-37.5l.4 3.2c.1.5 6 45.8 17.1 86.7 7.3 26.8 15.8 47.1 24.1 66.7 0 0 1.5 3.5 2.7 6.5-22.4-5.6-52.8-16.2-53.1-16.4l-4.3-1.5 1.6 4.2C65.7 247 72.5 265.9 79.7 286l14.6 40.3 1.9-.6c20.7-6.4 47.4-11.5 64.2-13.6 19.3 27.8 37.3 43.5 37.5 43.6l1.4 1.2 1.4-1.2c.2-.2 17.3-15.7 37.1-43.4 17.2 1.1 49.3 8.4 61.5 13.1l1.9.8.8-1.9c8-19.2 49.2-113.8 49.6-114.7l2.1-4.9-4.8 2.1z"/><path class="st1" d="M283.8 232.8l1.7-3.8c11.2-25.7 20-46 28.5-78.3 9-34.1 14.5-71.7 16-82.7-5.9 1.6-130.7 36.1-130.7 36.1l-.6.2S74.9 69.8 68.9 68.2c1.5 11 7.2 48.6 16.6 83 7.2 26.6 15.7 46.7 23.9 66.2l5.9 14.2 47.2 76.2.7 1.1c16.2 23.6 31.5 38.4 36.1 42.6 4.4-4.2 19.2-18.9 35.8-42.3l.7-.9 48-75.5z"/><path d="M109.7 186.7c-1.3-1.8-6.7-10.5-6.7-24.9v-1.3c-3.7-10-5.8-20.8-5.8-32.1 0-26.7 11.5-50.9 30.1-68.5 18.6-17.5 44.2-28.4 72.5-28.4 28.3 0 53.9 10.9 72.5 28.4s30.1 41.8 30.1 68.5c0 9.9-1.6 19.5-4.5 28.5 0 18.3-5.4 35.4-14.8 49.8-.1.1-.6.6-1.9 1.3 0 0-.1 0-.2.1s-.2.2-.2.5c0 0-.2 1.1-.5 2l.2-.1-.4.6c-17.5 23.9-46.3 39.4-78.8 39.4-42.7.1-78.8-26.7-91.6-63.8"/><path class="st2" d="M338.3 215.2c-.6.3-65.3 28.1-139.5 27.7-65.3-.3-139.3-28.1-140-28.4l-15.6-5.9 5.6 14.9c.1.4.1.4 35.1 94.3l2.5 6.8 6.9-2.2c15.4-4.9 56.5-16.2 105.3-16.2 45.3 0 84.9 9.3 101.2 14.8l6.9 2.3 2.7-6.8c1-2.5 23.9-56 39.1-91.4l7.5-17.5-17.7 7.6z"/><path class="st0" d="M339 224.3l-6.6 2.4s-14.6 5.3-14.7 5.3c-.7.2-6 1.9-10.1 5.4-1.4 1.2-2.9 2.9-4.2 4.7.3-.7.4-1.2.4-1.2l2-5.4-5.6 1.5-13.3 3.5c-1.3.3-10.3 2.2-13 2.8l-3.1.5-15.6 2.6c-.7.1-6.7 1.2-9.8 4.3-.7.7-1.3 1.5-1.8 2.3l.9-5.2-3.9.4-12.6 1.2-.4 3.2c-.3-.4-.7-.8-1.2-1.1-2.4-1.8-6.3-1.8-7.5-1.7l-18.4.5-14.9-.1c-.6 0-5.3.2-8.5 3.2-.5.5-.9 1-1.3 1.5-.1-1.8-.1-2.8-.1-2.8l-.1-2.6s-15-1.4-15.6-1.4l-18.2-2.3.8 4.1.2 1.1c-4.1-4.8-10.6-6.5-10.9-6.6-.1 0-18.7-4.2-18.7-4.2l1.2 4.8.9 3.5c-.5-1-1.1-1.8-1.7-2.6-2.7-3.5-5-6-10.3-7.9-4.6-1.6-13.9-3.8-14.3-3.9l-5.3-1.2c-4.8-2.1-15.4-5.5-19-6.7l-5.9-1.9 2.2 5.8L91.8 313s12.1-3.3 12.7-3.5 12.7-3 13.6-3.2c.6-.1 13.3-2.4 13.3-2.4v-.1c3.5-.5 10.6-1.6 11.3-1.7.6-.1 6.7-1 10.1-1.4l12.8-1.3c1.4-.1 5.5-.5 7.7-2.3.8-.6 1.5-1.4 2-2.1l.2 3.5 15.1-.5h.1c.5-.1 4.6-.5 7.2-3.1.3-.3.6-.6.9-1l-.1 3.9s11.6.3 12.2.3l13.8.4 9.9.8 12.6 1.4c.5.1 4.9.4 9-1.8.4-.2.7-.4 1-.7l-1 3.6 12.9 2.2v-.1c.4.1 9.3 1.7 11.4 2.1l1.4.4c.3.1 6.6 1.7 11.5 1.1 5.9-.7 12-5.5 14.7-11.7l12.8-29.4h-.1c.2-.6 18.2-42.1 18.2-42.1"/><path d="M225.2 295.6l8 .6 7.6-45-10.1 1zM258.4 254.6l-3.8 16.1 10-.3 6.6-23.5-15.4 2.6s-5.6.9-8.2 3.5c-3.5 3.5-4.4 10-4.4 10l-6.2 33.6 10 1s4 .5 7.3-1.2c2.4-1.2 3.9-3.8 4.7-6.2.8-2.4 3.1-12 3.1-12H253l-2 9.5s-.3 1.9-1.7 3.7c-1.4 1.9-4.1 1.7-4.1 1.7l6.6-30s1.1-4.1 2.5-6.2c1.6-2.4 4.1-2.3 4.1-2.3M275.7 271.4l8.6-27.2-8.8 1.9-15.5 53.1 6.9 1.1 7.3-22.7 2.1-.1s1.3.5 1.3 1.8-.6 2.8-.6 2.8l-6.1 18.8 8.1 1.5 6.7-19.5s1.1-3.2.8-4.8c-.4-2.7-1.7-4.3-1.7-4.3s1.7 0 3.9-2.2c2.2-2.1 2.2-3.8 2.8-5.4.6-1.6 9.5-26.1 9.5-26.1l-11.6 2.9-6.8 21.9s-.5 2.2-1.6 3.8c-1.1 1.6-1.9 2.2-2.5 2.3-1.5.4-2.8.4-2.8.4M315.9 244.6l-7.5 20.1 10.3-.5 14.7-34.6-14.7 5.4s-5.3 1.6-9.2 4.8c-3.1 2.6-6.7 8.6-7.5 10.5s-4.2 9.4-4.7 11.8c-.6 2.4-5.6 15.8-5.6 15.8h11.7l-5 13.2s-.6 3-2.5 5.4c-1.9 2.4-4.7 2.7-4.7 2.7l6.7-16.9h-7.2l-7.9 21.1s5.9 1.7 10.3 1.2c4.5-.5 9.8-4.2 12.3-9.9 2.5-5.6 10.9-25 10.9-25l-14 .7 4.3-12.3s2.9-7.1 5-9.6c1.1-1.8 4.3-3.9 4.3-3.9M63.8 229l29.8 80.3 8.8-2.5-22.1-64.9s3.3.3 6.1 5.4c2.8 5.1 4.2 8.9 5 12.1.8 3.2 14.9 46.6 14.9 46.6l9-2.1-17.2-57.1s2.2 0 4.4 3.8 3.1 7 3.1 7l13.2 45.6 8.6-1.7-11-42.3s-2.5-7.4-5.3-11.3c-2.2-3-4.7-5.4-8.9-6.8-4.4-1.5-14-4-14-4l1.4 4.3s-3.2-3.5-6.1-5.1c-2.5-1.5-19.7-7.3-19.7-7.3M143.8 298.7l7.5-1-6.4-33.4s-1.5-7.5-3.4-10.4c-3.3-5.1-10.4-6.9-10.4-6.9l-13.8-2.8 14.3 56.4 8.5-1.4-5.3-21.1 4.9.1 4.1 20.5zm-10-25.7l-4.8-20.8s2.8.6 4.5 2.2c1.7 1.6 2.2 6.1 2.2 6.1l2.5 12.5h-4.4zM145.7 249.3l9.5 48 10.2-1.1s4.7-.2 6-1.2c2.8-2.2 2.8-5.4 2.8-5.4l-1.2-37.3-9.9-1 3.6 35.3s.2 3.2-1.4 4.8c-1.3 1.4-2.8 1.1-2.8 1.1l-5.1-41.8-11.7-1.4zM178.3 295.3l12-.5s3.5-.4 5.5-2.2c1.9-1.9 2.3-5.3 2.3-5.3l.2-6.8-8.1.1.1 6.7s.1 2.2-.9 3.2c-.8.8-3.6.7-3.6.7v-13.5h12.5l.3-4.1-13 .1v-11.9s-.1-1.7 1.1-2.6c1.3-1 3.6-.7 3.6-.7v12.2h8.6l1.1-17.5-14.4-.3s-3.9.1-6.4 2.4c-2.9 2.7-2.5 8.9-2.5 8.9l1.6 31.1zM224.6 254.5c-1.6-1.6-5.5-1.4-5.5-1.4l-15.7.4-1.6 41.3 7.9.2 1-17s2.5-.8 3.7.9c.8 1.2.7 2.5.7 2.5l-1 13.6 7.8.4 1.4-13.7s.4-2.4-.4-4.2c-.7-1.6-2.4-2-2.4-2s1.1 0 2.8-1.9c1.7-1.9 1.7-4.6 1.7-4.6l1-9.5c-.2 0 .3-3.2-1.4-5m-8.1 5.1l-.6 10.5s0 1.3-.6 2.2c-.6.8-1.3.9-1.3.9l-2.9-.1.8-15.6 2.1-.1s1.2-.1 1.8.4c.8.4.7 1.8.7 1.8M217.8 313.5l9.8-2.4-10-.9c-.4 0-9.7-.9-14.4-.9-.6-1.8-4.5-13.8-4.5-13.8l-1.7 4.6c-.1.3-2.2 6-3.3 9.2-5.4 0-12.6.7-12.9.7l-10.5 1.1 10.3 2.2c3.1.7 9.5 2.9 10.1 5.6-.8 3.2-3 8.8-3 8.8l-2 5.2s11.2-7.8 12.8-8.9c1.6 1.1 12.5 8.7 12.5 8.7s-4.5-12.9-4.9-14c1.1-1.6 6.7-4 11.7-5.2"/><path class="st0" d="M203.5 318.5c.7-2.7 5.4-4.9 9.1-6.1-3.7-.3-8.4-.7-10.7-.6h-.6s-1.8-5.3-2.8-8.1c-.9 2.4-2.1 5.9-2.6 7.6l-.2.6h-.6c-2.6 0-6.2.2-9 .4 3.3 1.3 7.1 3.4 7.5 6.5v.4c-.4 1.9-1.4 4.8-2.2 6.9 2.6-1.8 7.3-5.1 7.3-5.1s4.9 3.4 7.4 5.2c-1-2.8-2.6-7.3-2.6-7.3v-.4zM102.5 128.5c0-50.5 43.6-91.6 97.3-91.6 53.6 0 97.3 41.1 97.3 91.6 0 50.5-43.6 91.6-97.3 91.6-53.7 0-97.3-41.1-97.3-91.6"/><path d="M140.7 67l.2-.2c1.2-1 2.2-1.2 3-.2.7.9.1 1.9-.9 2.8l-.2.2-2.1-2.6zm.3 7.1l4.1-3.3c2.6-2.1 3.5-4.9 2-6.8-1.9-2.4-5-1.5-8.1.9l-3.3 2.7 5.3 6.5zM165.1 55.5l-.3-2.7.1-.1c.2.3.4.6.7.9l1 1.2-1.5.7zm.1 2.1l2.9-1.2.8.8 4.1-1.7-7-6.2-4.3 1.7-.5 9.3 4.1-1.7-.1-1zM185.5 44.2l4.1-.4.7 5.6 3.5-.4.3 2.7-7.7.9zM209.4 43.8l4.2.6-.9 5.6 3.5.5-.4 2.7-7.6-1.1zM234.8 55.9l1.7-2 .1.1c-.1.4-.2.7-.2 1.1l-.1 1.5-1.5-.7zm-1.5 1.5l2.9 1.3-.1 1.1 4.1 1.8-.4-9.3-4.3-1.8-7.1 6.1 4.1 1.8.8-1zM254.2 67l.1.2c.3.8.8 1.6 1.5 2.3.3.3.9.6 1.1.3.2-.3-.2-.7-.4-1l-.6-.6c-1.1-1.2-1.8-2.6-.9-3.6 1.3-1.5 3.9-.8 5.8.8 1 .8 1.8 1.8 2.4 2.9l-2.2.9c-.3-.7-.8-1.5-1.5-2-.3-.2-.8-.5-1-.2-.2.2.2.6.4.9l.6.7c1.2 1.3 1.7 2.7.8 3.8-1.3 1.5-3.9.7-5.8-.9-1.1-.9-2.2-2.2-2.9-3.4l2.6-1.1zM281.3 105.1c-.6-.6-1.9-1.4-1.9-1.4-.5-.2-.6-.6-.6-.6-.3-1.6-.6-2.2-.6-2.2-8.4-10.8-19.1-19.7-31.4-26.1-2.2-1-4.2-1.1-4.2-1.1-.4 0-.7-.3-.7-.3-.7-1-2.9-2.1-3.7-2.5-11.4-4.6-23.9-7.1-37-7.1-4 0-7.9.2-11.7.7l5.1-6.8c-20.2-.6-34.7 15.1-34.7 15.1-4.9 2.3-9.5 4.9-13.9 7.8-10.5 3.8-13.6 12.2-13.6 12.2-2.7 2.2-8 9.2-8 9.2-1.5.9-3.1 2.3-3.6 2.7-2.4 2.5-6.9 8.2-9.2 17.9-.1.2-.1.3-.2.5-.1.5-.2 1.2-.3 1.8l-.6 3.6.1-.1c0 .3-.1.4-.1.4-.3.2-1.8 6.2-1.8 6.2-.2.8-3 9-3 9v.1c-7.2 25.2 2.4 40.4 4 42.8 12.8 37.1 48.9 63.8 91.4 63.8 32.4 0 61.1-15.5 78.6-39.4.5-.8.7-2.4.7-2.4 0-.5.4-.8.4-.8 1.3-.7 1.8-1.2 1.9-1.3 9.3-14.4 14.7-31.4 14.7-49.7.2-19.3-5.8-37.2-16.1-52"/><path class="st0" d="M160.8 86.8c.2-.3.5-.5.7-.7.3-.3.5-.4.5-.4l.1-.1c.1-4.8 1.2-8.6 1.2-8.6 8.8-12.2 23.2-15.4 23.2-15.4 1.8-.5.6.3.6.3C178 72 179 80.4 179 80.4l8.7 31.5s-7-2.5-12.5-13.5c-2.5 22.1 18.4 40 18.4 40 .9.8-.5-.1-.5-.1-5.2-2.6-11.3-8.1-12.9-9.6.4 1.7 10.6 52.7 10.7 52.9 0 .2.2.7.3 1.1l3.5-8.7 2.9 25.8c-13.3 12.3-27.4 7.4-28.3 7.1l.6.9s11.5 22.4 58.3 20.1c0 0 1.1 0 1 .1 0 0-.1.1-.3.2-.9.3-2.3.5-2.3.5-56.5 15-85.8-32.9-87-35-.4-.5-3.1-4.3-4.6-8.2-.1-.1-.1-.5.1-.2 0 0 6 6.2 23 7.8h.2c-13.1-14.5-18.7-25.1-19.5-26.7 0 0-1.6-2.4-3.5-9 0 0 .1-.3.2 0 .6 1.3 5 7.7 10.3 9.1-4.5-7.2-7.3-18.6-7.6-20.2 6.1 8.5 16.9 9.1 16.9 9.1s0-.1-.1-.1v.1c-17.8-17.7-14-36.9-6.7-50.8 4.2-8.4 9.6-14.7 12.5-17.8"/><path class="st1" d="M214 203.7l-11.7 12.2 14.4-11-7.5-25.6 3.3-30.8-5.7 29.4 7.2 25.8zM211.1 141.4c.2-.1.5-.2.7-.4.9-.5 2-1.3 3.2-2.5 2.3-2.4 4.6-6.3 4.6-12.4 0-2.7-.5-6-1.6-9.6-.2 4.3-1.4 20.2-6.9 24.9M216.5 89.1c4.1-6.1 10.8-6.6 13.6-6.7-2.4-.7-4.7-1-6.7-1-2.9 0-5.2.5-6.9 1.1-1.2.4-2 .8-2.4.9 1 1.5 2 4.6 2.4 5.7M211.3 102c.1 0 .2.1.2.2v1.7c0 13.2-3.5 27.6-4.9 32.6 5.1-11.5 6.4-22.3 6.4-30.6 0-4.8-.5-8.8-.9-11.6-.2-1.4-.5-2.6-.7-3.3-1.3 9.9-5.1 14.4-5.1 14.4s-.1.1-.2.1-.1 0-.2-.1c-4.2-7.6-9.6-13.3-14-17-3.4-2.8-6.1-4.6-7.3-5.2 11.8 25.6 15.3 45.4 16.2 51.9v-2.3c0-7.8-1.3-16.7-2.7-23.6-1.3-6.9-2.7-11.9-2.7-11.9 0-.1 0-.2.1-.2h.2c5.3 4.1 9.1 15.8 9.7 18 1-1.2 2.3-4.3 3.4-7.1 1.1-3 2-5.8 2-5.8.4-.2.4-.2.5-.2m-5 3.3l.2-.1-.2.1z"/><path class="st1" d="M111.6 155.2c0 12.2 2.1 24.9 12.7 41.2 10 20.9 28.3 32.1 36.9 36.4 2.8 1.4 4.6 2.1 4.6 2.1 13.6 6.4 26.4 8.7 37.8 8.7 24 0 42.2-10.3 49.8-15.4 2.5-1.7 3.9-2.8 3.9-2.9l.1.2-.1-.2c.5-.4.9-.7 1.2-1-.1.1-.3.2-.5.3l-1 .6c-18.7 10.9-35.8 14.2-49.9 14.2-22 0-36.2-8.2-36.2-8.2-46.6-24.3-47.3-66.5-47.3-66.5 0-.1.1-.2.2-.2s.2 0 .2.1c6 11.6 13.3 15.5 16.6 16.8.5.2.8.3 1.1.4-13.6-17-17.4-31.3-17.4-42.1 0-14.3 6.8-22.4 6.8-22.4.1-.1.2-.1.2-.1.1 0 .1.1.1.2-1 5-1.3 9.5-1.3 13.3 0 6.3 1 11 2 14.1.5 1.7 1.1 2.9 1.4 3.7-.4-3.4-.6-6.7-.6-9.9 0-31.8 18.7-51.4 22.7-55.1-3 1.2-6.6 4.4-9.5 7.4-3.2 3.3-5.7 6.4-5.7 6.4-.1.1-.1.1-.2.1s-.1-.1-.1-.2c0-2.5 1.5-5.7 2.3-7.2-2.4 2.2-4.4 5.6-5.8 8.6-1.6 3.3-2.4 6.1-2.4 6.1v.1c-4.9 5.6-8.2 11.4-10.2 15.8s-2.8 7.4-2.8 7.4c-.2.7-.3 1-.4 1.2 0 0 0 .1-.2.2-.3-.1-.2-.2-.2-.3v-.3c0-.4.1-.9.1-.9.1-6 2.6-12.7 3.6-15.2-7.1 7.6-8.8 17.9-8.8 26.1 0 7.8 1.5 13.7 1.5 13.7 0 4.8 1 10.8 1.9 15.6 1 4.8 1.9 8.3 1.9 8.3.3.9.4 1.3.4 1.6v.1c0 .1-.1.1-.2.1-.3-.1-.2-.2-.4-.3-.1-.1-.2-.3-.3-.5-.2-.3-.4-.7-.4-.7-5-7.6-7.4-20.1-7.9-23.2-.2.7-.2 1.2-.2 1.7"/><path class="st2" d="M268.9 101.5s-22.7-30.4-65.4-30.4h-1.1c-.2 0-.4.1-.5.4 0 .3.2.4.5.5 0 0 5.9 4.5 9.6 9.1l.1.1.1-.1s1-.5 2.8-1c1.8-.5 4.3-1 7.3-1 4 0 8.7.8 13.7 3.6-2.1 1-12.8 6.4-15.1 12.5v.1l.1.1s10.8 9.7 32.9 9.7c3.5 0 7.4-.2 11.5-.8 0 0 .9-.1 1.9-.4.9-.3 2-.7 2-1.7 0 0-.2-.4-.4-.7M222.9 144c-.1-.1-.2-.1-.3 0-.1.1-.1.2 0 .3 0 0 .3.3.7.8 1.2 1.7 3.7 5.9 3.7 13.2 0 5.1-1.2 11.7-5 19.9 0-1.4-.2-4.2-.8-7.1-.8-4.1-2.3-8.5-5.6-9.5h-.2l-.1.1-2 18v.1l7.3 26.8-14.3 11.5c-.1.1-.1.1-.1.2s.1.1.1.2c0 0 5.6 1.8 15 1.8 5 0 11.1-.5 18.1-2 0 0 1.8-.4 2.3-2.1 0 0 1.6-7.3 1.6-17.8.1-15.8-3.3-38.3-20.4-54.4"/><path class="st2" d="M246.5 216.3c-.3-.2-.4-.6-.4-1.1 0-.2 0-.5.1-.8 0 0 .6-2.1 1.1-5.8.6-3.7 1.1-8.8 1.1-14.9 0-16.2-3.9-38.7-22-56.2 0 0-.1-.1-.3-.2-.1-.1-.3-.2-.4-.5 0-.1.1-.2.2-.2h.2c.2 0 .4 0 .8.1 0 0 4.8 1.5 8.2 5.2-.1-.9-.4-2.6-1-4.8-.9-3.1-2.6-7.2-5.6-10.7l-.4-.4c-.2-.3-.4-.4-.4-.7 0 0 0-.1.1-.2s.1-.1.2-.1c.2 0 .4.2.9.5 1.1.5 46.5 22.4 48.1 66.6v.7c0 1.1-.2 3.2-1.6 4.5-.4.5-11.2 13.9-27.1 19 0 0-.5.2-1 .2-.2.1-.6.1-.8-.2"/><path class="st2" d="M280.5 183.9c-.9-36.5-35.4-61.3-52.7-71.5-5.7-3.4-9.5-5.1-9.6-5.1l-.8-.4h1c6.1 0 9.9 3.7 11 5 0-2.2-.9-4.7-.9-4.7l-.2-.4.4.2c4.9 1.9 11.2 2.5 17.4 2.5 6 0 11.9-.6 16.3-1.2s7.3-1.2 7.3-1.2h.6c2.5 0 3.3 1.4 3.4 1.6 5.9 6.5 13.1 21.6 14.3 39.7.2 2.3.2 4.5.2 6.6 0 13.6-2.8 24.1-5 28.5-.8 1.5-1.3 2.3-2 2.4-.5-.2-.7-.9-.7-2"/><path d="M180.9 66l.1-.1c-.5.1-9.9 2.9-12.6 17.1 0 0 0 .3.1 0 .8-1.4 3.8-5.8 6.4-4.5v-.3c.2-1.2 1.1-6.1 6-12.2M173.8 194.1c-2-4-15-32.2-15-32.2-4 1.3-9-2-9-2 6.4 16.8 21.4 31.6 23.8 34.3.4.4.4.3.4.3-.1-.1-.1-.3-.2-.4M160.9 102.3c-11.7 26.6 14.6 37.6 15 37.7l-1.4-6.1-.8-3.5c-.7-.2-1.3-.5-1.9-.7l-.6-.3c-.2-.1-.5-.2-.7-.4-11.5-6.1-10.4-20.6-9.7-25.4v-.1c0-.1 0-.3.1-.4.1-.4.1-.8.2-.9v-.1c0-.3-.1.1-.2.2"/><path class="st1" d="M178.2 177.2l-1.9-33.4 11.3 37.3s-3.7-8.8-9.4-3.9M187.6 111.9l-8.7-31.5v.7l2.5 20s.1.3.1.7c0 1.1-.7 2.6-6-3l-.4-.4c5.4 11.1 12.5 13.5 12.5 13.5M166.9 117.6c-.7-1.6-1-3.1-1-4.5 0-4.9 3.6-7.6 3.6-7.6l.1-.1c0 .1-.2-3.1.1-8.1-2.9 4.2-9 14.3-1.7 22.1-.1-.2-.2-.3-.3-.5-.3-.5-.6-.9-.8-1.3"/><path d="M174.6 121.6c-1.2-2.2-4.4-9.1-4.9-16.1v-.2l-.1.1s-3.6 2.7-3.6 7.6c0 1.3.3 2.8 1 4.5.2.4.5.8.8 1.4.1.1.2.3.3.5.1.2.3.3.5.5 1.2 1.3 3.3 2.7 6.7 2.9 0 0-.3-.4-.7-1.2"/><path class="st1" d="M185.1 181.5s-5.6-1.4-5.2 10.1c0-.3.1-.6.3-1 1.7-3.8 3.2-5.3 4.6-5.4 1.2 0 2.1 1.1 2.8 2.5.7 1.5 1.3 3.5 1.8 5.4.4 1.6.7 3.2.9 4.5.1.8.2 1.8.2 3.1v.1c.2-1.2 2.6-17.1-5.4-19.3"/><path d="M190.4 200.9v-.1c-.1-1.3-.1-2.3-.2-3.1-.2-1.3-.5-2.9-.9-4.5-.5-2-1-3.9-1.8-5.4-.7-1.5-1.6-2.5-2.8-2.5-1.4 0-2.9 1.6-4.6 5.4-.1.3-.2.7-.3 1l2.8 6c.1-.1 1.6-16.2 7.8 3.2"/></svg>