<svg version="1.1" id="Layer_1" xmlns="http://www.w3.org/2000/svg" x="0" y="0" viewBox="0 0 648 648" xml:space="preserve"><style>.st2{fill:#fff}.st3{fill:#ffc627}.st4{fill:#8b2332}.st5{fill:#0d2240}</style><pattern y="648" width="69" height="69" patternUnits="userSpaceOnUse" id="Unnamed_Pattern" viewBox="2.1 -70.9 69 69" overflow="visible"><path fill="none" d="M2.1-70.9h69v69h-69z"/><path fill="#f7bc60" d="M2.1-70.9h69v69h-69z"/><path class="st2" d="M61.8-71.7v.2c-.1.1-.1.1-.2.1-.1.1-.1.3-.1.4-.2.1 0 .2 0 .3v.2c0 .1 0 .3.1.4.1.2.3.4.4.5.2.1.4.6.6.6.2 0 .4-.1.5-.1.2 0 .4 0 .6-.1.2-.1.1-.3.3-.5.1-.1.3 0 .4-.1.2-.1.3-.3.4-.5v-.2c0-.1.1-.2.1-.3 0-.1-.1-.1-.1-.2v-.3c0-.2 0-.4-.1-.5-.4-.7-1.2-.9-2-.8-.2 0-.3.1-.4.2-.2.1-.1.2-.3.2-.1 0-.2.1-.2.2v.3c0 .1 0 .1 0 0M54.1-71.7v.2c-.1.1-.1.1-.2.1-.1.1-.1.3-.1.4-.2.1 0 .2 0 .3v.2c0 .1 0 .3.1.4.1.2.3.4.4.5.2.1.4.6.6.6.2 0 .4-.1.5-.1.2 0 .4 0 .6-.1.2-.1.1-.3.3-.5.1-.1.3 0 .4-.1.2-.1.3-.3.4-.5v-.2c0-.1.1-.2.1-.3 0-.1-.1-.1-.1-.2v-.3c0-.2 0-.4-.1-.5-.4-.7-1.2-.9-2-.8-.2 0-.3.1-.4.2-.2.1-.1.2-.3.2-.1 0-.2.1-.2.2v.3c0 .1 0 .1 0 0M46.4-71.7v.2c-.1.1-.1.1-.2.1-.1.1-.1.3-.1.4-.2.1 0 .2 0 .3v.2c0 .1 0 .3.1.4.1.2.3.4.4.5.2.1.4.6.6.6.2 0 .4-.1.5-.1.2 0 .4 0 .6-.1.2-.1.1-.3.3-.5.1-.1.3 0 .4-.1.2-.1.3-.3.4-.5v-.2c0-.1.1-.2.1-.3 0-.1-.1-.1-.1-.2v-.3c0-.2 0-.4-.1-.5-.4-.7-1.2-.9-2-.8-.2 0-.3.1-.4.2-.2.1-.1.2-.3.2-.1 0-.2.1-.2.2v.3c0 .1 0 .1 0 0M38.8-71.7v.2c-.1.1-.1.1-.2.1-.1.1-.1.3-.1.4-.2.1 0 .2 0 .3v.2c0 .1 0 .3.1.4.1.2.3.4.4.5.2.1.4.6.6.6.2 0 .4-.1.5-.1.2 0 .4 0 .6-.1.2-.1.1-.3.3-.5.1-.1.3 0 .4-.1.2-.1.3-.3.4-.5v-.2c0-.1.1-.2.1-.3 0-.1-.1-.1-.1-.2v-.3c0-.2 0-.4-.1-.5-.4-.7-1.2-.9-2-.8-.2 0-.3.1-.4.2-.2.1-.1.2-.3.2-.1 0-.2.1-.2.2v.3c0 .1 0 .1 0 0M31.1-71.7v.2c-.1.1-.1.1-.2.1-.1.1-.1.3-.1.4-.2.1 0 .2 0 .3v.2c0 .1 0 .3.1.4.1.2.3.4.4.5.2.1.4.6.6.6.2 0 .4-.1.5-.1.2 0 .4 0 .6-.1.2-.1.1-.3.3-.5.1-.1.3 0 .4-.1.2-.1.3-.3.4-.5v-.2c0-.1.1-.2.1-.3 0-.1-.1-.1-.1-.2v-.3c0-.2 0-.4-.1-.5-.4-.7-1.2-.9-2-.8-.2 0-.3.1-.4.2-.2.1-.1.2-.3.2-.1 0-.2.1-.2.2v.3c0 .1 0 .1 0 0M23.4-71.7v.2c-.1.1-.1.1-.2.1-.1.1-.1.3-.1.4-.2.1 0 .2 0 .3v.2c0 .1 0 .3.1.4.1.2.3.4.4.5.2.1.4.6.6.6.2 0 .4-.1.5-.1.2 0 .4 0 .6-.1.2-.1.1-.3.3-.5.1-.1.3 0 .4-.1.2-.1.3-.3.4-.5v-.2c0-.1.1-.2.1-.3 0-.1-.1-.1-.1-.2v-.3c0-.2 0-.4-.1-.5-.4-.7-1.2-.9-2-.8-.2 0-.3.1-.4.2-.2.1-.1.2-.3.2-.1 0-.2.1-.2.2v.3c0 .1 0 .1 0 0M15.8-71.7v.2c-.1.1-.1.1-.2.1-.1.1-.1.3-.1.4-.2.1 0 .2 0 .3v.2c0 .1 0 .3.1.4.1.2.3.4.4.5.2.1.4.6.6.6.2 0 .4-.1.5-.1.2 0 .4 0 .6-.1.2-.1.1-.3.3-.5.1-.1.3 0 .4-.1.2-.1.3-.3.4-.5v-.2c0-.1.1-.2.1-.3 0-.1-.1-.1-.1-.2v-.3c0-.2 0-.4-.1-.5-.4-.7-1.2-.9-2-.8-.2 0-.3.1-.4.2-.2.1-.1.2-.3.2-.1 0-.2.1-.2.2v.3c0 .1 0 .1 0 0M8.1-71.7v.2l-.2.2c-.1.1-.1.3-.1.4-.2.1 0 .2 0 .3v.2c0 .1 0 .3.1.4.1.2.3.4.4.5.2.1.4.6.6.6.2 0 .4-.1.5-.1.2 0 .4 0 .6-.1.2-.1.1-.3.3-.5.1-.1.3 0 .4-.1.2-.1.3-.3.4-.5v-.2c0-.1.1-.2.1-.3 0-.1-.1-.1-.1-.2v-.3c0-.2 0-.4-.1-.5-.4-.7-1.2-.9-2-.8-.2 0-.3.1-.4.2-.2.1-.1.2-.3.2-.1 0-.2.1-.2.2v.2c0 .1 0 .1 0 0M.4-71.7v.2c-.1.1-.1.1-.2.1-.1.1-.1.3-.1.4-.2.1 0 .2 0 .3v.2c0 .1 0 .3.1.4.1.2.3.4.4.5.2.2.4.6.6.7.2 0 .4-.1.5-.1.2 0 .4 0 .6-.1.2-.1.1-.3.3-.5.1-.1.3 0 .4-.1.2-.1.3-.3.4-.5v-.2c0-.1.1-.2.1-.3 0-.1-.1-.1-.1-.2v-.3c0-.2 0-.4-.1-.5-.4-.7-1.2-.9-2-.8-.2 0-.3.1-.4.2-.2.1-.1.2-.3.2-.1 0-.2.1-.2.2v.2c0 .1 0 .1 0 0"/><g><path class="st2" d="M69.4-71.7v.2c-.1.1-.1.1-.2.1-.1.1-.1.3-.1.4-.2.1 0 .2 0 .3v.2c0 .1 0 .3.1.4.1.2.3.4.4.5.2.1.4.6.6.6.2 0 .4-.1.5-.1.2 0 .4 0 .6-.1.2-.1.1-.3.3-.5.1-.1.3 0 .4-.1.2-.1.3-.3.4-.5v-.2c0-.1.1-.2.1-.3 0-.1-.1-.1-.1-.2v-.3c0-.2 0-.4-.1-.5-.4-.7-1.2-.9-2-.8-.2 0-.3.1-.4.2-.2.1-.1.2-.3.2-.1 0-.2.1-.2.2v.3c0 .1 0 .1 0 0"/></g><path class="st2" d="M.5-71.7v.2c-.1.1-.1.1-.2.1-.1.1-.1.3-.1.4-.2.1 0 .2 0 .3v.2c0 .1 0 .3.1.4.1.2.3.4.4.5.2.2.3.6.6.7.2 0 .4-.1.5-.1.2 0 .4 0 .6-.1.2-.1.1-.3.3-.5.1-.1.3 0 .4-.1.2-.1.3-.3.4-.5v-.2c0-.1.1-.2.1-.3 0-.1-.1-.1-.1-.2v-.3c0-.2 0-.4-.1-.5-.4-.7-1.2-.9-2-.8-.2 0-.3.1-.4.2-.2.1-.1.2-.3.2-.1 0-.2.1-.2.2v.2c0 .1 0 .1 0 0"/><g><path class="st2" d="M69.4-64v.2c-.1.1-.1.1-.2.1-.1.1-.1.3-.1.4-.2.1 0 .2 0 .3v.2c0 .1 0 .3.1.4.1.2.3.4.4.5.2.1.4.6.6.6.2 0 .4-.1.5-.1.2 0 .4 0 .6-.1.2-.1.1-.3.3-.5.1-.1.3 0 .4-.1.2-.1.3-.3.4-.5v-.2c0-.1.1-.2.1-.3 0-.1-.1-.1-.1-.2v-.3c0-.2 0-.4-.1-.5-.4-.7-1.2-.9-2-.8-.2 0-.3.1-.4.2-.2.1-.1.2-.3.2-.1 0-.2.1-.2.2v.3M61.8-64v.2c-.1.1-.1.1-.2.1-.1.1-.1.3-.1.4-.2.1 0 .2 0 .3v.2c0 .1 0 .3.1.4.1.2.3.4.4.5.2.1.4.6.6.6.2 0 .4-.1.5-.1.2 0 .4 0 .6-.1.2-.1.1-.3.3-.5.1-.1.3 0 .4-.1.2-.1.3-.3.4-.5v-.2c0-.1.1-.2.1-.3 0-.1-.1-.1-.1-.2v-.3c0-.2 0-.4-.1-.5-.4-.7-1.2-.9-2-.8-.2 0-.3.1-.4.2-.2.1-.1.2-.3.2-.1 0-.2.1-.2.2v.3M54.1-64v.2c-.1.1-.1.1-.2.1-.1.1-.1.3-.1.4-.2.1 0 .2 0 .3v.2c0 .1 0 .3.1.4.1.2.3.4.4.5.2.1.4.6.6.6.2 0 .4-.1.5-.1.2 0 .4 0 .6-.1.2-.1.1-.3.3-.5.1-.1.3 0 .4-.1.2-.1.3-.3.4-.5v-.2c0-.1.1-.2.1-.3 0-.1-.1-.1-.1-.2v-.3c0-.2 0-.4-.1-.5-.4-.7-1.2-.9-2-.8-.2 0-.3.1-.4.2-.2.1-.1.2-.3.2-.1 0-.2.1-.2.2v.3M46.5-64v.2c-.1.1-.1.1-.2.1-.1.1-.1.3-.1.4-.2.1 0 .2 0 .3v.2c0 .1 0 .3.1.4.1.2.3.4.4.5.2.1.4.6.6.6.2 0 .4-.1.5-.1.2 0 .4 0 .6-.1.2-.1.1-.3.3-.5.1-.1.3 0 .4-.1.2-.1.3-.3.4-.5v-.2c0-.1.1-.2.1-.3 0-.1-.1-.1-.1-.2v-.3c0-.2 0-.4-.1-.5-.4-.7-1.2-.9-2-.8-.2 0-.3.1-.4.2-.2.1-.1.2-.3.2-.1 0-.2.1-.2.2v.3M38.8-64v.2c-.1.1-.1.1-.2.1-.1.1-.1.3-.1.4-.2.1 0 .2 0 .3v.2c0 .1 0 .3.1.4.1.2.3.4.4.5.2.1.4.6.6.6.2 0 .4-.1.5-.1.2 0 .4 0 .6-.1.2-.1.1-.3.3-.5.1-.1.3 0 .4-.1.2-.1.3-.3.4-.5v-.2c0-.1.1-.2.1-.3 0-.1-.1-.1-.1-.2v-.3c0-.2 0-.4-.1-.5-.4-.7-1.2-.9-2-.8-.2 0-.3.1-.4.2-.2.1-.1.2-.3.2-.1 0-.2.1-.2.2v.3M31.1-64v.2c-.1.1-.1.1-.2.1-.1.1-.1.3-.1.4-.2.1 0 .2 0 .3v.2c0 .1 0 .3.1.4.1.2.3.4.4.5.2.1.4.6.6.6.2 0 .4-.1.5-.1.2 0 .4 0 .6-.1.2-.1.1-.3.3-.5.1-.1.3 0 .4-.1.2-.1.3-.3.4-.5v-.2c0-.1.1-.2.1-.3 0-.1-.1-.1-.1-.2v-.3c0-.2 0-.4-.1-.5-.4-.7-1.2-.9-2-.8-.2 0-.3.1-.4.2-.2.1-.1.2-.3.2-.1 0-.2.1-.2.2v.3M23.5-64v.2c-.1.1-.1.1-.2.1-.1.1-.1.3-.1.4-.2.1 0 .2 0 .3v.2c0 .1 0 .3.1.4.1.2.3.4.4.5.2.1.4.6.6.6.2 0 .4-.1.5-.1.2 0 .4 0 .6-.1.2-.1.1-.3.3-.5.1-.1.3 0 .4-.1.2-.1.3-.3.4-.5v-.2c0-.1.1-.2.1-.3 0-.1-.1-.1-.1-.2v-.3c0-.2 0-.4-.1-.5-.4-.7-1.2-.9-2-.8-.2 0-.3.1-.4.2-.2.1-.1.2-.3.2-.1 0-.2.1-.2.2v.3M15.8-64v.2c-.1.1-.1.1-.2.1-.1.1-.1.3-.1.4-.2.1 0 .2 0 .3v.2c0 .1 0 .3.1.4.1.2.3.4.4.5.2.1.4.6.6.6.2 0 .4-.1.5-.1.2 0 .4 0 .6-.1.2-.1.1-.3.3-.5.1-.1.3 0 .4-.1.2-.1.3-.3.4-.5v-.2c0-.1.1-.2.1-.3 0-.1-.1-.1-.1-.2v-.3c0-.2 0-.4-.1-.5-.4-.7-1.2-.9-2-.8-.2 0-.3.1-.4.2-.2.1-.1.2-.3.2-.1 0-.2.1-.2.2v.3M8.2-64v.2c-.1.1-.2.1-.2.1-.1.1-.1.3-.1.4-.2.1 0 .2 0 .3v.2c0 .1 0 .3.1.4 0 .2.2.4.3.5.2.1.4.6.6.6.2 0 .4-.1.5-.1.2 0 .4 0 .6-.1.2-.1.1-.3.3-.5.1-.1.3 0 .4-.1.2-.1.3-.3.4-.5v-.2c0-.1.1-.2.1-.3 0-.1-.1-.1-.1-.2v-.3c0-.2 0-.4-.1-.5-.4-.7-1.2-.9-2-.8-.2 0-.3.1-.4.2-.2.1-.1.2-.3.2-.1 0-.2.1-.2.2.1.3.1.2.1.3-.1 0-.1 0 0 0M.5-64v.2c-.1.1-.1.1-.2.1-.1.1-.1.3-.1.4-.2.1 0 .2 0 .3v.2c0 .1 0 .3.1.4.1.2.3.4.4.5.2.1.4.6.6.6.2 0 .4-.1.5-.1.2 0 .4 0 .6-.1.2-.1.1-.3.3-.5.1 0 .3.1.4 0 .2-.1.3-.3.4-.5v-.2c0-.1.1-.2.1-.3 0-.1-.1-.1-.1-.2v-.3c0-.2 0-.4-.1-.5-.4-.7-1.2-.9-2-.8-.2 0-.3.1-.4.2-.2.1-.1.2-.3.2-.1 0-.2.1-.2.2v.2"/><g><path class="st2" d="M69.4-56.3v.2c-.1.1-.1.1-.2.1-.1.1-.1.3-.1.4-.2.1 0 .2 0 .3v.2c0 .1 0 .3.1.4.1.2.3.4.4.5.2.1.4.6.6.6.2 0 .4-.1.5-.1.2 0 .4 0 .6-.1.2-.1.1-.3.3-.5.1-.1.3 0 .4-.1.2-.1.3-.3.4-.5v-.2c0-.1.1-.2.1-.3 0-.1-.1-.1-.1-.2v-.3c0-.2 0-.4-.1-.5-.4-.7-1.2-.9-2-.8-.2 0-.3.1-.4.2-.2.1-.1.2-.3.2-.1 0-.2.1-.2.2v.3M61.8-56.3v.2c-.1.1-.1.1-.2.1-.1.1-.1.3-.1.4-.2.1 0 .2 0 .3v.2c0 .1 0 .3.1.4.1.2.3.4.4.5.2.1.4.6.6.6.2 0 .4-.1.5-.1.2 0 .4 0 .6-.1.2-.1.1-.3.3-.5.1-.1.3 0 .4-.1.2-.1.3-.3.4-.5v-.2c0-.1.1-.2.1-.3 0-.1-.1-.1-.1-.2v-.3c0-.2 0-.4-.1-.5-.4-.7-1.2-.9-2-.8-.2 0-.3.1-.4.2-.2.1-.1.2-.3.2-.1 0-.2.1-.2.2v.3M54.1-56.3v.2c-.1 0-.1 0-.2.1s-.1.3-.1.4c-.2.1 0 .2 0 .3v.2c0 .1 0 .3.1.4.1.2.3.4.4.5.2.1.4.6.6.6.2 0 .4-.1.5-.1.2 0 .4 0 .6-.1.2-.1.1-.3.3-.5.1-.1.3 0 .4-.1.2-.1.3-.3.4-.5v-.2c0-.1.1-.2.1-.3 0-.1-.1-.1-.1-.2v-.3c0-.2 0-.4-.1-.5-.4-.7-1.2-.9-2-.8-.2 0-.3.1-.4.2-.2.1-.1.2-.3.2-.1 0-.2.1-.2.2v.3M46.5-56.3v.2c-.1.1-.1.1-.2.1-.1.1-.1.3-.1.4-.2.1 0 .2 0 .3v.2c0 .1 0 .3.1.4.1.2.3.4.4.5.2.1.4.6.6.6.2 0 .4-.1.5-.1.2 0 .4 0 .6-.1.2-.1.1-.3.3-.5.1-.1.3 0 .4-.1.2-.1.3-.3.4-.5v-.2c0-.1.1-.2.1-.3 0-.1-.1-.1-.1-.2v-.3c0-.2 0-.4-.1-.5-.4-.7-1.2-.9-2-.8-.2 0-.3.1-.4.2-.2.1-.1.2-.3.2-.1 0-.2.1-.2.2v.3M38.8-56.3v.2c-.1.1-.1.1-.2.1-.1.1-.1.3-.1.4-.2.1 0 .2 0 .3v.2c0 .1 0 .3.1.4.1.2.3.4.4.5.2.1.4.6.6.6.2 0 .4-.1.5-.1.2 0 .4 0 .6-.1.2-.1.1-.3.3-.5.1-.1.3 0 .4-.1.2-.1.3-.3.4-.5v-.2c0-.1.1-.2.1-.3 0-.1-.1-.1-.1-.2v-.3c0-.2 0-.4-.1-.5-.4-.7-1.2-.9-2-.8-.2 0-.3.1-.4.2-.2.1-.1.2-.3.2-.1 0-.2.1-.2.2v.3M31.1-56.3v.2c-.1.1-.1.1-.2.1-.1.1-.1.3-.1.4-.2.1 0 .2 0 .3v.2c0 .1 0 .3.1.4.1.2.3.4.4.5.2.1.4.6.6.6.2 0 .4-.1.5-.1.2 0 .4 0 .6-.1.2-.1.1-.3.3-.5.1-.1.3 0 .4-.1.2-.1.3-.3.4-.5v-.2c0-.1.1-.2.1-.3 0-.1-.1-.1-.1-.2v-.3c0-.2 0-.4-.1-.5-.4-.7-1.2-.9-2-.8-.2 0-.3.1-.4.2-.2.1-.1.2-.3.2-.1 0-.2.1-.2.2v.3M23.5-56.3v.2c-.1.1-.1.1-.2.1-.1.1-.1.3-.1.4-.2.1 0 .2 0 .3v.2c0 .1 0 .3.1.4.1.2.3.4.4.5.2.1.4.6.6.6.2 0 .4-.1.5-.1.2 0 .4 0 .6-.1.2-.1.1-.3.3-.5.1-.1.3 0 .4-.1.2-.1.3-.3.4-.5v-.2c0-.1.1-.2.1-.3 0-.1-.1-.1-.1-.2v-.3c0-.2 0-.4-.1-.5-.4-.7-1.2-.9-2-.8-.2 0-.3.1-.4.2-.2.1-.1.2-.3.2-.1 0-.2.1-.2.2v.3M15.8-56.3v.2c-.1.1-.1.1-.2.1-.1.1-.1.3-.1.4-.2.1 0 .2 0 .3v.2c0 .1 0 .3.1.4.1.2.3.4.4.5.2.1.4.6.6.6.2 0 .4-.1.5-.1.2 0 .4 0 .6-.1.2-.1.1-.3.3-.5.1-.1.3 0 .4-.1.2-.1.3-.3.4-.5v-.2c0-.1.1-.2.1-.3 0-.1-.1-.1-.1-.2v-.3c0-.2 0-.4-.1-.5-.4-.7-1.2-.9-2-.8-.2 0-.3.1-.4.2-.2.1-.1.2-.3.2-.1 0-.2.1-.2.2v.3M8.2-56.3v.2c-.1 0-.2 0-.2.1-.1.1-.1.3-.1.4-.2.1 0 .2 0 .3v.2c0 .1 0 .3.1.4.1.2.3.4.4.5.2.1.4.6.6.6.2 0 .4-.1.5-.1.2 0 .4 0 .6-.1.2-.1.1-.3.3-.5.1-.1.3 0 .4-.1.2-.1.3-.3.4-.5v-.2c0-.1.1-.2.1-.3 0-.1-.1-.1-.1-.2v-.3c0-.2 0-.4-.1-.5-.4-.7-1.2-.9-2-.8-.2 0-.3.1-.4.2-.2.1-.1.2-.3.2-.1 0-.2.1-.2.2v.3c-.1 0-.1 0 0 0M.5-56.3v.2c-.1.1-.1.1-.2.1-.1.1-.1.3-.1.4-.2.1 0 .2 0 .3v.2c0 .1 0 .3.1.4.1.2.3.4.4.5.2.1.4.6.6.6.2 0 .4-.1.5-.1.2 0 .4 0 .6-.1.2-.1.1-.3.3-.5.1-.1.3 0 .4-.1.2-.1.3-.3.4-.5v-.2c0-.1.1-.2.1-.3 0-.1-.1-.1-.1-.2v-.3c0-.2 0-.4-.1-.5-.4-.7-1.2-.9-2-.8-.2 0-.3.1-.4.2-.2.1-.1.2-.3.2-.1 0-.2.1-.2.2v.3"/></g><g><path class="st2" d="M69.4-48.7v.2c-.1.1-.1.1-.2.1-.1.1-.1.3-.1.4-.2.1 0 .2 0 .3v.2c0 .1 0 .3.1.4.1.2.3.4.4.5.2.1.4.6.6.6.2 0 .4-.1.5-.1.2 0 .4 0 .6-.1.2-.1.1-.3.3-.5.1-.1.3 0 .4-.1.2-.1.3-.3.4-.5v-.2c0-.1.1-.2.1-.3 0-.1-.1-.1-.1-.2v-.3c0-.2 0-.4-.1-.5-.4-.7-1.2-.9-2-.8-.2 0-.3.1-.4.2-.2.1-.1.2-.3.2-.1 0-.2.1-.2.2v.3M61.8-48.7v.2c-.1.1-.1.1-.2.1-.1.1-.1.3-.1.4-.2.1 0 .2 0 .3v.2c0 .1 0 .3.1.4.1.2.3.4.4.5.2.1.4.6.6.6.2 0 .4-.1.5-.1.2 0 .4 0 .6-.1.2-.1.1-.3.3-.5.1-.1.3 0 .4-.1.2-.1.3-.3.4-.5v-.2c0-.1.1-.2.1-.3 0-.1-.1-.1-.1-.2v-.3c0-.2 0-.4-.1-.5-.4-.7-1.2-.9-2-.8-.2 0-.3.1-.4.2-.2.1-.1.2-.3.2-.1 0-.2.1-.2.2v.3M54.1-48.7v.2c-.1.1-.1.1-.2.1-.1.1-.1.3-.1.4-.2.1 0 .2 0 .3v.2c0 .1 0 .3.1.4.1.2.3.4.4.5.2.1.4.6.6.6.2 0 .4-.1.5-.1.2 0 .4 0 .6-.1.2-.1.1-.3.3-.5.1-.1.3 0 .4-.1.2-.1.3-.3.4-.5v-.2c0-.1.1-.2.1-.3 0-.1-.1-.1-.1-.2v-.3c0-.2 0-.4-.1-.5-.4-.7-1.2-.9-2-.8-.2 0-.3.1-.4.2-.2.1-.1.2-.3.2-.1 0-.2.1-.2.2v.3M46.5-48.7v.2c-.1.1-.1.1-.2.1-.1.1-.1.3-.1.4-.2.1 0 .2 0 .3v.2c0 .1 0 .3.1.4.1.2.3.4.4.5.2.1.4.6.6.6.2 0 .4-.1.5-.1.2 0 .4 0 .6-.1.2-.1.1-.3.3-.5.1-.1.3 0 .4-.1.2-.1.3-.3.4-.5v-.2c0-.1.1-.2.1-.3 0-.1-.1-.1-.1-.2v-.3c0-.2 0-.4-.1-.5-.4-.7-1.2-.9-2-.8-.2 0-.3.1-.4.2-.2.1-.1.2-.3.2-.1 0-.2.1-.2.2v.3M38.8-48.7v.2c-.1.1-.1.1-.2.1-.1.1-.1.3-.1.4-.2.1 0 .2 0 .3v.2c0 .1 0 .3.1.4.1.2.3.4.4.5.2.1.4.6.6.6.2 0 .4-.1.5-.1.2 0 .4 0 .6-.1.2-.1.1-.3.3-.5.1-.1.3 0 .4-.1.2-.1.3-.3.4-.5v-.2c0-.1.1-.2.1-.3 0-.1-.1-.1-.1-.2v-.3c0-.2 0-.4-.1-.5-.4-.7-1.2-.9-2-.8-.2 0-.3.1-.4.2-.2.1-.1.2-.3.2-.1 0-.2.1-.2.2v.3M31.1-48.7v.2c-.1.1-.1.1-.2.1-.1.1-.1.3-.1.4-.2.1 0 .2 0 .3v.2c0 .1 0 .3.1.4.1.2.3.4.4.5.2.1.4.6.6.6.2 0 .4-.1.5-.1.2 0 .4 0 .6-.1.2-.1.1-.3.3-.5.1-.1.3 0 .4-.1.2-.1.3-.3.4-.5v-.2c0-.1.1-.2.1-.3 0-.1-.1-.1-.1-.2v-.3c0-.2 0-.4-.1-.5-.4-.7-1.2-.9-2-.8-.2 0-.3.1-.4.2-.2.1-.1.2-.3.2-.1 0-.2.1-.2.2v.3M23.5-48.7v.2c-.1.1-.1.1-.2.1-.1.1-.1.3-.1.4-.2.1 0 .2 0 .3v.2c0 .1 0 .3.1.4.1.2.3.4.4.5.2.1.4.6.6.6.2 0 .4-.1.5-.1.2 0 .4 0 .6-.1.2-.1.1-.3.3-.5.1-.1.3 0 .4-.1.2-.1.3-.3.4-.5v-.2c0-.1.1-.2.1-.3 0-.1-.1-.1-.1-.2v-.3c0-.2 0-.4-.1-.5-.4-.7-1.2-.9-2-.8-.2 0-.3.1-.4.2-.2.1-.1.2-.3.2-.1 0-.2.1-.2.2v.3M15.8-48.7v.2c-.1.1-.1.1-.2.1-.1.1-.1.3-.1.4-.2.1 0 .2 0 .3v.2c0 .1 0 .3.1.4.1.2.3.4.4.5.2.1.4.6.6.6.2 0 .4-.1.5-.1.2 0 .4 0 .6-.1.2-.1.1-.3.3-.5.1-.1.3 0 .4-.1.2-.1.3-.3.4-.5v-.2c0-.1.1-.2.1-.3 0-.1-.1-.1-.1-.2v-.3c0-.2 0-.4-.1-.5-.4-.7-1.2-.9-2-.8-.2 0-.3.1-.4.2-.2.1-.1.2-.3.2-.1 0-.2.1-.2.2v.3M8.2-48.7v.2c-.1.1-.2.1-.2.1-.1.1-.1.3-.1.4-.2.1 0 .2 0 .3v.2c0 .1 0 .3.1.4.1.2.3.4.4.5.1.2.3.6.5.6s.4-.1.5-.1c.2 0 .4 0 .6-.1.2-.1.1-.3.3-.5.1-.1.3 0 .4-.1.2-.1.3-.3.4-.5v-.2c0-.1.1-.2.1-.3 0-.1-.1-.1-.1-.2v-.3c0-.2 0-.4-.1-.5-.4-.7-1.2-.9-2-.8-.2 0-.3.1-.4.2-.2.1-.1.2-.3.2-.1 0-.2.1-.2.2.1.3.1.2.1.3-.1 0-.1 0 0 0M.5-48.7v.2c-.1.1-.1.1-.2.1-.1.1-.1.3-.1.4-.2.1 0 .2 0 .3v.2c0 .1 0 .3.1.4.1.2.3.4.4.5.2.2.3.6.6.6.2 0 .4-.1.5-.1.2 0 .4 0 .6-.1.2-.1.1-.3.3-.5.1-.1.3 0 .4-.1.2-.1.3-.3.4-.5v-.2c0-.1.1-.2.1-.3 0-.1-.1-.1-.1-.2v-.3c0-.2 0-.4-.1-.5-.4-.7-1.2-.9-2-.8-.2 0-.3.1-.4.2-.2.1-.1.2-.3.2-.1 0-.2.1-.2.2v.3"/></g><g><path class="st2" d="M69.4-41v.2c-.1.1-.1.1-.2.1-.1.1-.1.3-.1.4-.2.1 0 .2 0 .3v.2c0 .1 0 .3.1.4.1.2.3.4.4.5.2.1.4.6.6.6.2 0 .4-.1.5-.1.2 0 .4 0 .6-.1.2-.1.1-.3.3-.5.1-.1.3 0 .4-.1.2-.1.3-.3.4-.5v-.2c0-.1.1-.2.1-.3 0-.1-.1-.1-.1-.2v-.3c0-.2 0-.4-.1-.5-.4-.7-1.2-.9-2-.8-.2 0-.3.1-.4.2-.2.1-.1.2-.3.2-.1 0-.2.1-.2.2v.3M61.8-41v.2c-.1.1-.1.1-.2.1-.1.1-.1.3-.1.4-.2.1 0 .2 0 .3v.2c0 .1 0 .3.1.4.1.2.3.4.4.5.2.1.4.6.6.6.2 0 .4-.1.5-.1.2 0 .4 0 .6-.1.2-.1.1-.3.3-.5.1-.1.3 0 .4-.1.2-.1.3-.3.4-.5v-.2c0-.1.1-.2.1-.3 0-.1-.1-.1-.1-.2v-.3c0-.2 0-.4-.1-.5-.4-.7-1.2-.9-2-.8-.2 0-.3.1-.4.2-.2.1-.1.2-.3.2-.1 0-.2.1-.2.2v.3M54.1-41v.2c-.1.1-.1.1-.2.1-.1.1-.1.3-.1.4-.2.1 0 .2 0 .3v.2c0 .1 0 .3.1.4.1.2.3.4.4.5.2.1.4.6.6.6.2 0 .4-.1.5-.1.2 0 .4 0 .6-.1.2-.1.1-.3.3-.5.1-.1.3 0 .4-.1.2-.1.3-.3.4-.5v-.2c0-.1.1-.2.1-.3 0-.1-.1-.1-.1-.2v-.3c0-.2 0-.4-.1-.5-.4-.7-1.2-.9-2-.8-.2 0-.3.1-.4.2-.2.1-.1.2-.3.2-.1 0-.2.1-.2.2v.3M46.5-41v.2c-.1.1-.1.1-.2.1-.1.1-.1.3-.1.4-.2.1 0 .2 0 .3v.2c0 .1 0 .3.1.4.1.2.3.4.4.5.2.1.4.6.6.6.2 0 .4-.1.5-.1.2 0 .4 0 .6-.1.2-.1.1-.3.3-.5.1-.1.3 0 .4-.1.2-.1.3-.3.4-.5v-.2c0-.1.1-.2.1-.3 0-.1-.1-.1-.1-.2v-.3c0-.2 0-.4-.1-.5-.4-.7-1.2-.9-2-.8-.2 0-.3.1-.4.2-.2.1-.1.2-.3.2-.1 0-.2.1-.2.2v.3M38.8-41v.2c-.1.1-.1.1-.2.1-.1.1-.1.3-.1.4-.2.1 0 .2 0 .3v.2c0 .1 0 .3.1.4.1.2.3.4.4.5.2.1.4.6.6.6.2 0 .4-.1.5-.1.2 0 .4 0 .6-.1.2-.1.1-.3.3-.5.1-.1.3 0 .4-.1.2-.1.3-.3.4-.5v-.2c0-.1.1-.2.1-.3 0-.1-.1-.1-.1-.2v-.3c0-.2 0-.4-.1-.5-.4-.7-1.2-.9-2-.8-.2 0-.3.1-.4.2-.2.1-.1.2-.3.2-.1 0-.2.1-.2.2v.3M31.1-41v.2c-.1.1-.1.1-.2.1-.1.1-.1.3-.1.4-.2.1 0 .2 0 .3v.2c0 .1 0 .3.1.4.1.2.3.4.4.5.2.1.4.6.6.6.2 0 .4-.1.5-.1.2 0 .4 0 .6-.1.2-.1.1-.3.3-.5.1-.1.3 0 .4-.1.2-.1.3-.3.4-.5v-.2c0-.1.1-.2.1-.3 0-.1-.1-.1-.1-.2v-.3c0-.2 0-.4-.1-.5-.4-.7-1.2-.9-2-.8-.2 0-.3.1-.4.2-.2.1-.1.2-.3.2-.1 0-.2.1-.2.2v.3M23.5-41v.2c-.1.1-.1.1-.2.1-.1.1-.1.3-.1.4-.2.1 0 .2 0 .3v.2c0 .1 0 .3.1.4.1.2.3.4.4.5.2.1.4.6.6.6.2 0 .4-.1.5-.1.2 0 .4 0 .6-.1.2-.1.1-.3.3-.5.1-.1.3 0 .4-.1.2-.1.3-.3.4-.5v-.2c0-.1.1-.2.1-.3 0-.1-.1-.1-.1-.2v-.3c0-.2 0-.4-.1-.5-.4-.7-1.2-.9-2-.8-.2 0-.3.1-.4.2-.2.1-.1.2-.3.2-.1 0-.2.1-.2.2v.3M15.8-41v.2c-.1.1-.1.1-.2.1-.1.1-.1.3-.1.4-.2.1 0 .2 0 .3v.2c0 .1 0 .3.1.4.1.2.3.4.4.5.2.1.4.6.6.6.2 0 .4-.1.5-.1.2 0 .4 0 .6-.1.2-.1.1-.3.3-.5.1-.1.3 0 .4-.1.2-.1.3-.3.4-.5v-.2c0-.1.1-.2.1-.3 0-.1-.1-.1-.1-.2v-.3c0-.2 0-.4-.1-.5-.4-.7-1.2-.9-2-.8-.2 0-.3.1-.4.2-.2.1-.1.2-.3.2-.1 0-.2.1-.2.2v.3M8.2-41v.2c-.1 0-.2 0-.2.1-.1.1-.1.3-.1.4-.2.1 0 .2 0 .3v.2c0 .1 0 .3.1.4.1.2.3.4.4.5.2.1.4.6.6.6.2 0 .4-.1.5-.1.2 0 .4 0 .6-.1.2-.1.1-.3.3-.5.1-.1.3 0 .4-.1.2-.1.3-.3.4-.5v-.2c0-.1.1-.2.1-.3 0-.1-.1-.1-.1-.2v-.3c0-.2 0-.4-.1-.5-.4-.7-1.2-.9-2-.8-.2 0-.3.1-.4.2-.2.1-.1.2-.3.2-.1 0-.2.1-.2.2v.3c-.1 0-.1 0 0 0M.5-41v.2c-.1.1-.1.1-.2.1-.1.1-.1.3-.1.4-.2.1 0 .2 0 .3v.2c0 .1 0 .3.1.4.1.2.3.4.4.5.2.1.4.6.6.6.2 0 .4-.1.5-.1.2 0 .4 0 .6-.1.2-.1.1-.3.3-.5h.4c.2-.1.3-.3.4-.5v-.2c0-.1.1-.2.1-.3 0-.1-.1-.1-.1-.2v-.3c0-.2 0-.4-.1-.5-.4-.7-1.2-.9-2-.8-.2 0-.3.1-.4.2-.2.1-.1.2-.3.2-.1 0-.2.1-.2.2v.2"/></g><g><path class="st2" d="M69.4-33.4v.2c-.1.1-.1.1-.2.1-.1.1-.1.3-.1.4-.2.1 0 .2 0 .3v.2c0 .1 0 .3.1.4.1.2.3.4.4.5.2.1.4.6.6.6.2 0 .4-.1.5-.1.2 0 .4 0 .6-.1.2-.1.1-.3.3-.5.1-.1.3 0 .4-.1.2-.1.3-.3.4-.5v-.2c0-.1.1-.2.1-.3 0-.1-.1-.1-.1-.2v-.3c0-.2 0-.4-.1-.5-.4-.7-1.2-.9-2-.8-.2 0-.3.1-.4.2-.2.1-.1.2-.3.2-.1 0-.2.1-.2.2v.3M61.8-33.4v.2c-.1.1-.1.1-.2.1-.1.1-.1.3-.1.4-.2.1 0 .2 0 .3v.2c0 .1 0 .3.1.4.1.2.3.4.4.5.2.1.4.6.6.6.2 0 .4-.1.5-.1.2 0 .4 0 .6-.1.2-.1.1-.3.3-.5.1-.1.3 0 .4-.1.2-.1.3-.3.4-.5v-.2c0-.1.1-.2.1-.3 0-.1-.1-.1-.1-.2v-.3c0-.2 0-.4-.1-.5-.4-.7-1.2-.9-2-.8-.2 0-.3.1-.4.2-.2.1-.1.2-.3.2-.1 0-.2.1-.2.2v.3M54.1-33.4v.2c-.1.1-.1.1-.2.1-.1.1-.1.3-.1.4-.2.1 0 .2 0 .3v.2c0 .1 0 .3.1.4.1.2.3.4.4.5.2.1.4.6.6.6.2 0 .4-.1.5-.1.2 0 .4 0 .6-.1.2-.1.1-.3.3-.5.1-.1.3 0 .4-.1.2-.1.3-.3.4-.5v-.2c0-.1.1-.2.1-.3 0-.1-.1-.1-.1-.2v-.3c0-.2 0-.4-.1-.5-.4-.7-1.2-.9-2-.8-.2 0-.3.1-.4.2-.2.1-.1.2-.3.2-.1 0-.2.1-.2.2v.3M46.5-33.4v.2c-.1.1-.1.1-.2.1-.1.1-.1.3-.1.4-.2.1 0 .2 0 .3v.2c0 .1 0 .3.1.4.1.2.3.4.4.5.2.1.4.6.6.6.2 0 .4-.1.5-.1.2 0 .4 0 .6-.1.2-.1.1-.3.3-.5.1-.1.3 0 .4-.1.2-.1.3-.3.4-.5v-.2c0-.1.1-.2.1-.3 0-.1-.1-.1-.1-.2v-.3c0-.2 0-.4-.1-.5-.4-.7-1.2-.9-2-.8-.2 0-.3.1-.4.2-.2.1-.1.2-.3.2-.1 0-.2.1-.2.2v.3M38.8-33.4v.2c-.1.1-.1.1-.2.1-.1.1-.1.3-.1.4-.2.1 0 .2 0 .3v.2c0 .1 0 .3.1.4.1.2.3.4.4.5.2.1.4.6.6.6.2 0 .4-.1.5-.1.2 0 .4 0 .6-.1.2-.1.1-.3.3-.5.1-.1.3 0 .4-.1.2-.1.3-.3.4-.5v-.2c0-.1.1-.2.1-.3 0-.1-.1-.1-.1-.2v-.3c0-.2 0-.4-.1-.5-.4-.7-1.2-.9-2-.8-.2 0-.3.1-.4.2-.2.1-.1.2-.3.2-.1 0-.2.1-.2.2v.3M31.1-33.4v.2c-.1.1-.1.1-.2.1-.1.1-.1.3-.1.4-.2.1 0 .2 0 .3v.2c0 .1 0 .3.1.4.1.2.3.4.4.5.2.1.4.6.6.6.2 0 .4-.1.5-.1.2 0 .4 0 .6-.1.2-.1.1-.3.3-.5.1-.1.3 0 .4-.1.2-.1.3-.3.4-.5v-.2c0-.1.1-.2.1-.3 0-.1-.1-.1-.1-.2v-.3c0-.2 0-.4-.1-.5-.4-.7-1.2-.9-2-.8-.2 0-.3.1-.4.2-.2.1-.1.2-.3.2-.1 0-.2.1-.2.2v.3M23.5-33.4v.2c-.1.1-.1.1-.2.1-.1.1-.1.3-.1.4-.2.1 0 .2 0 .3v.2c0 .1 0 .3.1.4.1.2.3.4.4.5.2.1.4.6.6.6.2 0 .4-.1.5-.1.2 0 .4 0 .6-.1.2-.1.1-.3.3-.5.1-.1.3 0 .4-.1.2-.1.3-.3.4-.5v-.2c0-.1.1-.2.1-.3 0-.1-.1-.1-.1-.2v-.3c0-.2 0-.4-.1-.5-.4-.7-1.2-.9-2-.8-.2 0-.3.1-.4.2-.2.1-.1.2-.3.2-.1 0-.2.1-.2.2v.3M15.8-33.4v.2c-.1.1-.1.1-.2.1-.1.1-.1.3-.1.4-.2.1 0 .2 0 .3v.2c0 .1 0 .3.1.4.1.2.3.4.4.5.2.1.4.6.6.6.2 0 .4-.1.5-.1.2 0 .4 0 .6-.1.2-.1.1-.3.3-.5.1-.1.3 0 .4-.1.2-.1.3-.3.4-.5v-.2c0-.1.1-.2.1-.3 0-.1-.1-.1-.1-.2v-.3c0-.2 0-.4-.1-.5-.4-.7-1.2-.9-2-.8-.2 0-.3.1-.4.2-.2.1-.1.2-.3.2-.1 0-.2.1-.2.2v.3M8.2-33.4v.2c-.1.1-.2.1-.2.1-.1.1-.1.3-.1.4-.2.1 0 .2 0 .3v.2c0 .1 0 .3.1.4.1.2.3.4.4.5.2.1.4.6.6.6.2 0 .4-.1.5-.1.2 0 .4 0 .6-.1.2-.1.1-.3.3-.5.1-.1.3 0 .4-.1.2-.1.3-.3.4-.5v-.2c0-.1.1-.2.1-.3 0-.1-.1-.1-.1-.2v-.3c0-.2 0-.4-.1-.5-.4-.7-1.2-.9-2-.8-.2 0-.3.1-.4.2-.2.1-.1.2-.3.2-.1 0-.2.1-.2.2v.3c-.1 0-.1 0 0 0M.5-33.4v.2c-.1.1-.1.1-.2.1-.1.1-.1.3-.1.4-.2.1 0 .2 0 .3v.2c0 .1 0 .3.1.4.1.2.3.4.4.5.2.1.4.6.6.6.2 0 .4-.1.5-.1.2 0 .4 0 .6-.1.2-.1.1-.3.3-.5.1-.1.3 0 .4-.1.2-.1.3-.3.4-.5v-.2c0-.1.1-.2.1-.3 0-.1-.1-.1-.1-.2v-.3c0-.2 0-.4-.1-.5-.4-.7-1.2-.9-2-.8-.2 0-.3.1-.4.2-.2.1-.1.2-.3.2-.1 0-.2.1-.2.2v.3"/></g><g><path class="st2" d="M69.4-25.7v.2c-.1.1-.1.1-.2.1-.1.1-.1.3-.1.4-.2.1 0 .2 0 .3v.2c0 .1 0 .3.1.4.1.2.3.4.4.5.2.1.4.6.6.6.2 0 .4-.1.5-.1.2 0 .4 0 .6-.1.2-.1.1-.3.3-.5.1-.1.3 0 .4-.1.2-.1.3-.3.4-.5v-.2c0-.1.1-.2.1-.3 0-.1-.1-.1-.1-.2v-.3c0-.2 0-.4-.1-.5-.4-.7-1.2-.9-2-.8-.2 0-.3.1-.4.2-.2.1-.1.2-.3.2-.1 0-.2.1-.2.2v.3M61.8-25.7v.2c-.1.1-.1.1-.2.1-.1.1-.1.3-.1.4-.2.1 0 .2 0 .3v.2c0 .1 0 .3.1.4.1.2.3.4.4.5.2.1.4.6.6.6.2 0 .4-.1.5-.1.2 0 .4 0 .6-.1.2-.1.1-.3.3-.5.1-.1.3 0 .4-.1.2-.1.3-.3.4-.5v-.2c0-.1.1-.2.1-.3 0-.1-.1-.1-.1-.2v-.3c0-.2 0-.4-.1-.5-.4-.7-1.2-.9-2-.8-.2 0-.3.1-.4.2-.2.1-.1.2-.3.2-.1 0-.2.1-.2.2v.3M54.1-25.7v.2c-.1.1-.1.1-.2.1-.1.1-.1.3-.1.4-.2.1 0 .2 0 .3v.2c0 .1 0 .3.1.4.1.2.3.4.4.5.2.1.4.6.6.6.2 0 .4-.1.5-.1.2 0 .4 0 .6-.1.2-.1.1-.3.3-.5.1-.1.3 0 .4-.1.2-.1.3-.3.4-.5v-.2c0-.1.1-.2.1-.3 0-.1-.1-.1-.1-.2v-.3c0-.2 0-.4-.1-.5-.4-.7-1.2-.9-2-.8-.2 0-.3.1-.4.2-.2.1-.1.2-.3.2-.1 0-.2.1-.2.2v.3M46.5-25.7v.2c-.1.1-.1.1-.2.1-.1.1-.1.3-.1.4-.2.1 0 .2 0 .3v.2c0 .1 0 .3.1.4.1.2.3.4.4.5.2.1.4.6.6.6.2 0 .4-.1.5-.1.2 0 .4 0 .6-.1.2-.1.1-.3.3-.5.1-.1.3 0 .4-.1.2-.1.3-.3.4-.5v-.2c0-.1.1-.2.1-.3 0-.1-.1-.1-.1-.2v-.3c0-.2 0-.4-.1-.5-.4-.7-1.2-.9-2-.8-.2 0-.3.1-.4.2-.2.1-.1.2-.3.2-.1 0-.2.1-.2.2v.3M38.8-25.7v.2c-.1.1-.1.1-.2.1-.1.1-.1.3-.1.4-.2.1 0 .2 0 .3v.2c0 .1 0 .3.1.4.1.2.3.4.4.5.2.1.4.6.6.6.2 0 .4-.1.5-.1.2 0 .4 0 .6-.1.2-.1.1-.3.3-.5.1-.1.3 0 .4-.1.2-.1.3-.3.4-.5v-.2c0-.1.1-.2.1-.3 0-.1-.1-.1-.1-.2v-.3c0-.2 0-.4-.1-.5-.4-.7-1.2-.9-2-.8-.2 0-.3.1-.4.2-.2.1-.1.2-.3.2-.1 0-.2.1-.2.2v.3M31.1-25.7v.2c-.1.1-.1.1-.2.1-.1.1-.1.3-.1.4-.2.1 0 .2 0 .3v.2c0 .1 0 .3.1.4.1.2.3.4.4.5.2.1.4.6.6.6.2 0 .4-.1.5-.1.2 0 .4 0 .6-.1.2-.1.1-.3.3-.5.1-.1.3 0 .4-.1.2-.1.3-.3.4-.5v-.2c0-.1.1-.2.1-.3 0-.1-.1-.1-.1-.2v-.3c0-.2 0-.4-.1-.5-.4-.7-1.2-.9-2-.8-.2 0-.3.1-.4.2-.2.1-.1.2-.3.2-.1 0-.2.1-.2.2v.3M23.5-25.7v.2c-.1.1-.1.1-.2.1-.1.1-.1.3-.1.4-.2.1 0 .2 0 .3v.2c0 .1 0 .3.1.4.1.2.3.4.4.5.2.1.4.6.6.6.2 0 .4-.1.5-.1.2 0 .4 0 .6-.1.2-.1.1-.3.3-.5.1-.1.3 0 .4-.1.2-.1.3-.3.4-.5v-.2c0-.1.1-.2.1-.3 0-.1-.1-.1-.1-.2v-.3c0-.2 0-.4-.1-.5-.4-.7-1.2-.9-2-.8-.2 0-.3.1-.4.2-.2.1-.1.2-.3.2-.1 0-.2.1-.2.2v.3M15.8-25.7v.2c-.1.1-.1.1-.2.1-.1.1-.1.3-.1.4-.2.1 0 .2 0 .3v.2c0 .1 0 .3.1.4.1.2.3.4.4.5.2.1.4.6.6.6.2 0 .4-.1.5-.1.2 0 .4 0 .6-.1.2-.1.1-.3.3-.5.1-.1.3 0 .4-.1.2-.1.3-.3.4-.5v-.2c0-.1.1-.2.1-.3 0-.1-.1-.1-.1-.2v-.3c0-.2 0-.4-.1-.5-.4-.7-1.2-.9-2-.8-.2 0-.3.1-.4.2-.2.1-.1.2-.3.2-.1 0-.2.1-.2.2v.3M8.2-25.7v.2c-.1.1-.2 0-.2.1-.1.1-.1.3-.1.4-.2.1 0 .2 0 .3v.2c0 .1 0 .3.1.4 0 .1.2.3.3.5.2.1.4.6.6.6.2 0 .4-.1.5-.1.2 0 .4 0 .6-.1.2-.1.1-.3.3-.5.1-.1.3 0 .4-.1.2-.1.3-.3.4-.5v-.2c0-.1.1-.2.1-.3 0-.1-.1-.1-.1-.2v-.3c0-.2 0-.4-.1-.5-.4-.7-1.2-.9-2-.8-.2 0-.3.1-.4.2-.2.1-.1.2-.3.2-.1 0-.2.1-.2.2.1.2.1.2.1.3-.1 0-.1 0 0 0M.5-25.7v.2c-.1.1-.1.1-.2.1-.1.1-.1.3-.1.4-.2.1 0 .2 0 .3v.2c0 .1 0 .3.1.4.1.2.3.4.4.5.2.1.3.5.6.6.2 0 .4-.1.5-.1.2 0 .4 0 .6-.1.2-.1.1-.3.3-.5.1-.1.3 0 .4-.1.2-.1.3-.3.4-.5v-.2c0-.1.1-.2.1-.3 0-.1-.1-.1-.1-.2v-.3c0-.2 0-.4-.1-.5-.4-.7-1.2-.9-2-.8-.2 0-.3.1-.4.2-.2.1-.1.2-.3.2-.1 0-.2.1-.2.2v.3"/></g><g><path class="st2" d="M69.4-18.1v.2c-.1.1-.1.1-.2.1-.1.1-.1.3-.1.4-.2.1 0 .2 0 .3v.2c0 .1 0 .3.1.4.1.2.3.4.4.5.2.1.4.6.6.6.2 0 .4-.1.5-.1.2 0 .4 0 .6-.1.2-.1.1-.3.3-.5.1-.1.3 0 .4-.1.2-.1.3-.3.4-.5v-.2c0-.1.1-.2.1-.3 0-.1-.1-.1-.1-.2v-.3c0-.2 0-.4-.1-.5-.4-.7-1.2-.9-2-.8-.2 0-.3.1-.4.2-.2.1-.1.2-.3.2-.1 0-.2.1-.2.2v.3c0 .1 0 0 0 0M61.8-18.1v.2c-.1.1-.1.1-.2.1-.1.1-.1.3-.1.4-.2.1 0 .2 0 .3v.2c0 .1 0 .3.1.4.1.2.3.4.4.5.2.1.4.6.6.6.2 0 .4-.1.5-.1.2 0 .4 0 .6-.1.2-.1.1-.3.3-.5.1-.1.3 0 .4-.1.2-.1.3-.3.4-.5v-.2c0-.1.1-.2.1-.3 0-.1-.1-.1-.1-.2v-.3c0-.2 0-.4-.1-.5-.4-.7-1.2-.9-2-.8-.2 0-.3.1-.4.2-.2.1-.1.2-.3.2-.1 0-.2.1-.2.2v.3c0 .1 0 0 0 0M54.1-18.1v.2c-.1.1-.1.1-.2.1-.1.1-.1.3-.1.4-.2.1 0 .2 0 .3v.2c0 .1 0 .3.1.4.1.2.3.4.4.5.2.1.4.6.6.6.2 0 .4-.1.5-.1.2 0 .4 0 .6-.1.2-.1.1-.3.3-.5.1-.1.3 0 .4-.1.2-.1.3-.3.4-.5v-.2c0-.1.1-.2.1-.3 0-.1-.1-.1-.1-.2v-.3c0-.2 0-.4-.1-.5-.4-.7-1.2-.9-2-.8-.2 0-.3.1-.4.2-.2.1-.1.2-.3.2-.1 0-.2.1-.2.2v.3c0 .1 0 0 0 0M46.5-18.1v.2c-.1.1-.1.1-.2.1-.1.1-.1.3-.1.4-.2.1 0 .2 0 .3v.2c0 .1 0 .3.1.4.1.2.3.4.4.5.2.1.4.6.6.6.2 0 .4-.1.5-.1.2 0 .4 0 .6-.1.2-.1.1-.3.3-.5.1-.1.3 0 .4-.1.2-.1.3-.3.4-.5v-.2c0-.1.1-.2.1-.3 0-.1-.1-.1-.1-.2v-.3c0-.2 0-.4-.1-.5-.4-.7-1.2-.9-2-.8-.2 0-.3.1-.4.2-.2.1-.1.2-.3.2-.1 0-.2.1-.2.2v.3c0 .1 0 0 0 0M38.8-18.1v.2c-.1.1-.1.1-.2.1-.1.1-.1.3-.1.4-.2.1 0 .2 0 .3v.2c0 .1 0 .3.1.4.1.2.3.4.4.5.2.1.4.6.6.6.2 0 .4-.1.5-.1.2 0 .4 0 .6-.1.2-.1.1-.3.3-.5.1-.1.3 0 .4-.1.2-.1.3-.3.4-.5v-.2c0-.1.1-.2.1-.3 0-.1-.1-.1-.1-.2v-.3c0-.2 0-.4-.1-.5-.4-.7-1.2-.9-2-.8-.2 0-.3.1-.4.2-.2.1-.1.2-.3.2-.1 0-.2.1-.2.2v.3c0 .1 0 0 0 0M31.1-18.1v.2c-.1.1-.1.1-.2.1-.1.1-.1.3-.1.4-.2.1 0 .2 0 .3v.2c0 .1 0 .3.1.4.1.2.3.4.4.5.2.1.4.6.6.6.2 0 .4-.1.5-.1.2 0 .4 0 .6-.1.2-.1.1-.3.3-.5.1-.1.3 0 .4-.1.2-.1.3-.3.4-.5v-.2c0-.1.1-.2.1-.3 0-.1-.1-.1-.1-.2v-.3c0-.2 0-.4-.1-.5-.4-.7-1.2-.9-2-.8-.2 0-.3.1-.4.2-.2.1-.1.2-.3.2-.1 0-.2.1-.2.2v.3c0 .1 0 0 0 0M23.5-18.1v.2c-.1.1-.1.1-.2.1-.1.1-.1.3-.1.4-.2.1 0 .2 0 .3v.2c0 .1 0 .3.1.4.1.2.3.4.4.5.2.1.4.6.6.6.2 0 .4-.1.5-.1.2 0 .4 0 .6-.1.2-.1.1-.3.3-.5.1-.1.3 0 .4-.1.2-.1.3-.3.4-.5v-.2c0-.1.1-.2.1-.3 0-.1-.1-.1-.1-.2v-.3c0-.2 0-.4-.1-.5-.4-.7-1.2-.9-2-.8-.2 0-.3.1-.4.2-.2.1-.1.2-.3.2-.1 0-.2.1-.2.2v.3c0 .1 0 0 0 0M15.8-18.1v.2c-.1.1-.1.1-.2.1-.1.1-.1.3-.1.4-.2.1 0 .2 0 .3v.2c0 .1 0 .3.1.4.1.2.3.4.4.5.2.1.4.6.6.6.2 0 .4-.1.5-.1.2 0 .4 0 .6-.1.2-.1.1-.3.3-.5.1-.1.3 0 .4-.1.2-.1.3-.3.4-.5v-.2c0-.1.1-.2.1-.3 0-.1-.1-.1-.1-.2v-.3c0-.2 0-.4-.1-.5-.4-.7-1.2-.9-2-.8-.2 0-.3.1-.4.2-.2.1-.1.2-.3.2-.1 0-.2.1-.2.2v.3c0 .1 0 0 0 0M8.2-18.1v.2c-.1.1-.2.1-.2.1-.1.1-.1.3-.1.4-.2.1 0 .2 0 .3v.2c0 .1 0 .3.1.4 0 .2.2.4.3.5.2.1.4.6.6.6.2 0 .4-.1.5-.1.2 0 .4 0 .6-.1.2-.1.1-.3.3-.5.1-.1.3 0 .4-.1.2-.1.3-.3.4-.5v-.2c0-.1.1-.2.1-.3 0-.1-.1-.1-.1-.2v-.3c0-.2 0-.4-.1-.5-.4-.7-1.2-.9-2-.8-.2 0-.3.1-.4.2-.2.1-.1.2-.3.2-.1 0-.2.1-.2.2.1.3.1.2.1.3-.1.1-.1 0 0 0M.5-18.1v.2c-.1.1-.1.1-.2.1-.1.1-.1.3-.1.4-.2.1 0 .2 0 .3v.2c0 .1 0 .3.1.4.1.2.3.4.4.5.2.1.4.6.6.6.2 0 .4-.1.5-.1.2 0 .4 0 .6-.1.2-.1.1-.3.3-.5.1 0 .3.1.4.1.2-.1.3-.3.4-.5v-.2c0-.1.1-.2.1-.3 0-.1-.1-.1-.1-.2v-.3c0-.2 0-.4-.1-.5-.4-.7-1.2-.9-2-.8-.2 0-.3.1-.4.2-.2.1-.1.2-.3.2-.1 0-.2.1-.2.2v.1c0 .1 0 0 0 0"/></g><g><path class="st2" d="M69.4-10.4v.2c-.1.1-.1.1-.2.1-.1.1-.1.3-.1.4-.2.1 0 .2 0 .3v.2c0 .1 0 .3.1.4.1.2.3.4.4.5.2.1.4.6.6.6.2 0 .4-.1.5-.1.2 0 .4 0 .6-.1.2-.1.1-.3.3-.5.1-.1.3 0 .4-.1.2-.1.3-.3.4-.5v-.2c0-.1.1-.2.1-.3 0-.1-.1-.1-.1-.2v-.3c0-.2 0-.4-.1-.5-.4-.7-1.2-.9-2-.8-.2 0-.3.1-.4.2-.2.1-.1.2-.3.2-.1 0-.2.1-.2.2v.3M61.8-10.4v.2c-.1.1-.1.1-.2.1-.1.1-.1.3-.1.4-.2.1 0 .2 0 .3v.2c0 .1 0 .3.1.4.1.2.3.4.4.5.2.1.4.6.6.6.2 0 .4-.1.5-.1.2 0 .4 0 .6-.1.2-.1.1-.3.3-.4.1-.1.3 0 .4-.1.2-.1.3-.3.4-.5v-.2c0-.1.1-.2.1-.3 0-.1-.1-.1-.1-.2v-.3c0-.2 0-.4-.1-.5-.4-.7-1.2-.9-2-.8-.2 0-.3.1-.4.2-.2.1-.1.2-.3.2-.1 0-.2.1-.2.2v.2M54.1-10.4v.2c-.1.1-.1.1-.2.1-.1.1-.1.3-.1.4-.2.1 0 .2 0 .3v.2c0 .1 0 .3.1.4.1.2.3.4.4.5.2.1.4.6.6.6.2 0 .4-.1.5-.1.2 0 .4 0 .6-.1.2-.1.1-.3.3-.5.1-.1.3 0 .4-.1.2-.1.3-.3.4-.5v-.2c0-.1.1-.2.1-.3 0-.1-.1-.1-.1-.2v-.3c0-.2 0-.4-.1-.5-.4-.7-1.2-.9-2-.8-.2 0-.3.1-.4.2-.2.1-.1.2-.3.2-.1 0-.2.1-.2.2v.3M46.5-10.4v.2c-.1.1-.1.1-.2.1-.1.1-.1.3-.1.4-.2.1 0 .2 0 .3v.2c0 .1 0 .3.1.4.1.2.3.4.4.5.2.1.4.6.6.6.2 0 .4-.1.5-.1.2 0 .4 0 .6-.1.2-.1.1-.3.3-.5.1-.1.3 0 .4-.1.2-.1.3-.3.4-.5v-.2c0-.1.1-.2.1-.3 0-.1-.1-.1-.1-.2v-.3c0-.2 0-.4-.1-.5-.4-.7-1.2-.9-2-.8-.2 0-.3.1-.4.2-.2.1-.1.2-.3.2-.1 0-.2.1-.2.2v.3M38.8-10.4v.2c-.1.1-.1.1-.2.1-.1.1-.1.3-.1.4-.2.1 0 .2 0 .3v.2c0 .1 0 .3.1.4.1.2.3.4.4.5.2.1.4.6.6.6.2 0 .4-.1.5-.1.2 0 .4 0 .6-.1.2-.1.1-.3.3-.4.1-.1.3 0 .4-.1.2-.1.3-.3.4-.5v-.2c0-.1.1-.2.1-.3 0-.1-.1-.1-.1-.2v-.3c0-.2 0-.4-.1-.5-.4-.7-1.2-.9-2-.8-.2 0-.3.1-.4.2-.2.1-.1.2-.3.2-.1 0-.2.1-.2.2v.2M31.1-10.4v.2c-.1.1-.1.1-.2.1-.1.1-.1.3-.1.4-.2.1 0 .2 0 .3v.2c0 .1 0 .3.1.4.1.2.3.4.4.5.2.1.4.6.6.6.2 0 .4-.1.5-.1.2 0 .4 0 .6-.1.2-.1.1-.3.3-.5.1-.1.3 0 .4-.1.2-.1.3-.3.4-.5v-.2c0-.1.1-.2.1-.3 0-.1-.1-.1-.1-.2v-.3c0-.2 0-.4-.1-.5-.4-.7-1.2-.9-2-.8-.2 0-.3.1-.4.2-.2.1-.1.2-.3.2-.1 0-.2.1-.2.2v.3M23.5-10.4v.2c-.1.1-.1.1-.2.1-.1.1-.1.3-.1.4-.2.1 0 .2 0 .3v.2c0 .1 0 .3.1.4.1.2.3.4.4.5.2.1.4.6.6.6.2 0 .4-.1.5-.1.2 0 .4 0 .6-.1.2-.1.1-.3.3-.5.1-.1.3 0 .4-.1.2-.1.3-.3.4-.5v-.2c0-.1.1-.2.1-.3 0-.1-.1-.1-.1-.2v-.3c0-.2 0-.4-.1-.5-.4-.7-1.2-.9-2-.8-.2 0-.3.1-.4.2-.2.1-.1.2-.3.2-.1 0-.2.1-.2.2v.3M15.8-10.4v.2c-.1.1-.1.1-.2.1-.1.1-.1.3-.1.4-.2.1 0 .2 0 .3v.2c0 .1 0 .3.1.4.1.2.3.4.4.5.2.1.4.6.6.6.2 0 .4-.1.5-.1.2 0 .4 0 .6-.1.2-.1.1-.3.3-.4.1-.1.3 0 .4-.1.2-.1.3-.3.4-.5v-.2c0-.1.1-.2.1-.3 0-.1-.1-.1-.1-.2v-.3c0-.2 0-.4-.1-.5-.4-.7-1.2-.9-2-.8-.2 0-.3.1-.4.2-.2.1-.1.2-.3.2-.1 0-.2.1-.2.2v.2M8.2-10.4v.2c-.1.1-.2 0-.2.1-.1.1-.1.3-.1.3-.2.1 0 .2 0 .3v.2c0 .1 0 .3.1.4 0 .2.2.4.3.6.2.1.4.6.6.6.2 0 .4-.1.5-.1.2 0 .4 0 .6-.1.2-.1.1-.3.3-.5.1-.1.3 0 .4-.1.2-.1.3-.3.4-.5v-.2c0-.1.1-.2.1-.3 0-.1-.1-.1-.1-.2v-.3c0-.2 0-.4-.1-.5-.4-.7-1.2-.9-2-.8-.2 0-.3.1-.4.2-.2.1-.1.2-.3.2-.1 0-.2.1-.2.2.1.2.1.2.1.3-.1 0-.1 0 0 0M.5-10.4v.2c-.1.1-.1.1-.2.1 0 .1-.1.3-.1.3-.2.1 0 .2 0 .3v.2c0 .1 0 .3.1.4.1.2.3.4.4.5.2.2.3.6.6.7.2 0 .4-.1.5-.1.2 0 .4 0 .6-.1.2-.1.1-.3.3-.4.1-.1.3 0 .4-.1.2-.1.3-.3.4-.5v-.2c0-.1.1-.2.1-.3 0-.1-.1-.1-.1-.2v-.3c0-.2 0-.4-.1-.5-.4-.7-1.2-.9-2-.8-.2 0-.3.1-.4.2-.2.1-.1.2-.3.2-.1 0-.2.1-.2.2v.2"/></g></g><g><path class="st2" d="M69.4-2.8v.2c-.1.1-.1.1-.2.1-.1.1-.1.3-.1.4-.2.1 0 .2 0 .3v.2c0 .1 0 .3.1.4.1.2.3.4.4.5.2.2.4.6.6.7.2 0 .4-.1.5-.1.2 0 .4 0 .6-.1.2-.1.1-.3.3-.5.1-.1.3 0 .4-.1.2-.1.3-.3.4-.5v-.2c0-.1.1-.2.1-.3 0-.1-.1-.1-.1-.2v-.3c0-.2 0-.4-.1-.5-.4-.7-1.2-.9-2-.8-.2 0-.3.1-.4.2-.2.1-.1.2-.3.2-.1 0-.2.1-.2.2v.2c0 .1 0 0 0 0M61.8-2.8v.2c-.1.1-.1.1-.2.1-.1.1-.1.3-.1.4-.2.1 0 .2 0 .3v.2c0 .1 0 .3.1.4 0 .2.2.4.4.5.2.1.4.6.6.6.2 0 .4-.1.5-.1.2 0 .4 0 .6-.1.2-.1.1-.3.3-.5.1-.1.3 0 .4-.1.2-.1.3-.3.4-.5v-.2c0-.1.1-.2.1-.3 0-.1-.1-.1-.1-.2v-.3c0-.2 0-.4-.1-.5-.4-.7-1.2-.9-2-.8-.2 0-.3.1-.4.2-.2.1-.1.2-.3.2-.1 0-.2.1-.2.2v.3c0 .1 0 0 0 0M54.1-2.8v.2c-.1.1-.1.1-.2.1-.1.1-.1.3-.1.4-.2.1 0 .2 0 .3v.2c0 .1 0 .3.1.4.1.2.2.4.4.5.2.1.4.6.6.6.2 0 .4-.1.5-.1.2 0 .4 0 .6-.1.2-.1.1-.3.3-.5.1-.1.3 0 .4-.1.2.1.3-.1.4-.3v-.2c0-.1.1-.2.1-.3 0-.1-.1-.1-.1-.2v-.3c0-.2 0-.4-.1-.5-.4-.7-1.2-.9-2-.8-.2 0-.3.1-.4.2-.2.1-.1.2-.3.2-.1 0-.2.1-.2.2v.1c0 .1 0 0 0 0M46.5-2.8v.2c-.1.1-.1.1-.2.1-.1.1-.1.3-.1.4-.2.1 0 .2 0 .3v.2c0 .1 0 .3.1.4.1.2.3.4.4.5.1.2.3.6.5.7.2 0 .4-.1.5-.1.2 0 .4 0 .6-.1.2-.1.1-.3.3-.5.1-.1.3 0 .4-.1.2-.1.3-.3.4-.5v-.2c0-.1.1-.2.1-.3 0-.1-.1-.1-.1-.2v-.3c0-.2 0-.4-.1-.5-.4-.7-1.2-.9-2-.8-.2 0-.3.1-.4.2-.2.1-.1.2-.3.2-.1 0-.2.1-.2.2.1.2.1.1.1.2M38.8-2.8v.2c-.1.1-.1.1-.2.1-.1.1-.1.3-.1.4-.2.1 0 .2 0 .3v.2c0 .1 0 .3.1.4 0 .2.2.4.4.5.2.1.4.6.6.6.2 0 .4-.1.5-.1.2 0 .4 0 .6-.1.2-.1.1-.3.3-.5.1-.1.3 0 .4-.1.2-.1.3-.3.4-.5v-.2c0-.1.1-.2.1-.3 0-.1-.1-.1-.1-.2v-.3c0-.2 0-.4-.1-.5-.4-.7-1.2-.9-2-.8-.2 0-.3.1-.4.2-.2.1-.1.2-.3.2-.1 0-.2.1-.2.2v.3c0 .1 0 0 0 0M31.1-2.8v.2c-.1.1-.1.1-.2.1-.1.1-.1.3-.1.4-.2.1 0 .2 0 .3v.2c0 .1 0 .3.1.4.1.2.2.4.4.5.2.1.4.6.6.6.2 0 .4-.1.5-.1.2 0 .4 0 .6-.1.2-.1.1-.3.3-.5.1-.1.3 0 .4-.1.2-.1.3-.3.4-.5v-.2c0-.1.1-.2.1-.3 0-.1-.1-.1-.1-.2v-.3c0-.2 0-.4-.1-.5-.4-.7-1.2-.9-2-.8-.2 0-.3.1-.4.2-.2.1-.1.2-.3.2-.1 0-.2.1-.2.2v.3c0 .1 0 0 0 0M23.5-2.8v.2c-.1.1-.1.1-.2.1-.1.1-.1.3-.1.4-.2.1 0 .2 0 .3v.2c0 .1 0 .3.1.4.1.2.3.4.4.5.1.2.3.6.6.7.2 0 .4-.1.5-.1.2 0 .4 0 .6-.1.2-.1.1-.3.3-.5.1-.1.3 0 .4-.1.2-.1.3-.3.4-.5v-.2c0-.1.1-.2.1-.3 0-.1-.1-.1-.1-.2v-.3c0-.2 0-.4-.1-.5-.4-.7-1.2-.9-2-.8-.2 0-.3.1-.4.2-.2.1-.1.2-.3.2-.1 0-.2.1-.2.2v.2c0 .1 0 0 0 0M15.8-2.8v.2c-.1.1-.1.1-.2.1-.1.1-.1.3-.1.4-.2.1 0 .2 0 .3v.2c0 .1 0 .3.1.4.1.2.2.4.4.5.2.1.4.6.6.6.2 0 .4-.1.5-.1.2 0 .4 0 .6-.1.2-.1.1-.3.3-.5.1-.1.3 0 .4-.1.2-.1.3-.3.4-.5v-.2c0-.1.1-.2.1-.3 0-.1-.1-.1-.1-.2v-.3c0-.2 0-.4-.1-.5-.4-.7-1.2-.9-2-.8-.2 0-.3.1-.4.2-.2.1-.1.2-.3.2-.1 0-.2.1-.2.2v.3c0 .1 0 0 0 0M8.2-2.8v.2c-.1.1-.2.1-.2.1-.1.1-.1.3-.1.4-.2.1 0 .2 0 .3v.2c0 .1 0 .3.1.4 0 .2.2.4.3.5.2.2.4.6.6.7.2 0 .4-.1.5-.1.2 0 .4 0 .6-.1.2-.1.1-.3.3-.5.1-.1.3 0 .4-.1.2-.1.3-.3.4-.5v-.2c0-.1.1-.2.1-.3 0-.1-.1-.1-.1-.2v-.3c0-.2 0-.4-.1-.5-.4-.7-1.2-.9-2-.8 0 .1-.2.2-.3.2-.2.1-.1.2-.3.3-.1 0-.2.1-.2.2v.1c-.1.1-.1 0 0 0M.5-2.8v.2c-.1.1-.1.1-.2.1 0 .1-.1.3-.1.4-.2.1 0 .2 0 .3v.2c0 .1 0 .3.1.4 0 .2.2.4.4.5.2.2.3.6.6.7.2 0 .4-.1.5-.1.2 0 .4 0 .6-.1.2-.1.1-.3.3-.5.1-.1.3 0 .4-.1.2 0 .3-.2.4-.4v-.2c0-.1.1-.2.1-.3 0-.1-.1-.1-.1-.2v-.3c0-.2 0-.4-.1-.5-.4-.7-1.2-.9-2-.8-.1 0-.2.1-.4.1-.1.1-.1.2-.3.3-.1 0-.2.1-.2.2v.1c0 .1 0 0 0 0"/></g></pattern><path class="st3" d="M324 612C165.2 612 36 482.8 36 324S165.2 36 324 36s288 129.2 288 288-129.2 288-288 288"/><path class="st4" d="M324 50.7c150.7 0 273.3 122.6 273.3 273.3 0 150.7-122.6 273.3-273.3 273.3-150.7 0-273.3-122.6-273.3-273.3C50.7 173.3 173.3 50.7 324 50.7"/><path class="st5" d="M583.3 324.8c0 143.7-116.4 260.1-260.1 260.1-143.6 0-260.1-116.5-260.1-260.1 0-143.7 116.5-260.1 260.1-260.1 143.7 0 260.1 116.5 260.1 260.1"/><path class="st4" d="M323.1 516.3c104.2 0 189-84.8 189-189.2 0-104.2-84.8-189-189-189-104.3 0-189.1 84.9-189.1 189 0 104.4 84.8 189.2 189.1 189.2"/><path class="st5" d="M146.6 327.2c0-97.3 79.2-176.4 176.5-176.4S499.5 230 499.5 327.2c0 97.3-79.1 176.5-176.4 176.5-97.3 0-176.5-79.2-176.5-176.5"/><path class="st3" d="M478.3 367c.2-30.2-16.1-71.8-30.6-99.5l-21.4 12-2.1-3.4-5.4 3.4-212.9 134 .1.2-9.7 11.8-.2-.4c-3-.5-6.9-3.8-10-8.8-3.1-4.8-4.5-9.9-3.7-12.6l-.2-.4 14.7-4 .2.2 109.6-71.2-74.1-46.3-9.2-5.7-2.2 3.4-21.4-12c-14.6 27.7-30.8 69.3-30.5 99.5-11.3-35 .3-82.8 16-113.7l.1-.2-4-2.3 12.7-19.6 3.7 2.7c21.4-27.2 59.7-57.4 96.1-62-27.5 12.5-58.3 44.5-77.2 69.2l19.9 14.4-2.4 3.7 5.1 3.4 84.3 54.7 83-54 6.3-4.2-2.4-3.7 19.8-14.4c-18.8-24.7-49.7-56.6-77.1-69.2 36.4 4.6 74.7 34.9 96.3 62.1l3.6-2.6 12.7 19.7-3.9 2.2c16 30.8 27.7 78.7 16.4 113.6m-27.5 32.4l-.2.2-100.8-65.5-17.7 10.5 109.5 68.9-.1.2 9.7 11.8.3-.4c2.9-.5 6.9-3.8 10-8.8 3-4.8 4.5-9.9 3.7-12.6l.2-.4-14.6-3.9z"/><path class="st3" d="M341 189.4l-7.6 9.9-10.4-25V290l35.2-45.1 35.4 9.1z"/><path class="st2" d="M341 216.6v-27.2l-7.6 9.9zM323 174.3l-64 77.9 28.2-7.1 35.8 44.8z"/><path class="st3" d="M283.9 468.2c9.2-8.9 21-14.3 33.7-15.5V435h-48.8c1.2 12.9 6.6 24.5 15.1 33.2M317.6 484.7v-21c-9.5 1.2-18.2 5.1-25.5 11.7 7.6 5 16.2 8.3 25.5 9.3"/><path class="st2" d="M328.4 376.1V397c9.5-1.1 18.3-5.1 25.3-11.6-7.3-5-15.9-8.3-25.3-9.3M362.1 392.6c-9.3 8.8-21 14.3-33.7 15.4v16.1h48.7c-1.4-12.2-6.9-23.2-15-31.5M317.6 397v-20.9c-9.3 1-18 4.2-25.3 9.3 7.1 6.6 15.8 10.5 25.3 11.6"/><path class="st3" d="M328.4 435v17.7c12.7 1.2 24.5 6.6 33.7 15.5 8.5-8.8 14.1-20.3 15.2-33.2h-48.9z"/><path class="st2" d="M268.9 424.1h48.7V408c-12.7-1.1-24.4-6.7-33.7-15.4-8.1 8.3-13.6 19.3-15 31.5"/><path class="st3" d="M328.4 484.7c9.4-1 18-4.3 25.3-9.3-7-6.5-15.9-10.5-25.3-11.7v21zM532.9 301.3l6.9 11.8-17 15.9 22.1-8.2 7 12 1.1-13.4 14.8-1-12.1-7.4 14.9-23.3-24.6 19.7zM113.6 301.1l-6.9 11.8 17 15.9-22.1-8.2-7 12-1.1-13.4-14.8-1 12.1-7.4-14.9-23.3 24.6 19.7z"/><path class="st2" d="M151.2 217.2l-34.3-24.3 7.7-10.8c1.3-1.7 2.7-3.4 4.4-4.9 1-.9 2-1.7 3.1-2.3.3-.2.4-.4.6-.7.1-.2.2-.3.3-.5l.4-.8 30.2 21.4c-.2 2.1-.7 4.2-1.6 6.2-.8 1.9-1.8 3.8-2.9 5.4l-.2.3-7.7 11zm-21.6-31.1c-.7 1-.8 2.4-.2 3.3.2.2.3.4.5.5l21.1 15h.1c1 .2 2.2-.2 2.9-1.2l.1-.1c.9-1.3.8-3-.3-3.8l-20.3-14.6c-1.1-.8-2.7-.4-3.7.8l-.2.1zM202.2 161.9l-19.6-29.7-2 1.3-3.6-5.4 21.9-14.5 3.6 5.5-10.7 7 5.9 9.1 8.3-5.5 2 5.8-7 4.6 6.8 10.3 10.7-7.1 3.6 5.5zM284 126.4l-8.5-14.2-.8.3 3.1 15.1-9.9 2.1-7.3-34.9-2.1.4-1.3-6.3 10.5-2.2 9.9 14.1.8-.3-3.2-15.3 10-2.1 8.5 41.2zM351 124l1-42.5 9.3 1.6-1.3 26.1.9.2 7.7-25.1 9.4 1.6c-3.7 11.3-12.8 37-14 40.4l-13-2.3zM500.2 196.4l-2.3-3-12.1 9.3-6-7.8 33.3-25.7 8 10.4c1.3 1.7 2.4 3.6 3.4 5.6.6 1.2 1.1 2.4 1.4 3.6.2.3.3.5.5.7.1.1.2.3.4.4l.6.6-17.7 13.7c-1-.5-2-1.1-3-1.7l-.4-.3-9.5 14.7-5.7-7.4 9.1-13.1zm15.7-13.1c-.8-1-1.9-1.5-2.8-1.3-.3.1-.4.2-.6.3l-8 6.1c-1.1.9-.9 2.4-.1 3.4l.1.1c1 1.3 2.5 1.8 3.5 1l8-6c.9-.7.9-2.3 0-3.6h-.1zM420.8 146.9l18.4-30.5-2-1.2 3.3-5.5 22.5 13.5-3.4 5.6-11-6.7-5.4 9 8.4 5.1-4.6 4.9-7.2-4.4-6.3 10.3 11 6.6-3.4 5.7zM252.3 562.3c-2.2-.7-4.3-1.6-6.4-2.8-2-1.1-3.8-2.5-5.2-4l10.8-35.9c2-.5 4.2-.6 6.5-.5 2.4.2 4.7.6 6.9 1.3 2.2.6 4.3 1.6 6.4 2.8.9.5 1.8 1.1 2.7 1.8.4.3.9.6 1.4.7.2.1.4.1.6.1l.9.2-.3 1-3.1 10.3-9.6-2.9 1.4-4.5c.3-1.2-.3-2.4-1.6-3.1-.2-.1-.4-.2-.6-.2-1.6-.5-3.2.2-3.6 1.5l-7.8 25.8c-.2.5-.1 1.2.2 1.7.4.7 1.1 1.3 2 1.5 1.6.5 3.2-.2 3.6-1.5l3.3-10.9-3.1-1.6 3.1-5.2 11.4 3.4-6.6 21.8c-2 .5-4.2.6-6.5.5-2.4-.2-4.7-.6-6.8-1.3M336.4 571.9c-2.3.1-4.6 0-7-.4-2.3-.4-4.4-1-6.2-2l-2-37.5c1.7-1.1 3.7-2 6-2.7 2.3-.6 4.7-1 6.9-1.2 2.3-.1 4.6 0 7 .4 1.1.2 2.1.4 3.1.7.5.2 1 .2 1.6.2.2 0 .4 0 .6-.1l.9-.2.1 1 .6 10.7-10 .5-.3-4.7c-.1-1.2-1.1-2.2-2.5-2.3h-.6c-1.7.1-3 1.3-2.9 2.6l1.4 26.9c0 .6.3 1.1.8 1.5.6.5 1.5.8 2.4.8 1.7-.1 2.9-1.3 2.9-2.6l-.6-11.4-3.4-.5 1.2-5.9 11.9-.6 1.2 22.7c-1.7 1.1-3.7 2-6 2.7-2.5.9-4.9 1.3-7.1 1.4M176.5 523.8c-1.8-1.4-3.5-3-5-4.9-1.5-1.8-2.6-3.7-3.4-5.6l20.4-26.3-1.8-1.4 4-5.1 9.7 7.5-21.6 27.8c-.8 1.1-.4 2.8.9 3.8s3 1 3.9-.1l21.6-27.8 8 6.2-24.4 31.4c-2.1-.3-4.2-.9-6.3-1.9-2.2-1-4.2-2.2-6-3.6M479 515.8l-23.1-27.1-6.2 5.3-4.2-4.9 20.3-17.3 4.1 5-6.1 5.2 23.1 27.1zM531.1 457.5c-1.2 1.9-2.6 3.7-4.3 5.4-1.6 1.6-3.3 2.9-5.2 3.8l-8.7-5.4 5.3-8.5 4.5 2.8c.6.4 1.3.4 2 .2s1.3-.7 1.7-1.4l.1-.1c.8-1.4.5-3-.7-3.7l-9.7-6.1-5.7 9.1c-1.5 2.4-4.2 3.4-6.1 2.3-.4-.2-.7-.4-.9-.5l-13.6-8.6c.1-2.1.5-4.2 1.2-6.3.8-2.2 1.8-4.3 3-6.2 1.2-1.9 2.7-3.7 4.3-5.4.9-.9 1.8-1.7 2.8-2.4.3-.3.5-.6.7-.9.1-.2.2-.3.3-.5l.4-.8 10 6.3-5.3 8.5-4-2.5-.6-.3c-1.1-.2-2.3.4-2.9 1.5l-.1.1c-.8 1.4-.5 3 .6 3.7l6.9 4.3c.1.1.2.1.3.2l.4.2 5.6-8.8c1.6-2.6 4.5-3.6 6.5-2.4l1.7 1.1.4.3 13.5 8.5c-.1 2.1-.5 4.2-1.2 6.4-1 2.1-2 4.2-3.2 6.1M394.5 523.8l-2.2.9-2.4-5.9 24.2-10.1 2.4 6-11.8 4.9 4 9.7 9.1-3.8 1.2 6.6-7.8 3.3 4.6 11.1 11.9-5 2.5 6.1-22 9.1zM120.6 464.5l10-13.2-.6-.7-12.9 8.7-5.6-8.5 29.5-19.9-1.2-1.8 5.3-3.6 6.1 8.9-9.3 14.5.6.6 13-8.7 5.6 8.4-34.9 23.6z"/></svg>