<svg xmlns="http://www.w3.org/2000/svg" width="400" height="400"><path fill="#0068B3" d="M93.713 339.219l24.807-12.646c1.305-.658 2.198-.99 2.608-1.045l.214-.02c.374 0 .924.148 1.604.496l.177.064.695-.748.172-.219-9.432-8.428-.742.812-.136.186.136.195c.437.555.624 1.033.624 1.357l-.214.623c-.264.275-.818.662-1.686 1.098l-16.756 8.711 6.823-18.01c.27-.76.502-1.219.646-1.369l.834-.383c.348 0 .771.113 1.257.373l.161.096.689-.775.213-.213-9.979-8.889-.724.809-.158.197.131.16c.398.523.565.951.565 1.273l-.273.676c-.086.129-.562.445-1.324.803l-17.478 8.627 6.964-17.881c.287-.707.565-1.197.789-1.436l.754-.346 1.125.346.206.098.68-.785.171-.193-9.54-8.529-.743.828-.134.168.125.184c.462.586.66 1.16.66 1.682 0 .547-.229 1.502-.689 2.777l-9.8 26.092c-.459 1.238-.848 2.008-.933 2.092l-.973.482-1.124-.391-.208-.092-.685.773-.176.195 8.824 7.912.758-.807.145-.158-.123-.17c-.433-.648-.607-1.115-.607-1.516l.263-.674c.106-.107.719-.477 1.762-.926l18.914-9.48-7.24 19.375c-.401 1.25-.733 2.018-.904 2.17l-.904.455c-.351 0-.76-.129-1.23-.434l-.208-.133-.69.795-.171.227 8.962 8.004.72-.822.174-.199-.147-.148c-.452-.557-.629-1-.629-1.348l.294-.707c.205-.227.927-.705 2.114-1.291m34.49-13.899l-.091.172.133.164c.476.459.685.889.685 1.307l-.14.564c-.224.381-.662.91-1.384 1.461l-23.522 18.604c-.86.695-1.484 1.107-1.904 1.225l-.642.098-.914-.135-.23-.059-.481.926-.131.25 10.958 5.375.504-1.006.091-.197-.173-.141c-.634-.506-.896-.988-.896-1.377l.104-.449c.158-.279.496-.68 1.089-1.15l4.291-3.396 13.91 6.973v5.354c0 .775-.085 1.314-.182 1.557-.257.455-.572.65-1.134.674l-.823-.125-.182-.074-.481.959-.097.217 12.113 5.975.48-.996.085-.229-.16-.127c-.567-.414-.909-.873-1.085-1.365-.176-.52-.3-1.418-.3-2.684l-.122-30.285c0-.693.095-1.252.277-1.619.209-.391.536-.582 1.192-.609l.562.049.685-.885.112-.24-11.738-5.73-.459.974zm1.422 23.336l-9.57-4.721 9.939-8.055-.369 12.776zm52.052-4.84c-.989-1.059-2.251-1.855-3.77-2.533-1.518-.621-3.572-1.188-6.198-1.76l-21.812-4.551-.268 1.072c.716.59 1.053.869 1.166 1.117l.123.572-.032.494-6.091 29.197-.497.926c-.236.145-.636.293-1.247.305l-.433 1.031-.047.252 11.266 2.389.241-1.094c-.674-.568-.995-.84-1.15-1.07l-.139-.627.048-.422 2.353-11.197 8.92 1.877 4.642 11.439c.492 1.176.748 1.951.732 2.229v.092c-.059.197-.289.363-1.011.373h-.209l-.455 1.037-.037.273 12.978 2.686.235-1.061.053-.246-.262-.062c-.722-.209-1.268-.547-1.664-1.113-.437-.566-1.08-1.828-1.898-3.699l-4.528-10.535h.673c5.844.031 9.491-2.732 10.598-8.145.166-.871.268-1.754.268-2.588 0-.797-.081-1.582-.224-2.354-.372-1.667-1.137-3.116-2.324-4.304m-5.717 7.514c-.4 1.732-1.218 2.738-2.544 3.133-.492.141-1.021.252-1.556.252l-.413-.01c-.705-.07-1.936-.262-3.636-.637l-11.342-2.357 1.781-8.492 11.332 2.385c1.78.32 2.973.635 3.604.855a5.94 5.94 0 0 1 1.7 1.047c.792.631 1.177 1.488 1.177 2.631l-.103 1.193zm46.743 20.576l-6.968-9.102c5.93-1.25 8.999-4.662 8.984-10.047l-.012-.576c-.074-1.729-.454-3.344-1.139-4.83-.775-1.539-1.877-2.775-3.305-3.619-1.257-.766-2.669-1.273-4.3-1.527-1.155-.164-2.562-.244-4.213-.244-.69 0-1.444.006-2.215.049l-21.989.893-.234 1.08c.78.385 1.182.594 1.391.824.177.17.31.512.32 1.006l1.192 29.77v.121l-.283.914c-.149.193-.54.418-1.122.631l-.177 1.098 11.304-.178.198-1.133c-.802-.342-1.155-.551-1.353-.754-.209-.209-.353-.529-.375-1.016l-.433-11.373 9.106-.365 7.311 9.947c.828 1.107 1.24 1.859 1.24 2.021v.031c0 .262-.23.518-1.075.707l-.165 1.08 12.978-.221.252-1.102c-1.049-.289-1.658-.518-2.192-.967-.506-.422-1.459-1.454-2.726-3.118m-34.902-28.742v-.01l.765-.021-.765.031zm1.117 34.898zm25.754-1.027l.004-.021.007.021h-.011zm.175-20.945a5.633 5.633 0 0 1-1.877.678c-.684.129-1.908.221-3.662.307l-11.572.465-.369-8.967.429-.018 11.187-.15c.877-.041 1.614-.08 2.272-.08.604 0 1.069.039 1.396.08a5.55 5.55 0 0 1 1.909.547c1.193.588 1.866 1.715 1.952 3.492v.268c-.001 1.64-.568 2.71-1.665 3.378m28.556 14.775c-.251-.166-.429-.482-.54-.947l-6.428-29.125-.06-.488.129-.557c.149-.236.477-.545.989-.807l-.006-1.117-.069-.27-11.267 2.477.219 1.096c.894.248 1.294.377 1.53.551l.496.889 6.438 29.137.038.498-.112.562c-.14.24-.46.551-1.011.822l.026 1.117.08.262 11.278-2.49-.263-1.07c-.825-.21-1.237-.343-1.467-.54m29.598-42.09a17.52 17.52 0 0 0-5.936-1.012c-3.037 0-6.251.732-9.637 2.178-7.556 3.328-11.897 8.32-12.871 14.914-.149.93-.23 1.865-.23 2.77 0 2.518.525 4.945 1.536 7.348.951 2.25 2.299 4.197 3.979 5.908 1.925 1.904 4.127 3.311 6.642 4.188a17.678 17.678 0 0 0 5.973 1.031c2.989 0 6.177-.717 9.545-2.16 7.523-3.193 11.851-8.203 12.897-14.945.156-1.021.251-2.006.251-2.959 0-2.416-.513-4.73-1.443-6.961-2.193-5.11-5.775-8.561-10.706-10.3m3.946 18.287c0 1.775-.332 3.418-1.08 4.941-1.209 2.658-3.342 4.615-6.416 5.914-1.804.76-3.52 1.156-5.193 1.156-1.209 0-2.38-.182-3.566-.584-3.263-1.117-5.643-3.363-7.106-6.779-.743-1.738-1.08-3.412-1.08-5.033 0-1.641.337-3.256 1.091-4.818 1.256-2.656 3.379-4.609 6.417-5.902 1.791-.766 3.555-1.135 5.271-1.135 1.167 0 2.343.184 3.509.551 3.245 1.059 5.604 3.354 7.154 6.941.668 1.48.974 3.004 1 4.615v.133zm50.389-20.835l-.251.123c-.545.404-1.133.564-1.764.58h-.188c-.664-.059-2.032-.385-4-.971l-10.94-3.422c2.31-2.527 3.485-5.078 3.485-7.623 0-2.111-.802-4.207-2.357-6.197a12.13 12.13 0 0 0-3.738-3.281c-1.315-.725-2.7-1.082-4.149-1.061l-.642.023c-1.422.084-2.883.506-4.342 1.244-1.477.721-3.242 1.92-5.396 3.582l-17.636 13.613.674.863.102.148.198-.086 1.068-.25.209.016.898.662 18.166 23.594.405.936v.059c-.036.246-.196.646-.576 1.148l-.107.174.631.826.171.215 9.128-7.047-.679-.877-.123-.188-.197.102-1.064.262-.183-.016-.882-.631-6.951-9.021 7.208-5.572 11.742 3.914c1.332.385 2.14.818 2.198.926l.096.246-.571.918-.15.143.658.881.149.219 10.523-8.135-.678-.854-.145-.185zm-21.79-8.639a5.377 5.377 0 0 1-1.145 1.637c-.48.529-1.417 1.342-2.791 2.379l-9.198 7.064-5.294-6.877 9.188-7.053c1.385-1.084 2.417-1.797 3.01-2.156.562-.336 1.198-.535 1.84-.631l.551-.053c1.149 0 2.155.557 3.102 1.756.679.906 1.016 1.779 1.016 2.602l-.279 1.332zm42.913-21.893c-.492-2.492-1.716-4.572-3.706-6.164-1.246-1.018-2.642-1.713-4.171-2.039a8.4 8.4 0 0 0-2.128-.246c-.802 0-1.572.111-2.343.303-1.368.414-2.699 1.057-4.032 1.945-1.299.891-2.828 2.191-4.545 3.896l-2.877 2.893c-1.887 1.941-3.209 3.143-3.903 3.615-.68.459-1.32.68-1.877.68-.471 0-.941-.15-1.401-.535-.534-.459-.903-1.064-1.027-1.92l-.069-.742c0-.633.14-1.332.369-2.027.54-1.32 1.375-2.707 2.508-4.102 2.562-3.156 5.605-5.24 9.14-6.277.508-.158.973-.242 1.358-.242l.796.215.284.297 1.059-.297.24-.107-4-8.963-.235.113-.785.311c-.155.873-.252 1.24-.424 1.441-.042.084-.614.459-1.513.971-2.823 1.508-4.983 2.854-6.599 4.094-1.599 1.215-3.112 2.729-4.529 4.5-3.139 3.854-4.727 7.535-4.727 11.066l.054.932c.219 2.883 1.534 5.316 3.919 7.225 1.423 1.148 2.973 1.869 4.62 2.139.492.066.963.109 1.481.109 1.289 0 2.508-.248 3.7-.816a13.639 13.639 0 0 0 3.08-1.848c.883-.717 2.272-1.99 4.149-3.904l2.856-2.828c1.865-1.873 3.251-3.045 4.026-3.494.508-.303 1-.426 1.448-.426l1.354.527a3.482 3.482 0 0 1 1.138 1.857l.14 1.227c0 .451-.049.904-.155 1.393-.406 1.686-1.32 3.428-2.722 5.178-1.31 1.611-2.995 3.08-4.989 4.404-2.017 1.375-3.733 2.156-5.139 2.381l-.663.072c-.615 0-1.08-.168-1.481-.506l-.262-.219-1.06.342-.256.107 4.551 8.898 1.026-.439c.166-.822.235-1.234.31-1.283.011-.008.589-.369 1.519-.836 4.62-2.137 8.438-5.033 11.38-8.678 1.669-2.035 2.962-4.164 3.898-6.32.926-2.186 1.406-4.141 1.406-5.992.001-.64-.046-1.273-.191-1.881"/><path fill="#0068B3" d="M341.918 192.083c0 77.913-63.157 141.081-141.103 141.081-77.938 0-141.107-63.168-141.107-141.081 0-77.929 63.168-141.141 141.107-141.141 77.946.001 141.103 63.213 141.103 141.141"/><path fill="#FFC627" d="M296.263 275.52c21.304-23.127 34.32-53.994 34.32-87.912 0-71.724-58.132-129.811-129.826-129.811-71.708 0-129.832 58.087-129.832 129.811 0 71.707 58.124 129.814 129.832 129.814 36.454 0 69.378-15.041 92.955-39.234.786-.434 1.738-1.561 2.551-2.668m-129.708-5.524c51.864-2.369 103.286-1.59 124.655-1.086-.9 1.002-1.84 1.979-2.776 2.955-15.872-1.25-52.94-3.162-121.879-1.869M90.44 201.031a432.185 432.185 0 0 0 5.974-9.223l-7.639 43.327a121.767 121.767 0 0 1-3.725-10.041l5.39-24.063zm-7.208 17.918c-.487-1.818-.92-3.656-1.324-5.504a429.22 429.22 0 0 0 4.3-6.139l-2.976 11.643zm16.604-32.662a432.996 432.996 0 0 0 8.251-14.069l-13.176 75.271a120.1 120.1 0 0 1-4.4-8.518l9.325-52.684zm12.117-21.149a326.679 326.679 0 0 0 9.855-20.101l-20.061 113.161c-1.746-2.441-3.428-4.934-4.994-7.506l15.2-85.554zm18.902-35.208c.663.738 1.32 1.444 1.984 2.176.493 20.753 1.995 81.345 3.727 124.617-.941.104-1.845.213-2.76.316-1.87-45.674-2.683-103.388-2.951-127.109m97.041 86.468l.053.182.012.006-.054-.178c.139.092.282.193.422.289l-.368-.111 10.389 32.875c-2.636.072-5.245.158-7.838.252l-12.668-40.314a399.828 399.828 0 0 0 10.052 6.999m45.057 32.614l-2.593-8.146c9.367 4.398 16.453 7.002 20.758 8.402a959.075 959.075 0 0 0-18.165-.256m-5.77-9.666l3.064 9.666c-2.669-.006-5.326 0-7.967.016l-4.541-14.506a262.316 262.316 0 0 0 9.444 4.824m-12.716-6.606l5.111 16.316c-2.565.021-5.127.051-7.673.098l-6.732-21.764a311.557 311.557 0 0 0 9.294 5.35m-12.625-7.347l7.38 23.812a730.4 730.4 0 0 0-8.22.186l-9.748-30.736a354.886 354.886 0 0 0 10.588 6.738m-27.796-18.776l13.801 43.193c-2.545.094-5.059.207-7.561.314l-16.096-50.972a445.427 445.427 0 0 0 9.856 7.465m-13.637-10.453l17.197 54.079c-2.77.129-5.513.266-8.224.414L189.009 186.8a513.02 513.02 0 0 0 11.4 9.364m-14.978-12.439l21.304 67.085c-2.465.137-4.914.279-7.326.426l-24.181-76.548a508.128 508.128 0 0 0 10.203 9.037m-14.133-12.62l25.464 80.303c-2.62.17-5.204.342-7.754.523l-28.727-91.318a612.383 612.383 0 0 0 11.017 10.492m-15.513-14.89l30.582 95.906c-2.535.18-5.027.371-7.487.566l-33.561-107.18a602.697 602.697 0 0 0 10.466 10.708m-14.689-15.157l35.165 111.833c-2.802.229-5.545.457-8.235.693l-26.577-85.463a4764.812 4764.812 0 0 1-.963-27.705c.203.219.412.423.61.642m-20.166 64.721l-.37-.064-9.611 54.178a671.14 671.14 0 0 0-7.07.99l17.71-99.82c-.226 13.4-.466 29.007-.659 44.716m20.93-26.963l23.535 75.004c-2.348.207-4.652.422-6.909.631l-15.502-49.256c-.419-9.085-.792-17.978-1.124-26.379m1.625 36.995l12.369 38.891c-3.492.342-6.85.686-10.096 1.027-.849-12.678-1.604-26.331-2.273-39.918m-29.845 43.72l7.14-40.293c-.147 14.16-.244 27.816-.234 39.395a909.07 909.07 0 0 0-6.906.898m7.004 15.487c.021 1.459.047 2.834.075 4.117a110.426 110.426 0 0 1-4.326-3.969c1.282-.043 2.667-.096 4.251-.148m13.97-.424c.882-.027 1.807-.049 2.727-.076.326 6.85.664 12.779.995 17.477-.941-.566-1.86-1.156-2.786-1.746a879.337 879.337 0 0 1-.936-15.655m66.149-208.677c67.19 0 121.639 54.471 121.639 121.656 0 20.013-4.861 38.875-13.423 55.531-84.597-18.941-144.904-77.423-168.524-103.832-.316-9.834-.476-15.881-.476-15.881l-3.77-1.701-3.54 3.056s.042 2.067.127 5.632a174.813 174.813 0 0 1-1.962-2.433c-.064-5.686-.091-8.982-.091-8.982h-5.225l-.091 3.122-3.144.758s-.129 6.6-.326 17.113c-15.705 35.908-32.982 56.424-41.554 65.161a122.417 122.417 0 0 1-1.278-17.544c0-67.185 54.458-121.656 121.638-121.656m-51.24 231.997c-.856-6.521-1.653-14.555-2.406-23.627 37.795-.826 95.735-1.154 135.872 2.926-21.646 19.881-50.517 32.021-82.227 32.021-18.315 0-35.667-4.068-51.239-11.32"/><path fill="#0068B3" d="M82.796 95.448l-.558-.107-3.677-2.683-.433-.565c-.009-.176.117-.507.366-.984l-.585-.435-5.944 8.126-.642.575-.914-.219-.428.578 4.153 3.048.436-.577-.631-.912.302-.817 3.04-4.167 2.799 2.035c-.273.878-.66 1.875-1.182 3.009-.51 1.147-1.222 2.318-2.128 3.558a10.496 10.496 0 0 1-2.094 2.139 7.494 7.494 0 0 1-2.598 1.349 6.577 6.577 0 0 1-2.965.112c-1.038-.178-2.093-.662-3.158-1.44-1.075-.778-1.866-1.651-2.339-2.573-.483-.933-.741-1.895-.762-2.861a7.558 7.558 0 0 1 .497-2.881c.348-.961.813-1.839 1.404-2.644a21.56 21.56 0 0 1 1.64-1.97 16.625 16.625 0 0 1 1.871-1.714c.639-.484 1.24-.826 1.796-1.032.551-.21.987-.21 1.313.039l.34.35.669-.52-2.878-5.037-.513.212-.013.501-.206.548-.815.671c-.465.343-1.022.782-1.679 1.338a27.458 27.458 0 0 0-2.126 1.991 22.334 22.334 0 0 0-2.192 2.576c-1.112 1.523-1.919 3.053-2.436 4.586-.511 1.542-.709 3.04-.602 4.474a9.866 9.866 0 0 0 1.23 4.071c.722 1.267 1.756 2.411 3.131 3.403 1.366.996 2.754 1.648 4.19 1.944a9.433 9.433 0 0 0 4.229-.063c1.396-.353 2.743-.988 4.037-1.954 1.284-.975 2.495-2.213 3.599-3.738a53.82 53.82 0 0 0 1.679-2.435 17.446 17.446 0 0 0 1.446-2.684c.404-.946.74-1.938.995-2.961.256-1.026.396-2.086.42-3.166l-.521-.389-.563.295zm19.198-27.915c-1.244-1.369-2.629-2.286-4.136-2.743a10.754 10.754 0 0 0-4.548-.386c-1.538.191-3.02.646-4.439 1.333-1.44.71-2.697 1.556-3.783 2.557-1.095.989-2.053 2.16-2.893 3.535a14.086 14.086 0 0 0-1.749 4.285 10.87 10.87 0 0 0-.019 4.579c.312 1.529 1.091 2.992 2.345 4.372 1.246 1.358 2.628 2.286 4.131 2.743a10.7 10.7 0 0 0 4.562.382 12.692 12.692 0 0 0 4.393-1.385 17.911 17.911 0 0 0 3.74-2.601c1.091-.978 2.067-2.141 2.927-3.48a12.838 12.838 0 0 0 1.787-4.251c.342-1.501.347-3.022.026-4.564-.318-1.551-1.098-3.007-2.344-4.376m-1.778 8.718a9.411 9.411 0 0 1-1.094 2.884 9.86 9.86 0 0 1-1.944 2.424 9.585 9.585 0 0 1-2.583 1.711 9.902 9.902 0 0 1-2.967.834 7.547 7.547 0 0 1-2.987-.304c-.976-.316-1.84-.889-2.602-1.719-.751-.849-1.251-1.761-1.465-2.754a7.36 7.36 0 0 1-.035-3.004 9.296 9.296 0 0 1 1.109-2.876 9.756 9.756 0 0 1 1.934-2.413 9.545 9.545 0 0 1 2.591-1.709 8.992 8.992 0 0 1 2.967-.836 7.41 7.41 0 0 1 2.986.301c.963.317 1.829.898 2.591 1.735.762.828 1.252 1.75 1.471 2.738a7.218 7.218 0 0 1 .028 2.988m28.313-18.736l.076.862-.685.737-11.367 7.061-8.438-13.632c-.256-.402-.064-.802.571-1.205l-.384-.611-5.883 3.645.385.622c.68-.436 1.156-.447 1.396-.024l9.647 15.532c.251.399.037.826-.647 1.262l.382.608 16.279-10.103.882-.455.684.38.622-.38-2.905-4.679-.615.38zm22.262-20.772c-.995-1.021-2.085-1.776-3.284-2.236-1.192-.463-2.465-.661-3.802-.603-1.347.075-2.706.396-4.08.94l-12.417 4.922.272.685c.562-.222.946-.117 1.128.326l6.749 17c.171.449-.017.774-.599 1.004l.273.671 12.422-4.938c1.364-.546 2.566-1.235 3.593-2.119a9.07 9.07 0 0 0 2.364-3.035c.556-1.16.824-2.461.834-3.893.011-1.423-.321-2.981-.979-4.655-.656-1.674-1.485-3.02-2.474-4.069m-1.422 11.704c-.369.736-.953 1.379-1.744 1.93-.791.548-1.78 1.057-2.958 1.515l-5.796 2.315-5.262-13.257 5.802-2.288c1.172-.475 2.236-.789 3.188-.929.952-.145 1.812-.09 2.6.197.769.283 1.469.805 2.095 1.528.625.742 1.192 1.746 1.707 3.05.519 1.306.802 2.423.855 3.393.042.957-.109 1.804-.487 2.546m32.277-7.742l-.236.827-.915.465-13.197 2.565-1.06-5.442 7.744-1.515c.524-.095.952-.09 1.272.02.332.108.551.476.658 1.092l.716-.162-1.198-6.152-.716.143c.124.602.048 1.012-.214 1.207-.262.207-.647.347-1.182.445l-7.743 1.522-.952-4.896 12.796-2.496c.551-.11.963-.11 1.209-.015l.465.584.706-.149-1.016-5.209-.706.139-.204.765c-.187.221-.567.371-1.122.476l-18.011 3.524.139.708.524.091.326.484 3.498 17.93-.107.584-.471.265.144.72 18.418-3.587.978-.104.513.584.706-.132-1.064-5.416-.698.135zm25.597-16.606c.701 0 1.049.236 1.049.717v12.797l-11.551-11.997c-.54-.52-.808-.901-.808-1.117l.32-.414v-.716l-6.888-.015.011.745c.498-.014.76.225.76.717v18.285c-.005.477-.262.714-.771.714l-.004.718h5.956l.011-.713c-.619-.005-.925-.235-.925-.736V29.72l12.278 12.812.636.922-.514.366v.713h6.519l.005-.713c-.519 0-.774-.235-.78-.719l.017-18.285c0-.481.245-.717.764-.717v-.73h-6.085v.73zm34.459 8.613c.396-.205.872-.335 1.418-.38a8.183 8.183 0 0 1 1.76.046c.641.082 1.24.203 1.802.351.759.219 1.48.501 2.191.849a13.13 13.13 0 0 1 1.941 1.152 7.95 7.95 0 0 1 1.46 1.265l.775 1.191.059.97.348.288 4.031-4.121-.384-.43-.835.011-1.176-.662a26.067 26.067 0 0 0-1.679-1.173c-.675-.449-1.481-.901-2.435-1.393-.951-.491-2.111-.929-3.485-1.32-1.605-.436-3.049-.624-4.342-.597-1.295.047-2.418.264-3.349.632-.951.381-1.711.904-2.305 1.58-.588.674-.994 1.408-1.214 2.201-.337 1.186-.384 2.221-.139 3.094a5.358 5.358 0 0 0 1.3 2.232c.619.64 1.379 1.171 2.267 1.617.894.447 1.823.835 2.781 1.194.962.35 1.909.676 2.84.979a19.7 19.7 0 0 1 2.454.959c.7.336 1.235.707 1.615 1.109.363.411.47.922.299 1.508-.166.603-.54 1.014-1.128 1.233-.595.232-1.251.347-1.989.366a9.946 9.946 0 0 1-2.167-.17 17.945 17.945 0 0 1-1.726-.372c-.6-.176-1.257-.425-1.958-.781a15.151 15.151 0 0 1-2.006-1.169 10.32 10.32 0 0 1-1.587-1.287l-.813-1.21.011-.676-.332-.29-3.443 4.102.46.457.589-.167.93.566c.332.301.792.662 1.385 1.087.595.439 1.358.878 2.306 1.322.951.446 2.16.873 3.636 1.283a25.18 25.18 0 0 0 3.503.708c1.277.183 2.513.167 3.711-.031 1.198-.194 2.267-.617 3.22-1.284.951-.652 1.609-1.654 1.979-2.993.325-1.161.363-2.174.112-3.022a5.272 5.272 0 0 0-1.306-2.229c-.609-.63-1.369-1.174-2.256-1.629a28.327 28.327 0 0 0-2.781-1.222c-.957-.334-1.904-.667-2.834-.985a18.508 18.508 0 0 1-2.434-1.014c-.689-.369-1.219-.747-1.588-1.207-.363-.438-.46-.954-.293-1.575l.801-.963zm27.385 26.098l6.86-14.478 6 2.85.551.476-.011.83.647.315 2.417-5.094-.658-.301-.637.545-.722-.117-16.153-7.662-.553-.479.022-.847-.647-.315-2.422 5.104.658.309.631-.549.732.128 6 2.853-6.867 14.473-.433.395-.529-.047-.316.644 5.605 2.662.31-.652c-.534-.246-.694-.597-.485-1.043m25.229-7.56l.364.538-.082.627-.604.509-.962.528-14.937 8.802-1.042.512-.985-.023-.395.588 4.732 3.21.4-.606-.385-.807c.129-.188.472-.441 1.018-.759l2.801-1.555 8.134 5.483-.401 3.328c-.053.476-.166.826-.31 1.051l-.412.162-.396-.125-.405.596 5.871 3.968.406-.595-.422-.774-.102-.833 2.234-18.264.118-.942.251-.615.562-.326.587.134.401-.602-5.625-3.814-.414.604zm-1.47 13.765l-5.941-3.995 7.331-4.091-1.39 8.086zm24.598 8.158l4.881 4.506.385.63-.272.784.535.5 3.823-4.155-.54-.493-.77.342-.652-.342-13.149-12.106-.38-.625.268-.794-.535-.499-3.818 4.151.546.489.766-.337.646.337 4.889 4.493-10.86 11.79-.536.246-.485-.217-.487.548 4.551 4.212.497-.545-.155-1.134 10.852-11.781zm27.474 24.668l-.764.152-.937-.773-11.207-14.539-.562.438.155.496-.294.509-14.481 11.163-.562.138-.454-.282-.577.444 11.449 14.866.539.828-.31.733.443.57 4.38-3.368-.443-.578-.846.163-.823-.609-8.208-10.659 4.406-3.367 4.807 6.231.567 1.139c.037.35-.187.706-.674 1.095l.438.569 4.984-3.835-.454-.583c-.481.389-.884.509-1.167.35l-.946-.846-4.817-6.248 3.956-3.042 7.968 10.332.546 1.068-.315.685.433.572 4.214-3.236-.444-.576z"/></svg>