<svg version="1.1" id="Layer_1" xmlns="http://www.w3.org/2000/svg" x="0" y="0" viewBox="0 0 400 400" width="400" height="400" xml:space="preserve"><style>.st0{fill:#bec0c2}.st1{fill:#002d62}.st2{fill:#fdbb30}</style><path class="st0" d="M348 199.8c0 81.7-66.2 148-148 148-81.7 0-148-66.2-148-148 0-81.7 66.2-148 148-148s148 66.3 148 148z"/><path class="st1" d="M339.5 199.8c0 77-62.4 139.5-139.5 139.5S60.5 276.8 60.5 199.8 123 60.3 200 60.3c77.1 0 139.5 62.4 139.5 139.5z"/><path class="st2" d="M200 66.8c-73.4 0-132.9 59.5-132.9 133 0 73.4 59.5 132.9 132.9 132.9s132.9-59.5 132.9-132.9c.1-73.4-59.5-133-132.9-133z"/><path class="st1" d="M291 199.8c0 51.3-40.8 92.9-91 92.9-50.3 0-91-41.6-91-92.9s40.7-92.9 91-92.9 91 41.6 91 92.9z"/><path d="M285.2 199.8c0 48-38.1 86.9-85.2 86.9-47 0-85.2-38.9-85.2-86.9s38.1-86.9 85.2-86.9 85.2 38.9 85.2 86.9z" fill="#fff"/><path class="st1" d="M106.6 173.8l-.9 3.4-27.2-6.7.9-3.5zM110.4 132l11.7 9-2 2.6-22.2-17 1.1-1.5 16.1 4.2L103 120l2-2.7 22.2 17-1.1 1.6zM153.6 109.5l1.5-.8c1.5-.7 1.7-2.1 1.2-3.2-2.9-5.7-5-9.7-7.9-15.4-.6-1.2-1.9-1.6-3.1-1l-1.7.9 10 19.5zM139 89l5.5-2.8c2.4-1.2 5.3-1.1 6.8 1.8 3.5 6.9 5.1 9.9 8.6 16.7 1.4 2.8-.2 5.2-2.4 6.3l-5.7 2.9L139 89zM196.5 101l-3.5.2-1.6-28 3.7-.2zM241.2 89.3l-.2-.1-5.7 9.4 3.8 1.4 2.1-10.7zm-3.9 19.1l1.2-5.4-4.7-1.8-2.8 4.8-3.3-1.3 14.9-24.3 3.5 1.3-5.3 28-3.5-1.3zM278.9 119.3l-10.8 10.1-2.3-2.4 20.4-19.2 1.2 1.3-6.7 15.3 11.2-10.5 2.3 2.4-20.4 19.2-1.3-1.4zM310.2 162.4l-.1-.2-10.9 1.5 1.3 3.8 9.7-5.1zm-17.3 9l4.9-2.5-1.6-4.8-5.5.9-1.1-3.4 28.3-3.8 1.2 3.5-25 13.6-1.2-3.5zM100.8 251.8l2 3.8 9.9-5.2-2-3.8-9.9 5.2zm-12.2 6.4l-1.7-3.2 24.8-12.9 4.1 7.9c.8 1.6.4 2.8-.8 3.4l-11.1 5.8c-1.3.7-2.5.3-3.3-1.1l-2.5-4.8-9.5 4.9zM135.2 285.6l-.2-.2-8.2 7.2 3.1 2.5 5.3-9.5zm-9.6 17.1l2.7-4.8-4-3.2-4.1 3.7-2.8-2.2 21.5-18.7 2.9 2.3-13.3 25.2-2.9-2.3zM175.3 315.2l3.5.9-1.8 7.2c-.3 1.3-1.5 2-2.7 1.7-2.5-.6-4.2-1.1-6.8-1.7-1.3-.3-2-1.5-1.7-2.8 2.2-8.9 3.4-13.8 5.6-22.7.3-1.3 1.5-2 2.7-1.7 2.5.6 4.3 1.1 6.9 1.7 1.2.3 1.9 1.5 1.6 2.8l-1.4 5.7-3.5-.8 1.2-5-4.2-1-5.2 21.3 4.2 1 1.6-6.6zM226.8 324.8l-9 1.7-4.9-27.6 8.9-1.6.5 3-5.4.9 1.6 9 5.1-.9.5 3-5 .9 1.7 9.6 5.4-.9zM268 307.2l-3 2-15.8-23.2 7.7-5.2c1.4-1 2.6-.5 3.3.6 2.2 3.2 3.6 5.3 5.8 8.5.9 1.3.5 2.6-.6 3.3l-.4.3 10.2 8.8-3.3 2.3-11.5-10.2-.1-1.3 2.4-1.6-5.1-7.4-3.8 2.6 14.2 20.5zM296.5 265l5.6 3.5 1.6-2.6-5.4-3.4-10.4.5c-.7 0-1.4 0-1.9-.4-2-1.3-2.9-1.9-5.1-3.2-1-.6-1.4-2-.7-3.1 1.1-1.8 2-3.2 3.2-5 .8-1.2 2-1.3 3.1-.6l4.9 3.1-1.9 3-4.3-2.7-1.6 2.6 4.2 2.6 9.9-.6c1 0 1.8 0 2.5.5 2.6 1.7 3.5 2.2 6.2 3.9 1.1.7 1.5 2 .8 3.1-1.1 1.8-2 3.2-3.2 5-.6 1-1.9 1.4-3.1.6l-6.2-3.9 1.8-2.9z"/><path class="st0" d="M172.8 147l-23 104.6h45.6s5.1-20.8 5.5-22.7h19.8c14.8.1 26.9-4.9 35.1-14.5 14.9-16.2 12.3-39.9 1.1-53.4-8-9.7-19.6-15.1-32.5-15.1h-51.3l-.3 1.1z"/><path class="st1" d="M197.6 224.8l-5.5 22.7h-37.2l21.5-97.3h47.9c11.9 0 22.2 4.9 29.4 13.6 10.6 12.8 11.7 34.2-1.1 48-7.8 9.1-19.3 13.2-31.9 13.1l-23.1-.1z"/><path class="st2" d="M171.4 172.4h21c2.4 0 5 2 3.9 5.1-.7 1.9-1.2 4.1-1.5 6.2-.2 1.6 1.6 2.6 2.6 2.6h42.8c.8 0 1.2-.2 1.2-.6 0-.4 0-1.8-.2-2.8-.2-.9-.3-1.1-1.1-1.1-5.3 0-7.5-2.4-13.1-6s-13.8-5.7-20.9-5.7h-34.4l-.3 2.3zM197.4 200.1c-.8-1.6-1.4-3.5-1.9-5.2-.5-2.2-2.4-4-5.7-4h-22.5l.6-2.5 73 .1c.7 0 .6.3.5 1.1 0 .8-.2 2.3-.3 3.2s-.8.7-1.5.7c-1.7 0-4.7.4-6.5 1.8-3 2.3-9.5 6.3-13.1 7.4-3.9 1.1-18.4 5.6-22.6-2.6"/><path class="st2" d="M163.3 209.3h38.1c1.7 0 3.1.4 4.3 1.3 3.2 2.6 7.4 4.6 11.8 5.9 2 .6 5.4-.2 8.5-1.9 7.6-4.3 12.5-12.5 14.2-17.8.4-1.4-.4-1.3-1.4-1.2-3.2.2-6.6 3.1-11 6-4.5 2.8-13.5 5.5-22.1 5.5h-41.8l-.6 2.2zM219.3 158.2c.5-.1 2.5-.2 3.5.2 7.3 2.9 14.1 10.4 17 18.4.6 1.6.7 2.5 0 2.6-3.3.4-4.8-1.3-8.8-3.9-3.9-2.6-7.5-4.4-12.4-6-4.9-1.5-13.8-1.8-14.9-1.8-1.1 0-1-.5-.5-1 4.2-4.3 9.9-7.4 16.1-8.5zM254 185.7c0 .3-.3.7-.7.7h-8.4c-1.1 0-1.1-.5-1.1-1.1-.1-.6-.2-1.8-.2-2.6 0-.7-.3-1.5.6-1.9 2.3-1 4.5-3.3 5.5-5.2.3-.7.8-1.7 1.4-.8 2.1 3.1 2.7 7 2.9 10.9zM251 200.7c-.1.3-.7.5-.8 0-1.2-3.3-4.1-5.5-6.1-6.6-.6-.3-.6-.7-.6-1.3.1-.6.3-2.5.4-3.3 0-.6.3-1.1.8-1.1h8.7c.3 0 .7.3.7.5-.1 4.2-1.3 8.3-3.1 11.8z"/><path class="st2" d="M228.4 217c-.6.1-2-.1.1-1.3 6.3-3.7 12-12.3 13.5-17.3.6-1.9.6-2 1.4-1.8 1 .3 2.5 1.6 3.7 3.2 1.2 1.6 1.7 4.8 1 5.6-4.6 6.2-11.8 10.5-19.7 11.6zM244.5 178c-1.5.8-1.8.6-2.1-.5-2.8-9.6-10.9-16.8-14.2-18.9-.6-.4-.5-.7 0-.6 7.9 1.1 15.7 5.4 19.6 11.3 2.3 3.4-1.9 7.9-3.3 8.7z"/></svg>