<svg version="1.1" id="Layer_1" xmlns="http://www.w3.org/2000/svg" x="0" y="0" viewBox="0 0 648 648" width="400" height="400" xml:space="preserve"><style>.st0{fill:#061922}.st1{fill:#bec0c2}.st2{fill:#1d428a}.st3{fill:#c8102e}</style><path class="st0" d="M43.5 294.5c-5.5 5.1-8.3 11.6-8.3 19.6v144.4c0 8.1 2.8 14.8 8.3 19.8 5.5 5.1 12.4 7.2 20.4 6.5 12.9-1.1 25.9-2.1 38.8-3v-27.3c-12.9.7-25.9 1.4-38.8 2.2V315.9c12.9.8 25.9 1.5 38.8 2.2v-27.3c-12.9-.9-25.9-1.9-38.8-3-8-.8-14.8 1.4-20.4 6.7M137.4 293c-9.6-.6-19.2-1.2-28.8-1.9v190.3c21-1.5 42-2.7 63-3.7v-26.1c-11.4.4-22.8.8-34.2 1.3V293zM177.3 477.4c9.8-.5 19.6-.9 29.4-1.2V296.4l-29.4-1.2v182.2zM261.1 297.9c-16.2-.3-32.4-.8-48.6-1.3V476c9.6-.3 19.3-.6 28.9-.9V399c6.6 0 13.1 0 19.6-.1 8 0 14.8-2.5 20.4-7.3 5.7-4.8 8.6-10.8 8.6-17.9v-50.2c0-6.9-2.9-12.8-8.6-17.8-5.5-5-12.3-7.6-20.3-7.8m0 75.8c-6.6 0-13.1 0-19.6-.1v-50.7c6.6.1 13.1.2 19.6.3v50.5zM516.4 391.9c5.7-5.1 8.6-11.5 8.6-19.1v-53.9c0-7.4-2.8-13.6-8.6-18.4-5.6-5-12.3-7.2-20.3-6.8-16.2.9-32.3 1.7-48.5 2.3v180.4c9.6.4 19.3.8 28.9 1.3v-77.6c8 25.9 16 52.2 24 78.9 9.6.5 19.2 1.1 28.9 1.8-8.4-28-16.8-55.4-25.2-82.4 4.5-1.1 8.7-3.2 12.2-6.5m-39.9-71c6.5-.2 13.1-.5 19.6-.7v52.9c-6.5.1-13.1.1-19.6.1v-52.3zM344.5 298.5c-16.2.1-32.4.1-48.6 0v175.7c9.7-.1 19.3-.1 29-.1v-75.2h19.7c8 0 14.8-2.4 20.4-7.2 5.7-4.8 8.6-10.8 8.6-17.9v-50.4c0-7-2.9-12.8-8.6-17.6-5.7-5-12.5-7.4-20.5-7.3m0 75.2h-19.7v-50.1c6.6 0 13.1 0 19.7-.1v50.2zM379.3 474.5c21.1.4 42.1 1 63.2 1.8v-25.7c-11.4-.3-22.8-.6-34.2-.8V399c6.5 0 18.2.1 24.8.1v-25.6c-6.5 0-18.2.1-24.8.1v-50.8c11.4-.2 22.8-.5 34.2-.8v-25.7c-21 .8-42.1 1.4-63.2 1.8v176.4M611.2 343v-28.9c0-8-2.8-14.6-8.5-19.6-5.5-5.2-12.3-7.4-20.2-6.7-8.1.7-16.2 1.3-24.3 1.9-8.1.6-14.9 3.8-20.5 9.6-5.6 5.6-8.3 12.1-8.3 19.5v54c0 7.6 2.8 14 8.3 19.2 5.6 5.3 12.4 8 20.5 8.1l24.3.3v56.3c-8.1-.5-16.2-.9-24.3-1.4v-27.6l-28.8-.9v27c0 7.6 2.8 14.1 8.3 19.7 5.6 5.6 12.4 8.7 20.5 9.3 8.1.6 16.2 1.3 24.3 1.9 7.9.7 14.7-1.5 20.2-6.5 5.7-5 8.5-11.7 8.5-19.8v-57.8c0-8-2.8-14.8-8.5-20.3-5.5-5.7-12.3-8.4-20.2-8.3l-24.3.3v-55.2c8.1-.4 16.2-.9 24.3-1.4v28.2c9.6-.2 19.2-.6 28.7-.9"/><path class="st1" d="M65.6 290.9c11.4 1 23.3 1.9 35.3 2.8v-1.2c-12.3-.9-24.8-1.9-37-2.9-.9-.1-1.8-.1-2.7-.1-6.5 0-11.8 2.1-16.3 6.3-5.1 4.7-7.7 10.8-7.7 18.2v144.4c0 6.1 1.7 11.3 5 15.5-2.5-3.9-3.7-8.6-3.7-13.8V315.8c0-7.5 2.6-13.8 7.8-18.5 4.6-4.3 10-6.4 16.6-6.4.8-.1 1.7 0 2.7 0M135.5 296v-1.2c-8.3-.5-16.7-1-25-1.6v186.2l1.3-.1V294.5h.2c7.6.5 15.5 1 23.5 1.5M204.8 299.4v-1.2c-8.4-.3-17-.7-25.6-1.1v178.3l1.3-.1V298.4h.2c7.9.4 16 .7 24.1 1M262.8 301.1c5.8.1 11 1.6 15.5 4.5-4.9-3.7-10.6-5.6-17.2-5.8-15.5-.3-31.2-.7-46.6-1.3V474h1.3V299.9h.2c15.5.5 31.3.9 46.8 1.2M499.8 296.9c5.2 0 9.8 1.2 13.8 3.8-4.4-3.4-9.5-5-15.5-5-.6 0-1.2 0-1.9.1-15.3.9-31 1.6-46.7 2.2v176.7l1.3.1V299.2h.2c15.8-.6 31.6-1.4 46.9-2.3h1.9M325 301.8c7.1 0 14.3 0 21.3-.1h.3c5.9 0 11.1 1.4 15.6 4.2-4.9-3.7-10.5-5.5-17.3-5.5h-.3c-7.1 0-14.3.1-21.3.1-8.3 0-16.9 0-25.4-.1v171.8h1.3V301.7h.2c8.5 0 17.1.1 25.6.1M440.6 298.3c-19.6.7-39.6 1.3-59.3 1.7v172.7h1.3V301.2h.2c19.1-.4 38.6-.9 57.9-1.6v-1.3zM584.3 290.9c.9-.1 1.7-.1 2.6-.1 4.7 0 8.9 1.1 12.6 3.4-4.1-3.2-8.8-4.7-14.3-4.7-.8 0-1.7 0-2.5.1-8.1.7-16.2 1.3-24.3 1.9-7.6.6-14 3.6-19.2 9-5.2 5.3-7.8 11.2-7.8 18.2v54c0 5.7 1.6 10.6 5 14.8-2.5-3.9-3.7-8.2-3.7-13.1v-54c0-7.1 2.6-13.1 7.9-18.5 5.3-5.5 11.9-8.5 19.5-9.1 8-.5 16.1-1.2 24.2-1.9"/><path class="st2" d="M35.2 516.1c190.8-23.8 385.2-23.8 576 0v-10c-190.8-22.1-385.2-22.1-576 0v10z"/><path class="st3" d="M104.7 542.7c144.2-37.4 292.8-37.4 437 0v-9.4c-144.2-36.4-292.7-36.4-437 0v9.4"/><path class="st2" d="M266 270.2c-77.2-1.9-154.3-7.6-230.8-17.2v10c81.4 9.4 163.4 14.8 245.5 16.2-5.2-2.6-10.1-5.6-14.7-9M380.4 270.2c-4.6 3.4-9.5 6.4-14.7 9 82.1-1.4 164.1-6.8 245.5-16.2v-10c-76.5 9.6-153.6 15.3-230.8 17.2"/><path class="st3" d="M246.8 251c-47.6-4.2-95.1-12.4-142.1-24.6v9.4c49.7 12.5 99.9 20.7 150.2 24.6-2.8-2.9-5.6-6.1-8.1-9.4M399.6 251c-2.5 3.3-5.2 6.5-8.2 9.5 50.4-3.9 100.6-12.1 150.2-24.6v-9.4c-46.9 12.1-94.3 20.3-142 24.5"/><path d="M234.4 193.6c0-49 39.7-88.8 88.8-88.8 49 0 88.8 39.7 88.8 88.8 0 49-39.7 88.8-88.8 88.8-49 0-88.8-39.8-88.8-88.8" fill="#fff"/><path class="st0" d="M323.2 104.8c-49 0-88.8 39.8-88.8 88.8s39.8 88.8 88.8 88.8 88.8-39.8 88.8-88.8-39.8-88.8-88.8-88.8m64.2 39.5c10.2 13.2 15.9 28.9 16.7 45.4h-33.5c.9-16.5 6.6-32.2 16.8-45.4m-128.3 0c10.2 13.2 15.9 28.9 16.7 45.4h-33.5c.8-16.6 6.6-32.2 16.8-45.4m0 98.6c-10.2-13.2-15.9-28.9-16.7-45.4h33.5c-.9 16.6-6.7 32.2-16.8 45.4m68 31.6v-23.2h-7.8v23.2c-21.1-1-40.6-10-55.1-25.5 11.9-14.8 18.6-32.6 19.4-51.5v-7.8c-.8-18.9-7.5-36.7-19.4-51.5 14.5-15.5 34.1-24.5 55.1-25.5v23h7.8v-23c21.1 1 40.6 10 55.1 25.5-11.9 14.8-18.6 32.6-19.4 51.5v7.8c.8 18.9 7.5 36.7 19.4 51.5-14.5 15.5-34 24.5-55.1 25.5m60.3-31.6c-10.2-13.2-16-28.9-16.7-45.4h33.5c-.9 16.6-6.6 32.3-16.8 45.4"/><path class="st3" d="M303.5 156.4v74.1H343v-10.2h-29v-63.9z"/><path class="st2" d="M356.5 181.2v-30.5c0-4.6-1.8-6.4-6.4-6.4h-53.9c-4.5 0-6.3 1.9-6.3 6.4v85.8c0 4.6 1.8 6.4 6.3 6.4h53.9c4.5 0 6.4-1.9 6.4-6.4v-30.6h-10.7v27.6h-45.2v-79.9h45.2v27.6h10.7z"/><path class="st3" d="M343 217.4v-61h-25.7l-.3 61h10.3l.2-19h5.2l-.1 19H343zm-10.3-29.1h-5.2v-21.7h5.2v21.7z"/></svg>