<svg xmlns="http://www.w3.org/2000/svg" xmlns:xlink="http://www.w3.org/1999/xlink" width="400" height="400"><path fill="#FFF" d="M91.73 131.185s32.988-53.932 100.531-53.932c67.546 0 98.965 52.36 98.965 52.36h91.631l-3.666 22.516s-2.618 8.902-6.808 9.948h6.286s2.09 7.854-10.472 35.083h26.697s1.05 47.646-56.544 70.166c0 0-29.846 9.42-45.032-6.809 0 0-30.371 56.546-101.058 56.546-70.685 0-102.623-58.119-102.623-58.119H7.431l13.09-23.562h-8.903l10.474-19.374h17.802l3.143-7.329h-8.379l20.421-37.701h11.519l4.712-11.52h-9.948l15.187-28.273H91.73z"/><path fill="#FDB927" d="M193.249 304.457c57.786 0 104.637-47.559 104.637-106.221 0-58.662-46.852-106.219-104.637-106.219-57.787 0-104.635 47.557-104.635 106.219-.001 58.662 46.848 106.221 104.635 106.221"/><path fill="#552583" d="M240.944 209.111c-9.773 11.854-15.312 15.911-25.241 15.911-3.381 0-5.143-.757-4.198-2.396l11.779-23.676h4.49c5.017 0 4.323 4.22 2.96 9.941-.249.796.364.846.957.148l11.199-19.673c.547-1.24-.864-1.492-1.562-.543-5.606 7.613-11.506 7.047-13.997 7.047h-2.023l12.569-24.004h5.073c6.388.4 9.36 5.82 7.515 18.893h2.652l9.248-18.23c.744-1.538-.835-2.943-2.576-2.943l-62.75.021c-3.628 0-3.789 2.785-.313 2.785 2.827 0 2.678 4.052.144 6.006l-26.636 21.151 5.373 24.969c.4 1.887 1.606 2.789 3.693 2.789h51.888c2.134 0 3.02-.874 3.716-1.767l9.399-16.231c1.29-2.333-1.718-2.186-3.359-.198m-36.152-11.405l-4.562-.039a.582.582 0 1 0 0 1.164l4.631-.047c1.562 0 3.003.198 2.605.892l-11.996 22.91c-1.49 2.732-4.649 2.037-5.149-.146l-5.942-30.698 20.893-16.211c2.077-1.784 6.068-4.69 8.115-4.655l4.551-.021c2.771-.025 3.758 1.277 3.108 2.949l-.805 1.55c-.52.872-2.164.972-3.555.972l-2.628.014a.582.582 0 0 0 0 1.162l2.592.003c1.117 0 2.529.025 2.009.866l-9.692 18.48c-.447.722-2.458.855-4.175.855"/><path fill="#552583" d="M161.716 224.512a2.854 2.854 0 0 1-2.624-1.937c-.447-1.343-.41-3.714.136-4.756l24.208-42.933c.395-.792 1.374-2.453 2.58-2.451 2.13.004 3.06-2.808-.564-2.808h-19.386c-3.62 0-3.661 2.759-.186 2.759 1.418 0 1.976 1.387 1.579 2.23l-5.36 9.713c-.671 1.066-2.156 1.149-3.719 1.149l-4.62-.015a.58.58 0 0 0-.577.583.58.58 0 0 0 .577.581l4.58.002c1.244 0 2.231.377 1.511 1.814l-17.867 32.552c-1.291 1.79-3.853 2.185-3.703-1.239l6.353-47.678c.25-1.489-.145-2.498-1.731-2.498l-9.584.011c-1.143 0-1.851.558-2.396 1.3l-3.436 4.308c-.444.447-1.409.445-2.478.445l-8.041-.011a.58.58 0 0 0 0 1.16h6.564c1.168 0 2.532.275 2.037.823l-9.217 11.593c-.277.321-1.174.413-1.721.413l-2.605-.014a.583.583 0 0 0 0 1.165l2.173.004c.67 0 .677.333.403.63l-8.659 10.889c-.447.421-1.318.51-2.163.51l-7.644-.012a.58.58 0 0 0 0 1.16l6.562.004c.996 0 1.769.181 1.243.853L91.627 220.26c-2.313 2.945-13.463 4.443-15.633 4.443l41.65-77.939c.399-.894 1.947-2.259 3.548-2.259h8.842c4.172 0 4.049-2.779.424-2.779H86c-3.625 0-3.771 2.779.4 2.779h8.232c2.333 0 3.089 1.411 2.486 2.562l-1.179 2.146c-.395.694-.944.977-3.203.977l-14.546-.011a.58.58 0 1 0 0 1.159l14.508.003c.794 0 1.973.204 1.228 1.621l-2.035 3.786c-.349.572-1.242.84-2.26.84l-6.6-.011a.582.582 0 0 0 0 1.163l6.566.002c.944 0 .963.619.417 1.488l-4.684 8.706c-.4.744-1.16.845-2.649.845l-2.628-.012a.58.58 0 1 0 0 1.161l2.593.002c.991 0 1.251.554.805 1.497l-3.846 7.149c-.57 1.018-1.392 1.424-3.951 1.424l-14.546-.011a.58.58 0 1 0 0 1.163h14.507c1.644.027 2.245.75 1.599 1.921l-7.509 14.116c-.444.623-1.672.713-3.757.713l-14.548-.01a.58.58 0 1 0 0 1.16h14.51c1.738 0 2.801.074 2.278.991l-4.329 8.14c-.796 1.243-3.024 1.24-3.896 1.24l-4.617-.012a.58.58 0 1 0 0 1.162h4.58c1.611 0 2.466.281 2.045 1.149l-5.779 10.864c-.521.971-2.785 1.01-4.52 1.01l-22.496-.012a.582.582 0 0 0 0 1.164l22.454.002c1.49 0 3.376.184 2.681 1.376l-3.69 6.939c-.348.571-1.608.619-3.422.619l-4.613-.014a.586.586 0 0 0-.583.581c0 .322.262.584.583.584h4.578c1.119 0 2.476.125 2.004.973l-2.308 4.433c-.745 1.093-1.489 2.074-3.272 2.074H32.3c-4.171 0-4.025 2.779-.398 2.779l66.273.038c1.936 0 2-.26 2.915-1.683l9.827-17.14 50.237.006c3.622.001 2.697-2.731.562-2.805m-39.395-5.108c-.5 2.83-3.339 4.701-6.914 5.644l-3.692.925 3.027-5.458c.798-1.491-.948-2.368-2.853-.147-12.836 14.936-16.923 22.091-36.707 22.142l-5.317.013c-1.606 0-3.374-.63-2.283-2.171l7.001-13.038 26.586.006c3.626 0 2.694-2.732.565-2.807-1.409-.048-2.948-.853-4.037-2.576-.301-.476-.961-2.369.076-3.828l10.177-13.528h16.926l-2.555 14.823zm3.825-17.107h-16.517l20.887-27.54-4.37 27.54zM377.375 210.818c-.273-1.357-.771-.532-1.663 1.18-.276.52-1.144.532-2.011.532l-2.659.011a.58.58 0 0 0 0 1.16l2.614-.002c.993 0 1.01.66.542 1.658-1.826 3.9-3.709 6.513-6.207 9.635-.395.495-1.401.919-2.198.919l-2.669.011a.583.583 0 0 0-.584.582c0 .319.263.579.584.579h2.613c1.312 0-.014.81-.24 1.109-4.637 6.182-7.827 8.939-11.235 11.709-.397.322-2.318.21-3.663.201l-2.632.014a.58.58 0 0 0 0 1.16l2.598.006c1.979 0 .495 1.138.193 1.389-7.217 6.012-17.977 7.952-22.896 7.335-15.983-2-19.277-14.128-20.458-18.976-.246-1.015-1.008-3.09-1.263-4.373-.497-2.538 6.716-3.261 8.704-1.926 3.022 2.019 10.06 4.092 15.601 4.114 5.12.016 15.606-3.702 18.644-12.505 3.102-9.003-4.696-18.995-8.148-22.446-4.404-4.4-8.555-11.405-6.806-16.544 1.317-3.874 3.527-5.633 8.261-5.633 6.11 0 10.56 3.927 10.56 9.505 0 .495-.311 1.091-.71 1.091l-2.157.01a.582.582 0 0 0-.58.581c0 .32.263.579.58.579h2.031c.57 0 .932.434.777 1.13-.396 1.867-.529 3.179-.936 5.05-.232 1.086 1.354 1.834 1.903 1.042l9.605-17.151c.697-1.289-.848-1.637-1.989-1.243-2.629.915-6.903 1.544-8.419.457-3.595-2.574-6.86-4.234-11.885-4.234-8.533 0-14.513 2.103-18.35 9.134-.301.546-1.14.536-1.858.536l-1.642-.004a.582.582 0 0 0 0 1.165l1.395-.012c.597 0 1.002.167.701.862a23.2 23.2 0 0 0-.723 1.991c-.971 3.038-.659 7.311.862 11.115.102.246-.218.367-.812.365l-2.617.011a.58.58 0 0 0 0 1.162h2.617c1.186.004 1.463.123 1.953.816 1.35 1.898 2.737 3.304 4.466 5.513.546.692-1.783.889-3.025.877l-10.354-.003a.582.582 0 0 0 0 1.162l10.485-.012c1.688 0 4.575-.027 4.901.347 2.536 2.924 5.603 7.433 6.121 11.231.146 1.091-.268 1.551-1.609 1.551l-1.4-.003a.58.58 0 1 0 0 1.162h1.235c1.066 0 1.649.171 1.407.969-1.365 4.342-3.404 7.49-11.697 7.446-8.704-.049-10.47-8.576-7.927-17.47.51-1.775-.021-2.534-.815-1.143l-6.053 9.515c-.149.223-.738.761-1.657.761h-.86a.583.583 0 0 0-.582.583.59.59 0 0 0 .59.579c.772 0 1.067.41.772.831l-2.225 3.467c-3.652-8.366-9.787-18.675-13.055-22.429l.057-.181c8.069-.487 19.969-8.042 21.919-14.797 3.382-11.723-8.004-16.047-14.206-16.047l-27.271.002c-3.622 0-3.884 2.747-.412 2.747 1.878 0 3.521 1.645 2.693 3.306l-6.045 10.886c-.498.893-2.369.84-4.803.84h-2.645a.583.583 0 0 0-.581.581c0 .321.264.58.581.58h2.601c1.74 0 3.651.105 3.01 1.346l-7.144 12.896c-.348.594-1.272.65-3.703.65l-2.633.01a.58.58 0 0 0-.58.582c0 .319.258.58.58.58l2.575-.002c1.913 0 2.627.256 2.082 1.251l-9.538 17.249c-1.144 1.242-2.496 1.473-4.829 1.473-3.476 0-3.438 2.757.187 2.757h23.355c3.624 0 2.699-2.806.564-2.806-1.255.004-2.589-2.309-1.754-3.694l11.921-22.583h1.213c5.301 0 6.58 8.701 7.584 18.199.072.678-1.226.715-3.865.715l-6.631.011a.58.58 0 0 0 0 1.158h6.562c1.74 0 4.167.015 4.229.579.458 4.164.802 7.834 1.595 11.175.252 1.044-1.61.88-3.595.88l-8.44.012a.58.58 0 0 0-.582.581c0 .32.26.583.582.583l8.432.011c2.649 0 4.018-.004 4.169.54 3.633 13.319 19.209 23.809 34.355 23.228 12.999-.496 23.975-7.566 29.598-12.071 7.474-5.999 18.462-18.565 22.932-27.701.821-1.678 2.134-3.827 1.835-5.317m-87.378-17.735c-1.817 1.496-4.688 3.217-5.242 2.667-.777-.766-3.187-2.428-4.483-3.027l10.822-19.781c.441-.695.958-1.075 2.146-1.075 4.218 0 5.597 4.571 3.619 10.262-1.385 3.987-3.635 8.302-6.862 10.954"/><path fill="#552583" d="M158.496 152.002c-2.189 2.832-5.097 3.554-8.353 3.554h-.919l5.747-11.372c.274-.521.879-.929 1.625-.929.723 0 .636-1.437-.309-1.437h-9.056c-.769 0-1.041 1.437-.32 1.437.771 0 .913.854.541 1.574l-5.145 10.138c-.349.548-.918.697-1.547.86-.764.196-1.292 1.564-.421 1.564h14.456c1.116 0 1.376-.415 1.675-.814l2.904-4.5c.421-.545-.457-.622-.878-.075M202.043 142.22c-.439.239-1.477.365-1.922-.006-1.151-.961-3.422-1.698-4.607-1.698-3.41 0-5.877.675-7.361 3.893-1.265 2.74.03 5.033 3.042 6.427 1.298.604 3.027 1.387 2.365 2.958-.483 1.145-1.821 1.263-3.019 1.248-1.617-.014-4.041-1.224-4.418-3.501-.127-.749-.994-.574-1.24-.177l-2.059 4.1c-.324.546.526 1.15.859.793.695-.745 2.209-.92 2.955-.423 1.024.68 3.656 1.875 5.229 1.864 3.454-.023 5.732-.913 7.622-3.873 1.729-2.704.668-5.386-2.483-6.869-1.664-.784-3.094-2.171-2.347-3.701.481-.998 1.969-.78 2.708-.656 1.407.239 3.21 1.565 3.417 2.729.091.495.724.595.997.148l1.087-2.526c.245-.498-.552-.879-.825-.73M302.361 146.292l1.258-2.321c.543-1.019-.354-2.174-1.797-2.174h-16.881c-1.216 0-.858 1.271-.36 1.271 1.086 0 1.403 1.318.747 2.434l-5.074 9.339c-.76.893-1.244 1.278-2.327 1.278-.869 0-1.178 1.269.037 1.269h17.108c.694 0 .999-.25 1.246-.595l2.326-3.091c.568-.742-.66-.742-1.033-.37-2.95 2.954-6.109 2.866-8.407 2.866h-1.991l2.342-5.228h.497c1.503 0 3.24-.016 3.692 1.124.122.272.866.498 1.166 0l2-3.993c.321-.593-.581-.7-.821-.272-.794 1.41-4.261 1.033-5.168 1.033h-.499l2.917-5.761h3.252c2.021 0 3.762 1.431 4.33 2.992.136.375 1.216.67 1.44.199M259.172 141.796h-6.009c-1.221 0-.859 1.273-.363 1.273 1.284 0 2.453 1.501 1.745 2.892l-2.484 4.551-5.483-8.027c-.372-.496-1.238-.737-1.979-.737h-5.912c-1.214 0-.936 1.256-.437 1.256 1.257 0 .93.941.619 1.612l-4.708 9.071c-.298.72-1.58.823-1.979-.094l-3.65-11.877c-.147-.469-2.278-.444-2.822 0l-9.136 7.532-4.73.006c-.939 0-1.31.39-1.31.886s.357.949 1.351.949l2.47-.002-2.47 2.034c-1.381 1.027-2.789 2.435-3.725 2.435h-.578c-.894 0-1.396.145-1.396.865 0 .719.38.968 1.227.968h7.362c1.393 0 1.122-1.809.427-1.809-.76 0-2.019-.973-.851-2.336l2.248-2.154h4.432c2.63 0 4.464 3.047 2.901 3.994l-1.218.67c-.569.299-.818 1.635.004 1.635h14.398c1.066 0 .849-1.412.352-1.412-1.475 0-.779-2.119-.492-2.688l3.782-7.165 5.314 10.296c.349.646.659.968 1.28.968h2.033c.646 0 .866-.372 1.16-.869l6.054-10.926c.973-1.955 1.721-2.517 2.944-2.517.497 0 .845-1.28-.371-1.28m-40.276 7.458l5.628-4.6.026 4.6h-5.654zM173.889 141.114c-5.065 0-10.283 2.492-11.324 7.805-.904 4.626 2.293 9.425 7.948 9.425 5.382 0 10.349-3.527 11.352-8.626 1.001-5.127-2.817-8.604-7.976-8.604m1.431 9.742c-1.606 3.203-4.296 5.104-6.007 4.247-1.712-.858-1.797-4.151-.191-7.355 1.606-3.204 4.293-5.107 6.005-4.247 1.711.858 1.799 4.15.193 7.355M276.289 148.865h-6.504c-1.22 0-.861 1.271-.361 1.271.515 0 .992.271.992 1.09 0 2.63-1.125 3.641-3.381 3.641-2.479 0-3.369-3.004-1.701-6.69 1.064-2.352 3.882-4.553 7.228-4.553 2.046 0 3.766.44 4.029 2.359.064.477.769.475 1.019.028l1.542-2.764c.173-.3-.096-.65-.565-.678-.396-.028-1.285.486-1.873.05-1.303-.967-4.139-1.903-6.275-1.903-3.49 0-8.369.786-11.664 6.508-2.973 5.17 1.362 10.641 5.383 10.647 2.234.005 4.827-1.65 6.312-2.277l1.662 1.126c.249.295.771.669 1.263.669h.627c.566 0 .789-.781 1.014-1.277l2.553-6.176c.32-.621.14-1.071-1.3-1.071M365.409 142.22c-.438.239-1.478.365-1.921-.006-1.156-.961-3.42-1.698-4.609-1.698-3.403 0-5.876.675-7.361 3.893-1.265 2.74.031 5.033 3.042 6.427 1.303.604 3.032 1.387 2.369 2.958-.485 1.145-1.822 1.263-3.022 1.248-1.616-.014-4.043-1.224-4.42-3.501-.124-.749-.99-.574-1.235-.177l-2.062 4.1c-.324.546.528 1.15.861.793.697-.745 2.212-.92 2.951-.423 1.028.68 3.664 1.875 5.233 1.864 3.451-.023 5.729-.913 7.624-3.873 1.724-2.704.662-5.386-2.489-6.869-1.661-.784-3.09-2.171-2.347-3.701.487-.998 1.972-.78 2.711-.656 1.403.239 3.209 1.565 3.416 2.729.088.495.723.595.997.148l1.084-2.526c.247-.498-.548-.879-.822-.73M320.174 152.002c-2.187 2.832-5.096 3.554-8.349 3.554h-.923l5.746-11.372c.273-.521.879-.929 1.626-.929.72 0 .634-1.437-.309-1.437h-9.058c-.771 0-1.044 1.437-.319 1.437.77 0 .911.854.54 1.574l-5.145 10.138c-.348.548-.918.697-1.55.86-.76.196-1.286 1.564-.414 1.564h14.453c1.116 0 1.374-.415 1.675-.814l2.902-4.5c.426-.545-.454-.622-.875-.075M341.975 143.103c2.021 0 3.76 1.429 4.332 2.991.135.372 1.211.67 1.437.199l1.26-2.321c.545-1.018-.354-2.176-1.794-2.176h-16.886c-1.212 0-.855 1.273-.36 1.273 1.083 0 1.409 1.318.752 2.433l-5.078 9.34c-.755.893-1.242 1.276-2.328 1.276-.869 0-1.174 1.269.044 1.269h17.104c.692 0 .998-.248 1.25-.596l2.321-3.089c.571-.742-.655-.742-1.026-.372-2.955 2.954-6.114 2.866-8.409 2.866h-1.995l2.342-5.228h.495c1.507 0 3.237-.016 3.697 1.125.122.274.864.496 1.165 0l1.996-3.994c.324-.592-.58-.697-.818-.27-.792 1.408-4.26 1.031-5.166 1.031h-.501l2.914-5.759h3.252z"/><g><defs><path id="a" d="M88.613 198.236c0 58.665 46.85 106.219 104.632 106.219 57.789 0 104.64-47.555 104.64-106.219 0-58.663-46.852-106.222-104.64-106.222-57.782 0-104.632 47.559-104.632 106.222"/></defs><clipPath id="b"><use xlink:href="#a" overflow="visible"/></clipPath><path clip-path="url(#b)" fill="#552583" d="M240.944 209.111c-9.773 11.854-15.312 15.911-25.241 15.911-3.381 0-5.143-.757-4.198-2.396l11.779-23.676h4.49c5.017 0 4.323 4.22 2.96 9.941-.249.796.364.846.957.148l11.199-19.673c.547-1.24-.864-1.492-1.562-.543-5.606 7.613-11.506 7.047-13.997 7.047h-2.023l12.569-24.004h5.073c6.388.4 9.36 5.82 7.515 18.893h2.652l9.248-18.23c.744-1.538-.835-2.943-2.576-2.943l-62.75.021c-3.628 0-3.789 2.785-.313 2.785 2.827 0 2.678 4.052.144 6.006l-26.636 21.151 5.373 24.969c.4 1.887 1.606 2.789 3.693 2.789h51.888c2.134 0 3.02-.874 3.716-1.767l9.399-16.231c1.29-2.333-1.718-2.186-3.359-.198m-36.152-11.405l-4.562-.039a.582.582 0 1 0 0 1.164l4.631-.047c1.562 0 3.003.198 2.605.892l-11.996 22.91c-1.49 2.732-4.649 2.037-5.149-.146l-5.942-30.698 20.893-16.211c2.077-1.784 6.068-4.69 8.115-4.655l4.551-.021c2.771-.025 3.758 1.277 3.108 2.949l-.805 1.55c-.52.872-2.164.972-3.555.972l-2.628.014a.582.582 0 0 0 0 1.162l2.592.003c1.117 0 2.529.025 2.009.866l-9.692 18.48c-.447.722-2.458.855-4.175.855"/><path clip-path="url(#b)" fill="none" stroke="#FDB927" stroke-width=".212" d="M240.944 209.111c-9.773 11.854-15.312 15.911-25.241 15.911-3.381 0-5.143-.757-4.198-2.396l11.779-23.676h4.49c5.017 0 4.323 4.22 2.96 9.941-.249.796.364.846.957.148l11.199-19.673c.547-1.24-.864-1.492-1.562-.543-5.606 7.613-11.506 7.047-13.997 7.047h-2.023l12.569-24.004h5.073c6.388.4 9.36 5.82 7.515 18.893h2.652l9.248-18.23c.744-1.538-.835-2.943-2.576-2.943l-62.75.021c-3.628 0-3.789 2.785-.313 2.785 2.827 0 2.678 4.052.144 6.006l-26.636 21.151 5.373 24.969c.4 1.887 1.606 2.789 3.693 2.789h51.888c2.134 0 3.02-.874 3.716-1.767l9.399-16.231c1.29-2.333-1.718-2.186-3.359-.198zm-36.152-11.405l-4.562-.039a.582.582 0 1 0 0 1.164l4.631-.047c1.562 0 3.003.198 2.605.892l-11.996 22.91c-1.49 2.732-4.649 2.037-5.149-.146l-5.942-30.698 20.893-16.211c2.077-1.784 6.068-4.69 8.115-4.655l4.551-.021c2.771-.025 3.758 1.277 3.108 2.949l-.805 1.55c-.52.872-2.164.972-3.555.972l-2.628.014a.582.582 0 0 0 0 1.162l2.592.003c1.117 0 2.529.025 2.009.866l-9.692 18.48c-.447.722-2.458.855-4.175.855z"/><path clip-path="url(#b)" fill="#552583" d="M161.716 224.512a2.854 2.854 0 0 1-2.624-1.937c-.447-1.343-.41-3.714.136-4.756l24.208-42.933c.395-.792 1.374-2.453 2.58-2.451 2.13.004 3.06-2.808-.564-2.808h-19.386c-3.62 0-3.661 2.759-.186 2.759 1.418 0 1.976 1.387 1.579 2.23l-5.36 9.713c-.671 1.066-2.156 1.149-3.719 1.149l-4.62-.015a.58.58 0 0 0-.577.583.58.58 0 0 0 .577.581l4.58.002c1.244 0 2.231.377 1.511 1.814l-17.867 32.552c-1.291 1.79-3.853 2.185-3.703-1.239l6.353-47.678c.25-1.489-.145-2.498-1.731-2.498l-9.584.011c-1.143 0-1.851.558-2.396 1.3l-3.436 4.308c-.444.447-1.409.445-2.478.445l-8.041-.011a.58.58 0 0 0 0 1.16h6.564c1.168 0 2.532.275 2.037.823l-9.217 11.593c-.277.321-1.174.413-1.721.413l-2.605-.014a.583.583 0 0 0 0 1.165l2.173.004c.67 0 .677.333.403.63l-8.659 10.889c-.447.421-1.318.51-2.163.51l-7.644-.012a.58.58 0 0 0 0 1.16l6.562.004c.996 0 1.769.181 1.243.853L91.627 220.26c-2.313 2.945-13.463 4.443-15.633 4.443l41.65-77.939c.399-.894 1.947-2.259 3.548-2.259h8.842c4.172 0 4.049-2.779.424-2.779H86c-3.625 0-3.771 2.779.4 2.779h8.232c2.333 0 3.089 1.411 2.486 2.562l-1.179 2.146c-.395.694-.944.977-3.203.977l-14.546-.011a.58.58 0 1 0 0 1.159l14.508.003c.794 0 1.973.204 1.228 1.621l-2.035 3.786c-.349.572-1.242.84-2.26.84l-6.6-.011a.582.582 0 0 0 0 1.163l6.566.002c.944 0 .963.619.417 1.488l-4.684 8.706c-.4.744-1.16.845-2.649.845l-2.628-.012a.58.58 0 1 0 0 1.161l2.593.002c.991 0 1.251.554.805 1.497l-3.846 7.149c-.57 1.018-1.392 1.424-3.951 1.424l-14.546-.011a.58.58 0 1 0 0 1.163h14.507c1.644.027 2.245.75 1.599 1.921l-7.509 14.116c-.444.623-1.672.713-3.757.713l-14.548-.01a.58.58 0 1 0 0 1.16h14.51c1.738 0 2.801.074 2.278.991l-4.329 8.14c-.796 1.243-3.024 1.24-3.896 1.24l-4.617-.012a.58.58 0 1 0 0 1.162h4.58c1.611 0 2.466.281 2.045 1.149l-5.779 10.864c-.521.971-2.785 1.01-4.52 1.01l-22.496-.012a.582.582 0 0 0 0 1.164l22.454.002c1.49 0 3.376.184 2.681 1.376l-3.69 6.939c-.348.571-1.608.619-3.422.619l-4.613-.014a.586.586 0 0 0-.583.581c0 .322.262.584.583.584h4.578c1.119 0 2.476.125 2.004.973l-2.308 4.433c-.745 1.093-1.489 2.074-3.272 2.074H32.3c-4.171 0-4.025 2.779-.398 2.779l66.273.038c1.936 0 2-.26 2.915-1.683l9.827-17.14 50.237.006c3.622.001 2.697-2.731.562-2.805m-39.395-5.108c-.5 2.83-3.339 4.701-6.914 5.644l-3.692.925 3.027-5.458c.798-1.491-.948-2.368-2.853-.147-12.836 14.936-16.923 22.091-36.707 22.142l-5.317.013c-1.606 0-3.374-.63-2.283-2.171l7.001-13.038 26.586.006c3.626 0 2.694-2.732.565-2.807-1.409-.048-2.948-.853-4.037-2.576-.301-.476-.961-2.369.076-3.828l10.177-13.528h16.926l-2.555 14.823zm3.825-17.107h-16.517l20.887-27.54-4.37 27.54z"/><path clip-path="url(#b)" fill="none" stroke="#FDB927" stroke-width=".212" d="M161.716 224.512a2.854 2.854 0 0 1-2.624-1.937c-.447-1.343-.41-3.714.136-4.756l24.208-42.933c.395-.792 1.374-2.453 2.58-2.451 2.13.004 3.06-2.808-.564-2.808h-19.386c-3.62 0-3.661 2.759-.186 2.759 1.418 0 1.976 1.387 1.579 2.23l-5.36 9.713c-.671 1.066-2.156 1.149-3.719 1.149l-4.62-.015a.58.58 0 0 0-.577.583.58.58 0 0 0 .577.581l4.58.002c1.244 0 2.231.377 1.511 1.814l-17.867 32.552c-1.291 1.79-3.853 2.185-3.703-1.239l6.353-47.678c.25-1.489-.145-2.498-1.731-2.498l-9.584.011c-1.143 0-1.851.558-2.396 1.3l-3.436 4.308c-.444.447-1.409.445-2.478.445l-8.041-.011a.58.58 0 0 0 0 1.16h6.564c1.168 0 2.532.275 2.037.823l-9.217 11.593c-.277.321-1.174.413-1.721.413l-2.605-.014a.583.583 0 0 0 0 1.165l2.173.004c.67 0 .677.333.403.63l-8.659 10.889c-.447.421-1.318.51-2.163.51l-7.644-.012a.58.58 0 0 0 0 1.16l6.562.004c.996 0 1.769.181 1.243.853L91.627 220.26c-2.313 2.945-13.463 4.443-15.633 4.443l41.65-77.939c.399-.894 1.947-2.259 3.548-2.259h8.842c4.172 0 4.049-2.779.424-2.779H86c-3.625 0-3.771 2.779.4 2.779h8.232c2.333 0 3.089 1.411 2.486 2.562l-1.179 2.146c-.395.694-.944.977-3.203.977l-14.546-.011a.58.58 0 1 0 0 1.159l14.508.003c.794 0 1.973.204 1.228 1.621l-2.035 3.786c-.349.572-1.242.84-2.26.84l-6.6-.011a.582.582 0 0 0 0 1.163l6.566.002c.944 0 .963.619.417 1.488l-4.684 8.706c-.4.744-1.16.845-2.649.845l-2.628-.012a.58.58 0 1 0 0 1.161l2.593.002c.991 0 1.251.554.805 1.497l-3.846 7.149c-.57 1.018-1.392 1.424-3.951 1.424l-14.546-.011a.58.58 0 1 0 0 1.163h14.507c1.644.027 2.245.75 1.599 1.921l-7.509 14.116c-.444.623-1.672.713-3.757.713l-14.548-.01a.58.58 0 1 0 0 1.16h14.51c1.738 0 2.801.074 2.278.991l-4.329 8.14c-.796 1.243-3.024 1.24-3.896 1.24l-4.617-.012a.58.58 0 1 0 0 1.162h4.58c1.611 0 2.466.281 2.045 1.149l-5.779 10.864c-.521.971-2.785 1.01-4.52 1.01l-22.496-.012a.582.582 0 0 0 0 1.164l22.454.002c1.49 0 3.376.184 2.681 1.376l-3.69 6.939c-.348.571-1.608.619-3.422.619l-4.613-.014a.586.586 0 0 0-.583.581c0 .322.262.584.583.584h4.578c1.119 0 2.476.125 2.004.973l-2.308 4.433c-.745 1.093-1.489 2.074-3.272 2.074H32.3c-4.171 0-4.025 2.779-.398 2.779l66.273.038c1.936 0 2-.26 2.915-1.683l9.827-17.14 50.237.006c3.622.001 2.697-2.731.562-2.805zm-39.395-5.108c-.5 2.83-3.339 4.701-6.914 5.644l-3.692.925 3.027-5.458c.798-1.491-.948-2.368-2.853-.147-12.836 14.936-16.923 22.091-36.707 22.142l-5.317.013c-1.606 0-3.374-.63-2.283-2.171l7.001-13.038 26.586.006c3.626 0 2.694-2.732.565-2.807-1.409-.048-2.948-.853-4.037-2.576-.301-.476-.961-2.369.076-3.828l10.177-13.528h16.926l-2.555 14.823zm3.825-17.107h-16.517l20.887-27.54-4.37 27.54z"/><path clip-path="url(#b)" fill="#552583" d="M377.375 210.818c-.273-1.357-.771-.532-1.663 1.18-.276.52-1.144.532-2.011.532l-2.659.011a.58.58 0 0 0 0 1.16l2.614-.002c.993 0 1.01.66.542 1.658-1.826 3.9-3.709 6.513-6.207 9.635-.395.495-1.401.919-2.198.919l-2.669.011a.583.583 0 0 0-.584.582c0 .319.263.579.584.579h2.613c1.312 0-.014.81-.24 1.109-4.637 6.182-7.827 8.939-11.235 11.709-.397.322-2.318.21-3.663.201l-2.632.014a.58.58 0 0 0 0 1.16l2.598.006c1.979 0 .495 1.138.193 1.389-7.217 6.012-17.977 7.952-22.896 7.335-15.983-2-19.277-14.128-20.458-18.976-.246-1.015-1.008-3.09-1.263-4.373-.497-2.538 6.716-3.261 8.704-1.926 3.022 2.019 10.06 4.092 15.601 4.114 5.12.016 15.606-3.702 18.644-12.505 3.102-9.003-4.696-18.995-8.148-22.446-4.404-4.4-8.555-11.405-6.806-16.544 1.317-3.874 3.527-5.633 8.261-5.633 6.11 0 10.56 3.927 10.56 9.505 0 .495-.311 1.091-.71 1.091l-2.157.01a.582.582 0 0 0-.58.581c0 .32.263.579.58.579h2.031c.57 0 .932.434.777 1.13-.396 1.867-.529 3.179-.936 5.05-.232 1.086 1.354 1.834 1.903 1.042l9.605-17.151c.697-1.289-.848-1.637-1.989-1.243-2.629.915-6.903 1.544-8.419.457-3.595-2.574-6.86-4.234-11.885-4.234-8.533 0-14.513 2.103-18.35 9.134-.301.546-1.14.536-1.858.536l-1.642-.004a.582.582 0 0 0 0 1.165l1.395-.012c.597 0 1.002.167.701.862a23.2 23.2 0 0 0-.723 1.991c-.971 3.038-.659 7.311.862 11.115.102.246-.218.367-.812.365l-2.617.011a.58.58 0 0 0 0 1.162h2.617c1.186.004 1.463.123 1.953.816 1.35 1.898 2.737 3.304 4.466 5.513.546.692-1.783.889-3.025.877l-10.354-.003a.582.582 0 0 0 0 1.162l10.485-.012c1.688 0 4.575-.027 4.901.347 2.536 2.924 5.603 7.433 6.121 11.231.146 1.091-.268 1.551-1.609 1.551l-1.4-.003a.58.58 0 1 0 0 1.162h1.235c1.066 0 1.649.171 1.407.969-1.365 4.342-3.404 7.49-11.697 7.446-8.704-.049-10.47-8.576-7.927-17.47.51-1.775-.021-2.534-.815-1.143l-6.053 9.515c-.149.223-.738.761-1.657.761h-.86a.583.583 0 0 0-.582.583.59.59 0 0 0 .59.579c.772 0 1.067.41.772.831l-2.225 3.467c-3.652-8.366-9.787-18.675-13.055-22.429l.057-.181c8.069-.487 19.969-8.042 21.919-14.797 3.382-11.723-8.004-16.047-14.206-16.047l-27.271.002c-3.622 0-3.884 2.747-.412 2.747 1.878 0 3.521 1.645 2.693 3.306l-6.045 10.886c-.498.893-2.369.84-4.803.84h-2.645a.583.583 0 0 0-.581.581c0 .321.264.58.581.58h2.601c1.74 0 3.651.105 3.01 1.346l-7.144 12.896c-.348.594-1.272.65-3.703.65l-2.633.01a.58.58 0 0 0-.58.582c0 .319.258.58.58.58l2.575-.002c1.913 0 2.627.256 2.082 1.251l-9.538 17.249c-1.144 1.242-2.496 1.473-4.829 1.473-3.476 0-3.438 2.757.187 2.757h23.355c3.624 0 2.699-2.806.564-2.806-1.255.004-2.589-2.309-1.754-3.694l11.921-22.583h1.213c5.301 0 6.58 8.701 7.584 18.199.072.678-1.226.715-3.865.715l-6.631.011a.58.58 0 0 0 0 1.158h6.562c1.74 0 4.167.015 4.229.579.458 4.164.802 7.834 1.595 11.175.252 1.044-1.61.88-3.595.88l-8.44.012a.58.58 0 0 0-.582.581c0 .32.26.583.582.583l8.432.011c2.649 0 4.018-.004 4.169.54 3.633 13.319 19.209 23.809 34.355 23.228 12.999-.496 23.975-7.566 29.598-12.071 7.474-5.999 18.462-18.565 22.932-27.701.821-1.678 2.134-3.827 1.835-5.317m-87.378-17.735c-1.817 1.496-4.688 3.217-5.242 2.667-.777-.766-3.187-2.428-4.483-3.027l10.822-19.781c.441-.695.958-1.075 2.146-1.075 4.218 0 5.597 4.571 3.619 10.262-1.385 3.987-3.635 8.302-6.862 10.954"/><path clip-path="url(#b)" fill="none" stroke="#FDB927" stroke-width=".212" d="M377.375 210.818c-.273-1.357-.771-.532-1.663 1.18-.276.52-1.144.532-2.011.532l-2.659.011a.58.58 0 0 0 0 1.16l2.614-.002c.993 0 1.01.66.542 1.658-1.826 3.9-3.709 6.513-6.207 9.635-.395.495-1.401.919-2.198.919l-2.669.011a.583.583 0 0 0-.584.582c0 .319.263.579.584.579h2.613c1.312 0-.014.81-.24 1.109-4.637 6.182-7.827 8.939-11.235 11.709-.397.322-2.318.21-3.663.201l-2.632.014a.58.58 0 0 0 0 1.16l2.598.006c1.979 0 .495 1.138.193 1.389-7.217 6.012-17.977 7.952-22.896 7.335-15.983-2-19.277-14.128-20.458-18.976-.246-1.015-1.008-3.09-1.263-4.373-.497-2.538 6.716-3.261 8.704-1.926 3.022 2.019 10.06 4.092 15.601 4.114 5.12.016 15.606-3.702 18.644-12.505 3.102-9.003-4.696-18.995-8.148-22.446-4.404-4.4-8.555-11.405-6.806-16.544 1.317-3.874 3.527-5.633 8.261-5.633 6.11 0 10.56 3.927 10.56 9.505 0 .495-.311 1.091-.71 1.091l-2.157.01a.582.582 0 0 0-.58.581c0 .32.263.579.58.579h2.031c.57 0 .932.434.777 1.13-.396 1.867-.529 3.179-.936 5.05-.232 1.086 1.354 1.834 1.903 1.042l9.605-17.151c.697-1.289-.848-1.637-1.989-1.243-2.629.915-6.903 1.544-8.419.457-3.595-2.574-6.86-4.234-11.885-4.234-8.533 0-14.513 2.103-18.35 9.134-.301.546-1.14.536-1.858.536l-1.642-.004a.582.582 0 0 0 0 1.165l1.395-.012c.597 0 1.002.167.701.862a23.2 23.2 0 0 0-.723 1.991c-.971 3.038-.659 7.311.862 11.115.102.246-.218.367-.812.365l-2.617.011a.58.58 0 0 0 0 1.162h2.617c1.186.004 1.463.123 1.953.816 1.35 1.898 2.737 3.304 4.466 5.513.546.692-1.783.889-3.025.877l-10.354-.003a.582.582 0 0 0 0 1.162l10.485-.012c1.688 0 4.575-.027 4.901.347 2.536 2.924 5.603 7.433 6.121 11.231.146 1.091-.268 1.551-1.609 1.551l-1.4-.003a.58.58 0 1 0 0 1.162h1.235c1.066 0 1.649.171 1.407.969-1.365 4.342-3.404 7.49-11.697 7.446-8.704-.049-10.47-8.576-7.927-17.47.51-1.775-.021-2.534-.815-1.143l-6.053 9.515c-.149.223-.738.761-1.657.761h-.86a.583.583 0 0 0-.582.583.59.59 0 0 0 .59.579c.772 0 1.067.41.772.831l-2.225 3.467c-3.652-8.366-9.787-18.675-13.055-22.429l.057-.181c8.069-.487 19.969-8.042 21.919-14.797 3.382-11.723-8.004-16.047-14.206-16.047l-27.271.002c-3.622 0-3.884 2.747-.412 2.747 1.878 0 3.521 1.645 2.693 3.306l-6.045 10.886c-.498.893-2.369.84-4.803.84h-2.645a.583.583 0 0 0-.581.581c0 .321.264.58.581.58h2.601c1.74 0 3.651.105 3.01 1.346l-7.144 12.896c-.348.594-1.272.65-3.703.65l-2.633.01a.58.58 0 0 0-.58.582c0 .319.258.58.58.58l2.575-.002c1.913 0 2.627.256 2.082 1.251l-9.538 17.249c-1.144 1.242-2.496 1.473-4.829 1.473-3.476 0-3.438 2.757.187 2.757h23.355c3.624 0 2.699-2.806.564-2.806-1.255.004-2.589-2.309-1.754-3.694l11.921-22.583h1.213c5.301 0 6.58 8.701 7.584 18.199.072.678-1.226.715-3.865.715l-6.631.011a.58.58 0 0 0 0 1.158h6.562c1.74 0 4.167.015 4.229.579.458 4.164.802 7.834 1.595 11.175.252 1.044-1.61.88-3.595.88l-8.44.012a.58.58 0 0 0-.582.581c0 .32.26.583.582.583l8.432.011c2.649 0 4.018-.004 4.169.54 3.633 13.319 19.209 23.809 34.355 23.228 12.999-.496 23.975-7.566 29.598-12.071 7.474-5.999 18.462-18.565 22.932-27.701.821-1.678 2.134-3.827 1.835-5.317zm-87.378-17.735c-1.817 1.496-4.688 3.217-5.242 2.667-.777-.766-3.187-2.428-4.483-3.027l10.822-19.781c.441-.695.958-1.075 2.146-1.075 4.218 0 5.597 4.571 3.619 10.262-1.385 3.987-3.635 8.302-6.862 10.954z"/><path clip-path="url(#b)" fill="#552583" d="M158.496 152.002c-2.189 2.832-5.097 3.554-8.353 3.554h-.919l5.747-11.372c.274-.521.879-.929 1.625-.929.723 0 .636-1.437-.309-1.437h-9.056c-.769 0-1.041 1.437-.32 1.437.771 0 .913.854.541 1.574l-5.145 10.138c-.349.548-.918.697-1.547.86-.764.196-1.292 1.564-.421 1.564h14.456c1.116 0 1.376-.415 1.675-.814l2.904-4.5c.421-.545-.457-.622-.878-.075"/><path clip-path="url(#b)" fill="none" stroke="#FDB927" stroke-width=".212" d="M158.496 152.002c-2.189 2.832-5.097 3.554-8.353 3.554h-.919l5.747-11.372c.274-.521.879-.929 1.625-.929.723 0 .636-1.437-.309-1.437h-9.056c-.769 0-1.041 1.437-.32 1.437.771 0 .913.854.541 1.574l-5.145 10.138c-.349.548-.918.697-1.547.86-.764.196-1.292 1.564-.421 1.564h14.456c1.116 0 1.376-.415 1.675-.814l2.904-4.5c.421-.545-.457-.622-.878-.075z"/><path clip-path="url(#b)" fill="#552583" d="M202.043 142.22c-.439.239-1.477.365-1.922-.006-1.151-.961-3.422-1.698-4.607-1.698-3.41 0-5.877.675-7.361 3.893-1.265 2.74.03 5.033 3.042 6.427 1.298.604 3.027 1.387 2.365 2.958-.483 1.145-1.821 1.263-3.019 1.248-1.617-.014-4.041-1.224-4.418-3.501-.127-.749-.994-.574-1.24-.177l-2.059 4.1c-.324.546.526 1.15.859.793.695-.745 2.209-.92 2.955-.423 1.024.68 3.656 1.875 5.229 1.864 3.454-.023 5.732-.913 7.622-3.873 1.729-2.704.668-5.386-2.483-6.869-1.664-.784-3.094-2.171-2.347-3.701.481-.998 1.969-.78 2.708-.656 1.407.239 3.21 1.565 3.417 2.729.091.495.724.595.997.148l1.087-2.526c.245-.498-.552-.879-.825-.73"/><path clip-path="url(#b)" fill="none" stroke="#FDB927" stroke-width=".212" d="M202.043 142.22c-.439.239-1.477.365-1.922-.006-1.151-.961-3.422-1.698-4.607-1.698-3.41 0-5.877.675-7.361 3.893-1.265 2.74.03 5.033 3.042 6.427 1.298.604 3.027 1.387 2.365 2.958-.483 1.145-1.821 1.263-3.019 1.248-1.617-.014-4.041-1.224-4.418-3.501-.127-.749-.994-.574-1.24-.177l-2.059 4.1c-.324.546.526 1.15.859.793.695-.745 2.209-.92 2.955-.423 1.024.68 3.656 1.875 5.229 1.864 3.454-.023 5.732-.913 7.622-3.873 1.729-2.704.668-5.386-2.483-6.869-1.664-.784-3.094-2.171-2.347-3.701.481-.998 1.969-.78 2.708-.656 1.407.239 3.21 1.565 3.417 2.729.091.495.724.595.997.148l1.087-2.526c.245-.498-.552-.879-.825-.73z"/><path clip-path="url(#b)" fill="#552583" d="M302.361 146.292l1.258-2.321c.543-1.019-.354-2.174-1.797-2.174h-16.881c-1.216 0-.858 1.271-.36 1.271 1.086 0 1.403 1.318.747 2.434l-5.074 9.339c-.76.893-1.244 1.278-2.327 1.278-.869 0-1.178 1.269.037 1.269h17.108c.694 0 .999-.25 1.246-.595l2.326-3.091c.568-.742-.66-.742-1.033-.37-2.95 2.954-6.109 2.866-8.407 2.866h-1.991l2.342-5.228h.497c1.503 0 3.24-.016 3.692 1.124.122.272.866.498 1.166 0l2-3.993c.321-.593-.581-.7-.821-.272-.794 1.41-4.261 1.033-5.168 1.033h-.499l2.917-5.761h3.252c2.021 0 3.762 1.431 4.33 2.992.136.375 1.216.67 1.44.199"/><path clip-path="url(#b)" fill="none" stroke="#FDB927" stroke-width=".212" d="M302.361 146.292l1.258-2.321c.543-1.019-.354-2.174-1.797-2.174h-16.881c-1.216 0-.858 1.271-.36 1.271 1.086 0 1.403 1.318.747 2.434l-5.074 9.339c-.76.893-1.244 1.278-2.327 1.278-.869 0-1.178 1.269.037 1.269h17.108c.694 0 .999-.25 1.246-.595l2.326-3.091c.568-.742-.66-.742-1.033-.37-2.95 2.954-6.109 2.866-8.407 2.866h-1.991l2.342-5.228h.497c1.503 0 3.24-.016 3.692 1.124.122.272.866.498 1.166 0l2-3.993c.321-.593-.581-.7-.821-.272-.794 1.41-4.261 1.033-5.168 1.033h-.499l2.917-5.761h3.252c2.021 0 3.762 1.431 4.33 2.992.136.375 1.216.67 1.44.199z"/><path clip-path="url(#b)" fill="#552583" d="M259.172 141.796h-6.009c-1.221 0-.859 1.273-.363 1.273 1.284 0 2.453 1.501 1.745 2.892l-2.484 4.551-5.483-8.027c-.372-.496-1.238-.737-1.979-.737h-5.912c-1.214 0-.936 1.256-.437 1.256 1.257 0 .93.941.619 1.612l-4.708 9.071c-.298.72-1.58.823-1.979-.094l-3.65-11.877c-.147-.469-2.278-.444-2.822 0l-9.136 7.532-4.73.006c-.939 0-1.31.39-1.31.886s.357.949 1.351.949l2.47-.002-2.47 2.034c-1.381 1.027-2.789 2.435-3.725 2.435h-.578c-.894 0-1.396.145-1.396.865 0 .719.38.968 1.227.968h7.362c1.393 0 1.122-1.809.427-1.809-.76 0-2.019-.973-.851-2.336l2.248-2.154h4.432c2.63 0 4.464 3.047 2.901 3.994l-1.218.67c-.569.299-.818 1.635.004 1.635h14.398c1.066 0 .849-1.412.352-1.412-1.475 0-.779-2.119-.492-2.688l3.782-7.165 5.314 10.296c.349.646.659.968 1.28.968h2.033c.646 0 .866-.372 1.16-.869l6.054-10.926c.973-1.955 1.721-2.517 2.944-2.517.497 0 .845-1.28-.371-1.28m-40.276 7.458l5.628-4.6.026 4.6h-5.654z"/><path clip-path="url(#b)" fill="none" stroke="#FDB927" stroke-width=".212" d="M259.172 141.796h-6.009c-1.221 0-.859 1.273-.363 1.273 1.284 0 2.453 1.501 1.745 2.892l-2.484 4.551-5.483-8.027c-.372-.496-1.238-.737-1.979-.737h-5.912c-1.214 0-.936 1.256-.437 1.256 1.257 0 .93.941.619 1.612l-4.708 9.071c-.298.72-1.58.823-1.979-.094l-3.65-11.877c-.147-.469-2.278-.444-2.822 0l-9.136 7.532-4.73.006c-.939 0-1.31.39-1.31.886s.357.949 1.351.949l2.47-.002-2.47 2.034c-1.381 1.027-2.789 2.435-3.725 2.435h-.578c-.894 0-1.396.145-1.396.865 0 .719.38.968 1.227.968h7.362c1.393 0 1.122-1.809.427-1.809-.76 0-2.019-.973-.851-2.336l2.248-2.154h4.432c2.63 0 4.464 3.047 2.901 3.994l-1.218.67c-.569.299-.818 1.635.004 1.635h14.398c1.066 0 .849-1.412.352-1.412-1.475 0-.779-2.119-.492-2.688l3.782-7.165 5.314 10.296c.349.646.659.968 1.28.968h2.033c.646 0 .866-.372 1.16-.869l6.054-10.926c.973-1.955 1.721-2.517 2.944-2.517.497 0 .845-1.28-.371-1.28zm-40.276 7.458l5.628-4.6.026 4.6h-5.654z"/><path clip-path="url(#b)" fill="#552583" d="M173.889 141.114c-5.065 0-10.283 2.492-11.324 7.805-.904 4.626 2.293 9.425 7.948 9.425 5.382 0 10.349-3.527 11.352-8.626 1.001-5.127-2.817-8.604-7.976-8.604m1.431 9.742c-1.606 3.203-4.296 5.104-6.007 4.247-1.712-.858-1.797-4.151-.191-7.355 1.606-3.204 4.293-5.107 6.005-4.247 1.711.858 1.799 4.15.193 7.355"/><path clip-path="url(#b)" fill="none" stroke="#FDB927" stroke-width=".212" d="M173.889 141.114c-5.065 0-10.283 2.492-11.324 7.805-.904 4.626 2.293 9.425 7.948 9.425 5.382 0 10.349-3.527 11.352-8.626 1.001-5.127-2.817-8.604-7.976-8.604zm1.431 9.742c-1.606 3.203-4.296 5.104-6.007 4.247-1.712-.858-1.797-4.151-.191-7.355 1.606-3.204 4.293-5.107 6.005-4.247 1.711.858 1.799 4.15.193 7.355z"/><path clip-path="url(#b)" fill="#552583" d="M276.289 148.865h-6.504c-1.22 0-.861 1.271-.361 1.271.515 0 .992.271.992 1.09 0 2.63-1.125 3.641-3.381 3.641-2.479 0-3.369-3.004-1.701-6.69 1.064-2.352 3.882-4.553 7.228-4.553 2.046 0 3.766.44 4.029 2.359.064.477.769.475 1.019.028l1.542-2.764c.173-.3-.096-.65-.565-.678-.396-.028-1.285.486-1.873.05-1.303-.967-4.139-1.903-6.275-1.903-3.49 0-8.369.786-11.664 6.508-2.973 5.17 1.362 10.641 5.383 10.647 2.234.005 4.827-1.65 6.312-2.277l1.662 1.126c.249.295.771.669 1.263.669h.627c.566 0 .789-.781 1.014-1.277l2.553-6.176c.32-.621.14-1.071-1.3-1.071"/><path clip-path="url(#b)" fill="none" stroke="#FDB927" stroke-width=".212" d="M276.289 148.865h-6.504c-1.22 0-.861 1.271-.361 1.271.515 0 .992.271.992 1.09 0 2.63-1.125 3.641-3.381 3.641-2.479 0-3.369-3.004-1.701-6.69 1.064-2.352 3.882-4.553 7.228-4.553 2.046 0 3.766.44 4.029 2.359.064.477.769.475 1.019.028l1.542-2.764c.173-.3-.096-.65-.565-.678-.396-.028-1.285.486-1.873.05-1.303-.967-4.139-1.903-6.275-1.903-3.49 0-8.369.786-11.664 6.508-2.973 5.17 1.362 10.641 5.383 10.647 2.234.005 4.827-1.65 6.312-2.277l1.662 1.126c.249.295.771.669 1.263.669h.627c.566 0 .789-.781 1.014-1.277l2.553-6.176c.32-.621.14-1.071-1.3-1.071z"/><path clip-path="url(#b)" fill="#552583" d="M365.409 142.22c-.438.239-1.478.365-1.921-.006-1.156-.961-3.42-1.698-4.609-1.698-3.403 0-5.876.675-7.361 3.893-1.265 2.74.031 5.033 3.042 6.427 1.303.604 3.032 1.387 2.369 2.958-.485 1.145-1.822 1.263-3.022 1.248-1.616-.014-4.043-1.224-4.42-3.501-.124-.749-.99-.574-1.235-.177l-2.062 4.1c-.324.546.528 1.15.861.793.697-.745 2.212-.92 2.951-.423 1.028.68 3.664 1.875 5.233 1.864 3.451-.023 5.729-.913 7.624-3.873 1.724-2.704.662-5.386-2.489-6.869-1.661-.784-3.09-2.171-2.347-3.701.487-.998 1.972-.78 2.711-.656 1.403.239 3.209 1.565 3.416 2.729.088.495.723.595.997.148l1.084-2.526c.247-.498-.548-.879-.822-.73"/><path clip-path="url(#b)" fill="none" stroke="#FDB927" stroke-width=".212" d="M365.409 142.22c-.438.239-1.478.365-1.921-.006-1.156-.961-3.42-1.698-4.609-1.698-3.403 0-5.876.675-7.361 3.893-1.265 2.74.031 5.033 3.042 6.427 1.303.604 3.032 1.387 2.369 2.958-.485 1.145-1.822 1.263-3.022 1.248-1.616-.014-4.043-1.224-4.42-3.501-.124-.749-.99-.574-1.235-.177l-2.062 4.1c-.324.546.528 1.15.861.793.697-.745 2.212-.92 2.951-.423 1.028.68 3.664 1.875 5.233 1.864 3.451-.023 5.729-.913 7.624-3.873 1.724-2.704.662-5.386-2.489-6.869-1.661-.784-3.09-2.171-2.347-3.701.487-.998 1.972-.78 2.711-.656 1.403.239 3.209 1.565 3.416 2.729.088.495.723.595.997.148l1.084-2.526c.247-.498-.548-.879-.822-.73z"/><path clip-path="url(#b)" fill="#552583" d="M320.174 152.002c-2.187 2.832-5.096 3.554-8.349 3.554h-.923l5.746-11.372c.273-.521.879-.929 1.626-.929.72 0 .634-1.437-.309-1.437h-9.058c-.771 0-1.044 1.437-.319 1.437.77 0 .911.854.54 1.574l-5.145 10.138c-.348.548-.918.697-1.55.86-.76.196-1.286 1.564-.414 1.564h14.453c1.116 0 1.374-.415 1.675-.814l2.902-4.5c.426-.545-.454-.622-.875-.075"/><path clip-path="url(#b)" fill="none" stroke="#FDB927" stroke-width=".212" d="M320.174 152.002c-2.187 2.832-5.096 3.554-8.349 3.554h-.923l5.746-11.372c.273-.521.879-.929 1.626-.929.72 0 .634-1.437-.309-1.437h-9.058c-.771 0-1.044 1.437-.319 1.437.77 0 .911.854.54 1.574l-5.145 10.138c-.348.548-.918.697-1.55.86-.76.196-1.286 1.564-.414 1.564h14.453c1.116 0 1.374-.415 1.675-.814l2.902-4.5c.426-.545-.454-.622-.875-.075z"/><path clip-path="url(#b)" fill="#552583" d="M341.975 143.103c2.021 0 3.76 1.429 4.332 2.991.135.372 1.211.67 1.437.199l1.26-2.321c.545-1.018-.354-2.176-1.794-2.176h-16.886c-1.212 0-.855 1.273-.36 1.273 1.083 0 1.409 1.318.752 2.433l-5.078 9.34c-.755.893-1.242 1.276-2.328 1.276-.869 0-1.174 1.269.044 1.269h17.104c.692 0 .998-.248 1.25-.596l2.321-3.089c.571-.742-.655-.742-1.026-.372-2.955 2.954-6.114 2.866-8.409 2.866h-1.995l2.342-5.228h.495c1.507 0 3.237-.016 3.697 1.125.122.274.864.496 1.165 0l1.996-3.994c.324-.592-.58-.697-.818-.27-.792 1.408-4.26 1.031-5.166 1.031h-.501l2.914-5.759h3.252z"/><path clip-path="url(#b)" fill="none" stroke="#FDB927" stroke-width=".212" d="M341.975 143.103c2.021 0 3.76 1.429 4.332 2.991.135.372 1.211.67 1.437.199l1.26-2.321c.545-1.018-.354-2.176-1.794-2.176h-16.886c-1.212 0-.855 1.273-.36 1.273 1.083 0 1.409 1.318.752 2.433l-5.078 9.34c-.755.893-1.242 1.276-2.328 1.276-.869 0-1.174 1.269.044 1.269h17.104c.692 0 .998-.248 1.25-.596l2.321-3.089c.571-.742-.655-.742-1.026-.372-2.955 2.954-6.114 2.866-8.409 2.866h-1.995l2.342-5.228h.495c1.507 0 3.237-.016 3.697 1.125.122.274.864.496 1.165 0l1.996-3.994c.324-.592-.58-.697-.818-.27-.792 1.408-4.26 1.031-5.166 1.031h-.501l2.914-5.759h3.252z"/></g><g><path d="M275.502 129.447c-1.301-1.493-3.096-4.667-15.971-15.892-18.93-16.5-44.016-24.033-67.569-24.033-17.371 0-32.568 3.899-49.406 13.168-21.453 11.812-30.34 25.385-32.535 28.146-1.618 2.029-1.851 3.214-.799 3.822.749.435 2.195-1.146 3.542-2.93 6.381-8.428 14.771-16.785 23.604-21.695 2.746.394 6.587 4.216 8.084 6.253-5.655 3.082-15.019 10.211-18.563 12.961-3.061 2.375-4.119 3.702-3.293 4.667.685.802 3.026-.778 4.99-2.383 3.395-2.783 13.473-9.929 18.464-12.613 3.394 3.974 2.298 11.322 1.098 12.911-.646.853-.733 1.766 0 2.187.7.396 1.46-.613 2.445-2.037 2.316-3.342 1.387-11.439-.599-14.349 6.09-3.775 14.824-6.309 20.112-7.499.448.843 6.861 19.584 8.086 22.988.667 1.867 1.328 4.096 2.694 3.676.906-.28.308-2.322-.451-4.372-.935-2.537-5.787-18.27-7.285-22.94 1.748-.944 12.283-3.083 14.922-2.978-1.3 6.852 3.553 9.661 9.031 13.257 2.916 1.913 21.431 12.552 25.301 14.947 2.209 1.368 3.922 2.235 4.391 1.59.541-.741-.96-2.283-2.993-3.479-1.62-.95-18.853-10.943-26.052-15.49-5.154-3.256-7.924-6.745-6.686-11.324 1.696-.497 6.886-.539 12.278-.497 36.725.3 66.173 21.353 69.465 24.731 1.671 1.71 3.991 3.178 4.892 2.484.571-.441-.412-2.375-1.197-3.277m-128.055-14.503c-.984-1.653-5.653-5.916-8.182-6.751 5.885-4.368 19.562-10.627 24.751-11.719.897 1.491 3.291 7.847 4.091 10.526-4.59.991-16.767 5.363-20.66 7.944m40.124-11.817c-4.79.298-13.475 2.186-16.569 3.081-.798-2.086-2.993-8.543-3.694-10.628 8.819-2.504 19.064-3.375 26.949-2.681-2.194 1.687-5.888 8.343-6.686 10.228m23.856-.295c-7.969-.567-14.476-.796-20.164-.2 1.646-4.15 4.939-8.031 7.486-9.733 5.429.221 11.032 1.012 15.473 1.888 14.202 2.804 36.294 11.464 45.81 24.232-12.683-8.466-33.761-15.131-48.605-16.187M283.446 255.188c1.36-2.5 2.464-3.922 1.3-4.565-1.064-.592-2.1 1.723-3.393 3.969-4.29 7.449-8.98 13.599-19.564 23.238-11.725 10.682-25.202 16.886-29.891 18.473-3.993-11.219-19.213-59.015-19.612-60.38-.601-2.036-1.108-2.627-1.8-2.382-.771.274-.295 1.389.102 3.178.398 1.785 18.513 58.343 19.112 60.328-3.595 1.79-18.193 5.871-28.392 6.208-9.085.3-19.765 0-25.151-1.24-6.321-5.099-20.693-25.393-26.148-36.197-6.427-12.729-10.687-24.442-11.783-29.408-.528-2.379-1.199-4.091-2.394-3.864-1.289.25-.551 2.127.199 4.667 1.933 6.551 5.085 15.821 11.782 29.049 7.092 14.006 19.758 30.433 23.449 34.91-11.571-2.43-25.634-7.847-38.999-17.81-11.513-8.586-21.401-19.509-26.375-27.477-.853-1.368-1.854-3.3-3.094-2.481-.557.362.133 1.918.998 3.475 7.218 12.975 24.838 31.337 47.411 41.412 26.306 11.742 54.992 11.122 80.643 1.19 22.437-8.687 41.961-26.559 51.6-44.293"/></g><g><defs><path id="c" d="M88.613 198.236c0 58.665 46.85 106.219 104.632 106.219 57.789 0 104.64-47.555 104.64-106.219 0-58.663-46.852-106.222-104.64-106.222-57.782 0-104.632 47.559-104.632 106.222"/></defs><clipPath id="d"><use xlink:href="#c" overflow="visible"/></clipPath><path clip-path="url(#d)" d="M275.502 129.447c-1.301-1.493-3.096-4.667-15.971-15.892-18.93-16.5-44.016-24.033-67.569-24.033-17.371 0-32.568 3.899-49.406 13.168-21.453 11.812-30.34 25.385-32.535 28.146-1.618 2.029-1.851 3.214-.799 3.822.749.435 2.195-1.146 3.542-2.93 6.381-8.428 14.771-16.785 23.604-21.695 2.746.394 6.587 4.216 8.084 6.253-5.655 3.082-15.019 10.211-18.563 12.961-3.061 2.375-4.119 3.702-3.293 4.667.685.802 3.026-.778 4.99-2.383 3.395-2.783 13.473-9.929 18.464-12.613 3.394 3.974 2.298 11.322 1.098 12.911-.646.853-.733 1.766 0 2.187.7.396 1.46-.613 2.445-2.037 2.316-3.342 1.387-11.439-.599-14.349 6.09-3.775 14.824-6.309 20.112-7.499.448.843 6.861 19.584 8.086 22.988.667 1.867 1.328 4.096 2.694 3.676.906-.28.308-2.322-.451-4.372-.935-2.537-5.787-18.27-7.285-22.94 1.748-.944 12.283-3.083 14.922-2.978-1.3 6.852 3.553 9.661 9.031 13.257 2.916 1.913 21.431 12.552 25.301 14.947 2.209 1.368 3.922 2.235 4.391 1.59.541-.741-.96-2.283-2.993-3.479-1.62-.95-18.853-10.943-26.052-15.49-5.154-3.256-7.924-6.745-6.686-11.324 1.696-.497 6.886-.539 12.278-.497 36.725.3 66.173 21.353 69.465 24.731 1.671 1.71 3.991 3.178 4.892 2.484.571-.441-.412-2.375-1.197-3.277m-128.055-14.503c-.984-1.653-5.653-5.916-8.182-6.751 5.885-4.368 19.562-10.627 24.751-11.719.897 1.491 3.291 7.847 4.091 10.526-4.59.991-16.767 5.363-20.66 7.944m40.124-11.817c-4.79.298-13.475 2.186-16.569 3.081-.798-2.086-2.993-8.543-3.694-10.628 8.819-2.504 19.064-3.375 26.949-2.681-2.194 1.687-5.888 8.343-6.686 10.228m23.856-.295c-7.969-.567-14.476-.796-20.164-.2 1.646-4.15 4.939-8.031 7.486-9.733 5.429.221 11.032 1.012 15.473 1.888 14.202 2.804 36.294 11.464 45.81 24.232-12.683-8.466-33.761-15.131-48.605-16.187"/><path clip-path="url(#d)" fill="none" stroke="#FDB927" stroke-width=".212" d="M275.502 129.447c-1.301-1.493-3.096-4.667-15.971-15.892-18.93-16.5-44.016-24.033-67.569-24.033-17.371 0-32.568 3.899-49.406 13.168-21.453 11.812-30.34 25.385-32.535 28.146-1.618 2.029-1.851 3.214-.799 3.822.749.435 2.195-1.146 3.542-2.93 6.381-8.428 14.771-16.785 23.604-21.695 2.746.394 6.587 4.216 8.084 6.253-5.655 3.082-15.019 10.211-18.563 12.961-3.061 2.375-4.119 3.702-3.293 4.667.685.802 3.026-.778 4.99-2.383 3.395-2.783 13.473-9.929 18.464-12.613 3.394 3.974 2.298 11.322 1.098 12.911-.646.853-.733 1.766 0 2.187.7.396 1.46-.613 2.445-2.037 2.316-3.342 1.387-11.439-.599-14.349 6.09-3.775 14.824-6.309 20.112-7.499.448.843 6.861 19.584 8.086 22.988.667 1.867 1.328 4.096 2.694 3.676.906-.28.308-2.322-.451-4.372-.935-2.537-5.787-18.27-7.285-22.94 1.748-.944 12.283-3.083 14.922-2.978-1.3 6.852 3.553 9.661 9.031 13.257 2.916 1.913 21.431 12.552 25.301 14.947 2.209 1.368 3.922 2.235 4.391 1.59.541-.741-.96-2.283-2.993-3.479-1.62-.95-18.853-10.943-26.052-15.49-5.154-3.256-7.924-6.745-6.686-11.324 1.696-.497 6.886-.539 12.278-.497 36.725.3 66.173 21.353 69.465 24.731 1.671 1.71 3.991 3.178 4.892 2.484.571-.441-.412-2.375-1.197-3.277zm-128.055-14.503c-.984-1.653-5.653-5.916-8.182-6.751 5.885-4.368 19.562-10.627 24.751-11.719.897 1.491 3.291 7.847 4.091 10.526-4.59.991-16.767 5.363-20.66 7.944zm40.124-11.817c-4.79.298-13.475 2.186-16.569 3.081-.798-2.086-2.993-8.543-3.694-10.628 8.819-2.504 19.064-3.375 26.949-2.681-2.194 1.687-5.888 8.343-6.686 10.228zm23.856-.295c-7.969-.567-14.476-.796-20.164-.2 1.646-4.15 4.939-8.031 7.486-9.733 5.429.221 11.032 1.012 15.473 1.888 14.202 2.804 36.294 11.464 45.81 24.232-12.683-8.466-33.761-15.131-48.605-16.187z"/><path clip-path="url(#d)" d="M283.446 255.188c1.36-2.5 2.464-3.922 1.3-4.565-1.064-.592-2.1 1.723-3.393 3.969-4.29 7.449-8.98 13.599-19.564 23.238-11.725 10.682-25.202 16.886-29.891 18.473-3.993-11.219-19.213-59.015-19.612-60.38-.601-2.036-1.108-2.627-1.8-2.382-.771.274-.295 1.389.102 3.178.398 1.785 18.513 58.343 19.112 60.328-3.595 1.79-18.193 5.871-28.392 6.208-9.085.3-19.765 0-25.151-1.24-6.321-5.099-20.693-25.393-26.148-36.197-6.427-12.729-10.687-24.442-11.783-29.408-.528-2.379-1.199-4.091-2.394-3.864-1.289.25-.551 2.127.199 4.667 1.933 6.551 5.085 15.821 11.782 29.049 7.092 14.006 19.758 30.433 23.449 34.91-11.571-2.43-25.634-7.847-38.999-17.81-11.513-8.586-21.401-19.509-26.375-27.477-.853-1.368-1.854-3.3-3.094-2.481-.557.362.133 1.918.998 3.475 7.218 12.975 24.838 31.337 47.411 41.412 26.306 11.742 54.992 11.122 80.643 1.19 22.437-8.687 41.961-26.559 51.6-44.293"/><path clip-path="url(#d)" fill="none" stroke="#FDB927" stroke-width=".212" d="M283.446 255.188c1.36-2.5 2.464-3.922 1.3-4.565-1.064-.592-2.1 1.723-3.393 3.969-4.29 7.449-8.98 13.599-19.564 23.238-11.725 10.682-25.202 16.886-29.891 18.473-3.993-11.219-19.213-59.015-19.612-60.38-.601-2.036-1.108-2.627-1.8-2.382-.771.274-.295 1.389.102 3.178.398 1.785 18.513 58.343 19.112 60.328-3.595 1.79-18.193 5.871-28.392 6.208-9.085.3-19.765 0-25.151-1.24-6.321-5.099-20.693-25.393-26.148-36.197-6.427-12.729-10.687-24.442-11.783-29.408-.528-2.379-1.199-4.091-2.394-3.864-1.289.25-.551 2.127.199 4.667 1.933 6.551 5.085 15.821 11.782 29.049 7.092 14.006 19.758 30.433 23.449 34.91-11.571-2.43-25.634-7.847-38.999-17.81-11.513-8.586-21.401-19.509-26.375-27.477-.853-1.368-1.854-3.3-3.094-2.481-.557.362.133 1.918.998 3.475 7.218 12.975 24.838 31.337 47.411 41.412 26.306 11.742 54.992 11.122 80.643 1.19 22.437-8.687 41.961-26.559 51.6-44.293z"/></g></svg>