<svg version="1.1" id="Layer_1" xmlns="http://www.w3.org/2000/svg" x="0" y="0" viewBox="0 0 648 648" width="400" height="400" xml:space="preserve"><style>.st0{fill:#12173f}.st1{fill:#5d76a9}.st3{fill:#fb2}</style><path class="st0" d="M181.3 581.6c0-6.6-5.4-12.1-12.1-12.1h-22.6V612h9.9v-13.3h9.2c2.9.1 5.3 2.5 5.3 5.4v7.8h9.9v-7.8c0-3.5-1.2-6.7-3.1-9.2 2.2-2.2 3.5-5.3 3.5-8.6v-4.7zm-12.1-2.2c1.2 0 2.2 1 2.2 2.2v4.8c0 1.4-1.1 2.5-2.5 2.5h-12.4v-9.4h12.7zM404.1 612h-35.2v-42.5h9.9v32.6h25.3zM502.1 579.4v-9.9h-35.2V612h35.2v-9.9h-25.3v-6.9h21.8v-9.9h-21.8v-5.9zM279.5 612h-38.2l21.9-32.6h-19.5v-9.9h38.1l-21.9 32.6h19.6zM340.9 612h-38.2l21.9-32.6h-19.5v-9.9h38.1l-21.9 32.6h19.6zM428.8 569.5h9.9V612h-9.9zM207.6 569.5h9.9V612h-9.9z"/><path class="st0" d="M207.6 569.5h9.9V612h-9.9zM375.8 476.4h-36.2v77.8h17.9v-25h18.3c12 0 21.8-9.8 21.8-21.8v-9.2c0-12-9.8-21.8-21.8-21.8zm3.9 31c0 2.2-1.8 3.9-3.9 3.9h-18.3v-17h18.3c2.2 0 3.9 1.8 3.9 3.9v9.2z"/><path class="st1" d="M349.3 554.2h-1.5v-69.6h28c7.5 0 13.6 6.1 13.6 13.6v9.2c0 7.5-6.1 13.6-13.6 13.6h-26.5v33.2zm0-34.7h26.5c6.7 0 12.1-5.4 12.1-12.1v-9.2c0-6.7-5.4-12.1-12.1-12.1h-26.5v33.4z"/><path class="st0" d="M237.4 494.3v-17.9h-59v77.8h58.9v-17.8h-41v-12.1H231v-17.9h-34.7v-12.1z"/><path class="st1" d="M237.4 486.1v-1.5h-50.8V546h50.7v-1.4h-49.2v-28.5H231v-1.5h-42.9v-28.5z"/><path class="st0" d="M308.3 476.5h-61.7v77.7h17.9v-59.8h14.9v59.9h17.9v-59.9h11c2.2 0 3.9 1.8 3.9 3.9v55.9h17.9v-55.9c0-12-9.8-21.8-21.8-21.8"/><path class="st1" d="M308.3 484.7h-53.5v69.5h1.5v-68h31.3v68.1h1.5v-68.1h19.2c6.7 0 12.1 5.4 12.1 12.1v55.9h1.5v-55.9c0-7.5-6.1-13.6-13.6-13.6"/><path class="st0" d="M147 476.5H85.3v77.7h17.9v-59.8h14.9v59.9H136v-59.9h11c2.2 0 3.9 1.8 3.9 3.9v55.9h17.9v-55.9c0-12-9.8-21.8-21.8-21.8"/><path class="st1" d="M147 484.7H93.5v69.5H95v-68h31.3v68.1h1.5v-68.1H147c6.7 0 12.1 5.4 12.1 12.1v55.9h1.5v-55.9c0-7.5-6.1-13.6-13.6-13.6"/><path class="st0" d="M475.5 476.4h17.9v77.8h-17.9z"/><path class="st1" d="M483.7 476.4h1.5v77.8h-1.5z"/><path class="st0" d="M446.1 476.4v30h-22.3v-30H406v77.8h17.8v-29.9h22.3v29.9h17.8v-77.8z"/><path class="st1" d="M454.2 476.4v38.2h-38.6v-38.2h-1.4v77.8h1.4v-38.1h38.6v38.1h1.5v-77.8z"/><path class="st0" d="M120 612H97.4c-6.6 0-12.1-5.4-12.1-12.1v-18.3c0-6.6 5.4-12.1 12.1-12.1h10.5c6.6 0 12.1 5.4 12.1 12.1v2h-9.9v-2c0-1.2-1-2.2-2.2-2.2H97.4c-1.2 0-2.2 1-2.2 2.2v18.3c0 1.2 1 2.2 2.2 2.2h12.7v-3.9h-5.9v-9.9H120V612z"/><path class="st0" d="M120 612H97.4c-6.6 0-12.1-5.4-12.1-12.1v-18.3c0-6.6 5.4-12.1 12.1-12.1h10.5c6.6 0 12.1 5.4 12.1 12.1v2h-9.9v-2c0-1.2-1-2.2-2.2-2.2H97.4c-1.2 0-2.2 1-2.2 2.2v18.3c0 1.2 1 2.2 2.2 2.2h12.7v-3.9h-5.9v-9.9H120V612zM550.4 612h-10.6c-6.6 0-12.1-5.4-12.1-12.1v-1.5h9.9v1.5c0 1.2 1 2.2 2.2 2.2h10.6c1.2 0 2.2-1 2.2-2.2v-1.8l-18.4-4.9c-3.8-1.2-6.4-4.7-6.4-8.7v-2.6c0-6.8 5.5-12.4 12.4-12.4h10.3c6.6 0 12.1 5.4 12.1 12.1v2h-9.9v-2c0-1.2-1-2.2-2.2-2.2h-10.3c-1.4 0-2.5 1.1-2.5 2.5v2l18.4 4.9c3.8 1.2 6.4 4.7 6.4 8.7v2.4c0 6.7-5.4 12.1-12.1 12.1M540.8 554.1h-36.7v-24.7H522v6.9h18.8c2.3 0 4.1-1.8 4.1-4.1v-3.6l-29.2-9c-6.9-2.1-11.6-8.4-11.6-15.6v-5.6c0-12.1 9.8-22 22-22h36.7v25.7h-17.9v-7.8h-18.8c-2.3 0-4.1 1.8-4.1 4.1v4.5l29.1 8.9c7 2.1 11.7 8.5 11.7 15.8v4.5c-.1 12.2-9.9 22-22 22"/><path class="st1" d="M540.8 545.9h-28.5v-16.6h1.5v15.1h27c6.8 0 12.3-5.5 12.3-12.3v-4.5c0-3-2-5.7-4.9-6.6l-30.1-9.3c-3.5-1.1-5.8-4.2-5.8-7.8v-5.6c0-7.6 6.2-13.8 13.8-13.8h28.5V502H553v-16h-27c-6.8 0-12.3 5.5-12.3 12.3v5.6c0 3 1.9 5.5 4.7 6.4l30.1 9.3c3.5 1.1 5.9 4.3 5.9 8v4.5c.1 7.7-6 13.8-13.6 13.8"/><path d="M512.9 131.7c5.4-10.1 7.9-20.3 7.9-30 0-22.2-12.4-42-29.7-53.8-24.2-16.4-60.4-18.7-86.1 12-37.4-5.1-68.9 5.2-80.8 10.1-11.9-4.9-43.3-15.2-80.8-10.1-25.7-30.7-62-28.4-86.1-12-17.4 11.8-29.7 31.6-29.7 53.8 0 9.7 2.6 19.9 7.9 30-19.4 27.9-32.8 61.1-32.8 94.8 0 40.6 17.4 61.6 23.9 70.6l5.2-5.2c18.4 46.8 49.8 72 87.8 94.9 0 0 .8-4.6 1.6-8.8 40.9 35.4 60.4 26.7 102.9 74.8 42.4-47.9 62.4-39.7 102.9-74.8.8 4.1 1.6 8.8 1.6 8.8 16.9-10.2 64.6-35.8 87.8-94.9l5.2 5.2c4-5.5 23.9-27.7 23.9-70.6.2-33.7-13.2-66.8-32.6-94.8" fill="#707271"/><path class="st0" d="M501.2 132.3c39-59.9-49.5-122.2-92.3-61.9-43.3-7.7-79.8 8.1-84.7 10.4-4.9-2.3-41.4-18.1-84.7-10.4-42.9-60.3-131.3 2-92.3 61.9-44.4 61-40 121.2-19.4 149.5l8.5-8.5s12.1 58.8 76.1 97.5l2.3-12.7c39.4 42.1 75.4 41.1 109.4 79.6 34-38.4 70-37.5 109.4-79.6l2.3 12.7c64-38.6 76.1-97.5 76.1-97.5l8.5 8.5c20.9-28.4 25.3-88.4-19.2-149.5"/><path class="st1" d="M324.6 356.2s-30.7.5-35.3 3.3c0 0-5.3 9.1 35.3 9 38.6-.2 32.9-7.2 33.2-8.3 0 0-13-4-33.2-4M298 320.5s4.8-13.9 9.9-9.5c7.1 6.1 16.3 18.5 16.3 19.8v16.5l-11.2.6c-6.4.2-27.2 5.1-27.2 5.1-28.6-70.8-12.7-124.3-5.1-143.5-28.3 6.1-32.9-27.9-32.9-27.9 2.9-.6 7.3.7 12.2 3 7.6 3.6 16.5 9.8 23.6 15.3 2.1 1.6 4 3.2 5.8 4.7 19.3 16.2 34.9 12.9 34.9 12.9v69.3c-.1.1-56.3-4.3-26.3 33.7M350.7 320.5c35.8-36.3-22.6-34.2-26.3-33.6 6 .3 51.2.6 26.3 33.6"/><path class="st1" d="M374.4 210.7c32.2 86.7-8.6 142.5-8.9 142.8 25.3-66.4 9.1-121.5-2-142-5.7.6-12.5.2-12.5.2s8.6-5.3 14.1-10.3c.4-.4.8-.7 1.3-1.2 4.6-4.1 13.4-11.3 24.1-15.4 3.9-1.5 8.1-2.6 12.3-3.1 0 0-3 28.6-28.4 29"/><path class="st1" d="M425.4 98.5s13.1-32.8 53.4-24.9c0 0-37-24.3-62.7 19.6 0 0-36.9-17.3-91.9 6.5 0 0-51.7-18.2-91-7.9 0 0-22.9-39.8-55.2-23.4-32.3 16.4-15.4 54.2-9.8 64.1 0 0-53.5 54.5-33.4 121.8l10.8-13.4s15.4 73.4 55 96.5l2.4-18s41.4 49.9 90 71.1c4.6 2.2 30.4 15 31.2 21.3v-34.9s-33.7 2.8-42.7-12.8c-6.1-10.6-44.9-79.8-25.7-152.3 0 0-18.7-2.8-22.2-34.3 0 0-13.9-6.8-31.2-5.4 0 0 30.9-9.7 59.9 1.5s36.8 39.8 56.4 27.2l5.4-80.5 5.9 80.5c19.6 12.6 27.4-15.9 56.4-27.2 29-11.2 60-1.5 60-1.5s-12.4-8.7-32.3-12.7c-16.6-3.3-41 7.3-41 7.3s3.4-22.8 14.5-35c9.6-10.5 31.2-12.8 37.8-33.2zm-250.2 27.7c-1.2-11 12.7-21.8 12.7-21.8-5.7-5.9-15.7-.8-15.7-.8 9-17.7 29.3-9 29.3-9-7.7-9.4-23.9-8.8-23.9-8.8 20.1-20 44.4 10.5 44.4 10.5-21.6 4.9-46.8 29.9-46.8 29.9z"/><path class="st3" d="M283.6 200c-3.1-1-8.2 2.2-11.1 7.8-9.6-2.8-12.9-13.2-12.5-23.1 7.6 3.6 16.5 9.8 23.6 15.3M378 207.8c-3-5.9-8.5-9.1-11.6-7.6 4.6-4.1 13.4-11.3 24.1-15.4.4 9.9-2.9 20.3-12.5 23"/></svg>