<svg version="1.1" id="Layer_1" xmlns="http://www.w3.org/2000/svg" x="0" y="0" viewBox="0 0 400 400" xml:space="preserve"><style>.st0{fill:#a0a1a2}.st2{fill:#276092}.st3{fill:#77bc1f}.st4{fill:#fff}</style><path class="st0" d="M354.5 152l-1.6-4.8C330.5 82.5 269.4 39 200.9 39c-17.9 0-35.7 3-52.8 8.9C64.3 77.1 19.7 169 48.8 252.8 71.3 317.5 132.4 361 200.9 361c17.9 0 35.7-3 52.8-8.9 82.2-28.6 126.6-117.6 100.8-200.1"/><path d="M200.9 355.3c-66 0-125-42-146.7-104.4C26.1 170.1 69.1 81.4 150 53.3c16.5-5.7 33.6-8.6 50.9-8.6 66.1 0 125 41.9 146.7 104.4l.7 2.1c26.6 80.3-16.3 167.7-96.5 195.5-16.5 5.7-33.6 8.6-50.9 8.6" fill="#0d2240"/><path class="st2" d="M217 130.3c-.9-.1-1.8-.1-2.9-.2-5.7-.4-14.7-1.1-25.5-4.8-2.2 2.4-4 5-5.4 7.2 2.8 2.9 8.1 8.4 10.7 11.4 4.5 2.7 9.1 5.7 13.6 8.9 7.2-8.1 13.6-14.7 19.9-21.3-3.1-.4-6.2-.8-9.5-1.1l-.9-.1zM149.6 157c-12 16.8-20.5 38.8-21.3 65.1 12.8-14.1 23.3-27.1 30.5-34 5-4.8 10-8.1 14.6-10.3-4.8-11-11.1-20-19.6-24.2-1.6 1.1-3 2.3-4.2 3.4M183.6 116.1c7.1-2.9 14.8-5.9 22.3-8.3 9.4-3.4 17.8-5.3 24.3-6.3-.2 0-.3-.1-.5-.2-4.6-1.3-9.3-2.4-13.9-3-12.7-1.9-25.4-1.3-37.5 1.4-.7 2.2-1.6 6.6-.1 10.6 1 2.3 2.8 4.2 5.4 5.8M168.8 145c-2.8 1.3-5.9 2.9-8.9 4.6 8.4 5.5 14.6 14.8 19.3 25.7 6.7-2.3 11.3-2.4 11.3-2.4 4.5-5.7 8.6-10.7 12.5-15.2-4.5-3.1-9-6.1-13.5-8.7-4.9-1.8-16.6-3.5-20.7-4"/><path class="st2" d="M194.2 120.2c8.4 2.5 15.3 3 20.3 3.3 1.2.1 2.2.2 3.1.2l.7.1c3.2.3 7.8.8 13.1 1.7 4-4.9 8.7-7.9 12-8.6 3.8 1.4 5.7 3.6 7.1 6.8 5.3 2.2 8.8 6.1 11.1 10.7 12.2 5.3 24.4 13.1 33.8 24.8-9.8-22.7-27.6-41.7-51.1-52.5v.1c-.3 0-21.9-.5-48.7 12.5-.5.3-1 .6-1.4.9"/><path class="st2" d="M303.4 191.5c-2.6-12.2-11.3-34.7-39-48.9 3.1 14-.4 29.9-.4 29.9s7.6 4.4 9.5 12.8c0 0 1 .4 1.8 1.7 2.1 2.6 4.8 8.6.5 20.4 0 0-2.6-5.5-8.1.4-.5.7-.9 1.3-1.4 2 10.4 14.3 18.4 29.3 22.4 43.9 4.6-7.6 8.4-15.9 11-24.9 3.6-12.5 4.7-25.1 3.7-37.3M121.5 229.4c-.3-14.8 1.6-29 5.9-42.6 3.6-11.4 8.5-21 13.7-29.1.8-1.6 2.1-4 3.7-6.8-19.8-2.1-37.8 19-44.7 28.5-4.6 22.2-1.5 44.5 7.5 63.9 4.8-4.5 9.5-9.2 13.9-13.9M251.9 254.9c-.2 9.9 4.6 17.4 8.3 29.2 8.9-6.3 16.9-14 23.5-23-3-14.7-10.7-30.3-21.4-45.3-6.7 10.9-10 21.1-10.4 39.1M164.6 124.2c3.3-1.5 7.4-3.3 11.9-5.2-2-1.8-3.5-4-4.4-6.4-1.5-3.9-1.5-7.9-1-11.1-14.7 4.5-28.3 12.2-39.6 22.5h1.6c9.7-.5 23.6-.1 31.5.2"/><path class="st2" d="M148.2 144.9c1.4-2.5 2.8-4.9 4.1-7.1-5.5-3.6-8.9-6.2-18.3-7-3.9-.1-7.1 0-9.4.2-8.5 9.4-15.4 20.5-20.1 33 10.5-11 26.3-22.6 43.7-19.1"/><path class="st3" d="M180.8 122.8l-7.1 10.3s5.4 3.7 9.8 8.8c-7.7-1.6-16.2-3-16.2-3l-13.5 7.3 6.3-10.5s-4.2-3.6-9.1-6.8c5.4.2 15.6 1 15.6 1l14.2-7.1z"/><g><path class="st3" d="M186.5 184.5s-1.9 5.2-2.1 10c0 0-11.7 1.7-17.4 5.6.1-.1 11.8-11.8 19.5-15.6"/><path class="st4" d="M265.5 183.9c1.3-.3 2.3-.4 3-.3-.2-.6-.6-1.5-1.3-2.4-1-1.3-2.5-2.2-2.5-2.2.9 1.5.9 3.6.8 4.9M254.9 189.3c1.5-1 2.9-1.9 4.1-2.6-.2-.5-.6-1.3-1.1-2.3-1-1.8-3.6-3.4-3.6-3.4 1.1 3.2.9 6.5.6 8.3"/><path class="st0" d="M129.2 268.4c-10 4.1-33.5-1.5-33.5-1.5 23.8-1.4 47.1-18.4 47.1-18.4s0 .1-.1.1c-7 10.7-16.6 16.9-16.6 16.9 1.1 1.3 2.2 2.2 3.1 2.9"/><path class="st3" d="M248 126.3s-5.9-4.6-12.5 2.5c7.1-13 11.2-5.5 12.5-2.5"/><path class="st0" d="M271.1 189.1s-.6-.4-.7-.5c-3.7-2-10.4 3.8-14.7 6.2-4.3 2.4-10.7 7.5-13.7.5-3.1-7 4-18 6.5-24.9 5.4-15.3 5.6-24.2 4.5-29.1 5 5.7 6.6 16.5 6.6 16.5s1.9-20.4-8.1-25.7c.2.7 0 3.3-.2 5.3-4.6.8-14.9-.3-18.2-2.1-12.6 13.5-26.3 32.3-36.6 49.5-4.5 9.1-8.9 19.8-10 28.5 0 0-1.4-3.9-1.8-9.2-5.7 2.2-25.1 11.7-29.3 41 0 0 12.3-12.7 26-17.7 0 0-8.6 22.6 7.9 62.7 0 0 6.7-24.6 20.6-30.8 8.5 42 33.3 42.7 40.5 71.3 0 0 7.6-14.8-1.5-40 0 0 3.1.9 5.8 4 0 0-.4-7.4-7.3-23.2-4.5-8.5-5.9-20-5.9-20-4 3.6-5.1 16-5.1 16-12.3-33.4 22.6-66.5 29-71.4 3.1-2.4 5-2.4 6.2-1.9 1.1-2.3 1-3.9-.5-5"/></g><g><path class="st0" d="M293.2 130c-18.7-24.7-45.9-40.6-76.5-44.9-5.3-.7-10.7-1.1-16-1.1C143.2 84 93.9 127 86 184.1c-3.3 23.7.8 47.3 11.4 68.2 1.3-1.1 2.6-2.2 4-3.4-9.7-19.7-13.4-41.8-10.3-64.1 7.5-54.6 54.7-95.7 109.7-95.7 5.1 0 10.2.4 15.3 1.1 29.3 4 55.3 19.3 73.2 42.9 17.9 23.6 25.5 52.8 21.5 82.1-4.5 32.3-22.8 59.9-48.5 77.1.3 1.7.7 3.5.9 5.4 27.8-17.8 47.8-47.2 52.6-81.8 4.1-30.7-3.8-61.2-22.6-85.9"/><path class="st4" d="M127.6 76.1c-5.6 0-10.1 4.5-10.1 10.1s4.5 10.1 10.1 10.1 10.1-4.5 10.1-10.1-4.5-10.1-10.1-10.1m0 15.7c-3 0-5.5-2.5-5.5-5.5s2.5-5.5 5.5-5.5 5.5 2.5 5.5 5.5-2.5 5.5-5.5 5.5M104.9 101.4l-2.4 1.3c-.9.5-1.4.5-1.9.1-.6-.5-.5-1.3.3-2.1.9-.9 1.8-1.4 3-1.5h.4l-.3-4.5h-.4c-2.2.1-4.3 1.1-6.2 3.2-1.2 1.3-1.9 2.8-2.1 4.3-.2 1.8.5 3.4 1.9 4.6 2.1 2 4.7 2.1 7.7.4l2.1-1.2c1.1-.6 1.8-.9 2.4-.3.7.6.5 1.5-.5 2.7-1.4 1.5-2.9 1.6-4 1.6h-.4l-.5 4.9h.4c1.6.1 4.8-.3 7.9-3.6l.1-.1c1.5-1.7 2.4-3.4 2.5-5.1.1-1.7-.6-3.2-2.1-4.6-2.1-2-4.5-2-7.9-.1"/><path transform="rotate(-1.356 65.22 203.475) scale(.99998)" class="st4" d="M55.4 201.3h19.7v4.4H55.4z"/><path class="st4" d="M93.1 135.1l7.5-11.2-3.7-2.4-5 7.4-2.7-1.8 4.3-6.4-3.7-2.4-4.3 6.4-2.7-1.8 5-7.5-3.6-2.4-7.4 11.1zM157.7 81.9L152 67.7l5.1-2.1-1.7-4-14.2 5.8 1.6 4 5.1-2.1 5.7 14.3zM76.8 146.4l-13.9 6.4-.2.6 18.4 7.5 1.6-4-9.5-3.9 13.9-6.4.3-.7-18.4-7.5-1.7 4.1zM67.8 175.9l-12.1 9.3-.1.8 19.6 3 .7-4.3-10.2-1.6 12.1-9.4.1-.7-19.6-3.1-.7 4.4z"/><path transform="rotate(-73.49 240.085 70.658)" class="st4" d="M230.3 68.4H250v4.4h-19.7z"/><path class="st4" d="M343.2 230l1-4.3-19.2-4.5-2.9 12.8 4.3 1 2-8.4zM336.3 190.6c-5.6 0-10.1 4.5-10.1 10.1s4.5 10.1 10.1 10.1 10.1-4.5 10.1-10.1c0-5.5-4.5-10.1-10.1-10.1m0 15.7c-3 0-5.5-2.5-5.5-5.5s2.5-5.5 5.5-5.5 5.5 2.5 5.5 5.5-2.4 5.5-5.5 5.5M296.4 118.6l8.3 10.5 3.5-2.7-5.6-7.1 2.6-2 4.8 6.1 3.4-2.8-4.8-6 2.6-2 5.5 7 3.4-2.7-8.3-10.5zM310 262.5l-7.1 11.3 3.7 2.3 4.8-7.5 2.8 1.7-4.2 6.6 3.8 2.3 4.1-6.5 2.7 1.7-4.8 7.6 3.7 2.3 7.2-11.3zM220.3 76.1l2-15.2 5.4.7.6-4.3-15.2-2-.6 4.3 5.4.7-2 15.2zM326.8 250.9l10.7-.5 1.8-4.5-21.8.9-.2.6 15.1 15.8 1.8-4.5zM264 80.6l-3.5-13.2v-.1l-.6-.3-9.2 17.6 3.9 2.1 4.2-8.2 2 7.6.5.2 7.4-2.6-4.3 8.1 3.9 2 9.2-17.6-.5-.3zM68.5 229l-8 11.1-.1.1.1.6 19.5-4.1-.9-4.3-9 1.9 4.5-6.3-.1-.6-6.7-3.9 9-1.9-.9-4.3-19.5 4.1.2.6zM334.2 174.1l8.3-6.9-.2-.7-10.6-2.5 8.5-5.6-1.1-4.5-17.6 11.7.2.6 11.8 2.8-9.3 7.8.2.7 21 2.4-1.1-4.6zM321.6 145.1c1.7 1.8 4.5 2 6.9.8 3.7-1.8 4.8-5.5 2.8-9.6l-3.3-6.6-17.7 8.7 2 4 8.2-4-5.6 9.3 2.3 4.7c.1 0 4.1-6.8 4.4-7.3m.8-4.5l-1.2-2.5 4.9-2.4 1.2 2.5c.9 1.8.5 3.1-1.1 3.9-1.6.7-2.9.3-3.8-1.5M294.5 101.6c1.1-.3 2.1-.9 2.9-1.9 1.2-1.4 1.7-3.2 1.4-4.9-.3-1.4-1-2.7-2.3-3.8l-2.5-2.1-3.3-2.9-2.9 3.3-2 2.3-.2.2-2.7 3.1-.2.2-2.2 2.5-2.9 3.3 3.3 2.9 2.9 2.5c1.3 1.1 2.7 1.7 4.3 1.7 1.8.1 3.6-.7 4.8-2.1 1.2-1.2 1.7-2.7 1.6-4.3m-3.3-9.4l2.5 2.1c1 .9 1.2 1.7.5 2.6-.9 1-2 .4-2.7-.2l-2.3-2 2-2.5zm-4.3 10.8l-2.9-2.5 2.3-2.7 2.7 2.4c1.1 1 1.4 2.1.7 2.9-.7.7-1.9.7-2.8-.1M291.5 286.6c.8-.8 1.8-1.5 2.9-2.1 2.2-1 5.3-1.1 5.7-1.1v4.5c-.9 0-2.8.2-3.7.6-1.4.7-2.4 1.7-2.6 2.7-.2.7.1 1.2.4 1.5.3.3.7.4 1.2.2.4-.1 1.1-.5 1.8-.8 1.6-.8 3.4-1.7 5-1.8 1.7-.2 3.2.3 4.4 1.5 1.4 1.3 1.9 3.2 1.8 4.5-.1 1.4-.7 3.9-4 5.9-1.9 1.2-4.6 1.5-4.9 1.6l-.6-4.4c.8-.1 2.2-.5 3.1-.9 2.3-1.1 2.4-3.7.5-3.6-.8 0-2.4.9-3.5 1.4-.9.5-1.7.8-2.4 1.1-2.1.7-4.2.2-5.7-1.2-1.6-1.5-2.2-3.8-1.6-5.9.4-1.5 1.1-2.7 2.2-3.7M176.7 67.1l6 8.8 4.8-.8L175.3 57l-.6.2-5.5 21.1 4.8-.9z"/></g></svg>