<svg xmlns="http://www.w3.org/2000/svg" width="400" height="400"><path fill="#B4975A" d="M363.494 172.653l.996.403V154.48c0-2.917-.506-5.824-1.503-8.647a29.7 29.7 0 0 0-4.319-7.996 32.505 32.505 0 0 0-5.827-5.928 31.937 31.937 0 0 0-6.263-3.849c-1.442-.94-4.272-2.303-11.898-5.327-6.461-2.563-16.988-6.464-30.465-10.481-12.371-3.692-28.249-7.754-45.901-10.723-.001-.004-.001-.007-.004-.01-.117-.15-11.957-14.96-29.805-7.313-.605.261-1.197.547-1.791.841-2.669 1.305-4.977 2.434-9.5 1.222-2.671-.716-6.06-2.355-4.663-8.319.312-1.335 1.355-3.111 2.986-4.063 1.128-.658 2.355-.803 3.652-.425 2.396.697 3.392 1.991 3.047 3.951-.134.757-.702 1.484-1.377 1.768-.716.302-1.538.136-2.451-.488a1.879 1.879 0 1 0-2.119 3.104c1.979 1.348 4.119 1.65 6.027.849 1.843-.777 3.264-2.573 3.62-4.577.26-1.463.614-6.378-5.694-8.219-2.287-.664-4.575-.395-6.6.791-2.283 1.332-4.147 3.864-4.753 6.451-.019.074-.026.144-.043.215a20.475 20.475 0 0 0-1.902-2.272l-6.164-6.264-6.17 6.267a20.786 20.786 0 0 0-1.893 2.27c-.017-.071-.025-.14-.043-.215-.604-2.587-2.472-5.12-4.754-6.451-2.022-1.183-4.306-1.458-6.599-.791-6.311 1.84-5.955 6.755-5.695 8.22.354 2.002 1.776 3.798 3.621 4.576 1.907.802 4.047.501 6.028-.849a1.88 1.88 0 0 0-2.121-3.104c-.915.622-1.738.787-2.449.488-.677-.284-1.244-1.011-1.378-1.765-.346-1.963.65-3.257 3.045-3.954 1.292-.378 2.523-.233 3.652.425 1.631.952 2.676 2.728 2.988 4.063 1.393 5.964-1.994 7.603-4.666 8.319-4.53 1.209-6.831.083-9.498-1.222a41.448 41.448 0 0 0-1.792-.841c-17.844-7.645-29.69 7.163-29.806 7.313-.026.034-.042.073-.066.107-16.975 2.887-32.262 6.75-44.253 10.27-23.008 6.75-41.513 15.172-42.29 15.529l-2.436 1.114.003.416a12.418 12.418 0 0 0-3.239 1.02 355.948 355.948 0 0 0-11.636 5.666l-2.873 1.471v10.118c0 2.434.481 4.433 1.45 6.08.192.338.405.66.632.967v11.173c-1.281 2.457-1.955 5.021-1.955 7.482 0 2.446.685 4.623 1.955 6.323v23.312l.246.678c.187.525 3.896 10.439 14.929 14.465l-.314.15s5.83 9.455 14.887 11.414l-1.732.717s6.382 10.32 18.765 12.504l-1.826.893s7.98 8.598 20.392 10.189c13.146 40.975 51.604 70.723 96.889 70.723 45.287 0 83.738-29.748 96.886-70.723 12.411-1.592 20.393-10.189 20.393-10.189l-1.825-.893c12.384-2.184 18.763-12.504 18.763-12.504l-1.729-.717c9.057-1.959 14.885-11.414 14.885-11.414l.585-.773c10.325-4.406 16.361-14.494 16.361-24.012v-11.903c.004-2.897-.674-5.843-1.603-8.52M251.89 100.511c-7.307-1.085-14.861-1.964-22.576-2.533.223-.106.445-.218.673-.316 10.048-4.31 17.738-.412 21.903 2.849m-80.312-2.849c.236.101.468.22.7.33-7.746.59-15.328 1.502-22.655 2.605 4.176-3.255 11.947-7.224 21.955-2.935"/><path fill="#002B5C" d="M354.908 164.723l5.439 2.197v-12.44c0-2.453-.425-4.892-1.263-7.265a25.528 25.528 0 0 0-3.719-6.875 28.469 28.469 0 0 0-5.085-5.174 27.75 27.75 0 0 0-5.743-3.485c-1.07-.773-3.895-2.127-11.388-5.098-6.382-2.534-16.79-6.388-30.117-10.363-21.957-6.549-55.006-14.295-89.442-14.787-.812-2.388-2.775-4.175-5.369-4.779-.309-4.51-3.551-8.027-4.229-8.712l-3.214-3.266-3.214 3.266c-.673.685-3.917 4.202-4.222 8.712-2.588.601-4.547 2.378-5.364 4.754-33.893.595-66.295 8.128-87.875 14.461-22.987 6.748-41.735 15.323-41.735 15.323l.015 2.529s-.312-.201-.482-.282a4.597 4.597 0 0 0-2.083-.474c-.96 0-2.001.256-3.097.763a355.347 355.347 0 0 0-11.495 5.598l-.618.317v7.586c0 1.673.293 2.988.897 4.013.328.57.725 1.049 1.185 1.435v13.85c-1.264 2.102-1.955 4.364-1.955 6.404 0 2.039.687 3.68 1.955 4.694v24.219s3.628 10.072 15.15 12.75c.269.072.556.125.833.184l.067.016c1.819.402 3.798.596 5.976.438h.005c-2.041.998-4.074 2.02-6.105 3.064.034.123 6.076 10.062 20.662 8.627a345.889 345.889 0 0 0-7.255 3.529c.03.141 7.001 9.91 22.371 9.652-3.545 1.785-5.683 2.928-5.668 2.926.006.057 6.929 6.754 18.569 7.572 12.049 40.232 49.335 69.557 93.489 69.557 44.149 0 81.437-29.324 93.485-69.557 11.64-.818 18.562-7.516 18.568-7.572.015.002-2.122-1.141-5.667-2.926 15.368.258 22.341-9.512 22.371-9.652a345.889 345.889 0 0 0-7.255-3.529c14.588 1.436 20.628-8.504 20.66-8.627a322.27 322.27 0 0 0-6.107-3.064c4.973.365 9.014-1.004 12.125-2.865 7.768-4.209 11.996-12.31 11.996-19.291V181.17c0-7.633-6.052-16.447-6.052-16.447"/><path fill="#E31837" d="M265.744 258.918a624.697 624.697 0 0 1 5.479 4.203c.026-.191-21.701 5.947-37.16-.861-.567-.252-1.107-.535-1.653-.814-3.831 13.875-16.554 24.094-31.628 24.094-15.073 0-27.797-10.219-31.632-24.09-.544.275-1.085.559-1.647.811-15.461 6.809-37.193.67-37.161.861a546.62 546.62 0 0 1 5.482-4.203c-7.554 1.094-14.481-.268-19.323-1.777 13.615 33.16 46.212 56.52 84.283 56.52 38.065 0 70.664-23.359 84.281-56.52-4.844 1.508-11.771 2.87-19.321 1.776"/><path fill="#FFF" d="M191.723 110.872c-1.656-.834-2.923-2.253-3.604-3.992-54.655 1.42-109.098 21.042-108.994 21.762-2.372.893-3.662 2.963-3.662 4.32v1.944c37.64-14.618 76.893-22.33 116.269-23.302l-.009-.732zM325.848 130.02c.124-.776-57.079-21.734-112.407-23.128-.679 1.728-1.938 3.139-3.583 3.97v.758c40.54 1.131 80.961 9.398 119.642 24.683v-1.941c-.001-1.361-1.284-3.436-3.652-4.342"/><path fill="#E31837" d="M206.775 100.972c-3.541-.428-4.126 4.611-4.221 6.316h-1.13c.02-4.811 2.307-6.739 2.307-9.959 0-3.226-2.949-6.221-2.949-6.221s-2.951 2.995-2.951 6.221c0 3.22 2.29 5.149 2.304 9.959h-1.126c-.094-1.705-.681-6.744-4.222-6.316-3.827.461-3.411 5.762 0 6.18 0 0-.645-2.355 1.248-2.355 1.371 0 1.747 1.613 1.849 2.492H196.216v1.843h3.681c-.518 1.774-1.695 2.309-1.695 2.309s.505 1.013 1.61 1.149c0 0 0 1.249.971 2.214.966-.965.966-2.214.966-2.214 1.112-.137 1.615-1.149 1.615-1.149s-1.184-.535-1.7-2.309H205.348v-1.843h-1.666c.1-.878.474-2.492 1.851-2.492 1.887 0 1.244 2.355 1.244 2.355 3.408-.418 3.826-5.719-.002-6.18"/><path fill="#FFF" d="M189.284 137.773v-11.814c0-1.645-.302-3.073-.901-4.286a7.901 7.901 0 0 0-2.467-2.944c-1.041-.757-2.276-1.294-3.697-1.609-1.425-.312-2.955-.419-4.594-.309a17.022 17.022 0 0 0-4.592.918c-1.416.5-2.658 1.203-3.725 2.098a9.487 9.487 0 0 0-2.493 3.278c-.595 1.291-.897 2.755-.897 4.399v11.824c-1.248.313-2.209 1.462-2.209 2.729 0 1.273.962 2.208 2.209 2.271v13.248c0 1.645.302 3.05.897 4.219a7.59 7.59 0 0 0 2.493 2.85c1.067.728 2.309 1.219 3.725 1.495 1.419.279 2.95.36 4.592.252 1.639-.108 3.168-.394 4.594-.857 1.421-.464 2.656-1.123 3.697-1.992a9.258 9.258 0 0 0 2.467-3.175c.6-1.249.901-2.695.901-4.342v-13.233c1.312-.181 2.328-1.273 2.328-2.581s-1.016-2.348-2.328-2.439m-6.53 18.271c0 .869-.157 1.597-.464 2.2a4.866 4.866 0 0 1-1.2 1.493 5.385 5.385 0 0 1-1.635.9 6.773 6.773 0 0 1-3.694.246 4.497 4.497 0 0 1-1.663-.686 3.761 3.761 0 0 1-1.195-1.334c-.312-.555-.468-1.267-.468-2.134v-29.555c0-.864.156-1.603.468-2.21a4.73 4.73 0 0 1 1.195-1.519 5.418 5.418 0 0 1 1.663-.933 7.103 7.103 0 0 1 1.865-.387 6.185 6.185 0 0 1 1.829.142c.6.135 1.144.376 1.635.715.485.343.883.793 1.2 1.361.307.571.464 1.284.464 2.146v29.555zM64.094 169.61c0 .124-.029.16-.096.101a.848.848 0 0 1-.155-.194c-.179-.52-7.95-26.334-8.353-27.5-.418-1.19-.62-1.834-.62-1.917-.12-.379-.311-.631-.555-.747-.251-.13-.624-.076-1.118.153a341.057 341.057 0 0 0-6.963 3.333v2.142c0 .733.097 1.277.304 1.631.204.353.45.588.739.708.283.163.63.231 1.043.2v19.712c-1.12.758-1.965 2.208-1.965 3.45s.845 1.855 1.965 1.534v27.79a426.917 426.917 0 0 1 5.437-2.574v-34.858c0-.256.02-.377.058-.354a.403.403 0 0 1 .128.14c0 .04.203.652.617 1.819.404 1.142 8.003 26.513 8.097 26.719.204.643.426 1.155.655 1.531.229.379.614.45 1.155.225a374.987 374.987 0 0 1 3.641-1.521c.501-.201.879-.52 1.134-.979.252-.445.38-.879.38-1.319v-26.121c1.028-.717 1.783-1.984 1.783-3.142 0-1.163-.755-1.824-1.783-1.714v-19.317c.042-.406.111-.719.217-.932.106-.213.243-.443.41-.685.335-.392.672-.896 1.009-1.502a4.093 4.093 0 0 0 .504-2.016v-1.879a338.024 338.024 0 0 0-7.666 3.203v34.88zM321.957 170.073c0 .135-.035.137-.099.031a2.371 2.371 0 0 1-.156-.318c-.171-.625-.51-1.875-1.016-3.745-.51-1.873-1.095-4.039-1.753-6.498-.658-2.463-1.356-5.041-2.102-7.748-.745-2.7-1.436-5.187-2.072-7.462-.641-2.272-1.178-4.167-1.602-5.698-.427-1.526-.643-2.334-.643-2.419a3.151 3.151 0 0 0-.575-1.199c-.257-.325-.639-.567-1.15-.739a351.89 351.89 0 0 0-7.26-2.316v2.143c0 .733.104 1.359.319 1.876.216.523.474.958.774 1.312.299.394.663.746 1.096 1.049v15.337c-1.17-.146-2.06.614-2.06 1.854 0 1.243.89 2.548 2.06 3.132v22.502c1.886.594 3.771 1.202 5.644 1.827v-30.896c0-.259.024-.359.066-.304.043.058.086.136.128.237 0 .049.212.813.641 2.323.424 1.5.96 3.382 1.604 5.629.635 2.247 1.325 4.692 2.073 7.323.741 2.633 1.445 5.12 2.104 7.45l1.688 5.979c.466 1.665.74 2.615.827 2.863.208.812.438 1.499.664 2.059a1.97 1.97 0 0 0 1.176 1.145c1.229.454 2.453.919 3.678 1.379.503.2.89.173 1.137-.075.256-.251.379-.587.379-1.021V166.25c1.035.096 1.793-.568 1.793-1.729 0-1.158-.758-2.424-1.793-3.131v-14.944c.044-.373.115-.622.228-.756.101-.132.238-.25.407-.362.336-.122.674-.36 1.012-.7.335-.342.507-.881.507-1.617v-1.878a336.365 336.365 0 0 0-7.724-2.893v31.833zM354.169 174.963a30.43 30.43 0 0 0-2.894-5.024 49.452 49.452 0 0 0-3.143-3.958c.053-.179.091-.375.091-.594 0-1.403-1.09-3.046-2.434-3.657-.584-.264-1.114-.276-1.533-.105-.197-.22-.412-.46-.605-.673-1.158-1.323-2.136-2.537-2.925-3.66-.797-1.123-1.19-2.107-1.19-2.979v-10.288c.004-.478.148-.837.438-1.078.293-.239.668-.387 1.128-.449a4.767 4.767 0 0 1 1.433.045c.495.092.972.237 1.425.444.418.187.889.453 1.405.792.513.346.991.735 1.425 1.167.433.44.795.922 1.081 1.441.292.522.435 1.045.435 1.559v2.404c0 1.034.353 2.064 1.054 3.082.699 1.02 1.562 1.772 2.594 2.265.923.441 1.843.888 2.766 1.34v-4.801a13.624 13.624 0 0 0-.798-4.697 15.116 15.116 0 0 0-2.243-4.125 19.36 19.36 0 0 0-3.398-3.421 21.023 21.023 0 0 0-4.255-2.552c-1.531-.687-2.941-1.123-4.237-1.32-1.29-.183-2.42-.082-3.377.315-.961.395-1.718 1.097-2.26 2.108-.548 1.007-.822 2.372-.822 4.105v8.466c0 1.821.39 3.524 1.168 5.118a23.346 23.346 0 0 0 2.92 4.558 62.147 62.147 0 0 0 3.687 4.16 1.93 1.93 0 0 0-.218.941c0 1.403 1.095 3.016 2.442 3.617.75.331 1.411.272 1.855-.082a24.251 24.251 0 0 1 2.663 3.799c.764 1.366 1.139 2.765 1.145 4.192v12.156c-.006.564-.157.994-.464 1.303-.317.312-.715.516-1.21.612-.493.099-1.034.106-1.614.042a5.654 5.654 0 0 1-1.678-.47 9.637 9.637 0 0 1-1.679-1.003 11.35 11.35 0 0 1-1.588-1.414 7.987 7.987 0 0 1-1.189-1.618c-.314-.562-.47-1.127-.47-1.693v-2.786c0-.992-.279-1.875-.842-2.657-.567-.783-1.412-1.411-2.535-1.879-1.01-.418-2.013-.839-3.016-1.247v4.862c0 1.646.303 3.198.911 4.682a15.555 15.555 0 0 0 2.448 4.062 19.109 19.109 0 0 0 3.601 3.313 25.152 25.152 0 0 0 4.358 2.502c1.533.69 2.986 1.156 4.341 1.398 1.366.239 2.558.218 3.588-.092 1.026-.307 1.843-.927 2.465-1.858.611-.931.921-2.214.921-3.857v-11.641c-.001-1.726-.392-3.452-1.171-5.172M135.365 146.963a801.333 801.333 0 0 1-.788 6.757 835.965 835.965 0 0 1-.725 5.913l-.525 4.183c-.13 1.064-.223 1.598-.264 1.61-.522-3.05-.999-5.787-1.412-8.209-.415-2.425-.873-5.127-1.374-8.113a674.392 674.392 0 0 0-1.55-8.818c-.521-2.896-1.015-5.574-1.47-8.053-.463-2.464-.861-4.42-1.215-5.859-.087-.452-.49-.76-1.208-.899a5.178 5.178 0 0 0-2.191.041c-.654.148-1.341.429-2.06.832-.721.411-1.146.913-1.271 1.503-.352 1.512-.753 3.603-1.211 6.288-.455 2.682-.944 5.588-1.47 8.719a863.453 863.453 0 0 0-1.524 9.554c-.506 3.238-.955 6.172-1.369 8.805-.409 2.63-.881 5.617-1.397 8.949-.042.014-.14-.479-.294-1.475-.151-1-.32-2.312-.521-3.951a1782.75 1782.75 0 0 0-.678-5.588c-.264-2.094-.521-4.221-.782-6.399-.611-5.114-2.711-23.517-2.711-23.512a342.812 342.812 0 0 0-7.9 2.293v1.943c0 .736.153 1.296.449 1.682.299.382.624.634.971.742.21.113.408.25.578.411.171.169.304.411.39.735.62 5.213 1.193 10.017 1.725 14.456-.92.641-1.565 1.74-1.565 2.802 0 1.267.924 2.037 2.135 1.88l.03.275c.301 2.466.592 4.864.876 7.203.275 2.345.536 4.437.774 6.297.236 1.856.431 3.37.582 4.532.152 1.168.231 1.8.231 1.882.042.334.181.634.417.889.238.258.575.332 1.005.21a360.955 360.955 0 0 1 7.347-1.931c.475-.121.848-.342 1.105-.668.261-.324.499-.795.719-1.408 1.85-10.975 3.701-21.937 5.548-32.881 1.811 10.108 3.619 20.231 5.436 30.371.218.517.456.873.721 1.082.261.2.634.255 1.117.155 2.449-.506 4.903-.981 7.361-1.431a1.5 1.5 0 0 0 1.018-.674c.241-.368.386-.73.431-1.083 0-.091.078-.751.236-1.99.146-1.236.343-2.835.589-4.804.238-1.965.502-4.183.792-6.652.281-2.465.582-5.002.888-7.611.01-.093.022-.194.035-.285 1.226-.415 2.164-1.604 2.164-2.869 0-1.051-.655-1.849-1.592-2.073.545-4.678 1.131-9.756 1.77-15.261.083-.361.217-.663.392-.911.179-.239.375-.469.599-.679.35-.27.682-.671.988-1.193.305-.527.464-1.155.464-1.89v-1.946a329.72 329.72 0 0 0-8.038 1.381c-.002.001-2.164 19.351-2.778 24.741M297.68 153.755c0-1.262-.921-2.567-2.128-3.101-.302-1.797-.609-3.592-.904-5.341-.41-2.449-.776-4.658-1.101-6.625-.329-1.965-.597-3.584-.81-4.857-.217-1.27-.331-1.988-.331-2.161-.085-.803-.43-1.576-1.035-2.317-.602-.747-1.406-1.253-2.403-1.514a324.128 324.128 0 0 0-8.734-2.147v1.489c0 1.853.545 3.126 1.633 3.815.218.137.328.346.328.628 0 .284-.02.59-.069.931 0 .042-.095.556-.292 1.548-.192.988-.46 2.287-.784 3.895a465.211 465.211 0 0 0-1.076 5.484c-.191.992-.392 1.992-.586 3.004-1.391-.296-2.521.576-2.521 1.963 0 1.062.661 2.113 1.588 2.704a8327.87 8327.87 0 0 0-4.215 21.67c2.081.445 4.161.91 6.235 1.396 0 0 1.806-10.503 1.849-10.706.088-.844.478-1.18 1.177-1.013 2.478.607 4.954 1.233 7.417 1.894.392.098.715.272.976.515.261.247.429.637.514 1.176 0 .215 1.456 11.541 1.456 11.541 2.18.619 4.354 1.254 6.524 1.918.002 0-2.677-16.018-4.008-23.956.773-.217 1.3-.881 1.3-1.833m-6.567 4.981c-.174.172-.416.212-.712.135a315.158 315.158 0 0 0-6.119-1.561 1.089 1.089 0 0 1-.651-.451 1.046 1.046 0 0 1-.198-.792c0-.043.053-.395.162-1.057.105-.666.25-1.517.423-2.56.173-1.036.371-2.209.589-3.52.221-1.304.457-2.638.718-3.999.647-3.598 1.297-7.194 1.952-10.792.046.011.092.027.133.035.649 3.927 1.301 7.855 1.948 11.788.261 1.49.501 2.946.718 4.366.222 1.415.406 2.686.586 3.812.166 1.128.326 2.053.452 2.786.132.721.195 1.104.195 1.146.044.28-.022.495-.196.664M218.412 160.498c-.215-.141-.408-.266-.563-.386-.156-.112-.234-.388-.234-.82V148.21c0-1.597-.241-3.062-.731-4.377-.489-1.322-1.243-2.365-2.265-3.145-.485-.492-.535-.927-.134-1.299.931-.696 1.686-1.602 2.268-2.727.577-1.118.862-2.366.862-3.749v-5.123c0-1.597-.2-3.063-.598-4.404-.401-1.333-1.032-2.497-1.897-3.481s-1.965-1.771-3.304-2.358c-1.336-.582-2.952-.894-4.865-.932-4.577-.077-9.156-.07-13.73.03v1.883c0 .905.16 1.591.498 2.062.329.465.673.809 1.031 1.014.178.087.334.226.469.416.134.192.199.462.199.811v14.825c-1.18.263-2.067 1.302-2.067 2.521 0 1.22.888 2.216 2.067 2.441v22.463c2.182-.021 4.355-.021 6.533-.004v-21.35c0-.607.29-.91.869-.91 1.374.013 2.753.028 4.131.056 1.429.024 2.456.473 3.102 1.33.645.859.966 2.049.966 3.558v14.262c0 .951.276 1.724.84 2.327.554.598 1.402.917 2.559.963 1.847.072 3.689.155 5.532.259v-2.526c0-.782-.171-1.339-.498-1.68a6.252 6.252 0 0 0-1.04-.868m-7.394-27.841c0 1.512-.321 2.715-.966 3.604-.646.891-1.673 1.319-3.102 1.293-1.4-.023-2.796-.038-4.2-.046a.93.93 0 0 1-.534-.2.594.594 0 0 1-.266-.514v-13.876c0-.606.355-.904 1.068-.903 1.312.011 2.617.03 3.932.05 1.429.023 2.456.492 3.102 1.394.645.904.966 2.111.966 3.625v5.573zM239.228 148.149c-.664.23-.995.839-.995 1.834 0 .26.059 11.229-.099 11.45-.154.22-.385.315-.697.285a335.73 335.73 0 0 0-5.844-.566.766.766 0 0 1-.666-.446c-.13-.272-.2-.576-.2-.926-.021-11.883-.04-23.771-.063-35.654 0-.477.058-.793.166-.96.112-.165.275-.298.5-.409.353-.23.702-.569 1.06-1.007.358-.447.53-1.034.53-1.768v-1.944a326.657 326.657 0 0 0-11.107-.844v1.941c0 .738.174 1.351.533 1.85.355.497.709.887 1.062 1.166.227.149.402.314.533.492.137.184.201.51.201.988v14.756c-1.197.143-2.098 1.118-2.098 2.351 0 1.233.9 2.312 2.098 2.624v22.459c5.86.387 11.708.929 17.547 1.617.44.053.882.104 1.329.157.354.043.696-.059 1.058-.319.354-.263.533-.652.533-1.168v-17.782c-.93-.115-1.861-.226-2.792-.337-.966-.112-1.926-.071-2.589.16M94.809 133.021a1.26 1.26 0 0 0-.319.056l-.122.034v.001a347.815 347.815 0 0 0-20.209 7.133v1.882c0 .864.115 1.488.345 1.875.234.385.563.605.984.66.212.047.399.144.568.3.168.15.253.419.253.811v14.69c-1.143.663-1.998 2.02-1.998 3.254 0 1.229.855 1.931 1.998 1.723v22.456c.549-.205 1.1-.416 1.647-.613a338.703 338.703 0 0 1 12.431-4.393 357.79 357.79 0 0 1 2.821-.923c.385-.123.773-.251 1.16-.371.043-.016.084-.024.122-.04.154-.046.307-.132.467-.239.224-.149.423-.326.601-.549.32-.409.484-.842.484-1.324v-6.672l-.003.004c-.003-2.35-.003-4.699-.003-7.047-.902.282-1.802.568-2.699.852-.943.308-1.867.764-2.507 1.276-.642.514-.96 1.268-.96 2.265 0 .261.054 7.079-.092 7.368-.153.284-.37.485-.672.58l-2.445.833c-1.121.388-2.241.781-3.362 1.179-.508.181-.763-.029-.763-.638v-15.098c0-.605.318-1.025.955-1.248a310.934 310.934 0 0 1 7.668-2.631c.639-.212.958-.615.958-1.223v-3.625c0-.347-.118-.557-.353-.631a1.08 1.08 0 0 0-.672-.005c-2.54.841-5.075 1.705-7.601 2.602-.637.224-.955.042-.955-.565v-13.546c0-.262.097-.521.286-.784.191-.264.392-.431.604-.508a347.144 347.144 0 0 1 6.113-2.111c.09.028.174.074.239.152.146.185.092 7.046.092 7.305 0 .994.319 1.533.96 1.626.64.088 1.564-.064 2.507-.37.897-.287 1.797-.572 2.699-.854v-7.049h.006v-6.869c0-.345-.156-.62-.455-.833-.204-.146-.467-.195-.778-.158M268.717 123.26a1.307 1.307 0 0 0-.322-.115c-.041-.008-.083-.018-.12-.023h-.007a355.214 355.214 0 0 0-20.917-3.456v1.886c0 .859.115 1.544.363 2.057.245.505.585.9 1.025 1.175.22.16.417.361.594.607.175.235.268.552.268.94v14.693c-1.193.057-2.091.967-2.091 2.199 0 1.231.897 2.378 2.091 2.775v22.455c.571.087 1.147.167 1.718.253 3.014.436 6.024.92 9.033 1.435 1.279.219 2.559.452 3.835.683l2.893.547c.396.075.79.154 1.188.232.043.007.086.016.127.024.157.029.313.027.47-.002.229-.027.435-.102.619-.236.323-.234.49-.591.49-1.068V156.6a268.09 268.09 0 0 0-2.759-.542c-.968-.192-1.918-.218-2.572-.038-.665.183-.988.771-.988 1.764 0 .26.058 7.11-.094 7.323-.154.211-.383.289-.693.23a361.19 361.19 0 0 0-5.999-1.026c-.525-.088-.791-.431-.791-1.037v-15.105c0-.601.333-.854.991-.745 2.641.429 5.277.892 7.91 1.378.657.123.985-.111.985-.72v-3.625c0-.347-.121-.621-.361-.816-.24-.196-.475-.316-.691-.355a325.598 325.598 0 0 0-7.843-1.368c-.658-.107-.991-.463-.991-1.069v-13.544c0-.264.102-.475.302-.636a.747.747 0 0 1 .62-.192c2.106.347 4.211.707 6.318 1.087.09.076.174.162.243.271.151.266.094 7.097.094 7.351 0 1.003.331 1.707.988 2.129.654.425 1.604.756 2.572.944.916.177 1.838.351 2.759.545v-13.918c0-.347-.149-.7-.456-1.066a2.061 2.061 0 0 0-.801-.56M147.671 270.926l4.618 4.449c.794.764 1.791 1.785 1.567 3.205-.102.635-.455 1.299-1.006 1.867-.696.723-1.397.986-1.988 1.049-1.329.15-2.271-.678-3.232-1.605l-2.616-2.52-2.716 2.818-1.842-1.777 7.215-7.486zm-1.394 5.135l2.311 2.221c.605.584 1.439 1.369 2.399.371.387-.4.495-.789.479-1.131-.041-.469-.316-.734-1.101-1.486l-2.107-2.033-1.981 2.058zM159.962 281.715l8.292 4.976-.961 1.6-6.061-3.633-1.203 2.002 5.864 3.514-.946 1.574-5.86-3.514-1.28 2.131 6.316 3.789-.952 1.586-8.545-5.123zM174.434 289.393l2.467.824-2.686 8.021 5.46 1.826-.605 1.811-7.928-2.65zM189.675 303.911l-2.573-.39 1.559-10.266 2.572.39zM210.647 300.781c-.168.652-.368 1.414-1.258 2.305-.808.799-2.149 1.723-4.791 1.836-3.69.154-6.325-1.662-6.479-5.287-.166-3.908 2.88-5.627 6.157-5.766 1.188-.051 4.609.07 6.086 2.98l-2.836.475c-.299-.432-1.155-1.629-3.171-1.547-2.349.102-3.615 1.789-3.532 3.771.095 2.26 1.927 3.539 3.897 3.453 2.248-.092 2.882-1.445 3.195-2.09l2.732-.13zM219.875 291.723l2.691-.799 7.746 8.535-2.792.824-1.397-1.625-5.102 1.508-.294 2.125-2.719.805 1.867-11.373zm2.482 2.591a2.316 2.316 0 0 1-.284-.346 1.686 1.686 0 0 1-.202-.369c-.006.139 0 .26.005.383-.021.143-.025.283-.044.426l-.527 3.758 3.492-1.031-2.44-2.821zM232.618 287.107l2.22-1.326 7.33 2.346c.9.303 1.078.371 2.048.732-.581-.799-.717-1.029-1.188-1.789l-2.727-4.557 2.135-1.273 5.324 8.908-2.205 1.318-7.422-2.381a34.869 34.869 0 0 1-1.985-.715c.471.645.562.799.98 1.471l2.934 4.908-2.118 1.266-5.326-8.908zM253.971 280.844c1.292.486 2.628-.271 3.641-1.254.455-.441 1.81-1.896.931-2.805-.523-.537-1.164-.162-1.638.154-.367.23-2.124 1.482-2.531 1.756-.812.539-2.858 1.889-4.497.199a2.82 2.82 0 0 1-.73-1.342c-.347-1.607.771-3.201 1.952-4.348 1.088-1.055 2.078-1.703 3.257-2.029a4.284 4.284 0 0 1 2.403.012l-1.343 2.158c-.179-.053-.593-.188-1.252.023-.731.238-1.418.818-1.776 1.164-.822.801-1.514 1.777-.829 2.484.474.486 1.025.193 1.71-.221.365-.234 2.133-1.453 2.553-1.717 1.021-.682 2.797-1.787 4.383-.15 2.324 2.398-.448 5.246-1.386 6.156-1.228 1.188-3.321 2.809-6.115 1.85l1.267-2.09zM188.808 231.094s-37.186-12.447-21.031-52.05c0 0-39.317 1.629-93.204 23.373 0 0-3.781 1.578-5.987 2.363-2.207.791-5.752 2.201-10.833-.24 0 0 49.292-25.77 112.618-31.745 8.353-.787 9.454.474 7.248 3.625-1.807 2.58-24.421 31.355 11.189 54.674"/><path fill="#B4975A" d="M155.773 190.261c-31.867 4.142-63.026 15.241-63.026 15.241 5.304 9.438 19.695 5.475 19.695 5.475 26.997-7.641 39.043-10.23 42.905-10.979-.149-3.012-.021-6.25.426-9.737M156.005 205.771c-5.317 1.029-27.628 5.611-50.131 14.039 0 0 7.092 8.078 21.166 4.088 11.839-3.355 27.017-8.201 31.543-9.652a37.782 37.782 0 0 1-2.578-8.475M160.952 218.713c-4.807 1.551-28.85 9.34-38.999 13.24 0 0 5.822 7.807 22.63 1.189 11.712-4.613 18.163-7.303 21.005-8.516a36.409 36.409 0 0 1-4.636-5.913M169.299 228.02c-4.199 1.828-19.8 8.643-28.825 12.99 0 0 11.356 5.578 25.641-3.246l8.886-5.828a45.886 45.886 0 0 1-5.702-3.916M179.319 234.205c-2.855 1.787-14.693 9.225-20.471 13.494 0 0 9.811 4.053 19.873-5.418 3.273-3.08 5.059-4.826 6.042-5.828a62.494 62.494 0 0 1-5.444-2.248"/><path fill="#FFF" d="M212.757 231.094s37.186-12.447 21.029-52.05c0 0 39.316 1.629 93.204 23.373 0 0 3.781 1.578 5.987 2.363 2.204.791 5.749 2.201 10.833-.24 0 0-49.293-25.77-112.619-31.745-8.352-.787-9.454.474-7.248 3.625 1.809 2.58 24.423 31.355-11.186 54.674"/><path fill="#B4975A" d="M245.791 190.261c31.864 4.142 63.026 15.241 63.026 15.241-5.304 9.438-19.697 5.475-19.697 5.475-26.997-7.641-39.043-10.23-42.906-10.979.148-3.012.021-6.25-.423-9.737M245.56 205.771c5.314 1.029 27.625 5.611 50.13 14.039 0 0-7.093 8.078-21.167 4.088-11.837-3.355-27.017-8.201-31.543-9.652 1.127-2.558 2.008-5.373 2.58-8.475M240.611 218.713c4.807 1.551 28.851 9.34 38.996 13.24 0 0-5.819 7.807-22.628 1.189-11.711-4.613-18.161-7.303-21.003-8.516a36.404 36.404 0 0 0 4.635-5.913M232.262 228.02c4.202 1.828 19.804 8.643 28.824 12.99 0 0-11.354 5.578-25.641-3.246l-8.882-5.828a45.71 45.71 0 0 0 5.699-3.916M222.244 234.205c2.854 1.787 14.694 9.225 20.469 13.494 0 0-9.81 4.053-19.87-5.418-3.274-3.08-5.057-4.826-6.043-5.828a62.751 62.751 0 0 0 5.444-2.248"/><path fill="#FFF" d="M231.233 252.713c0 16.824-13.633 30.459-30.451 30.459-16.826 0-30.454-13.635-30.454-30.459 0-16.816 13.628-30.453 30.454-30.453 16.819 0 30.451 13.636 30.451 30.453"/><path fill="#B4975A" d="M224.934 259.016c0 13.346-10.812 24.158-24.151 24.158-13.342 0-24.149-10.812-24.149-24.158 0-13.34 10.808-24.152 24.149-24.152 13.339-.001 24.151 10.812 24.151 24.152"/><path fill="#002B5C" d="M200.782 219.891c-18.098 0-32.82 14.723-32.82 32.822 0 18.102 14.723 32.826 32.82 32.826 18.096 0 32.819-14.725 32.819-32.826.001-18.1-14.723-32.822-32.819-32.822m27.576 27.527c-2.025 8.135-7.594 14.77-14.798 18.434.577-4.014 2.322-7.982 4.141-12.105 2.635-5.982 5.512-12.52 4.253-19.451a27.974 27.974 0 0 1 6.404 13.122m-41.984-18.801a27.888 27.888 0 0 1 12.377-3.906v44.156a28.498 28.498 0 0 1-6.5-1.225c-.232-5.461-2.48-10.564-4.673-15.533-3.64-8.257-6.782-15.441-1.204-23.492m5.635 43.197c2.167.6 4.424.973 6.742 1.113v7.793a27.865 27.865 0 0 1-10.317-2.783c1.505-1.431 3.116-3.507 3.575-6.123m10.804 1.114a32.842 32.842 0 0 0 6.749-1.113c.453 2.615 2.068 4.691 3.57 6.119a27.808 27.808 0 0 1-10.319 2.787v-7.793zm6.506-5.332a28.25 28.25 0 0 1-6.506 1.27v-44.154a27.888 27.888 0 0 1 12.376 3.906c5.575 8.051 2.436 15.229-1.204 23.488-2.183 4.953-4.423 10.046-4.666 15.49m-29.708-33.301c-1.261 6.936 1.616 13.469 4.254 19.451 1.834 4.156 3.587 8.156 4.152 12.201-7.245-3.613-12.756-10.248-14.807-18.551a27.967 27.967 0 0 1 6.401-13.101m-6.474 23.328a32.19 32.19 0 0 0 14.963 12.832c-.022.184-.038.371-.066.555-.314 2.104-2.055 3.799-3.273 4.754-6.004-4.19-10.299-10.655-11.624-18.141m43.669 18.137c-1.219-.957-2.958-2.656-3.269-4.752a7.05 7.05 0 0 1-.065-.553 32.2 32.2 0 0 0 14.947-12.809c-1.325 7.477-5.616 13.932-11.613 18.114"/><path fill="#002B5C" d="M210.535 177.276s-.248 1.033-.88 1.033c-.626 0-4.566-1.889-6.458-2.914a103.785 103.785 0 0 1-2.338-1.326s-1.686.888-2.495 1.326c-1.89 1.024-5.83 2.914-6.46 2.914-.628 0-.875-1.033-.875-1.033s-10.339 6.242-10.339 23.492c0 12.836 6.683 18.662 6.683 18.662l.909 3.629h24.999l.907-3.629s6.688-5.826 6.688-18.662c0-17.25-10.341-23.492-10.341-23.492"/><path fill="#FFF" d="M215.461 196.409c0-5.332-2.171-9.671-4.508-12.259 0 0-.078 1.521-2.624-.18-2.199-1.506-4.783-2.391-7.562-2.391-2.788 0-5.38.887-7.584 2.402-2.454 1.672-2.571.168-2.571.168-2.335 2.587-4.507 6.927-4.507 12.259 0 4.421 1.085 6.607 1.461 7.226 2.195 5.643 7.277 9.592 13.201 9.592 5.856 0 10.89-3.869 13.123-9.41.131-.183 1.571-2.308 1.571-7.407"/><path fill="#002B5C" d="M206.304 208.447c-.016-.031-.038-.062-.054-.094 0 0-1.457-2.73.939-4.615 0 0 5.414 1.133 5.542-6.046 0 0-.128-.758.625-2.266 0 0-1.385-1.262-4.407 1.009-3.022 2.263-4.657 8.688-6.293 7.176-1.618-1.498-1.027-9.862-1.866-10.179h-.031c-.838.317-.244 8.681-1.861 10.179-1.638 1.512-3.275-4.913-6.296-7.176-3.025-2.271-4.409-1.009-4.409-1.009.758 1.508.627 2.266.627 2.266.131 7.179 5.542 6.046 5.542 6.046 2.393 1.885.949 4.629.949 4.629-.015.029-.035.055-.048.084-6.463-6.939-10.22-5.994-8.367 1.777 1.822 7.631 8.815 40.424 9.928 48.025-.157 6.836-.947 9.281-1.153 9.809l-.706 1.404.778 1.562c1.228 1.783 2.083 3.793 2.385 4.555l2.663 6.768 2.644-6.75c.313-.779 1.168-2.789 2.394-4.572l.812-1.48-.739-1.482c-.207-.514-.973-2.867-1.149-9.459.921-6.82 8.065-40.613 9.916-48.379 1.849-7.77-1.902-8.717-8.365-1.782"/><path fill="#E31837" d="M196.402 242.627c-2.323-12.201-4.151-21.225-5.627-27.771-1.126-5.004 1.878-3.002 3.496.127l2.131 27.644zM205.164 242.627c2.325-12.201 4.152-21.225 5.626-27.771 1.125-5.004-1.878-3.002-3.499.127l-2.127 27.644zM192.734 201.303a.853.853 0 0 1-.598-1.057.851.851 0 0 1 .297-.431 6.525 6.525 0 0 0-1.087-.992s-.758 3.526 2.394 3.151c0 0-.108-.312-.344-.762a.845.845 0 0 1-.662.091M210.216 198.823a6.375 6.375 0 0 0-1.088.992.84.84 0 0 1 .301.432.86.86 0 0 1-1.262.97c-.233.445-.343.758-.343.758 3.15.375 2.392-3.152 2.392-3.152M202.259 247.152c1.003-18.85 2.503-32.197 2.503-33.861 0-.598-.069-1.359-.314-2.199l-1.098 3.586-.336-6.334c-.551-.711-1.303-1.422-2.25-2.107h-.057a10.52 10.52 0 0 0-2.161 2.105l-.33 6.336-1.099-3.588a7.806 7.806 0 0 0-.318 2.201c0 1.664 1.5 15.012 2.5 33.861 1 18.844-1.338 22.348-1.338 22.348 1.356 1.961 2.819 5.443 2.819 5.443s1.466-3.482 2.818-5.443c.001 0-2.331-3.504-1.339-22.348"/></svg>