<svg version="1.1" id="Layer_1" xmlns="http://www.w3.org/2000/svg" x="0" y="0" width="400" height="400" xml:space="preserve"><style>.st1{fill:#b3b2b1}.st2{fill:#006bb6}.st3{fill:#ff671b}</style><path d="M199.4 347.6l-24.1-31.3c-30.7-10.1-52-37.9-54.1-70.1l-15-19.4c-14.2 6.1-28.5 15.8-28.5 15.8l-44.9-45L51.7 156 18 112h53.8l10.4-22.7 26.6-10.7 2.9-8 21.7 9.8 5.1-18 3.5-1.1c17.1-5.7 36.8-8.7 56.9-8.8.6 0 7 .1 7.2.1.7 0 3.8.2 3.8.2 17.1.8 33.1 3.6 47.6 8.4l3.5 1.1 4.7 17.2 7.8-5.9L317.3 89l10.5 23h54.1l-34.2 44.1 18.6 40.9-45.6 46.9s-16.7-12.2-28.2-16.7l-13.7 17.7c-1.6 33.1-24 62-55.6 71.8l-23.8 30.9z" fill="#fff"/><path class="st1" d="M199.5 325.8L355 125.3H44.9z"/><path class="st2" d="M32.2 119.1l167.2 217.1 168.4-217.1H32.2zm322.8 6.2L199.5 325.8 44.9 125.3H355z"/><path class="st2" d="M332.5 139.3l-.1-.1-.1-.1-10-6.7 3.7-7.1.1-.2-.1-.2-13.7-30.1-.1-.2-.2-.1-36.8-13.1-.2-.1-.2.2L265 89l-.1.1v.1l-1.7 4.2s-15.3-3.8-37.8-6.1c-2.3-.2-8.4-.7-18.2-1.5l-.9-.1-1.1-.1h-.2l-.2.2-7.3 7.3v-7.5s-20.7 1.1-34.2 3-26.8 5.2-26.8 5.2l-2.5-5.2-.1-.2-.2-.1-17.4-8-.5-.2-.2.5-2 5.5-.4-1.1-.2-.4-.4.2-25 10-.2.1-.1.1-46 101L79 233.8l1.8-1c1.1-.6 2.7-1.6 4.6-2.7 4.6-2.7 10.8-6.3 13.8-7.8l.6-.3c3.8-1.9 5.8-2.8 24.1-10.7l1.6-.6s2.1-.8 5.8-2.1c10.1-3.3 36.3-11.1 61.7-11.1h3.3c17.3.5 37.3 4.2 51.3 7.1 13.3 2.9 23.4 5.6 26.2 6.4l1.9.6c12.6 4.9 28.1 12.9 42.3 22l1.9 1.1 38.2-39.3-25.6-56.1z"/><path class="st3" d="M328.3 142.8l-36.7-24.5-6.3-17.9 11.3 4.1 4.6 11.2 17.3 5.5-10.1-22.3-32.7-11.5-6 4.7 10.8 35.3 34.9 24.6 8.9 22.3-14.6-6.6-5-13.9-17.8-5.2 9.6 31.4c2.9 1 5.8 2.2 8.7 3.3 7.9 3.2 15.7 6.8 23.3 10.6 5.3 2.7 10.4 5.5 15.5 8.5l7.6-7.8-23.3-51.8zM80.7 159.4l12.2-10.9 2.9 3.4-12.1 34.7c6.7-2.9 13.3-5.6 20.2-8l8.7-28.6-7.6-12.5 15.6-14.9 9.2-30.5-11.2-5.1-10.1 28.7-16.2 13.9 14.7-37-15.9 6.3-43.7 95.9 6.9 6.9c4.1-2.4 8.2-4.7 12.4-6.8l14-35.5zM191.5 91l-13.4.7-6.3 72c5.7-.5 11.4-.9 17.3-1.1l2.4-71.6zM231.2 148.7l-15.6-.9-2.5-44.1 13.2.6-1.6-12.2-17.7-1.2-7.9 7.9v55.1l8.3 8.5c8.6.3 17.1.9 25.5 2l-1.7-15.7zM143 119.4l5.6 27.4-3.6 20.7c5.4-1 10.9-2 16.4-2.7l8.6-72.2-12.5 1.8-4.1 23.6-4.5-22-14.7 3.6-20.2 75.6c5.8-1.9 11.9-3.4 17.8-4.9l11.2-50.9zM251.2 144.8l4.4-5.9 6.4 5.3 5.9 26.8c6.1 1.6 12.3 3.3 18.3 5.3l-11-39.3-11.3-9.3 6.4-8.6-5.4-20-13.6-3 5.4 20.1-8.5 11.3-6.3-33.1-12.7-1.6s6.3 48.5 9.4 72.4c5.7.8 11.4 1.8 17.1 2.9l-4.5-23.3z"/><path class="st1" d="M173.7 177.3s5.3-3.1 15.8-4.3l-.3-8.3c-5.8.2-11.5.5-17.3 1.1.5 3.3 1.3 8.2 1.8 11.5M207.3 172.5c4.3.5 8.8 1.9 12.9 3 3.6.8 7.6 2.4 10.8 3.8l1.8-12.8c-8.5-1-16.5-1.7-25.2-2-.2 2.7-.2 6.3-.3 8M151.7 192.8c4.9-3.6 7.9-7.4 13-10.6-.9-4.7-2.3-10.7-3.2-15.3-5.6.7-11.2 1.7-16.7 2.7 2.2 7.1 4.9 16.3 6.9 23.2M235.3 182.1c4.8 2.8 8.5 5.9 12.8 10.1l.8.6 6.8-22.4c-5.8-1.2-11.4-2.3-17.4-3.1l-3 14.8zM256.6 201.5l16.1 3.7 13.5-26.7c-6.2-2.1-12.3-3.7-18.6-5.3l-11 28.3zM127.1 205.2c4.2-1.6 10.1-3.6 15.5-5.1l-10.4-27.7c-6.3 1.6-11.9 3.1-18 5.1 4 9.3 8.3 18.9 12.9 27.7M102.9 215.2c.9-.8 10.1-4.8 16.3-7.4-4.8-8.6-10.5-18.1-15.2-26.8-6.9 2.4-13 5-19.7 7.9l18.6 26.3zM80.1 227.2c2.9-1.8 6-3.5 9.4-5.5l-21.3-25.2c-4.1 2.1-8.1 4.3-12.1 6.7l24 24zM281.1 208.5c12.8 5 30.7 15 37.9 19.8 3.3-3.1 21.1-21.8 23.6-24.4-14.8-8.7-30.4-16.1-46.6-22l-14.9 26.6zM204.8 172.1l-6.1-.2-.2-14.9 6.4 6.7z"/><path class="st2" d="M200.1 169.2c-39.7 0-72 32.2-72 72 0 39.7 32.2 72 72 72 39.7 0 72-32.2 72-72 0-39.7-32.3-72-72-72"/><path class="st3" d="M204.5 174.6c-5.5 2-10.8 4.7-16.1 7.2-3.6-2.2-5.6-2.7-8.1-4.3 7.5-2.8 15.8-3.2 24.2-2.9M256.1 205.2c-17-17.1-42.4-15.9-64-21.9 0 0 12.7-6 19.2-7.7 17.7 3 34.8 13.5 44.8 29.6M160.7 207.7c-16.3 25-18.5 55.8-5.5 82.8-16.7-14-26.7-41.4-19.2-67.8 6.1-8.7 14.1-16.3 24.7-15"/><path class="st3" d="M178.2 225.6c8.7 26.1 10.7 55 33.5 81.3-17.8 3.6-35.3-1.8-49.3-10.6-17.4-25.3-15.7-63.1 1.7-87.7 8.3 2.5 12.9 13.6 14.1 17"/><path class="st3" d="M166 205.9c2.6-3.7 5.6-7.3 8.9-10.5 36.9 10.4 72.1 48.7 78.1 86.2-1.8 2.8-5.9 6.8-8.8 9.7-9.2 8.2-19.2 12.5-28.9 14.8-17.3-17.9-22.9-41.1-29-64-4.7-17.6-7.9-30.8-20.3-36.2z"/><path class="st3" d="M252.1 205.7c-17.8-15.7-42.6-13.7-63.4-21-4.1 2.5-8 5.4-11.3 8.4 36.9 11.5 70.4 47.6 78.3 84.9 5.8-8.3 9.3-18.1 10.7-28.4.9-15.8.8-30.2-14.3-43.9M171.9 194.2c-3.5 3.4-6.2 6.8-9 10.7h-.1c-9.8-2.2-17.5 2.9-23.6 9.2 2.9-7.5 9.2-16.3 15.7-22 6 .2 10.4.1 17 2.1M174.5 191.9c3.5-3.1 6.9-5.8 11-8.3l-9.5-4.7c-6.3 2.6-13 5.9-17.7 10.2 7.3.8 10.4 1.2 16.2 2.8"/><path class="st2" d="M189.9 80.9l-2.9 2.9-5 .3-1.9-1.7-2.4 2-5.4.5-2.4-2.3 3.1-21.3 4.2-.5-2.2 18.9 2.9-.3 2.3-18.8 4.1-.4-1.7 18.7 2.9-.3L187 60c1.8-.2 2.6-.2 4.2-.2l-1.3 21.1zM203.2 59.4v13.4h2.6l-.2-13.3s2.8.1 4 .2l.5 15-2.5 2.5h-.8l.1 6.4-4.5-.1v-6.4l-.9-.1-2.7-2.8.2-15c1.5.2 4.2.2 4.2.2M170 61.9l-.7 4.4-5 .9-.9 5.1c1.9-.3 2.9-.5 5.1-.8-.3 1.9-.4 2.6-.7 4.4l-5 .7-.9 4.9 5.1-.7s-.5 3.3-.7 4.8c-3.5.4-7.2.9-10.6 1.6 0 0 3.8-17.9 4.8-23.4l9.5-1.9zM151.3 88l-5.2 1 2.4-9.8-1.6-3.5-4.2 14-5.1 1.1c2.1-7.6 4.3-15.2 6.3-22.8 1.8-.6 3-.9 4.6-1.5.5 1.2 2 3.8 2 3.8l1.2-4.8 4.8-1.2-5.2 23.7zM224.2 63.6c.5 6.1 1.6 12 2.2 17.6l-2.3 3.4-7.3-.5-2.6-2.9c-.4-6.2-.8-12.5-1.1-18.7.6-.9 1.7-1.6 2.5-2.5l6.1.6 2.5 3zm-6.7 1l1.4 14.6 2.6.2-1.4-14.5-2.6-.3zM247.9 65.7c.9 3.5 2.7 10.7 2.7 10.7l1.8.3.8-1.1-2.2-8.9s2.2.6 4.5 1.2l2.3 8.6-1 1.6 2 2.2 3 10.5-5-1.1-2-7.4-3.1-.7 1.7 7.4-5.1-1c-1.8-7.9-5-23.5-5-23.5s2.7.6 4.6 1.2M240 66.6l1.7 8.7-.9 1.4 1.7 2.1 1.5 8.6-4.9-.8-1.4-7.2-2.9-.3 1 7-4.9-.6-3.2-23.9 9.4 1.7 2.9 3.3zm-7 .3l.8 6 2.7.3-1.1-5.9-2.4-.4z"/></svg>