<svg version="1.1" id="Layer_1" xmlns="http://www.w3.org/2000/svg" x="0" y="0" viewBox="0 0 648 648" width="400" height="400" xml:space="preserve"><style>.st0{fill:#fff}.st1{fill:#006bb6}</style><path class="st0" d="M612 324c0 159.1-128.9 288-288 288S36 483.1 36 324 164.9 36 324 36s288 128.9 288 288"/><path class="st1" d="M601.4 324c0 153.2-124.2 277.4-277.4 277.4S46.6 477.2 46.6 324 170.8 46.6 324 46.6 601.4 170.8 601.4 324"/><path class="st0" d="M89.4 371.3l5.7 18.1h19.2l-15.5 11.3 5.6 17.8-15-10.9-15.2 10.9 5.7-17.8-15.6-11.3h19.2zM558.7 371.3l5.7 18.1h19.3l-15.6 11.3 5.7 17.8-15.1-10.9-15.1 10.9 5.7-17.8-15.6-11.3h19.1zM156.8 468.3l5.7 18h19.2l-15.6 11.4 5.7 17.8-15-10.9-15.2 10.9 5.7-17.8-15.6-11.4h19.2zM497.6 468.3l5.7 18h19.2L507 497.7l5.7 17.8-15.1-10.9-15.2 10.9 5.8-17.8-15.6-11.4h19.1zM261.9 531.4l5.6 18.1h19.3l-15.6 11.3 5.7 17.8-15-10.9-15.2 10.9 5.7-17.8-15.6-11.3H256zM389.6 531.4l5.7 18.1h19.2l-15.6 11.3 5.7 17.8-15-10.9-15.2 10.9 5.7-17.8-15.6-11.3h19.2z"/><path class="st0" d="M532 325.3c0 114.9-93.1 208-208 208s-208-93.1-208-208 93.1-208 208-208c114.9.1 208 93.2 208 208"/><path class="st1" d="M128.4 366.2c10.9 52.2 41.5 97.1 86.2 126.3 44.7 29.2 98 39.3 150.3 28.4 52.2-10.9 97.6-41.2 126.3-86.2 28.7-44.7 38.8-98.1 28.4-150.3-10.4-52.3-41.5-97-86.2-126.3-44.7-29.3-98.1-39.4-150.2-28.5-52.2 10.9-97.1 41.5-126.4 86.2-29.2 44.8-39.3 98.1-28.4 150.4"/><path class="st0" d="M392 169.6c.7 7.8-3 15.4-10.8 22.6-37.5-27.5-73.2-41-108.2-41.2-7.5 0-14.8.6-21.9 1.7 11-4.6 22.6-8.3 34.6-10.8 31.3-6.5 63-5 92.8 4.1 6.5 6.3 12.8 14.5 13.5 23.6M352.9 492.4c39.4-36.2 57.7-113.7 68.6-160l1.7-7.2c5.6-23.6 15.5-41.2 26.2-51.7 39.5 61.4 34.2 124.8 24.2 164.6-27.3 36.3-66.4 61.2-111.3 70.6-12.8 2.7-25.6 4-38.4 4 9.3-4.7 19.1-11.2 29-20.3M424.5 229.4c16-13.4 28.8-23.6 37.9-30.3 19.7 21.5 34.1 47.4 42.1 76-7.4-9.9-16.8-19.3-27-21.4-8.8-1.8-17.8.7-26.3 6.7-7.6-10.4-16.4-20.8-26.7-31M140.3 316.9c18.2-48.8 84.9-68.8 110-76.3l1.1-.3c8.2-2.5 20.1-4.5 33.8-6.8 32.3-5.5 72.2-12.3 96.3-30.3 9.8 7.4 19.8 16 30.1 25.7-54.5 46.3-138.8 124.1-228.7 219.6-21-23.9-35.5-52.9-42.2-84.9-2.7-12.7-4-25.5-4-38.2 2.1-5 3.6-8.5 3.6-8.5"/><path class="st0" d="M418.2 223.3c-10.1-9.6-20.1-18.2-30-25.8 9.1-8.9 13.3-18.5 12.4-28.7-.5-6.2-2.9-11.9-6.2-17 11.1 4.5 21.8 10.2 32.1 16.9 10.9 7.1 20.8 15.2 29.8 24.1-9.4 7-22.3 17.3-38.1 30.5M374.2 197.8c-22.6 15.6-60 22-90.5 27.1-14 2.4-26 4.4-34.8 7l-1.1.3c-24.1 7.2-84.7 25.3-109.7 69 3.6-27.7 13.4-54.5 29.1-78.5 13.3-20.3 30.9-39 50.2-52.5 44.4-18.7 94.2-17.4 156.8 27.6M475.7 262.2c13.1 2.7 27.1 24.7 33.8 37.3 5.8 41.1-2.1 82.3-22.7 118.4 1-6.3 1.8-13 2.4-20 2.6-35.1-2.2-82.8-33.1-130.2 6.8-4.8 13.6-6.7 19.6-5.5M417.9 235c10.3 10.2 19.1 20.5 26.5 31-12.8 12.2-23.7 32.4-29.6 57.2l-1.7 7.3c-10.7 45.4-28.6 121.3-66 155.6-15.5 14.2-30.6 21.6-44.1 25.5-28.8-3.2-56.6-13.2-81.6-29.5-12-7.9-23-17-32.7-27.1 90.8-96.6 175.4-174.3 229.2-220"/><path class="st0" d="M375.7 380.9l5.1-1.4c3.1-.8 5.1-1.8 5.1-6.3 0-3.7-1-10.4-5.5-10.4-4.7 0-4.7 8-4.7 12.3v5.8zM314.8 378.1c0-16-.6-29.8-11.4-29.8-8.8 0-10.4 13.8-10.4 29.8s-.5 29.9 10.4 29.9c9.1-.1 11.4-13.9 11.4-29.9"/><path class="st0" d="M375.7 380.9l5.1-1.4c3.1-.8 5.1-1.8 5.1-6.3 0-3.7-1-10.4-5.5-10.4-4.7 0-4.7 8-4.7 12.3v5.8zM291.7 341.4h-.2.4c5.2-8.1 15.1-12 24.8-12 22 0 35.5 19 35.5 44.5 0 30.2-20.5 48.2-45.8 48.2-38.9 0-53.1-31.4-53.1-67.8 0-41.9 18.2-76.5 63.5-76.5 17.7 0 32.2 11.4 32.2 28.8 0 11.3-8.7 16.8-17.1 16.8-12.2 0-16.1-10.2-17.9-19.2-.7-3.8.7-12.2-5.6-12.2-13.2 0-15.3 25.8-15.9 35.3l-.8 14.1z"/><path class="st0" d="M314.8 378.1c0-16-.6-29.8-11.4-29.8-8.8 0-10.4 13.8-10.4 29.8s-.5 29.9 10.4 29.9c9.1-.1 11.4-13.9 11.4-29.9"/><g><path class="st0" d="M78.9 279.4c7.4.9 10.4 6.1 9.3 15.7l-.8 7 4 .5c5.1.6 7 .5 7.6-3.6l4.7.6-2.2 19-4.7-.6c.4-4.2-1.5-4.7-6.6-5.3L75.4 311c-5.1-.6-7-.5-7.6 3.6l-4.7-.6 2.5-20.8c1.2-10.2 5.7-14.7 13.3-13.8zm4 20.2c.7-6.3-1.1-9.7-5.6-10.2-3.9-.5-6.7 2-7.3 6.7-.4 3.3.8 4 4.4 4.4l8.2 1c.1-.6.2-1.2.3-1.9zM106.7 258.4c1.5-3.9-.1-4.9-4.8-6.9l-13.7-5.7c-4.7-2-6.6-2.4-8.3 1.4l-4.4-1.8 7.4-17.6 4.3 1.8c-1.5 3.9.1 4.9 4.8 6.9l3.5 1.5 5.5-13.2-3.5-1.5c-4.7-2-6.6-2.4-8.3 1.4l-4.3-1.8 7.4-17.6 4.4 1.8c-1.5 3.9.1 4.9 4.8 6.9l13.7 5.7c4.7 2 6.6 2.4 8.3-1.4l4.4 1.8-7.4 17.6-4.3-1.8c1.5-3.9-.1-4.9-4.8-6.9l-6-2.5-5.5 13.2 6 2.5c4.7 2 6.6 2.4 8.3-1.4l4.3 1.8-7.4 17.6-4.4-1.8zM125.1 164.9c-2.4 3.4-1.1 4.8 3 7.9l11.9 8.9c4.1 3.1 5.8 3.9 8.4.7l3.8 2.8-11.4 15.2-3.8-2.8c2.4-3.4 1.1-4.8-3.1-7.9l-11.9-8.9c-4.1-3.1-5.8-4-8.4-.7l-3.8-2.8 11.4-15.2 3.9 2.8zM168.1 167.1l-3-3.6c3.1-2.8 2.1-4.4-1.2-8.3l-9.6-11.4c-3.3-3.9-4.7-5.2-8-2.6l-3-3.6 14.6-12.2 3 3.6c-3.1 2.8-2.2 4.4 1.1 8.4l10.7 12.7c2.5 2.9 3.6 3.4 6.6.9 4-3.4 5.7-9.4 4.3-17l4.2-.9 4.3 14-24 20zM213.4 132.2l-2-4.3c3.6-2.2 3.4-4.6 3.3-8.8l-1-29.5 8-3.6 22 21.5c2.5 2.4 3.9 3.6 7.1 2.5l2 4.3-17.4 7.9-1.9-4.2c.1 0 .3-.1.4-.2 2.4-1.1 3.3-2.1 2.6-3.6-.2-.5-.6-1-1-1.4l-4-4-11.2 5.1.7 5.5c.1.4.1.9.3 1.2.8 1.7 2.4 1.8 5.1.6l1.9 4.2-14.9 6.8zm14.2-26.9l-8.2-8.8.7 12.3 7.5-3.5zM272.2 103.7c4.1-.7 4.2-2.6 3.5-7.7l-2.1-14.7c-.7-5.1-1.3-6.9-5.5-6.4l-.7-4.7 19.2-2.7c14.8-2.1 23.6 3.7 25.4 15.9 1.7 12.3-5.1 20.2-19.9 22.4l-19.2 2.7-.7-4.8zm13.8-6.8c.5 3.8 1.2 4.8 5.2 4.2 7.6-1.1 11.8-7.1 10.4-16.3-1.3-9.2-6.9-13.8-14.6-12.7-4 .6-4.3 1.7-3.8 5.5l2.8 19.3zM339.3 98.1c4.1.5 4.8-1.3 5.5-6.4l2.1-14.7c.7-5.1.7-7-3.4-7.7l.7-4.7 31.7 4.6 3.5 12.3-3.8 1.3c-3.1-6.4-7.5-10.1-13.4-10.9-3.8-.6-4.5.5-5 4.2l-.8 5.5 1.8.3c4 .6 5.2-.5 6.1-5.2l4 .6-2.5 17.2-4-.6c.1-4.5-1.2-6.8-4.3-7.2l-1.8-.3-1.3 8.9c-.5 3.7-.2 4.9 3.7 5.4 5.6.8 12.2-1.9 17.4-8.1l3.3 2.5-7.7 12.3-32.5-4.8.7-4.5zM399.1 115l1.9-4.3c3.9 1.6 4.9 0 7-4.8l6-13.6c2.1-4.7 2.6-6.5-1.2-8.3l1.9-4.3 17.4 7.6-1.9 4.3c-3.9-1.6-4.9 0-7 4.7l-6.7 15.2c-1.5 3.5-1.4 4.7 2.2 6.3 4.8 2.1 11 1 17.1-3.7l2.7 3.3-10.6 10.1-28.8-12.5zM497 143.3c-4.7 5.8-10.7 5.6-18.3-.5l-5.5-4.4-2.5 3.1c-3.2 4-4.2 5.7-1 8.4l-3 3.7-14.8-12 3-3.7c3.3 2.5 4.8 1.3 8-2.7l9.3-11.6c3.2-4 4.1-5.7 1-8.4l3-3.7 16.3 13.2c7.9 6.3 9.3 12.6 4.5 18.6zm-19.3-7.5c4.9 4 8.8 4.2 11.6.7 2.5-3.1 1.9-6.7-1.8-9.7-2.6-2.1-3.8-1.5-6.1 1.3l-5.2 6.4c.6.5 1.1.9 1.5 1.3zM499.9 178c2.5 3.4 4.2 2.6 8.4-.4l12.2-8.5c4.2-2.9 5.6-4.3 3.3-7.8l3.9-2.7 10.9 15.6-3.8 2.7c-2.5-3.4-4.2-2.6-8.4.4l-3.1 2.2 8.2 11.7 3.1-2.2c4.2-2.9 5.6-4.3 3.3-7.8l3.8-2.7 10.9 15.6-3.9 2.7c-2.5-3.4-4.2-2.6-8.4.4l-12.2 8.5c-4.2 2.9-5.6 4.3-3.3 7.8l-3.9 2.7-10.9-15.6 3.8-2.7c2.5 3.4 4.2 2.6 8.4-.4l5.3-3.7-8.2-11.7-5.3 3.7c-4.2 2.9-5.6 4.3-3.3 7.8l-3.8 2.7-10.9-15.6 3.9-2.7zM569.2 243.5c-1.6-3.9-3.5-3.5-8.3-1.7l-13.9 5.3c-4.8 1.8-6.4 2.8-5.1 6.8l-4.4 1.7-6.8-17.8 4.4-1.7c1.6 3.9 3.5 3.4 8.3 1.6l13.9-5.3c4.8-1.8 6.5-2.8 5.1-6.7l4.4-1.7 6.8 17.8-4.4 1.7zM544.3 276.5l4.7-.6c1 4.1 3.4 4.6 7.4 5.7l28.5 7.7 1.1 8.7-27 14.7c-3.1 1.7-4.6 2.6-4.5 6.1l-4.7.6-2.5-18.9 4.6-.6v.4c.3 2.6 1.1 3.8 2.7 3.6.6-.1 1.1-.3 1.7-.6l5-2.7-1.6-12.2-5.5-1c-.4-.1-.9-.1-1.3-.1-1.8.2-2.4 1.8-2.1 4.7l-4.6.6-1.9-16.1zm21.6 21.4l10.8-5.3-11.9-2.9 1.1 8.2z"/></g><g><path class="st0" d="M440.9 349.6c-4.3 0-7.5 1.9-10 4.6-.3-.6-.5-1.2-.8-1.7l-2.1-4.1-29.9 8.8v16.4h5.5c.5 0 .8.1.9 0 .3.5.7 2 .7 7v19l-5.5.8v18h41.4v-18l-5.4-.8V394c0-3.2.7-9.3 1.5-12.9 1.5.5 3.4.8 5.4.8 7.4 0 12.6-6.7 12.6-16.2.1-9.6-5.7-16.1-14.3-16.1z"/><path class="st0" d="M492.8 368.7c-.4-1.4-.5-1.9-.5-2.6 0-4.9-2-16.3-20.1-16.3-10 0-29.7 7.7-29.7 25.6 0 6.6 2 11.4 4.8 15-3.9 2.3-6.4 6.8-6.4 12.4 0 6.4 3.2 17.2 24.9 17.2 18.6 0 29.2-9.6 29.2-26.4.1-16-1.3-21.3-2.2-24.9zM274 272.5c-1.1-1.3-2.8-2.1-4.5-2.1-2.7 0-4.9 1.7-7.5 4.5-8.8 9.3-20.8 14.3-34.5 14.3-18 0-37-8.3-52.1-22.7-1.2-1.2-2.8-1.8-4.4-1.8-7.4 0-9.3 11.8-9.3 12V336l4.7.7c17.9 2.6 33.3 2.1 47.4-1.7-15.2 13.6-49.4 50.6-48.9 85.8.1 6.5 4.1 7.2 5.8 7.2 2.2 0 3.6-1.1 4.5-1.9.3-.2.6-.5.9-.7 4.9-3.6 12.8-5.7 21.7-5.7 7.4 0 14.7 1.5 20.1 4.1 1 .5 2.2 1 3.7 1 1.7 0 3.3-.7 4.4-1.9 1.9-2.1 1.7-4.7 1.5-6.4-2.5-25.6 3.1-53.5 14-69.6l1.6-2.4c9.3-13.7 28.6-42.3 32.2-65.9.4-2.6 0-4.6-1.3-6.1zM411.7 385.8l-.3-4.5c-.2-3-.6-5.8-1.3-8.4l-.2-5.2-1 1.5c-4.5-12.1-14.5-19.6-27.3-19.6-19.2 0-32.6 15.2-32.6 36.9 0 16.7 9.8 33.5 31.5 33.5 12.5 0 23.9-6.3 29.9-16.4l.8-1.4-.6-16.1 1.1-.3zm-23.3 10.4c-2.1 0-3.5-1.3-4.4-2.9l10.6-2.9c-3 3.6-5.3 5.6-6.2 5.8z"/><path class="st0" d="M340.2 333.3c-1.1-1.5-2.3-3.3-3.3-4.8 9.4-1.9 17.7-9.3 17.7-21.8 0-19.6-16.2-34.3-37.7-34.3-43.2 0-69.1 30.7-69.1 82 0 46.6 21.4 73.3 58.6 73.3 30.2 0 51.3-22.1 51.3-53.7.1-15.8-10.5-30.8-17.5-40.7z"/><g><path class="st1" d="M388.5 401.8c-6.7 0-10.7-6.1-11.3-12.3l28.8-7.8c-.8-14.1-9-26.5-24.3-26.5-16.3 0-27.1 12.7-27.1 31.4 0 14.6 8.4 27.9 26 27.9 10.1 0 19.9-4.8 25.1-13.7L400 394c-2.7 4.4-6 7.8-11.5 7.8zm-12.7-26.6c0-4.3 0-12.3 4.7-12.3 4.4 0 5.5 6.7 5.5 10.4 0 4.4-2.1 5.5-5.1 6.3l-5.1 1.4v-5.8z"/><path class="st1" d="M435.8 412.9h-30.4v-7.7l5.5-.8v-23.8c0-8.5-1.1-12.6-7.2-12.6v-6.7l21.6-6.3c2.5 4.8 3.2 10.3 3.6 15.7h.2c2.2-6.5 4.9-15.6 11.9-15.6 6.2 0 8.9 4.8 8.9 10.6 0 5.9-2.6 10.7-7.1 10.7-3.1 0-5.7-1.3-7.2-1.8-3.9-1.3-5.2 15.8-5.2 19.4v10.4l5.4.8v7.7z"/><path class="st1" d="M486.9 366.2c0 4.7-4.1 7.1-8.4 7.1-5.2 0-8.9-4.2-9.9-9.3-2.2 0-3.8 1.1-3.8 4.9 0 8.8 24.9 2.5 24.9 24.8 0 16.7-12.1 20.9-23.7 20.9-7.1 0-19.4-.9-19.4-11.7 0-4.9 2.7-8.6 7.6-8.6 7.5 0 8.8 6.9 10.1 11.8.4 1.3 1.5 1.5 2.5 1.5 4 0 6.9-1.6 6.9-4.3 0-10-25.5-6.1-25.5-27.9 0-13.8 16.3-20 24.2-20 8.9 0 14.5 3 14.5 10.8M316.9 329.5c-9.7 0-19.6 3.9-24.8 12h-.4.2l1-14c.6-9.5 2.7-35.3 15.9-35.3 6.3 0 4.9 8.4 5.6 12.2 1.7 8.9 5.6 19.2 17.9 19.2 8.3 0 17.1-5.5 17.1-16.8 0-17.4-14.5-28.8-32.2-28.8-45.3 0-63.5 34.6-63.5 76.5 0 36.4 14.1 67.8 53.1 67.8 25.3 0 45.8-18 45.8-48.2-.2-25.6-13.7-44.6-35.7-44.6zM303.4 408c-10.8 0-10.4-13.9-10.4-29.9 0-16 1.5-29.8 10.4-29.8 10.9 0 11.4 13.8 11.4 29.8.1 16-2.2 29.9-11.4 29.9z"/><path d="M167.2 277.2v54c30.2 4.5 66.3 1.5 91.9-35.8 1.1-1.6 1.7-.5 1 .9-7.1 14.5-24 27.9-38.6 39.4-14 11-51.6 50.4-51.1 85.1 0 2.7.1 1.9 2.5.2 11.4-8.5 33.7-8.7 47.4-2.2 1.9.9 2.1.6 1.8-1.8-2.6-26.9 3.4-56.2 14.9-73.3 7.9-11.8 29.3-42.2 33-66 .4-2.5-.9-2.1-4 1.2-24.2 25.6-67.9 24.9-96.2-2.1-1.7-1.9-2.5-1.1-2.6.4" fill="#ed174c"/></g></g><g><ellipse transform="rotate(-76.791 219.639 244.797)" class="st0" cx="219.6" cy="244.8" rx="51.8" ry="51.8"/><path class="st1" d="M219.6 194.9l1.7 5.5h5.9l-4.8 3.4 1.7 5.4-4.5-3.3-4.7 3.3 1.8-5.4-4.8-3.4h5.9zM254 215l1.8 5.4h5.9l-4.8 3.5 1.7 5.4-4.6-3.3-4.6 3.3 1.8-5.4-4.8-3.5h5.9zM239.2 199.5l1.8 5.4h5.9l-4.8 3.5 1.7 5.4-4.5-3.3-4.6 3.3 1.7-5.4-4.8-3.5h5.9zM259.7 233.9l1.7 5.5h5.9l-4.8 3.5 1.8 5.4-4.6-3.3-4.6 3.3 1.7-5.4-4.7-3.5h5.8zM257.2 254l1.8 5.5h5.8l-4.7 3.5 1.7 5.4-4.6-3.4-4.6 3.4 1.7-5.5-4.7-3.4h5.9zM246.1 270l1.7 5.5h5.9L249 279l1.7 5.4-4.5-3.3-4.7 3.3 1.8-5.4-4.8-3.5h5.9zM228.7 279l1.8 5.5h5.8l-4.8 3.5 1.8 5.4-4.6-3.3-4.6 3.3 1.7-5.4-4.7-3.5h5.8zM184.5 213.2l-1.8 5.5h-5.8l4.7 3.4-1.7 5.4 4.5-3.3 4.7 3.3-1.8-5.4 4.8-3.4h-5.9zM198.9 199.5l-1.8 5.4h-5.8l4.7 3.5-1.7 5.4 4.6-3.3 4.6 3.3-1.7-5.4 4.7-3.5h-5.8zM177.7 231.5L176 237h-5.9l4.8 3.4-1.7 5.5 4.5-3.4 4.6 3.4-1.7-5.5 4.8-3.4h-5.8zM179.6 251.5l-1.8 5.5h-5.9l4.8 3.5-1.7 5.4 4.5-3.3 4.6 3.3-1.7-5.4 4.7-3.5h-5.8zM190.6 267.9l-1.7 5.5H183l4.8 3.5-1.8 5.4 4.6-3.4 4.7 3.4-1.8-5.4 4.7-3.5h-5.8zM208 278.3l-1.7 5.5h-5.9l4.8 3.5-1.7 5.4 4.5-3.3 4.7 3.3-1.8-5.5 4.8-3.4h-5.9z"/></g></svg>