<svg xmlns="http://www.w3.org/2000/svg" width="400" height="400"><path fill="#63727A" d="M371.762 27.346a2.85 2.85 0 0 0-2.242-1.086H153.349c-25.783.055-41.629 11.188-47.093 33.092L27.709 372.616a2.86 2.86 0 0 0 .517 2.456 2.86 2.86 0 0 0 2.254 1.098h235.447c13.523-.004 27.011-10.751 30.065-23.944l76.306-322.451a2.85 2.85 0 0 0-.536-2.429z"/><path d="M30.48 373.313h235.447c12.249 0 24.526-9.823 27.286-21.748L369.52 29.117H153.355c-20.047.042-38.262 6.61-44.329 30.93L30.48 373.313z"/><path fill="#63727A" d="M283.21 248.49H75.786l45.626-180.653c5.828-23.358 20.287-28.146 40.199-28.146h190.441l-43.62 188.695c-2.56 11.084-13.872 20.1-25.222 20.104zm-204.183-2.522H283.21c10.242 0 20.453-8.145 22.762-18.145l42.904-185.607H161.611c-22.748 0-32.979 7.108-37.75 26.236L79.027 245.968z"/><path fill="#FFF" d="M109.754 349.777l5.67 7.851h42.996l17.455-69.14h-17.622l-14.989 59.38H127.6l14.989-59.38h-22.194l-1.41 1.254 4.415 5.951zM111.058 312.72l4.211-16.668-5.671-7.86H74.322l-9.638 7.86-5.871 23.266 29.788 12.519-4.043 16.031H68.971l1.898-7.522-15.565-7.141-4.181 16.572 5.669 7.851H92.07l9.635-7.851 5.878-23.274-29.795-12.528 4.047-16.028h15.587l-1.937 7.681zM232.698 296.052l-5.669-7.86h-42.996l-17.453 69.142h17.619l14.993-59.387h15.665l-14.99 59.387h22.185l1.415-1.264-4.41-5.942zM287.207 312.72l4.207-16.668-5.669-7.86h-35.277l-9.635 7.86-5.878 23.266 29.799 12.519-4.051 16.031h-15.585l1.897-7.522-15.561-7.141-4.183 16.572 5.674 7.851h35.274l9.632-7.851 5.878-23.274-29.792-12.528 4.052-16.028h15.583l-1.942 7.681z"/><g><path fill="#BEC0C2" d="M55.304 333.205l6.382 9.65-1.396 5.526 3.204 4.339h24.897l5.029-3.898 8.285.955-9.635 7.851H56.792l-5.669-7.851z"/><path fill="#BEC0C2" d="M84.558 347.868l8.862.954 4.969-19.682-30.08-12.637 4.911-19.47-8.536-.981-5.871 23.266 29.788 12.519zM102.829 293.07H78.407l-5.187 3.963 8.615.914h15.587l-1.937 7.681 9.269-2.862 1.335-5.276zM231.454 333.205l6.379 9.65-1.395 5.526 3.203 4.339h24.897l5.024-3.898 8.289.955-9.632 7.851h-35.274l-5.674-7.851z"/><path fill="#BEC0C2" d="M260.703 347.868l8.859.954 4.973-19.682-30.081-12.637 4.915-19.47-8.536-.981-5.878 23.266 29.799 12.519zM278.977 293.07h-24.424l-5.184 3.963 8.62.914h15.583l-1.942 7.681 9.275-2.862 1.331-5.273zM118.985 289.742l13.795 3.352-13.956 55.287 3.254 4.375h28.681l7.661 4.872h-42.996l-5.67-7.851 13.646-54.084z"/><path fill="#BEC0C2" d="M158.253 288.488l7.652 4.582-15.146 59.686-7.495-4.888zM191.697 293.068l-7.664-4.876-17.453 69.142h17.619l-7.648-4.582zM209.674 352.728l13.96-55.287-3.255-4.373h-28.682l7.495 4.879h15.665l-14.99 59.387h22.185l1.415-1.264z"/></g><g><path fill="#FFF" d="M74.092 259.086l-.452.374 1.47 1.921-4.445 18.187h6.143l.452-.377-1.527-1.752 1.199-4.915 9.506-2.96 1.954-7.997-1.896-2.48H74.092zm8.331 8.303l-4.561 1.328 1.497-6.119 4.239-.007-1.175 4.798zM125.003 259.086h-4.545l-1.803 7.371-4.464 1.072 2.061-8.443h-6.122l-.455.374 1.47 1.921-4.441 18.186h4.545l1.979-8.1 4.441-.99-2.22 9.09h6.129l.45-.377-1.513-1.752zM150.307 259.086l-3.104 2.455-3.799 15.539 1.899 2.487h8.341l3.088-2.481 3.799-15.545-1.885-2.455h-8.339zm2.08 17.185h-4.238l3.366-13.783h4.234l-3.362 13.783zM231.294 261.541l-1.907-2.455h-11l-5.004 20.481h4.549l4.17-17.079h4.417l-4.173 17.079h6.127l.451-.377-1.516-1.752zM259.692 259.086h-6.125l-.453.374 1.468 1.921-4.442 18.186h6.13l.452-.377-1.512-1.752zM292.609 277.548l-2.433-8.002 8.102-10.46h-4.38l-4.708 6.325-1.611-6.325h-6.121l-.463.366 2.493 1.836 2.312 8.334-7.694 9.945h4.425l4.487-6.011 1.546 6.011h6.126l.459-.377zM189.659 276.271h-5.333l1.279-5.243 4.414-.004.828-3.377-4.416.004 1.263-5.163h4.985l1.255 1.798.481-.341 1.188-4.859h-13.198l-.454.374 1.467 1.921-4.441 18.186h11.956l1.169-4.795-.303-.333z"/></g><g><path fill="#F9A01B" d="M84.519 242.641l116.689-63.899-79.13 63.899 96.019-55.173-1.587 11.125 16.014-8.899 36.17 34.199 19.252-57.841 27.842-1.789-14.163-35.085 25.218-19.736-32.612-12.701 8.262-35.082-27.756 12.705-14.301-30.182-22.224 22.2-40.001-17.95-5.506 35.72-35.648 7.728 21.096 12.711-21.223 10.649 18.025 1.564-74.164 57.688 74.601-39.631-80.032 60.923 85.192-44.404-90.998 68.415 100.294-53.441z"/><path fill="#E56020" d="M298.051 129.69c-1.326 32.067-28.388 56.983-60.465 55.656-32.064-1.317-56.981-28.39-55.651-60.451 1.316-32.07 28.392-56.989 60.448-55.664 32.072 1.325 56.987 28.393 55.668 60.459z"/><path fill="#B95915" d="M247.106 177.424c-32.06-1.333-56.985-28.402-55.657-60.465.602-14.839 6.735-28.134 16.315-38.015-14.913 9.956-25.042 26.647-25.83 45.95-1.33 32.062 23.587 59.134 55.651 60.451 17.232.717 33.021-6.163 44.138-17.645a57.764 57.764 0 0 1-34.617 9.724z"/><path d="M298.076 127.966a57.744 57.744 0 0 0-.244-6.166c-3.344-2.341-7.345-4.119-12.057-4.727-.897-.111-1.751-.164-2.621-.229a72.136 72.136 0 0 0-2.589-11.254c.603.038 1.21.064 1.819.105 4.089.305 8.114.768 12.091 1.345a64.947 64.947 0 0 0-1.838-4.352 180.065 180.065 0 0 0-13.603-1.551h-.049a68.463 68.463 0 0 0-5.373-10.765c2.969-.614 5.617-1.824 7.766-3.854a60.265 60.265 0 0 0-3.424-3.206c-1.87 1.717-4.29 2.626-7.059 2.994-.425-.592-.847-1.192-1.291-1.765-3.95-5.135-8.504-9.521-13.52-13.09a57.87 57.87 0 0 0-13.703-2.224c-.257-.011-.519-.005-.779-.018 8.826 3.474 16.714 9.307 23.057 17.119-6.048-.581-13.018-2.611-19.915-4.632a359.683 359.683 0 0 0-5.969-1.725c-11.738-3.241-20.767-3.761-27.54-3.175a58.464 58.464 0 0 0-13.552 10.675c7.314-3.052 22.076-8.264 39.979-3.307 1.905.528 3.881 1.104 5.889 1.688 7.918 2.331 16.802 4.923 24.468 5.004a63.869 63.869 0 0 1 5.466 9.96c-1.506-.07-3.002-.12-4.502-.145-37.313-.64-69.303 10.528-87.057 28.336a58.29 58.29 0 0 0 1.21 10.364c5.007-7.19 12.423-13.681 21.992-19.064 18.058-10.149 42.023-15.492 67.489-15.052.874.013 1.759.052 2.632.083a65.424 65.424 0 0 1 2.855 11.404c-16.398.698-27.032 10.93-39.236 21.824-10.962 9.805-24.324 19.571-43.897 25.447a57.612 57.612 0 0 0 6.019 6.348c18.432-7.421 30.68-18.981 41.029-28.23 11.748-10.509 21.831-20.581 36.642-21.076.388 4.098.4 8.266.025 12.479-1.993 22.765-15.173 42.062-33.156 51.586a57.34 57.34 0 0 0 13.296-2.868 64.181 64.181 0 0 0 4.203-3.779c11.783-11.601 19.102-27.422 20.602-44.51a74.56 74.56 0 0 0 .024-12.704c.741.079 1.471.142 2.232.27 5.051.829 9.06 3.374 12.189 6.437z"/></g></svg>