<svg xmlns="http://www.w3.org/2000/svg" xmlns:xlink="http://www.w3.org/1999/xlink" width="400" height="400"><defs><path id="a" d="M48.364 26.5h304.161v347H48.364z"/></defs><clipPath id="b"><use xlink:href="#a" overflow="visible"/></clipPath><path clip-path="url(#b)" fill="#FFF" d="M352.524 26.5l-43.53 43.701-36.38-36.334-36.547 36.339-36.319-36.339-36.306 36.334-36.33-36.334L90.813 70.22l-42.45-42.849v193.501c0 84.155 67.514 152.628 151.62 152.628 84.124 0 152.541-68.473 152.541-152.628V26.5z"/><path clip-path="url(#b)" fill="#5C6670" d="M61.941 247.374c3.596 18.226 10.7 35.348 21.176 50.944 6.325-11.093 18.98-24.873 43.834-30.728-1.909-6.382-3.61-13.167-5.053-20.217H61.941zM93.034 311.43c26.859 31.479 65.535 49.626 106.309 49.893a130.862 130.862 0 0 1-11.226-6.453c-17.284-11.172-41.046-32.914-56.389-73.221-24.148 5.263-34.37 18.952-38.694 29.781M146.606 279.533c10.89 27.377 27.343 48.414 48.938 62.535 14.277 9.35 27.961 13.601 36.983 15.527 22.577-5.269 43.665-16.15 61.118-31.529-13.771-1.508-27.891-9.433-42.796-17.791-23.272-13.063-52.254-29.318-91.382-29.318-4.225 0-8.542.204-12.861.576"/><path clip-path="url(#b)" fill="#5B2B82" d="M205.441 176.167h-50.316v59.905h20.903V188.02h15.703v48.053h19.921v-51.515c-.001-4.564-2.79-8.391-6.211-8.391M220.459 176.167v51.39c0 4.574 2.766 8.516 6.177 8.516H276.902v-36.371l-20.069-.023v24.526h-15.696v-36.476h35.766v-11.562h-56.444zM99.495 176.167l-11.369 24.192H81.56v-24.192H60.754v59.905H81.56v-24.104h6.566l11.369 24.104h20.787l-14.661-29.909 14.661-29.996zM125.818 176.167h21.54v59.905h-21.54zM340.191 192.368v-16.201h-55.228v27.368c0 4.563 2.771 8.27 6.175 8.27h28.14v13.056h-34.314v11.212h55.255v-27.499c0-4.255-2.35-8.253-5.514-8.253h-29.013v-12.544h14.514v4.592h19.985zM281.438 115.411h-17.636l36.373-36.39-27.561-27.513-36.547 36.333-36.319-36.333-63.853 63.903H118.26l36.311-36.445-27.459-27.458-36.299 36.333-30.058-29.838V165.174h279.432V56.62z"/><path clip-path="url(#b)" fill="#FFF" d="M121.798 153.659a2.827 2.827 0 0 0 2.812 2.824h15.703v-4.219h-12.798V138.58h12.798v-4.209h-18.515v19.288zM96.198 134.37v22.112h5.712v-5.785h7.085v5.785h5.717v-19.294c0-1.655-1.329-2.818-3.14-2.818H96.198zm12.798 12.121h-7.086v-7.907h7.086v7.907zM327.004 134.37h-12.955a2.807 2.807 0 0 0-2.803 2.799v16.491c0 1.544 1.263 2.821 2.803 2.821h12.955c1.544 0 2.803-1.286 2.803-2.83v-16.482a2.805 2.805 0 0 0-2.803-2.799m-2.937 17.861h-7.061v-13.656h7.061v13.656zM70.577 144.716a2.822 2.822 0 0 0 2.816 2.813h9.981v4.733H70.577v4.219h18.515v-10.354a2.801 2.801 0 0 0-2.514-2.794l-.156-.014H76.284v-4.74h12.808v-4.209H70.577v10.346zM188.229 134.37h-15.693v22.112h5.717v-5.785h7.086v5.785h5.721v-19.294a2.833 2.833 0 0 0-2.831-2.818m-2.891 12.121h-7.086v-7.907h7.086v7.907zM286.339 138.574h6.411v17.907h5.704v-17.907h6.403v-4.204h-18.518zM227.07 134.37h-28.427v22.113h5.716v-17.901h7.009v17.901h5.793v-17.901h7.004v17.901h5.718v-19.299a2.826 2.826 0 0 0-2.813-2.814M277.73 134.37h-15.695v22.113h5.713v-17.901h7.086v17.901h5.717v-19.299a2.827 2.827 0 0 0-2.821-2.814M237.666 153.659a2.821 2.821 0 0 0 2.813 2.824h15.688v-4.219h-12.784v-4.74h12.784v-4.2h-12.784v-4.744h12.784v-4.209h-18.501v19.288zM162.351 148.437h3.057v-11.254c0-1.65-1.357-2.813-3.14-2.813h-15.376v22.112h5.712v-8.044h4.145l3.421 8.044h5.568l-3.387-8.045zm-2.661-4.205h-7.085v-5.652h7.085v5.652z"/><path clip-path="url(#b)" fill="#5C6670" d="M156.417 264.338c29.771-.605 59.212 6.849 96.78 28.257 27.768 15.822 39.968 20.621 48.294 18.572 7.672-1.887 14.788-6.419 27.344-32.956 4.792-10.129 8.234-22.135 9.907-30.83H136.771c1.406 6.118 2.787 12.203 4.634 17.801 4.889-.548 9.945-.844 15.012-.844"/></svg>