<svg version="1.1" id="Layer_1" xmlns="http://www.w3.org/2000/svg" x="0" y="0" width="400" height="400" xml:space="preserve"><style>.st1{fill:#fff}.st2{fill:#a0a0a3}</style><path d="M362 200c0 88.9-72.1 161-161 161S40 288.9 40 200 112.1 39 201 39s161 72.1 161 161" fill="#cd1141"/><path d="M201 352.6c-40.4 0-78.5-15.7-107.3-44.1-28.8-28.4-44.9-66.4-45.3-106.9-.4-40.8 15-79.3 43.5-108.4 28.5-29.1 66.7-45.4 107.4-45.9h1.7c40.4 0 78.5 15.7 107.3 44.1 28.8 28.4 44.9 66.4 45.3 106.9.4 40.8-15 79.3-43.5 108.4-28.5 29.1-66.7 45.4-107.4 45.9H201"/><path class="st1" d="M216 95.2l-5.3 5.3h-14.9l-5.3-5.3V65.7l5.3-5.3h14.8l5.3 5.3v29.5zm-15.5-26.1l-1.6 1.6v19.5l1.6 1.6h5.4l1.6-1.6V70.7l-1.6-1.6h-5.4zM302.2 164.7l-7.1-2.5-6.4-13.4 2.5-7.1 26.6-12.7 7.1 2.5 6.4 13.4-2.5 7.1-26.6 12.7zm16.8-25.2l-2.1-.7-17.5 8.4-.8 2.1 2.3 4.9 2.1.7 17.6-8.4.8-2.1-2.4-4.9zM137.1 117.5l.1 7.5-10.4 10.7-7.6.1-21.1-20.5-.1-7.6L108.4 97l7.6-.1 21.1 20.6zm-29.5-7.1v2.3l14 13.6h2.3l3.8-3.9v-2.3l-13.9-13.6h-2.3l-3.9 3.9zM270.7 77.4l-15.6 36.9-6.5-2.7-1.7-26.2-9.1 21.6-7-3 15.6-36.9 8.7 3.7.1 23 8.3-19.5zM167.5 85.8l-1.8 6.2 11.2 11-7.8 3.4-10.4-10-3.8 1.7 5.3 12.2-7.1 3.1-16-36.8 17.2-7.5 7.3 2.9 5.9 13.8zm-16.4 3.7l6.3-2.8c.1 0 .8-2.1.8-2.1l-2.2-5-2.1-.8-6.3 2.8 3.5 7.9zM302.1 113.3l-5.2-5.1-22.1 22.5-6-5.9 22.1-22.5-5.2-5.1 6-6.2 16.5 16.2zM88 136.2l-3 6.7 28.8 12.9-3.4 7.7-28.8-12.9-3 6.7-7.9-3.6 9.5-21zM308 238.7l-4 7.5-2.8-1.5-.8 1.5-2.4 4.8.7 2.1 3.9 2.1-.5-.3 2.2-.6 4.7-9 7.4-2.2 12.1 6.3 2.2 7.2-6.9 13.2-7.3 2.2-6-3.2 3.9-7.5 3.1 1.6 3.3-6.2-.7-2.2-3.2-1.7-2.2.7-4.6 8.8-7.5 2.3-12.1-6.3-2.4-7.4 6.9-13.2 7.3-2.1 5.7 3.1zM101.8 266.3l-6.3-1.3-10.2 11.9-3.9-7.5 9.2-11.1-1.9-3.7-11.8 6.1-3.6-6.9 35.6-18.5 8.7 16.6-2.4 7.4-13.4 7zM97 250.2l3.2 6.1c0 .1 2.2.7 2.2.7l4.8-2.5.7-2.2-3.2-6.1-7.7 4zM154.3 314.8l-5.8 13.9-7-2.9 15.4-37.1 17 7 2.8 7.3-5.6 13.5-5.6 3-11.2-4.7zm3-7.1l5.7 2.4 2.1-.9 2.1-5.1-.8-2.1-5.7-2.4-3.4 8.1zM215.2 307.9l-7.3.1.3 31.5-8.4.1-.3-31.5-7.3.1-.1-8.7 23-.2zM261.9 321l-3 6.9-13.9 5.3-6.9-3.1-10.5-27.6 3.1-6.9 13.9-5.3 6.9 3.1 10.4 27.6zm-23.8-18.9l-.9 2.1 6.9 18.2 2.1.9 5.1-1.9.9-2.1-6.9-18.2-2.1-.9-5.1 1.9zM291.3 282.2l.1 6.5 13.9 7.3-6.5 5.5L286 295l-3.1 2.7 8.6 10.1-5.9 5-26-30.6 14.3-12.1 7.8.7 9.6 11.4zm-14.6 8.2l5.3-4.5.2-2.2-3.5-4.2-2.2-.2-5.3 4.5 5.5 6.6zM121.2 315.1l-6.3-5.8 2.9-5.9-8.6-7.9-5.7 3.4-6.3-5.8 36.3-21.8 6.3 5.8-18.6 38zm.2-19l5.5-11.1-10.7 6.4 5.2 4.7z"/><g><path class="st2" d="M232.3 280.7c.1.2.2.4.3.4.4 0 1.3-.2 1.3-.2l.9-.4 2.5-1 6.3-3 1.1-.6.6-.3.7-.5 1.1-.7 1.3-.7 1.7-1.1 3-2.1 1.5-1.1 2.1-1.5 1.9-1.4.9-.7 1.3-1.2 1.3-1.3 2.1-2.3 2.5-2.4 2.8-3.3 1.6-2.1.5-.7 1.7-2.1 3.3-4.7.9-1.5 2.2-4.3 1.2-2.3 2.1-4.3 1.1-2.6 1.2-4s1.5-5.3 2.3-8c.1-.3.1-.6-.1-.9-.5-.6-.8-1.4-1.2-2.1-.2-.4-.5-.7-.7-1.1-.2-.3-.8-1-1-1.3-.2-.3-.5-.5-.8-.7-.7-.6-1.3-1.3-1.8-1.7-.3-.1-.5-.3-.8-.5-1.8-1.4-3.6-2.5-5.6-3.3-.8-.4-1.7-.7-2.6-1-.6-.2-1.6-.4-2.2-.6-.4-.1-.7-.1-.9.1-.3.2-.3.6-.3 1-.1 1.1-.2 2.3-.3 3.4-.1 1.1-.2 2.3-.3 3.4-.1 1-.1 2.1-.3 3.1-.2 1.4-.3 2.7-.6 4.1l-1.5 7.5c-.1.7-.2 1.4-.5 2-.5 1.1-.8 2.2-1 3.3-.5 2.4-1.3 4.6-2.1 6.9-.7 1.8-1.3 3.7-2.4 5.4-.1.1-.1.2-.2.4-.5 1.2-1 2.3-1.5 3.5-.3.7-.8 1.4-1.1 2.2-.4.9-.9 1.8-1.5 2.7-.9 1.4-1.8 2.7-2.6 4.1-.5 1-1.1 1.9-1.8 2.8-.2.2-.3.5-.5.7-.5.8-1 1.6-1.6 2.3-1.1 1.4-2.2 2.8-3.4 4.1-.7.8-1.5 1.6-2.3 2.4-.7.7-1.4 1.5-2.1 2.2-.1.2-.3.3-.5.4-.4.4-.9.7-1.2 1.1-.9.9-1.8 1.8-2.9 2.5-.5.3-.9.6-1.3 1-1.1 1.1-2.4 1.8-3.8 2.6M288.7 213.2s.1-.1.1-.2c0-.2.1-.6.1-.6l.6-5.5.4-5.1V195.9l-.6-5.8s-.7-5.2-1.2-7.9c-.2-1-.8-1.4-1.6-1.8-.3-.1-.5-.3-.8-.3l-1.8-.6c-1.3-.3-2.5-.8-3.9-1-1.6-.3-3.1-.4-4.7-.6-1.3-.1-2.6-.2-3.9-.2h-2.7c-.6 0-1.1 0-1.4.4-.3.3-.1 1 0 1.6.2 1.3.4 1.9.6 3.1.6 3.7 1.3 7.4 1.4 11.2.1 1.7.2 3.4.2 5.1v1.3c0 .3.1.6.2.8.1.2.4.3.7.4.3.1.6.1 1 .2.3.1.9.2 1.3.3 1.5.5 3.1 1 4.6 1.6 1 .4 2 1 3 1.5.1.1.2.1.3.2.6.4 1.2.9 1.7 1.3 1.4 1 2.8 2 3.8 3.4.2.3.4.5.7.7.4.4 1.1 1.7 1.6 2.3.1 0 .2.1.3.1M250 151.5c.5 0 1 0 1.4-.1.3 0 .6 0 .7-.4.1-.3-.1-.6-.2-.8-.1-.3-1.1-2-1.1-2l-1-1.5-4.1-5.9-.8-1-.8-1.1-1.3-1.5-3.3-3.6-1.4-1.4-5.1-4.7-4.2-3.2-1.5-.8-4.9-3-3.4-1.9-.7-.3-2.8-1-4.2-1.6-.3-.1-1.3-.3-.4-.1-1.2-.3-2.5-.5h-1.2l-2.2-.4-2.6-.2-.9-.1H197l-2.8.1-2.7.3h-2.1l-1.9.2-1.9.4-1.5.4-2.4.5h-.5l-2.2.8-1.3.4-.8.5-1.9.5-.9.5-1.1.7-2.9 1.2-3.6 1.4-1.2.6-2.5 1.4-2.2 1.4-2.1 1.1-.8.4-2.3 1.2-.4.2-2.6 2-2.1 1.4-.4.3-2.4 1.9-.9.7s-1.3 1.1-1.3 1.3l.9-.3 1.7-.6h.3l2.4-1h.3l2.6-1 1.4-.4 1.4-.5 1.9-.7 4.7-1.8h.4l2.4-.8 1.9-.8.3.2 3.7.1 2.4.2h.1l4.7.4 6.6.3v.2l2.3 2h.2l2.4 2.3.2-.1 3.3.1.2-.1 8.2.5v.2l3.6 2.1h.2l6.4 3.1v.3l3.7-1.4 5.4 1.8.9 1.5 2 .1 1.9 2.1h.2l1.5 1.7v.1h.2l4.2 1 1.6 2.4 3.9 1.4s4.2 1.1 6.3 1.3c2 .3 4.3.2 5.8.1M286.4 176.3c-.1-.6-.6-1.9-.6-1.9l-.2-.7-.2-.8-.7-2.1-.7-1.8-2-4.5-.9-2.2-1.1-2.5-1.4-2.2-.3-.6-.9-1.8-.9-1.4-.4-.5-5.8-7.9s-.6-.7-.9-1c-.1-.2-.2-.3-.4-.3 0 0-1.8 2.9-2.6 3.8-.7.8-2.3 2.2-2.3 2.2s-1.3 1-1.5 1.2c-.2.2-1.2.8-1.2.8l-1.3.8s-1 .5-1.2.5c-.2.1-.4.1-.5.3-.1.1-.1.2-.1.5 0 .2.1.3.2.5.5 1.1 1 2.3 1.6 3.4.9 1.6 1.5 3.4 2.2 5.1.2.6.5 1.1.7 1.7.5 1.5 1 3 1.4 4.5.2.7.4 1.3.6 2 .2.7.3 1.4.5 2 .1.4.4.7.9.6h1.3c1.6 0 3.1-.1 4.7-.1.4 0 3.6.3 3.6.3s1.1.1 1.7.2c1.2.2 2.4.5 3.6.7 1 .2 2 .6 3 1 .4.2.9.3 1.4.5.2 0 .4.1.4.1.3-.2.3-.3.3-.4"/><path class="st2" d="M265.9 141.4c0-.2-.5-.9-.5-.9l-.3-.5-.8-1-.6-.8-1.1-1s-.2-.2-.4-.3c-1.9-1.5-5.6-4.5-5.6-4.5l-1-.8-1.9-1.7-9.7-5.8-7.6-3.6-4.1-1.6-1.5-.5-5-1.7-3.5-.9-3.4-.7h-.5l-.3.3.1.1s.3.2.5.2c1.1.4 2.1.8 3.2 1.2l2.1.9c.5.1 1 .3 1.4.6 1.6.9 3.2 1.9 4.9 2.8 1 .6 1.9 1.3 2.7 2 .6.6 1.3 1.1 2 1.5.3.2.6.5.9.8.2.1.3.3.5.4.9.8 2 1.5 2.8 2.4.9 1 1.8 1.9 2.8 2.8.9.9 1.8 1.7 2.6 2.7.6.8 1.3 1.6 2 2.4 1.4 1.4 2.5 3 3.8 4.5.2.2.3.4.4.6.8 1.3 1.6 2.7 2.6 3.9.7.8 1.3 1.7 1.8 2.7.3.6.7 1.1 1.1 1.7.2.3.6.5.8.5.2 0 .5-.2.5-.2l.7-.3s.9-.4 1.2-.5c.3-.1.9-.5 1.1-.7.2-.2 1.1-.8 1.6-1.3s1.6-1.7 1.6-1.7l.7-1 1.3-2.2c-.1-.1.2-.6.1-.8M261.9 173.6c-.5-1.6-.9-3.1-1.5-4.7-.5-1.3-.8-2.6-1.4-3.9-.4-.7-.6-1.6-.8-2.4-.2-.4-.4-.8-.5-1.2-.7-2-1.7-3.7-2.7-5.6 0-.1-.1-.2-.2-.4s-.2-.3-.4-.5c-.2-.1-.4 0-.9 0-.8.1-1.9.2-2.3.2-.4 0-2 .1-3.3.2l-.3-.1H246l-4.2-.5c-1.5-.2-5-1.1-5-1.1l-2.6-.9-3.2-1.1-.2.1-4.9-.4-.2.1-2.8-2.1h-.3l-1.7-1.6-.1-.3-1.9-.3-.2.1-1.6-.5-.2-.2-3.6.3-3.3-1.3-11.4.6-.2-.1-2.1.2-.2.2-5.6.4-.2-.1-8 4.6-.1.3-.4.3-.2-.1-4-.4-.2.1h-7.1l-.2-.1-2-.1-.6-.4-7.4 5.8v.1l-2.6 2.1-2.9-1.4-.2.1-1.1-.3s-5.4 1.4-5.3 1.4l-5-.8-.3-.3-.9 1-2 1-.1.2-4 3.1-5.7 4.1-6.4 4.8-2.9 2.1-.1 1.2-1.2 2.8-.5 2.4-.8 4.9-.5 2.1-.2 2.5-.7 5.3-.3 11.5.3.7.2 3.2s0 .6.2.6l14.1-14.6 4.6-1.9 3.9-.2 2.4-2.7.2-.5.3.1 6.4-.7.3-.2h2.4l.4.1.8-1 2.9-1.8 3.1-2.1 8.6.1.1.2 3.4.3 2.6-.5 4.8-4.9h.1l3.8-3.6 5.7-.7.2-.2.3.2 3 1.4.2-.2 2.6-.3.1-.1 2.5-.4.2-.1 2.7 2.3.1-.2 5.5-.1.5-.3 4.4.2.2.1.7-.2.1-.2 1.8-.8h.2l2-.9.2-.2 2.2-.8.2-.3 6.1-2.3.1-.1 1.1-.3.2-.2.3.3 1.8.9h.5l2 1.1.1-.2.6-.3h.1l1-.5v-.1l1.4-.3 3.6.9.8-.2.7.4 2.7.4 2.6 1 1.5-.1.5.3.4-.2s5.1-.6 7.7-.8c1.7-.1 3.3-.3 5-.5.9-.1 1.9-.2 2.8-.3.3.1.6-.1.4-.7"/><path class="st2" d="M265.6 199.9c0-.4-.1-.6-.1-.9-.1-1-.1-2-.2-3 0-.3-.1-.7-.1-1-.1-1.2-.1-2.5-.2-3.7-.2-1.6-.4-3.1-.6-4.6l-.6-3.6c-.2-1.3-.4-2.4-.7-3.6-.3-1.3-.5-1.4-1.8-1.3-.1 0-.2 0-.3.1-.5.1-1.1.2-1.6.2-2.5.3-4.9.5-7.4.8l-7.2 2.5-10.4-.3-1.1-.4v.2l-3.1 2.3h-.4l-2.4 2.3-.1.3-6.2.8-5.7 4.4h-.6l-3 1.8-1.2.1-1.2 1-.3-.2-5.8-.4-1 1.1v.2l-5 5.5-.1.3h-.2l-6.4 7.3h-1.8l-.1.2-5.3.9h-.4s-.1.2-.1.3l-8.7 4.8-3.9-.5-.8.3-3.9-.2-3.8 4.1-2.3.5-1.3-.1-1.4.6-.8-.1v.2l-4.8 3.7-.5.1-7.5 5.8.1.3-4.6 11.2.2.5-7.6.7-2.5 2.2-.2.8 3.4 4.7 2.5 3.8 2.2 2.8 3.5 3.8s0 .3.1.3.5 0 .5.1l2.1.7 2.6.8s0 .1.1.1h.3l4.3 1.7h.3l.2.3h.4l1 .7 1.8-1h.1l.8-.5 6.5 1.6 4.8-2.4 10.6-1.1 4.4-7 1.9-1.9h.2l1.5-1.4v-.2l2.7-2.5 1.3-1.3.3-.2 1.5-1.5 1.2-1.2.3-.1-.3-1.1 1.2-4.5 2.4-.7.1-.1.7-.2v-.4l3.2-5.2.3-.1 1.3-2.6 2.2-1.2.3-.4.4.1 1.3-.7h.1l2.3-1 .2-.3 7.8-3.6h.5l.1-.4.3-.2.8-2.7 2.5-1.1 2.8-.3 2.6-1.8 3.7.2.4.3.2-.2 5.2-2.3v-.7l1.2-2.4 2.5-.7.1-.2 3.5-.7 1.3-1.6h.2l.8-.8 2.4.3.1.1 1.3.2.8.1s3.5-1.6 5-2.2l1.8-.6c.8-.3 1.6-.6 2.4-.8.4-.1.8-.2 1.2-.4l1.6-.3 1.9-.3 1.2-.1s.6-.1.8-.1c.2 0 .5 0 .8-.3.3-.2.2-.5.3-.7-.2-.5-.2-.6-.2-.9"/><path class="st2" d="M265.6 206.7c0-.3 0-.7-.2-1-.2-.2-.5-.3-.7-.3-.2 0-1.1.1-1.1.1l-1.5.2c-.2 0-.3.1-.5.1-.9.2-1.8.4-2.7.7-1 .3-2 .5-2.9 1-1 .4-2.1.8-3.1 1.3-.4.2-3.7 1.8-5.2 2.6l-2 2.1-.1.4-.3-.1-1.2.1-.1.1-4 1.3v.4l-.4.4v.3l-1.9 3.3h-.3v.3s-.4.6-.8 1.3l-8.4 5.4h-.2l-1.3 1.1-.9 3.5-.8.8-3.3 12.1.4 1.4-4.8 2.3h-.8l-.9 4.2-.2.1-1.2 3.8.1.2-.5 3.3-.2.2.2.3-4.7 7.4-.4.1-1.1 1.8v.4l-4 5.6-4.2 2.5.2.4-.2 1.7.4.6-.6.2-3 1.8-.3-.1-4.5 2.6-.5.8c0 .1 1.7.3 1.7.3l2.9.2 2 .1h6.8l6.2-.8 3.7-.7 2.8-.8 3-.9 3.9-1.5.3-.2 1.1-.6s3.1-1.7 4.5-2.7c2.4-1.8 4.8-3.6 7-5.7.8-.7 1.5-1.4 2.2-2.2l2.1-2.1c.1-.1.3-.2.3-.4.2-.6.7-1 1.1-1.4.3-.3.6-.6.8-.9.5-.8 1.2-1.3 1.8-1.9.5-.5 1-1 1.4-1.6.7-1 1.4-2.1 2.1-3.2.9-1.4 2-2.8 2.8-4.3.9-1.6 1.7-3.2 2.6-4.8.8-1.3 1.5-2.7 2.1-4.1 1-2.3 2-4.7 2.9-7 1-2.5 1.7-5.1 2.4-7.7.5-1.9.8-3.9 1.5-5.8.1-.2.1-.5.2-.8.3-1.6.5-3.2.8-4.8.2-1.5.4-3 .7-4.5.2-1 .3-2.1.4-3.1.1-1.4.2-2.9.2-4.3v-.5s.3-.1.4-.4"/></g></svg>