<svg xmlns="http://www.w3.org/2000/svg" width="400" height="400"><path fill="#8B8D8D" d="M200.494 39.525c-88.375 0-159.996 71.601-159.996 159.979 0 88.373 71.621 159.973 159.996 159.973 88.357 0 159.995-71.6 159.995-159.973 0-88.379-71.637-159.979-159.995-159.979"/><path fill="#CF0A2C" d="M354.55 198.93c0-82.785-70.82-154.018-153.619-154.018-82.771 0-154.491 71.616-154.491 154.401 0 76.001 60.421 143.08 134.349 153.593 6.24.77 12.593 1.178 19.04 1.187h.21a155.093 155.093 0 0 0 40.49-5.372C305.095 330.182 354.55 268.12 354.55 198.93z"/><path fill="#FFF" d="M354.35 191.459l-307.688.027c-.146 2.634-.222 5.28-.222 7.939 0 14.028 2.063 27.75 5.886 40.867 36.234 0 259.469-.021 296.322-.037 3.838-13.234 5.904-27.075 5.904-41.214a146.95 146.95 0 0 0-.202-7.582z"/><path fill="#0D2240" d="M180.763 352.945a156.978 156.978 0 0 0 19.04 1.188h.212a154.916 154.916 0 0 0 40.489-5.372c40.424-11.604 74.922-40.272 95.07-77.066H65.416c23.511 42.627 66.474 74.301 115.347 81.25z"/><g fill="#FFF"><path d="M199.776 79.338s-1.213-21.724-1.218-22.725c.007-.996 1.125-1.997 1.125-1.997-.77.011-3.761.226-6.92.338-.767.156-2.156.194-1.859 3.358l1.28 23.96 7.727-.412.562-.158c0 .003-.518-.874-.697-2.364M277.487 83.603l2.811-4.895-11.423-6.594s-.049-.036-.111-.064l-6.482-3.743c-.929-.538-1.594.169-1.824.533-.229.376-2.582 4.523-2.582 4.523l.004.001-1.043 1.839s1.578-1.53 3.389-.483l4.041 2.334-10.327 17.899 7.272 4.214s.028-1.187.688-2.534c0 0 5.719-9.949 9.055-15.715l3.117 1.797c1.798 1.038 1.739 3.857 1.739 3.857l1.676-2.969zM255.208 65.141l-10.635-3.691c-3.429-1.19-5.858-1.501-7.306-.959-1.442.546-2.679 2.309-3.711 5.299l-3.895 11.238c-.466 1.319-.751 2.422-.862 3.321-.221 1.75.179 3.109 1.19 4.056 1.001.955 2.87 1.908 5.621 2.863l4.802 1.662c3.466 1.205 5.925 1.525 7.354.976 1.438-.553 2.679-2.313 3.719-5.303 0 0 1.861-5.261 2.122-6.059.449-1.451-.639-2.376-1.252-2.587l-9.004-3.129c-1.058-.367-1.732.438-2.106 1.118-.363.684-1.696 4.532-1.696 4.532l-.472 1.197s1.018-1.001 2.367-.538l3.312 1.15c-.508 1.212-1.06 1.898-1.632 2.08-.521.185-1.611-.023-3.284-.606 0 0-1.164-.449-1.479-.638-.805-.515-1.155-1.184-1.049-2.033.06-.485.247-1.15.542-2.026l2.161-6.227c.578-1.665 1.171-2.594 1.779-2.792.614-.182 1.749.004 3.423.587l8.18 2.835c1.474.512 1.76 2.443 1.76 2.443l.571-1.633 1.452-4.2c.42-1.601-.59-2.457-1.972-2.936M173.672 57.29s2.44.781 2.851 2.68l.033.08 1.407 6.775-5.371 1.125c-1.582.327-1.914 1.893-1.914 1.893l-2.295-11.46-9.251 1.928s1.915.889 2.316 2.789l.038.08 4.877 23.51 5.405-1.115c1.06-.222 1.82-.469 2.015-1.295l-1.97-9.445 7.486-1.562 2.13 10.29 5.401-1.115c1.063-.22 1.829-.472 2.02-1.296l-5.397-25.898-9.781 2.036zM299.05 99.111c.777-1.583.822-3.027.116-4.318-.571-1.162-2.027-2.656-4.349-4.481l-3.985-3.141c-2.852-2.246-5.054-3.334-6.592-3.286-1.541.044-3.287 1.306-5.248 3.79l-7.339 9.356c-.864 1.098-1.488 2.053-1.886 2.867-.776 1.583-.854 2.988-.212 4.21.637 1.233 2.1 2.747 4.385 4.544l3.989 3.145c2.884 2.271 5.107 3.376 6.635 3.32 1.547-.048 3.288-1.312 5.247-3.798l7.352-9.351c.854-1.088 1.487-2.043 1.887-2.857m-9.631.142l-4.06 5.168c-1.1 1.414-2.003 2.084-2.73 2.058-.543.009-1.505-.544-2.905-1.644l.607.468c-.966-.761-1.552-1.282-1.786-1.562-.59-.747-.702-1.49-.325-2.261.217-.438.606-1.008 1.169-1.741l4.07-5.184c1.094-1.382 1.963-2.066 2.59-2.063.644.031 1.655.579 3.052 1.677l-.576-.443c.96.757 1.557 1.279 1.79 1.583.59.724.703 1.487.324 2.255-.209.429-.617.994-1.22 1.689M161.129 76.635c-1.759-3.373-5.43-4.528-9.16-2.975l-4.204 1.753c-1.514.632-2.578.516-3.176-.348a6.433 6.433 0 0 1-.198-.428c-.188-.629-.659-1.721 1.583-2.655l7.589-3.162c1.635-.683 4.122.95 4.122.95l-2.425-5.762c-.532-1.28-2.171-2.108-3.507-1.551l-9.293 3.872c-3.351 1.395-5.376 2.774-6.083 4.143-.707 1.36-.435 3.528.776 6.456l1.067 2.498c.163.375.358.731.579 1.052.853 1.232 2.04 2.054 3.581 2.469 1.83.471 3.924.207 6.29-.779l3.616-1.508c1.398-.583 2.411-.43 3.022.456.165.236.247.499.25.78 0 0 .413 1.266-2.47 2.466l-7.297 3.041c-1.634.555-3.998-.991-3.998-.991s1.5 3.571 2.426 5.762c.531 1.278 2.169 2.107 3.507 1.549l.723-.302 5.02-2.09 3.642-1.518c3.354-1.396 5.375-2.768 6.079-4.147.714-1.373.411-3.356-.802-6.265-.004-.001-.944-2.169-1.259-2.766M316.421 114.37l-1.31-1.646s.364 2.367-1.147 3.564l.042-.031-8.121 6.339 5.227-14.255c.124-.36.063-.706-.205-1.05-.592-.758-4.005-5.154-4.005-5.154l-1.406-1.778s.377 2.551-1.146 3.746l-18.976 14.846 3.395 4.351c.664.848 1.228 1.434 2.054 1.234 0 0 4.778-3.747 10.13-7.935l-4.821 12.487c-.856 1.988-2.201.805-2.201.805l.968 1.313.016-.004 3.378 4.332c.667.853 1.225 1.426 2.046 1.226l20.839-16.296-4.757-6.094zM221.36 56.297l-2.092-.215s1.946 1.396 1.742 3.313l.007-.052-1.156 10.237-6.522-13.713c-.172-.338-.46-.538-.896-.588-.957-.107-6.484-.746-6.484-.746l-2.255-.241s2.089 1.516 1.875 3.442l-2.681 23.94 5.483.625c1.069.121 1.883.126 2.319-.605 0 0 .667-6.032 1.425-12.786l5.542 12.184c.821 2.002-.964 2.134-.964 2.134l1.61.233.011-.016 5.457.619c1.075.121 1.878.121 2.31-.604l2.945-26.288-7.676-.873zM106.269 87.138l-.8.965-4.292 4.867c-.02.03-.027.047-.059.084-.583.661-.993 1.224-.944 1.832l10.922 16.848-15.394-8.321c-1.953-.79-1.135-2.928-1.135-2.928l-1.545 1.736-3.162 3.585c-.017.027-.023.046-.056.083-.801.905-1.199 1.817-.773 2.795l11.039 15.533-15.43-7.928c-2-1.028-1.134-3.253-1.134-3.253l-1.636 1.837-3.635 4.124a.326.326 0 0 1-.065.091c-.83.944-1.042 2.3-.235 2.961.114.102.045.067.045.067l23.959 11.225 5.624-6.378c.761-.863.983-1.333.627-2.248l-4.54-8.434 9.291 4.577 5.992-6.8c.742-.841.848-2.038.545-2.947l-12.74-21.307c-.819-1.45-.469-2.666-.469-2.666M119.512 79.293l-4.558 3.189c-.917.648-1.311 1.252-1.219 2.21l7.673 23.396c.494 1.461-1.292 4.112-1.292 4.112l8.003-5.6c.721-.503.891-1.356.638-2.165l-1.131-3.305 6.099-4.269 2.378 1.494c1.367 1.129.387 2.394.387 2.394l8.792-6.151-25.77-15.305zm5.685 15.379l-1.473-4.032 3.681 2.417-2.208 1.615zM75.408 142.897l3.611 11.11H90.7l-9.451 6.868 3.609 11.112-9.45-6.866-9.452 6.866 3.61-11.112-9.451-6.868h11.682zM325.582 144.377l-3.61 11.111h-11.683l9.453 6.868-3.613 11.11 9.453-6.866 9.45 6.866-3.611-11.11 9.451-6.868h-11.68z"/></g><g fill="#FFF"><path d="M201.278 316.521h-5.562c-1.123.004-1.792.275-2.269 1.113l-7.122 23.568c-.436 1.48-3.418 2.629-3.418 2.629h9.768c.88 0 1.508-.6 1.765-1.406l.969-3.358h7.44l1.095 2.589c.471 1.707-1.056 2.182-1.056 2.182h10.729l-12.339-27.317zm-3.92 16.003l1.188-4.125 1.546 4.125h-2.734zM240.304 336.589l-5.867-6.493c1.364-.318 2.462-1.066 2.868-1.744.663-1.103.694-3.201.121-6.3 0 0-1.102-5.428-1.32-6.274-.425-1.636-1.34-2.625-2.336-3.008-.978-.39-2.512-.4-4.59-.014l-19.347 3.638s2.45.907 2.861 2.747l4.3 23.614 5.394-1.003c1.071-.197 1.841-.413 2.049-1.243l-1.463-7.995 3.767-.75 6.516 7.917 9.649-1.788c-.005.001-1.675-.417-2.602-1.304m-10.534-15.812c.202.566.483 2.534.307 3.053-.168.511-.52.822-1.06.922l-4.462.882c-1.017.188-1.762 1.245-2.372 2.517l-1.315-7.129 7.241-1.397c.783-.144 1.345.231 1.661 1.152M262.012 304.111c-.791-1.514-1.897-2.259-2.943-2.415-1.042-.156-2.545.178-4.485 1.016l-18.222 7.889s2.535.451 3.427 2.052l8.436 19.47c.368 1.378-.143 2.865-.377 3.166l17.733-7.601c2.408-1.042 3.809-2.183 4.204-3.383.402-1.222-.034-3.276-1.286-6.17l-5.27-11.516c-.558-1.27-.814-1.731-1.217-2.508m-5.078 6.293c.325.509 4.827 10.566 4.773 11.104-.047.548-.319.935-.822 1.151l-6.979 3.021-4.09-9.406c-.252-.61-.884-2.048-1.592-3.659l6.829-2.956c.737-.319 1.365-.076 1.881.745M186.136 321.951l1.149-5.197s-20.214-4.431-20.495-4.459c-1.658-.185-2.3.89-2.721 2.225l-.802 3.642.016.004-.363 1.492s1.496-1.122 3.13-.883l9.3 2.052-15.578 13.104-.943 4.394 20.285 4.467c1.298.285 2.202.331 2.657-.979l1.459-6.711s-1.517 1.462-3.19 1.187l-9.829-2.165 15.925-12.173zM153.058 333.825s7.086-20.574 7.461-21.501c.38-.918 1.795-1.424 1.795-1.424-.716-.278-3.568-1.209-6.535-2.302-.769-.146-2.069-.632-2.989 2.406l-7.87 22.669 7.309 2.537.583.068c-.001.002-.148-1.007.246-2.453M151.787 307.938l-1.08-.637-5.486-3.468c-.031-.014-.05-.021-.091-.045-.747-.471-1.365-.785-1.959-.641l-12.068 11.746 4.416-14.187c.274-1.373 2.488-1.413 2.488-1.413l-1.958-1.248-4.042-2.555c-.029-.013-.05-.018-.09-.043-1.022-.646-1.983-.897-2.882-.321l-12.399 11.486 5.442-13.823c.698-2.141 3.035-1.637 3.035-1.637l-2.073-1.324-4.648-2.936a.443.443 0 0 1-.103-.05c-1.062-.671-2.435-.665-2.959.234-.082.129-.06.057-.06.057l-8.541 24.641 7.19 4.539c.974.619 1.471.764 2.319.269l7.607-5.818-3.048 9.896 7.664 4.844c.946.596 2.146.511 2.994.069l17.771-16.747c1.303-1.044 2.561-.888 2.561-.888M290.262 298.234c-2.421-2.932-6.253-3.304-9.579-1.009l-3.751 2.585c-1.352.93-2.413 1.038-3.179.315a7.407 7.407 0 0 1-.283-.377c-.314-.575-1.001-1.547 1-2.927l6.769-4.665c1.457-1.007 4.229.076 4.229.076s-2.21-3.182-3.568-5.134c-.785-1.143-2.561-1.613-3.754-.791l-8.286 5.716c-2.986 2.06-4.685 3.831-5.093 5.316-.41 1.472.307 3.54 2.1 6.153l1.561 2.222c.236.335.5.644.786.909 1.088 1.029 2.42 1.587 4.015 1.674 1.885.078 3.879-.612 5.991-2.067l3.225-2.223c1.246-.859 2.269-.923 3.05-.184.208.196.348.437.408.714 0 0 .664 1.152-1.904 2.924l-6.511 4.486c-1.483.883-4.115-.14-4.115-.14s2.21 3.184 3.571 5.131c.781 1.142 2.557 1.612 3.752.791l.644-.443 4.477-3.089 3.249-2.237c2.991-2.066 4.684-3.825 5.087-5.318.412-1.493-.296-3.371-2.085-5.965-.006.003-1.377-1.921-1.806-2.443"/></g><path fill="#8B8D8D" d="M294.876 148.4a107.853 107.853 0 0 0-26.045-31.643c-1.985-1.64-4.045-3.185-6.145-4.681-17.504-12.473-38.883-19.85-62.007-19.892h-.188c-57.341.004-104.196 44.998-107.158 101.626a107.462 107.462 0 0 0-.151 5.519v.187c.004 14.802 3.002 28.907 8.423 41.74a106.786 106.786 0 0 0 2.146 4.75 107.67 107.67 0 0 0 24.542 32.896 108.194 108.194 0 0 0 7.936 6.558c17.882 13.394 40.085 21.334 64.146 21.361h.147c12.955-.004 25.367-2.303 36.861-6.507 41.058-15.028 70.369-54.417 70.425-100.684v-.136c-.003-14.797-3.002-28.897-8.42-41.723a107.965 107.965 0 0 0-4.512-9.371"/><path fill="#FFF" d="M296.736 158.89a103.491 103.491 0 0 0-4.389-9.121 104.864 104.864 0 0 0-25.35-30.793c-1.93-1.597-3.935-3.1-5.979-4.557-17.031-12.14-37.84-19.318-60.347-19.359h-.184c-55.803.003-101.403 43.789-104.287 98.901a101.78 101.78 0 0 0-.146 5.371v.182c.003 14.407 2.922 28.132 8.2 40.617a103.01 103.01 0 0 0 2.086 4.625 104.806 104.806 0 0 0 23.884 32.015 104.749 104.749 0 0 0 7.725 6.385c17.403 13.031 39.011 20.76 62.428 20.785h.144c12.607-.004 24.688-2.236 35.874-6.331 39.953-14.625 68.479-52.959 68.538-97.986v-.132c-.005-14.396-2.92-28.12-8.197-40.602z"/><path fill="#0D2240" d="M180.987 151.633l2.422-8.807.573-2.053-11.116-6.228s-6.483-4.499-20.982 3.914c-16.975 10.009-30.785 22.955-37.934 36.689-3.956 7.609-7.098 16.367-8.721 26.327.506 18.848 6.455 36.335 16.371 50.926-2.827-27.162 23.417-56.917 43.968-77.237 10.85-10.848 15.419-23.531 15.419-23.531M249.23 138.457c-14.501-8.412-20.981-3.91-20.981-3.91l-11.111 6.224.566 2.057 2.423 8.808s4.567 12.681 15.42 23.527c20.487 20.259 46.646 49.893 43.995 76.988 9.963-14.757 15.874-32.458 16.217-51.522a87.208 87.208 0 0 0-8.594-25.481c-7.146-13.73-20.964-26.68-37.935-36.691"/><path fill="#CF0A2C" d="M214.357 122.175c38.099 4.304 63.136 25.924 76.063 45.101-9.729-27.673-31.862-49.495-59.736-58.805-6.148 1.817-12.962 5.637-16.327 13.704M186.756 122.175c-3.377-8.108-10.25-11.927-16.423-13.727-28.043 9.346-50.286 31.372-59.936 59.284 12.842-19.291 37.968-41.22 76.359-45.557M192.993 121.101l7.56-11.131 7.571 11.131c3.035-8.296 7.821-12.87 12.624-15.361a95.549 95.549 0 0 0-20.164-2.171 95.746 95.746 0 0 0-20.26 2.162c4.814 2.484 9.617 7.043 12.669 15.37"/><path fill="#0D2240" d="M200.557 153.434c-1.103.786-36.273 26.1-51.768 51.165-20.911 33.832-18.195 53.341-12.785 64.478 13.477 12.393 30.532 20.942 49.439 23.947l8.15-115.552 6.797-6.817.087-.09v.001l.008-.001.084.09 6.794 6.817 8.21 115.457-.107.058a94.91 94.91 0 0 0 49.769-24.171c5.329-11.179 7.852-30.641-12.905-64.215-15.494-25.068-50.67-50.38-51.773-51.167"/><path fill="#8B8D8D" d="M207.363 177.47l-6.794-6.814.081 130.777 14.81-8.447.004-.002.107-.056zM220.886 128.947c-4.136-.709-8.301-1.28-12.517-1.546l-2.979-.188-.059-.122-.063-.123-1.194-2.436-.075-.15v-.001l-3.445-7.002-1.11 2.258-2.219 4.511-.003.006-.095.188-.091.19-1.194 2.436-.1.206-.019.039-2.974.188c-4.214.266-8.381.837-12.516 1.546-1.838.312-3.686.59-5.499.99h.001-.001l5.845 3.148 5.845 3.152 1.805.972 1.808.975-1.098 3.958-.059.22-.504 1.829-3.254 11.819.002-.004v.004l7.406-5.464 5.022-3.703 1.481-1.093 1.479-1.092v-.061l.041.035.047-.035v.061l1.479 1.092 1.483 1.093 12.427 9.168-3.255-11.819-.282-1.023-.277-1.025-1.096-3.958 1.175-.633 2.439-1.313 7.89-4.254 3.798-2.047h-.003.003c-1.813-.402-3.658-.679-5.495-.992"/></svg>